G04 #@! TF.FileFunction,Copper,L2,Bot,Signal*
%FSLAX46Y46*%
G04 Gerber Fmt 4.6, Leading zero omitted, Abs format (unit mm)*
G04 Created by KiCad (PCBNEW (2016-05-05 BZR 6775)-product) date 2016 August 31, Wednesday 02:40:09*
%MOMM*%
%LPD*%
G01*
G04 APERTURE LIST*
%ADD10C,0.020000*%
%ADD11R,1.727200X2.032000*%
%ADD12O,1.727200X2.032000*%
%ADD13C,4.500000*%
%ADD14C,2.500000*%
%ADD15R,2.032000X1.727200*%
%ADD16O,2.032000X1.727200*%
%ADD17C,0.800000*%
%ADD18C,0.200000*%
%ADD19C,0.400000*%
%ADD20C,0.300000*%
G04 APERTURE END LIST*
D10*
D11*
X99060000Y-149899000D03*
D12*
X101600000Y-149899000D03*
X104140000Y-149899000D03*
X106680000Y-149899000D03*
X109220000Y-149899000D03*
X111760000Y-149899000D03*
X114300000Y-149899000D03*
X116840000Y-149899000D03*
D11*
X121920000Y-149899000D03*
D12*
X124460000Y-149899000D03*
X127000000Y-149899000D03*
X129540000Y-149899000D03*
X132080000Y-149899000D03*
X134620000Y-149899000D03*
D11*
X134620000Y-101639000D03*
D12*
X132080000Y-101639000D03*
X129540000Y-101639000D03*
X127000000Y-101639000D03*
X124460000Y-101639000D03*
X121920000Y-101639000D03*
X119380000Y-101639000D03*
X116840000Y-101639000D03*
D11*
X112776000Y-101639000D03*
D12*
X110236000Y-101639000D03*
X107696000Y-101639000D03*
X105156000Y-101639000D03*
X102616000Y-101639000D03*
X100076000Y-101639000D03*
X97536000Y-101639000D03*
X94996000Y-101639000D03*
X92456000Y-101639000D03*
X89916000Y-101639000D03*
D11*
X89916000Y-111799000D03*
D12*
X92456000Y-111799000D03*
X94996000Y-111799000D03*
X97536000Y-111799000D03*
X100076000Y-111799000D03*
X102616000Y-111799000D03*
X105156000Y-111799000D03*
X107696000Y-111799000D03*
D13*
X107520000Y-138450000D03*
X104120000Y-125900000D03*
X153620000Y-125900000D03*
D14*
X114370000Y-124400000D03*
X112870000Y-116900000D03*
X110370000Y-122900000D03*
X107870000Y-121400000D03*
X109870000Y-115900000D03*
X114120000Y-120400000D03*
X113370000Y-133900000D03*
X143370000Y-139400000D03*
X140370000Y-108900000D03*
X113120000Y-112400000D03*
X110370000Y-119400000D03*
X115870000Y-116900000D03*
X121370000Y-112900000D03*
X114870000Y-109650000D03*
X117870000Y-109900000D03*
X120120000Y-106650000D03*
X124120000Y-112400000D03*
X133120000Y-112900000D03*
X124120000Y-108650000D03*
D13*
X150220000Y-113400000D03*
X140620000Y-147700000D03*
X140620000Y-104100000D03*
X150220000Y-138450000D03*
D15*
X89870000Y-119670000D03*
D16*
X89870000Y-122210000D03*
X89870000Y-124750000D03*
X89870000Y-127290000D03*
X89870000Y-129830000D03*
X89870000Y-132370000D03*
X89870000Y-134910000D03*
X89870000Y-137450000D03*
X89870000Y-139990000D03*
X89870000Y-142530000D03*
X89870000Y-145070000D03*
X89870000Y-147610000D03*
X89870000Y-150150000D03*
D14*
X125370000Y-105100000D03*
X128870000Y-105800000D03*
D17*
X107120000Y-114900000D03*
X103120000Y-115900000D03*
X101120000Y-114900000D03*
X99120000Y-117900000D03*
X90620000Y-116400000D03*
X95120000Y-115400000D03*
X96120000Y-118400000D03*
X96120000Y-105400000D03*
X103620000Y-105400000D03*
X111120000Y-107900000D03*
X88620000Y-105400000D03*
X136120000Y-107900000D03*
X136120000Y-115400000D03*
X141120000Y-120400000D03*
X141120000Y-125400000D03*
X138620000Y-132900000D03*
X133620000Y-137900000D03*
X128620000Y-137900000D03*
X121120000Y-137900000D03*
X116120000Y-130400000D03*
X116120000Y-135400000D03*
X113620000Y-140400000D03*
X143620000Y-150400000D03*
X146120000Y-142900000D03*
X148620000Y-145400000D03*
X153620000Y-150400000D03*
X153620000Y-142900000D03*
X153620000Y-135400000D03*
X153620000Y-130400000D03*
X148620000Y-122900000D03*
X153620000Y-120400000D03*
X153620000Y-115400000D03*
X153620000Y-107900000D03*
X148620000Y-105400000D03*
X143620000Y-107900000D03*
X143620000Y-112900000D03*
X146120000Y-117900000D03*
X146120000Y-125400000D03*
X146120000Y-132900000D03*
X141120000Y-137900000D03*
X136120000Y-145400000D03*
X131120000Y-145400000D03*
X123620000Y-145400000D03*
X116120000Y-145400000D03*
X108620000Y-145400000D03*
X101120000Y-145400000D03*
X93620000Y-145400000D03*
X97620000Y-117150000D03*
X111120000Y-135400000D03*
X108620000Y-132900000D03*
X108620000Y-127900000D03*
X128620000Y-105150000D03*
D18*
X109620000Y-112400000D02*
X107120000Y-114900000D01*
X103120000Y-115900000D02*
X102120000Y-114900000D01*
X102120000Y-114900000D02*
X101120000Y-114900000D01*
X113120000Y-112400000D02*
X109620000Y-112400000D01*
X95120000Y-117400000D02*
X95120000Y-115400000D01*
X96120000Y-118400000D02*
X95120000Y-117400000D01*
X113120000Y-112400000D02*
X113120000Y-109900000D01*
X103620000Y-105400000D02*
X96120000Y-105400000D01*
X113120000Y-109900000D02*
X111120000Y-107900000D01*
X141120000Y-120400000D02*
X136120000Y-115400000D01*
X141120000Y-130400000D02*
X141120000Y-125400000D01*
X138620000Y-132900000D02*
X141120000Y-130400000D01*
X128620000Y-137900000D02*
X133620000Y-137900000D01*
X118620000Y-135400000D02*
X121120000Y-137900000D01*
X118620000Y-132900000D02*
X118620000Y-135400000D01*
X116120000Y-130400000D02*
X118620000Y-132900000D01*
X116120000Y-137900000D02*
X116120000Y-135400000D01*
X113620000Y-140400000D02*
X116120000Y-137900000D01*
X148620000Y-145400000D02*
X146120000Y-142900000D01*
X153620000Y-142900000D02*
X153620000Y-150400000D01*
X153620000Y-130400000D02*
X153620000Y-135400000D01*
X151120000Y-122900000D02*
X148620000Y-122900000D01*
X153620000Y-120400000D02*
X151120000Y-122900000D01*
X153620000Y-107900000D02*
X153620000Y-115400000D01*
X146120000Y-105400000D02*
X148620000Y-105400000D01*
X143620000Y-107900000D02*
X146120000Y-105400000D01*
X143620000Y-115400000D02*
X143620000Y-112900000D01*
X146120000Y-117900000D02*
X143620000Y-115400000D01*
X146120000Y-132900000D02*
X146120000Y-125400000D01*
X141120000Y-140400000D02*
X141120000Y-137900000D01*
X136120000Y-145400000D02*
X141120000Y-140400000D01*
X123620000Y-145400000D02*
X131120000Y-145400000D01*
X108620000Y-145400000D02*
X116120000Y-145400000D01*
X93620000Y-145400000D02*
X101120000Y-145400000D01*
D19*
X107870000Y-121400000D02*
X107370000Y-121900000D01*
X107370000Y-121900000D02*
X105870000Y-121900000D01*
X105870000Y-121900000D02*
X97536000Y-113566000D01*
X97536000Y-113566000D02*
X97536000Y-111799000D01*
X97620000Y-117715685D02*
X97620000Y-117150000D01*
X97620000Y-125150000D02*
X97620000Y-117715685D01*
X101669968Y-129199969D02*
X97620000Y-125150000D01*
X114370000Y-124400000D02*
X109570031Y-129199969D01*
X109570031Y-129199969D02*
X101669968Y-129199969D01*
X110370000Y-122900000D02*
X112070001Y-121199999D01*
X112070001Y-121199999D02*
X112070001Y-118583999D01*
X112070001Y-118583999D02*
X111086003Y-117600001D01*
X111086003Y-117600001D02*
X107320001Y-117600001D01*
X107320001Y-117600001D02*
X102616000Y-112896000D01*
X102616000Y-112896000D02*
X102616000Y-111799000D01*
X108194600Y-125150000D02*
X108194600Y-127474600D01*
X111120000Y-135400000D02*
X108620000Y-132900000D01*
X108620000Y-127900000D02*
X108194600Y-127474600D01*
X94996000Y-111951400D02*
X108194600Y-125150000D01*
X94996000Y-111799000D02*
X94996000Y-111951400D01*
X112870001Y-121649999D02*
X114120000Y-120400000D01*
X112870001Y-122916001D02*
X112870001Y-121649999D01*
X110636002Y-125150000D02*
X112870001Y-122916001D01*
X108194600Y-125150000D02*
X110636002Y-125150000D01*
X114870000Y-109650000D02*
X118620000Y-113400000D01*
X118620000Y-113400000D02*
X118620000Y-117061492D01*
X118620000Y-117061492D02*
X116319978Y-119361514D01*
X116319978Y-119361514D02*
X116319978Y-125611514D01*
X116319978Y-125611514D02*
X112081514Y-129849978D01*
X112081514Y-129849978D02*
X91305978Y-129849978D01*
X91305978Y-129849978D02*
X91286000Y-129830000D01*
X91286000Y-129830000D02*
X89870000Y-129830000D01*
X90022400Y-132370000D02*
X89870000Y-132370000D01*
X91892411Y-130499989D02*
X90022400Y-132370000D01*
X112350757Y-130499989D02*
X91892411Y-130499989D01*
X116969988Y-125880758D02*
X112350757Y-130499989D01*
X116969989Y-119630757D02*
X116969988Y-125880758D01*
X119270010Y-117330736D02*
X116969989Y-119630757D01*
X119270010Y-111300010D02*
X119270010Y-117330736D01*
X117870000Y-109900000D02*
X119270010Y-111300010D01*
X92620000Y-131150000D02*
X112620000Y-131150000D01*
X124120000Y-113400000D02*
X124120000Y-112400000D01*
X117620000Y-119900000D02*
X124120000Y-113400000D01*
X89870000Y-137450000D02*
X90070000Y-137450000D01*
X90070000Y-137450000D02*
X90370000Y-137150000D01*
X90370000Y-137150000D02*
X90370000Y-136900000D01*
X90370000Y-136900000D02*
X91620000Y-135650000D01*
X117620000Y-126150000D02*
X117620000Y-119900000D01*
X91620000Y-135650000D02*
X91620000Y-132150000D01*
X91620000Y-132150000D02*
X92620000Y-131150000D01*
X112620000Y-131150000D02*
X117620000Y-126150000D01*
X89870000Y-124750000D02*
X89717600Y-124750000D01*
X89717600Y-124750000D02*
X87870000Y-122902400D01*
X87870000Y-122902400D02*
X87870000Y-109900000D01*
X87870000Y-109900000D02*
X93870000Y-103900000D01*
X93870000Y-103900000D02*
X121120000Y-103900000D01*
X121120000Y-103900000D02*
X123620000Y-106400000D01*
X123620000Y-106400000D02*
X123637766Y-106400000D01*
X123637766Y-106400000D02*
X124120000Y-106882234D01*
X124120000Y-106882234D02*
X124120000Y-108650000D01*
X125370000Y-105100000D02*
X125370000Y-106740000D01*
X132210000Y-142530000D02*
X89870000Y-142530000D01*
X142240000Y-132500000D02*
X132210000Y-142530000D01*
X142240000Y-117260000D02*
X142240000Y-132500000D01*
X133985000Y-109005000D02*
X142240000Y-117260000D01*
X127635000Y-109005000D02*
X133985000Y-109005000D01*
X125370000Y-106740000D02*
X127635000Y-109005000D01*
X89870000Y-145070000D02*
X90300000Y-145070000D01*
X90300000Y-145070000D02*
X92189998Y-143180002D01*
X92189998Y-143180002D02*
X132479240Y-143180002D01*
X132479240Y-143180002D02*
X142890002Y-132769240D01*
X142890002Y-132769240D02*
X142890002Y-116990760D01*
X142890002Y-116990760D02*
X134254240Y-108354998D01*
X134254240Y-108354998D02*
X130159998Y-108354998D01*
X130159998Y-108354998D02*
X128870000Y-107065000D01*
X128870000Y-107065000D02*
X128870000Y-105800000D01*
D20*
G36*
X152488706Y-99512694D02*
X153324333Y-99764985D01*
X154095034Y-100174774D01*
X154771466Y-100726459D01*
X155327854Y-101399017D01*
X155743017Y-102166844D01*
X156001133Y-103000682D01*
X156094974Y-103893522D01*
X156095000Y-103900977D01*
X156095000Y-124819192D01*
X156015493Y-124626294D01*
X155722474Y-124185264D01*
X155349372Y-123809548D01*
X154910399Y-123513457D01*
X154422275Y-123308269D01*
X153903592Y-123201798D01*
X153374108Y-123198102D01*
X152853990Y-123297320D01*
X152363048Y-123495673D01*
X151919984Y-123785606D01*
X151541672Y-124156076D01*
X151242524Y-124592971D01*
X151033933Y-125079651D01*
X150923844Y-125597578D01*
X150916451Y-126127023D01*
X151012035Y-126647822D01*
X151206956Y-127140136D01*
X151493789Y-127585214D01*
X151861609Y-127966102D01*
X152296406Y-128268293D01*
X152781617Y-128480277D01*
X153298762Y-128593979D01*
X153828144Y-128605068D01*
X154349597Y-128513122D01*
X154843260Y-128321642D01*
X155290329Y-128037924D01*
X155673776Y-127672772D01*
X155978995Y-127240096D01*
X156095000Y-126979544D01*
X156095000Y-147874327D01*
X156007306Y-148768706D01*
X155755015Y-149604331D01*
X155345226Y-150375034D01*
X154793543Y-151051464D01*
X154120980Y-151607857D01*
X153353153Y-152023019D01*
X152519318Y-152281133D01*
X151626479Y-152374974D01*
X151619023Y-152375000D01*
X92145673Y-152375000D01*
X91251294Y-152287306D01*
X90415669Y-152035015D01*
X89644966Y-151625226D01*
X89395177Y-151421503D01*
X89437394Y-151434895D01*
X89692166Y-151463472D01*
X89710507Y-151463600D01*
X90029493Y-151463600D01*
X90284639Y-151438583D01*
X90530067Y-151364484D01*
X90756428Y-151244125D01*
X90955100Y-151082092D01*
X91118517Y-150884556D01*
X91240452Y-150659040D01*
X91316263Y-150414136D01*
X91343061Y-150159171D01*
X91319826Y-149903856D01*
X91247442Y-149657917D01*
X91128667Y-149430721D01*
X90968024Y-149230922D01*
X90771634Y-149066131D01*
X90546975Y-148942624D01*
X90359018Y-148883000D01*
X97744223Y-148883000D01*
X97744223Y-150915000D01*
X97752911Y-151003215D01*
X97778643Y-151088041D01*
X97820429Y-151166216D01*
X97876663Y-151234737D01*
X97945184Y-151290971D01*
X98023359Y-151332757D01*
X98108185Y-151358489D01*
X98196400Y-151367177D01*
X99923600Y-151367177D01*
X100011815Y-151358489D01*
X100096641Y-151332757D01*
X100174816Y-151290971D01*
X100243337Y-151234737D01*
X100299571Y-151166216D01*
X100341357Y-151088041D01*
X100367089Y-151003215D01*
X100375777Y-150915000D01*
X100375777Y-150526810D01*
X100385516Y-150559067D01*
X100505875Y-150785428D01*
X100667908Y-150984100D01*
X100865444Y-151147517D01*
X101090960Y-151269452D01*
X101335864Y-151345263D01*
X101590829Y-151372061D01*
X101846144Y-151348826D01*
X102092083Y-151276442D01*
X102319279Y-151157667D01*
X102519078Y-150997024D01*
X102683869Y-150800634D01*
X102807376Y-150575975D01*
X102870522Y-150376916D01*
X102925516Y-150559067D01*
X103045875Y-150785428D01*
X103207908Y-150984100D01*
X103405444Y-151147517D01*
X103630960Y-151269452D01*
X103875864Y-151345263D01*
X104130829Y-151372061D01*
X104386144Y-151348826D01*
X104632083Y-151276442D01*
X104859279Y-151157667D01*
X105059078Y-150997024D01*
X105223869Y-150800634D01*
X105347376Y-150575975D01*
X105410522Y-150376916D01*
X105465516Y-150559067D01*
X105585875Y-150785428D01*
X105747908Y-150984100D01*
X105945444Y-151147517D01*
X106170960Y-151269452D01*
X106415864Y-151345263D01*
X106670829Y-151372061D01*
X106926144Y-151348826D01*
X107172083Y-151276442D01*
X107399279Y-151157667D01*
X107599078Y-150997024D01*
X107763869Y-150800634D01*
X107887376Y-150575975D01*
X107950522Y-150376916D01*
X108005516Y-150559067D01*
X108125875Y-150785428D01*
X108287908Y-150984100D01*
X108485444Y-151147517D01*
X108710960Y-151269452D01*
X108955864Y-151345263D01*
X109210829Y-151372061D01*
X109466144Y-151348826D01*
X109712083Y-151276442D01*
X109939279Y-151157667D01*
X110139078Y-150997024D01*
X110303869Y-150800634D01*
X110427376Y-150575975D01*
X110491476Y-150373907D01*
X110548305Y-150558713D01*
X110670559Y-150785355D01*
X110834680Y-150983792D01*
X111034360Y-151146397D01*
X111261926Y-151266922D01*
X111508633Y-151340736D01*
X111549571Y-151348035D01*
X111755000Y-151252490D01*
X111755000Y-149904000D01*
X111765000Y-149904000D01*
X111765000Y-151252490D01*
X111970429Y-151348035D01*
X112011367Y-151340736D01*
X112258074Y-151266922D01*
X112485640Y-151146397D01*
X112685320Y-150983792D01*
X112849441Y-150785355D01*
X112971695Y-150558713D01*
X113030000Y-150369107D01*
X113088305Y-150558713D01*
X113210559Y-150785355D01*
X113374680Y-150983792D01*
X113574360Y-151146397D01*
X113801926Y-151266922D01*
X114048633Y-151340736D01*
X114089571Y-151348035D01*
X114295000Y-151252490D01*
X114295000Y-149904000D01*
X111765000Y-149904000D01*
X111755000Y-149904000D01*
X111735000Y-149904000D01*
X111735000Y-149894000D01*
X111755000Y-149894000D01*
X111755000Y-148545510D01*
X111765000Y-148545510D01*
X111765000Y-149894000D01*
X114295000Y-149894000D01*
X114295000Y-148545510D01*
X114305000Y-148545510D01*
X114305000Y-149894000D01*
X114325000Y-149894000D01*
X114325000Y-149904000D01*
X114305000Y-149904000D01*
X114305000Y-151252490D01*
X114510429Y-151348035D01*
X114551367Y-151340736D01*
X114798074Y-151266922D01*
X115025640Y-151146397D01*
X115225320Y-150983792D01*
X115389441Y-150785355D01*
X115511695Y-150558713D01*
X115569073Y-150372120D01*
X115625516Y-150559067D01*
X115745875Y-150785428D01*
X115907908Y-150984100D01*
X116105444Y-151147517D01*
X116330960Y-151269452D01*
X116575864Y-151345263D01*
X116830829Y-151372061D01*
X117086144Y-151348826D01*
X117332083Y-151276442D01*
X117559279Y-151157667D01*
X117759078Y-150997024D01*
X117923869Y-150800634D01*
X118047376Y-150575975D01*
X118124895Y-150331606D01*
X118153472Y-150076834D01*
X118153600Y-150058493D01*
X118153600Y-149739507D01*
X118128583Y-149484361D01*
X118054484Y-149238933D01*
X117934125Y-149012572D01*
X117828449Y-148883000D01*
X120604223Y-148883000D01*
X120604223Y-150915000D01*
X120612911Y-151003215D01*
X120638643Y-151088041D01*
X120680429Y-151166216D01*
X120736663Y-151234737D01*
X120805184Y-151290971D01*
X120883359Y-151332757D01*
X120968185Y-151358489D01*
X121056400Y-151367177D01*
X122783600Y-151367177D01*
X122871815Y-151358489D01*
X122956641Y-151332757D01*
X123034816Y-151290971D01*
X123103337Y-151234737D01*
X123159571Y-151166216D01*
X123201357Y-151088041D01*
X123227089Y-151003215D01*
X123235777Y-150915000D01*
X123235777Y-150526810D01*
X123245516Y-150559067D01*
X123365875Y-150785428D01*
X123527908Y-150984100D01*
X123725444Y-151147517D01*
X123950960Y-151269452D01*
X124195864Y-151345263D01*
X124450829Y-151372061D01*
X124706144Y-151348826D01*
X124952083Y-151276442D01*
X125179279Y-151157667D01*
X125379078Y-150997024D01*
X125543869Y-150800634D01*
X125667376Y-150575975D01*
X125730522Y-150376916D01*
X125785516Y-150559067D01*
X125905875Y-150785428D01*
X126067908Y-150984100D01*
X126265444Y-151147517D01*
X126490960Y-151269452D01*
X126735864Y-151345263D01*
X126990829Y-151372061D01*
X127246144Y-151348826D01*
X127492083Y-151276442D01*
X127719279Y-151157667D01*
X127919078Y-150997024D01*
X128083869Y-150800634D01*
X128207376Y-150575975D01*
X128270522Y-150376916D01*
X128325516Y-150559067D01*
X128445875Y-150785428D01*
X128607908Y-150984100D01*
X128805444Y-151147517D01*
X129030960Y-151269452D01*
X129275864Y-151345263D01*
X129530829Y-151372061D01*
X129786144Y-151348826D01*
X130032083Y-151276442D01*
X130259279Y-151157667D01*
X130459078Y-150997024D01*
X130623869Y-150800634D01*
X130747376Y-150575975D01*
X130810522Y-150376916D01*
X130865516Y-150559067D01*
X130985875Y-150785428D01*
X131147908Y-150984100D01*
X131345444Y-151147517D01*
X131570960Y-151269452D01*
X131815864Y-151345263D01*
X132070829Y-151372061D01*
X132326144Y-151348826D01*
X132572083Y-151276442D01*
X132799279Y-151157667D01*
X132999078Y-150997024D01*
X133163869Y-150800634D01*
X133287376Y-150575975D01*
X133350522Y-150376916D01*
X133405516Y-150559067D01*
X133525875Y-150785428D01*
X133687908Y-150984100D01*
X133885444Y-151147517D01*
X134110960Y-151269452D01*
X134355864Y-151345263D01*
X134610829Y-151372061D01*
X134866144Y-151348826D01*
X135112083Y-151276442D01*
X135339279Y-151157667D01*
X135539078Y-150997024D01*
X135703869Y-150800634D01*
X135827376Y-150575975D01*
X135904895Y-150331606D01*
X135933472Y-150076834D01*
X135933600Y-150058493D01*
X135933600Y-149739507D01*
X135908583Y-149484361D01*
X135834484Y-149238933D01*
X135714125Y-149012572D01*
X135552092Y-148813900D01*
X135354556Y-148650483D01*
X135129040Y-148528548D01*
X134884136Y-148452737D01*
X134629171Y-148425939D01*
X134373856Y-148449174D01*
X134127917Y-148521558D01*
X133900721Y-148640333D01*
X133700922Y-148800976D01*
X133536131Y-148997366D01*
X133412624Y-149222025D01*
X133349478Y-149421084D01*
X133294484Y-149238933D01*
X133174125Y-149012572D01*
X133012092Y-148813900D01*
X132814556Y-148650483D01*
X132589040Y-148528548D01*
X132344136Y-148452737D01*
X132089171Y-148425939D01*
X131833856Y-148449174D01*
X131587917Y-148521558D01*
X131360721Y-148640333D01*
X131160922Y-148800976D01*
X130996131Y-148997366D01*
X130872624Y-149222025D01*
X130809478Y-149421084D01*
X130754484Y-149238933D01*
X130634125Y-149012572D01*
X130472092Y-148813900D01*
X130274556Y-148650483D01*
X130049040Y-148528548D01*
X129804136Y-148452737D01*
X129549171Y-148425939D01*
X129293856Y-148449174D01*
X129047917Y-148521558D01*
X128820721Y-148640333D01*
X128620922Y-148800976D01*
X128456131Y-148997366D01*
X128332624Y-149222025D01*
X128269478Y-149421084D01*
X128214484Y-149238933D01*
X128094125Y-149012572D01*
X127932092Y-148813900D01*
X127734556Y-148650483D01*
X127509040Y-148528548D01*
X127264136Y-148452737D01*
X127009171Y-148425939D01*
X126753856Y-148449174D01*
X126507917Y-148521558D01*
X126280721Y-148640333D01*
X126080922Y-148800976D01*
X125916131Y-148997366D01*
X125792624Y-149222025D01*
X125729478Y-149421084D01*
X125674484Y-149238933D01*
X125554125Y-149012572D01*
X125392092Y-148813900D01*
X125194556Y-148650483D01*
X124969040Y-148528548D01*
X124724136Y-148452737D01*
X124469171Y-148425939D01*
X124213856Y-148449174D01*
X123967917Y-148521558D01*
X123740721Y-148640333D01*
X123540922Y-148800976D01*
X123376131Y-148997366D01*
X123252624Y-149222025D01*
X123235777Y-149275133D01*
X123235777Y-148883000D01*
X123227089Y-148794785D01*
X123201357Y-148709959D01*
X123159571Y-148631784D01*
X123103337Y-148563263D01*
X123034816Y-148507029D01*
X122956641Y-148465243D01*
X122871815Y-148439511D01*
X122783600Y-148430823D01*
X121056400Y-148430823D01*
X120968185Y-148439511D01*
X120883359Y-148465243D01*
X120805184Y-148507029D01*
X120736663Y-148563263D01*
X120680429Y-148631784D01*
X120638643Y-148709959D01*
X120612911Y-148794785D01*
X120604223Y-148883000D01*
X117828449Y-148883000D01*
X117772092Y-148813900D01*
X117574556Y-148650483D01*
X117349040Y-148528548D01*
X117104136Y-148452737D01*
X116849171Y-148425939D01*
X116593856Y-148449174D01*
X116347917Y-148521558D01*
X116120721Y-148640333D01*
X115920922Y-148800976D01*
X115756131Y-148997366D01*
X115632624Y-149222025D01*
X115568524Y-149424093D01*
X115511695Y-149239287D01*
X115389441Y-149012645D01*
X115225320Y-148814208D01*
X115025640Y-148651603D01*
X114798074Y-148531078D01*
X114551367Y-148457264D01*
X114510429Y-148449965D01*
X114305000Y-148545510D01*
X114295000Y-148545510D01*
X114089571Y-148449965D01*
X114048633Y-148457264D01*
X113801926Y-148531078D01*
X113574360Y-148651603D01*
X113374680Y-148814208D01*
X113210559Y-149012645D01*
X113088305Y-149239287D01*
X113030000Y-149428893D01*
X112971695Y-149239287D01*
X112849441Y-149012645D01*
X112685320Y-148814208D01*
X112485640Y-148651603D01*
X112258074Y-148531078D01*
X112011367Y-148457264D01*
X111970429Y-148449965D01*
X111765000Y-148545510D01*
X111755000Y-148545510D01*
X111549571Y-148449965D01*
X111508633Y-148457264D01*
X111261926Y-148531078D01*
X111034360Y-148651603D01*
X110834680Y-148814208D01*
X110670559Y-149012645D01*
X110548305Y-149239287D01*
X110490927Y-149425880D01*
X110434484Y-149238933D01*
X110314125Y-149012572D01*
X110152092Y-148813900D01*
X109954556Y-148650483D01*
X109729040Y-148528548D01*
X109484136Y-148452737D01*
X109229171Y-148425939D01*
X108973856Y-148449174D01*
X108727917Y-148521558D01*
X108500721Y-148640333D01*
X108300922Y-148800976D01*
X108136131Y-148997366D01*
X108012624Y-149222025D01*
X107949478Y-149421084D01*
X107894484Y-149238933D01*
X107774125Y-149012572D01*
X107612092Y-148813900D01*
X107414556Y-148650483D01*
X107189040Y-148528548D01*
X106944136Y-148452737D01*
X106689171Y-148425939D01*
X106433856Y-148449174D01*
X106187917Y-148521558D01*
X105960721Y-148640333D01*
X105760922Y-148800976D01*
X105596131Y-148997366D01*
X105472624Y-149222025D01*
X105409478Y-149421084D01*
X105354484Y-149238933D01*
X105234125Y-149012572D01*
X105072092Y-148813900D01*
X104874556Y-148650483D01*
X104649040Y-148528548D01*
X104404136Y-148452737D01*
X104149171Y-148425939D01*
X103893856Y-148449174D01*
X103647917Y-148521558D01*
X103420721Y-148640333D01*
X103220922Y-148800976D01*
X103056131Y-148997366D01*
X102932624Y-149222025D01*
X102869478Y-149421084D01*
X102814484Y-149238933D01*
X102694125Y-149012572D01*
X102532092Y-148813900D01*
X102334556Y-148650483D01*
X102109040Y-148528548D01*
X101864136Y-148452737D01*
X101609171Y-148425939D01*
X101353856Y-148449174D01*
X101107917Y-148521558D01*
X100880721Y-148640333D01*
X100680922Y-148800976D01*
X100516131Y-148997366D01*
X100392624Y-149222025D01*
X100375777Y-149275133D01*
X100375777Y-148883000D01*
X100367089Y-148794785D01*
X100341357Y-148709959D01*
X100299571Y-148631784D01*
X100243337Y-148563263D01*
X100174816Y-148507029D01*
X100096641Y-148465243D01*
X100011815Y-148439511D01*
X99923600Y-148430823D01*
X98196400Y-148430823D01*
X98108185Y-148439511D01*
X98023359Y-148465243D01*
X97945184Y-148507029D01*
X97876663Y-148563263D01*
X97820429Y-148631784D01*
X97778643Y-148709959D01*
X97752911Y-148794785D01*
X97744223Y-148883000D01*
X90359018Y-148883000D01*
X90344907Y-148878524D01*
X90529713Y-148821695D01*
X90756355Y-148699441D01*
X90954792Y-148535320D01*
X91117397Y-148335640D01*
X91237922Y-148108074D01*
X91292091Y-147927023D01*
X137916451Y-147927023D01*
X138012035Y-148447822D01*
X138206956Y-148940136D01*
X138493789Y-149385214D01*
X138861609Y-149766102D01*
X139296406Y-150068293D01*
X139781617Y-150280277D01*
X140298762Y-150393979D01*
X140828144Y-150405068D01*
X141349597Y-150313122D01*
X141843260Y-150121642D01*
X142290329Y-149837924D01*
X142673776Y-149472772D01*
X142978995Y-149040096D01*
X143194361Y-148556376D01*
X143311671Y-148040037D01*
X143320116Y-147435251D01*
X143217269Y-146915838D01*
X143015493Y-146426294D01*
X142722474Y-145985264D01*
X142349372Y-145609548D01*
X141910399Y-145313457D01*
X141422275Y-145108269D01*
X140903592Y-145001798D01*
X140374108Y-144998102D01*
X139853990Y-145097320D01*
X139363048Y-145295673D01*
X138919984Y-145585606D01*
X138541672Y-145956076D01*
X138242524Y-146392971D01*
X138033933Y-146879651D01*
X137923844Y-147397578D01*
X137916451Y-147927023D01*
X91292091Y-147927023D01*
X91311736Y-147861367D01*
X91319035Y-147820429D01*
X91223490Y-147615000D01*
X89875000Y-147615000D01*
X89875000Y-147635000D01*
X89865000Y-147635000D01*
X89865000Y-147615000D01*
X88516510Y-147615000D01*
X88420965Y-147820429D01*
X88428264Y-147861367D01*
X88502078Y-148108074D01*
X88622603Y-148335640D01*
X88785208Y-148535320D01*
X88983645Y-148699441D01*
X89210287Y-148821695D01*
X89396880Y-148879073D01*
X89209933Y-148935516D01*
X88983572Y-149055875D01*
X88784900Y-149217908D01*
X88621483Y-149415444D01*
X88499548Y-149640960D01*
X88423737Y-149885864D01*
X88396939Y-150140829D01*
X88420174Y-150396144D01*
X88426818Y-150418719D01*
X88412143Y-150400980D01*
X87996981Y-149633153D01*
X87738867Y-148799318D01*
X87645026Y-147906479D01*
X87645000Y-147899023D01*
X87645000Y-123596638D01*
X88449855Y-124401493D01*
X88423737Y-124485864D01*
X88396939Y-124740829D01*
X88420174Y-124996144D01*
X88492558Y-125242083D01*
X88611333Y-125469279D01*
X88771976Y-125669078D01*
X88968366Y-125833869D01*
X89193025Y-125957376D01*
X89392084Y-126020522D01*
X89209933Y-126075516D01*
X88983572Y-126195875D01*
X88784900Y-126357908D01*
X88621483Y-126555444D01*
X88499548Y-126780960D01*
X88423737Y-127025864D01*
X88396939Y-127280829D01*
X88420174Y-127536144D01*
X88492558Y-127782083D01*
X88611333Y-128009279D01*
X88771976Y-128209078D01*
X88968366Y-128373869D01*
X89193025Y-128497376D01*
X89392084Y-128560522D01*
X89209933Y-128615516D01*
X88983572Y-128735875D01*
X88784900Y-128897908D01*
X88621483Y-129095444D01*
X88499548Y-129320960D01*
X88423737Y-129565864D01*
X88396939Y-129820829D01*
X88420174Y-130076144D01*
X88492558Y-130322083D01*
X88611333Y-130549279D01*
X88771976Y-130749078D01*
X88968366Y-130913869D01*
X89193025Y-131037376D01*
X89392084Y-131100522D01*
X89209933Y-131155516D01*
X88983572Y-131275875D01*
X88784900Y-131437908D01*
X88621483Y-131635444D01*
X88499548Y-131860960D01*
X88423737Y-132105864D01*
X88396939Y-132360829D01*
X88420174Y-132616144D01*
X88492558Y-132862083D01*
X88611333Y-133089279D01*
X88771976Y-133289078D01*
X88968366Y-133453869D01*
X89193025Y-133577376D01*
X89392084Y-133640522D01*
X89209933Y-133695516D01*
X88983572Y-133815875D01*
X88784900Y-133977908D01*
X88621483Y-134175444D01*
X88499548Y-134400960D01*
X88423737Y-134645864D01*
X88396939Y-134900829D01*
X88420174Y-135156144D01*
X88492558Y-135402083D01*
X88611333Y-135629279D01*
X88771976Y-135829078D01*
X88968366Y-135993869D01*
X89193025Y-136117376D01*
X89392084Y-136180522D01*
X89209933Y-136235516D01*
X88983572Y-136355875D01*
X88784900Y-136517908D01*
X88621483Y-136715444D01*
X88499548Y-136940960D01*
X88423737Y-137185864D01*
X88396939Y-137440829D01*
X88420174Y-137696144D01*
X88492558Y-137942083D01*
X88611333Y-138169279D01*
X88771976Y-138369078D01*
X88968366Y-138533869D01*
X89193025Y-138657376D01*
X89392084Y-138720522D01*
X89209933Y-138775516D01*
X88983572Y-138895875D01*
X88784900Y-139057908D01*
X88621483Y-139255444D01*
X88499548Y-139480960D01*
X88423737Y-139725864D01*
X88396939Y-139980829D01*
X88420174Y-140236144D01*
X88492558Y-140482083D01*
X88611333Y-140709279D01*
X88771976Y-140909078D01*
X88968366Y-141073869D01*
X89193025Y-141197376D01*
X89392084Y-141260522D01*
X89209933Y-141315516D01*
X88983572Y-141435875D01*
X88784900Y-141597908D01*
X88621483Y-141795444D01*
X88499548Y-142020960D01*
X88423737Y-142265864D01*
X88396939Y-142520829D01*
X88420174Y-142776144D01*
X88492558Y-143022083D01*
X88611333Y-143249279D01*
X88771976Y-143449078D01*
X88968366Y-143613869D01*
X89193025Y-143737376D01*
X89392084Y-143800522D01*
X89209933Y-143855516D01*
X88983572Y-143975875D01*
X88784900Y-144137908D01*
X88621483Y-144335444D01*
X88499548Y-144560960D01*
X88423737Y-144805864D01*
X88396939Y-145060829D01*
X88420174Y-145316144D01*
X88492558Y-145562083D01*
X88611333Y-145789279D01*
X88771976Y-145989078D01*
X88968366Y-146153869D01*
X89193025Y-146277376D01*
X89395093Y-146341476D01*
X89210287Y-146398305D01*
X88983645Y-146520559D01*
X88785208Y-146684680D01*
X88622603Y-146884360D01*
X88502078Y-147111926D01*
X88428264Y-147358633D01*
X88420965Y-147399571D01*
X88516510Y-147605000D01*
X89865000Y-147605000D01*
X89865000Y-147585000D01*
X89875000Y-147585000D01*
X89875000Y-147605000D01*
X91223490Y-147605000D01*
X91319035Y-147399571D01*
X91311736Y-147358633D01*
X91237922Y-147111926D01*
X91117397Y-146884360D01*
X90954792Y-146684680D01*
X90756355Y-146520559D01*
X90529713Y-146398305D01*
X90343120Y-146340927D01*
X90530067Y-146284484D01*
X90756428Y-146164125D01*
X90955100Y-146002092D01*
X91118517Y-145804556D01*
X91240452Y-145579040D01*
X91316263Y-145334136D01*
X91343061Y-145079171D01*
X91331967Y-144957271D01*
X92459237Y-143830002D01*
X132479240Y-143830002D01*
X132539018Y-143824141D01*
X132598808Y-143818910D01*
X132602090Y-143817957D01*
X132605492Y-143817623D01*
X132662975Y-143800268D01*
X132720629Y-143783518D01*
X132723664Y-143781945D01*
X132726936Y-143780957D01*
X132779971Y-143752758D01*
X132833255Y-143725138D01*
X132835924Y-143723007D01*
X132838945Y-143721401D01*
X132885472Y-143683454D01*
X132932398Y-143645994D01*
X132937153Y-143641304D01*
X132937252Y-143641223D01*
X132937328Y-143641131D01*
X132938859Y-143639621D01*
X137035539Y-139542941D01*
X141667765Y-139542941D01*
X141727948Y-139870851D01*
X141850676Y-140180827D01*
X142031274Y-140461061D01*
X142262865Y-140700880D01*
X142536625Y-140891148D01*
X142842129Y-141024619D01*
X143167739Y-141096209D01*
X143501053Y-141103191D01*
X143829376Y-141045299D01*
X144140201Y-140924738D01*
X144421689Y-140746100D01*
X144663119Y-140516190D01*
X144855294Y-140243764D01*
X144990895Y-139939200D01*
X145064756Y-139614097D01*
X145070073Y-139233306D01*
X145005318Y-138906268D01*
X144910831Y-138677023D01*
X147516451Y-138677023D01*
X147612035Y-139197822D01*
X147806956Y-139690136D01*
X148093789Y-140135214D01*
X148461609Y-140516102D01*
X148896406Y-140818293D01*
X149381617Y-141030277D01*
X149898762Y-141143979D01*
X150428144Y-141155068D01*
X150949597Y-141063122D01*
X151443260Y-140871642D01*
X151890329Y-140587924D01*
X152273776Y-140222772D01*
X152578995Y-139790096D01*
X152794361Y-139306376D01*
X152911671Y-138790037D01*
X152920116Y-138185251D01*
X152817269Y-137665838D01*
X152615493Y-137176294D01*
X152322474Y-136735264D01*
X151949372Y-136359548D01*
X151510399Y-136063457D01*
X151022275Y-135858269D01*
X150503592Y-135751798D01*
X149974108Y-135748102D01*
X149453990Y-135847320D01*
X148963048Y-136045673D01*
X148519984Y-136335606D01*
X148141672Y-136706076D01*
X147842524Y-137142971D01*
X147633933Y-137629651D01*
X147523844Y-138147578D01*
X147516451Y-138677023D01*
X144910831Y-138677023D01*
X144878274Y-138598036D01*
X144693780Y-138320351D01*
X144458864Y-138083789D01*
X144182474Y-137897361D01*
X143875136Y-137768169D01*
X143548558Y-137701132D01*
X143215179Y-137698804D01*
X142887697Y-137761275D01*
X142578586Y-137886164D01*
X142299619Y-138068715D01*
X142061423Y-138301973D01*
X141873070Y-138577056D01*
X141741735Y-138883484D01*
X141672420Y-139209586D01*
X141667765Y-139542941D01*
X137035539Y-139542941D01*
X143349622Y-133228859D01*
X143387731Y-133182464D01*
X143426326Y-133136469D01*
X143427974Y-133133472D01*
X143430142Y-133130832D01*
X143458516Y-133077916D01*
X143487440Y-133025302D01*
X143488473Y-133022046D01*
X143490089Y-133019032D01*
X143507655Y-132961576D01*
X143525798Y-132904383D01*
X143526179Y-132900989D01*
X143527179Y-132897717D01*
X143533248Y-132837969D01*
X143539939Y-132778315D01*
X143539985Y-132771633D01*
X143539998Y-132771509D01*
X143539987Y-132771393D01*
X143540002Y-132769240D01*
X143540002Y-116990760D01*
X143534146Y-116931031D01*
X143528911Y-116871192D01*
X143527956Y-116867905D01*
X143527623Y-116864508D01*
X143510280Y-116807066D01*
X143493518Y-116749371D01*
X143491945Y-116746336D01*
X143490957Y-116743064D01*
X143462758Y-116690029D01*
X143435138Y-116636745D01*
X143433007Y-116634076D01*
X143431401Y-116631055D01*
X143393454Y-116584528D01*
X143355994Y-116537602D01*
X143351300Y-116532843D01*
X143351223Y-116532748D01*
X143351135Y-116532676D01*
X143349622Y-116531141D01*
X140445504Y-113627023D01*
X147516451Y-113627023D01*
X147612035Y-114147822D01*
X147806956Y-114640136D01*
X148093789Y-115085214D01*
X148461609Y-115466102D01*
X148896406Y-115768293D01*
X149381617Y-115980277D01*
X149898762Y-116093979D01*
X150428144Y-116105068D01*
X150949597Y-116013122D01*
X151443260Y-115821642D01*
X151890329Y-115537924D01*
X152273776Y-115172772D01*
X152578995Y-114740096D01*
X152794361Y-114256376D01*
X152911671Y-113740037D01*
X152920116Y-113135251D01*
X152817269Y-112615838D01*
X152615493Y-112126294D01*
X152322474Y-111685264D01*
X151949372Y-111309548D01*
X151510399Y-111013457D01*
X151022275Y-110808269D01*
X150503592Y-110701798D01*
X149974108Y-110698102D01*
X149453990Y-110797320D01*
X148963048Y-110995673D01*
X148519984Y-111285606D01*
X148141672Y-111656076D01*
X147842524Y-112092971D01*
X147633933Y-112579651D01*
X147523844Y-113097578D01*
X147516451Y-113627023D01*
X140445504Y-113627023D01*
X135861422Y-109042941D01*
X138667765Y-109042941D01*
X138727948Y-109370851D01*
X138850676Y-109680827D01*
X139031274Y-109961061D01*
X139262865Y-110200880D01*
X139536625Y-110391148D01*
X139842129Y-110524619D01*
X140167739Y-110596209D01*
X140501053Y-110603191D01*
X140829376Y-110545299D01*
X141140201Y-110424738D01*
X141421689Y-110246100D01*
X141663119Y-110016190D01*
X141855294Y-109743764D01*
X141990895Y-109439200D01*
X142064756Y-109114097D01*
X142070073Y-108733306D01*
X142005318Y-108406268D01*
X141878274Y-108098036D01*
X141693780Y-107820351D01*
X141458864Y-107583789D01*
X141182474Y-107397361D01*
X140875136Y-107268169D01*
X140548558Y-107201132D01*
X140215179Y-107198804D01*
X139887697Y-107261275D01*
X139578586Y-107386164D01*
X139299619Y-107568715D01*
X139061423Y-107801973D01*
X138873070Y-108077056D01*
X138741735Y-108383484D01*
X138672420Y-108709586D01*
X138667765Y-109042941D01*
X135861422Y-109042941D01*
X134713859Y-107895379D01*
X134667494Y-107857294D01*
X134621469Y-107818674D01*
X134618471Y-107817026D01*
X134615832Y-107814858D01*
X134562916Y-107786484D01*
X134510302Y-107757560D01*
X134507046Y-107756527D01*
X134504032Y-107754911D01*
X134446576Y-107737345D01*
X134389383Y-107719202D01*
X134385989Y-107718821D01*
X134382717Y-107717821D01*
X134322969Y-107711752D01*
X134263315Y-107705061D01*
X134256633Y-107705015D01*
X134256509Y-107705002D01*
X134256393Y-107705013D01*
X134254240Y-107704998D01*
X130429237Y-107704998D01*
X129890275Y-107166036D01*
X129921689Y-107146100D01*
X130163119Y-106916190D01*
X130355294Y-106643764D01*
X130490895Y-106339200D01*
X130564756Y-106014097D01*
X130570073Y-105633306D01*
X130505318Y-105306268D01*
X130378274Y-104998036D01*
X130193780Y-104720351D01*
X129958864Y-104483789D01*
X129726450Y-104327023D01*
X137916451Y-104327023D01*
X138012035Y-104847822D01*
X138206956Y-105340136D01*
X138493789Y-105785214D01*
X138861609Y-106166102D01*
X139296406Y-106468293D01*
X139781617Y-106680277D01*
X140298762Y-106793979D01*
X140828144Y-106805068D01*
X141349597Y-106713122D01*
X141843260Y-106521642D01*
X142290329Y-106237924D01*
X142673776Y-105872772D01*
X142978995Y-105440096D01*
X143194361Y-104956376D01*
X143311671Y-104440037D01*
X143320116Y-103835251D01*
X143217269Y-103315838D01*
X143015493Y-102826294D01*
X142722474Y-102385264D01*
X142349372Y-102009548D01*
X141910399Y-101713457D01*
X141422275Y-101508269D01*
X140903592Y-101401798D01*
X140374108Y-101398102D01*
X139853990Y-101497320D01*
X139363048Y-101695673D01*
X138919984Y-101985606D01*
X138541672Y-102356076D01*
X138242524Y-102792971D01*
X138033933Y-103279651D01*
X137923844Y-103797578D01*
X137916451Y-104327023D01*
X129726450Y-104327023D01*
X129682474Y-104297361D01*
X129375136Y-104168169D01*
X129048558Y-104101132D01*
X128715179Y-104098804D01*
X128387697Y-104161275D01*
X128078586Y-104286164D01*
X127799619Y-104468715D01*
X127561423Y-104701973D01*
X127373070Y-104977056D01*
X127241735Y-105283484D01*
X127172420Y-105609586D01*
X127167765Y-105942941D01*
X127227948Y-106270851D01*
X127350676Y-106580827D01*
X127531274Y-106861061D01*
X127762865Y-107100880D01*
X128036625Y-107291148D01*
X128323565Y-107416509D01*
X128324864Y-107419015D01*
X128326995Y-107421684D01*
X128328601Y-107424705D01*
X128366548Y-107471232D01*
X128404008Y-107518158D01*
X128408698Y-107522913D01*
X128408779Y-107523012D01*
X128408871Y-107523088D01*
X128410381Y-107524619D01*
X129240761Y-108355000D01*
X127904239Y-108355000D01*
X126160863Y-106611625D01*
X126421689Y-106446100D01*
X126663119Y-106216190D01*
X126855294Y-105943764D01*
X126990895Y-105639200D01*
X127064756Y-105314097D01*
X127070073Y-104933306D01*
X127005318Y-104606268D01*
X126878274Y-104298036D01*
X126693780Y-104020351D01*
X126458864Y-103783789D01*
X126182474Y-103597361D01*
X125875136Y-103468169D01*
X125548558Y-103401132D01*
X125215179Y-103398804D01*
X124887697Y-103461275D01*
X124578586Y-103586164D01*
X124299619Y-103768715D01*
X124061423Y-104001973D01*
X123873070Y-104277056D01*
X123741735Y-104583484D01*
X123672420Y-104909586D01*
X123667765Y-105242941D01*
X123727948Y-105570851D01*
X123739653Y-105600415D01*
X121579619Y-103440381D01*
X121533254Y-103402296D01*
X121487229Y-103363676D01*
X121484231Y-103362028D01*
X121481592Y-103359860D01*
X121428676Y-103331486D01*
X121376062Y-103302562D01*
X121372806Y-103301529D01*
X121369792Y-103299913D01*
X121312336Y-103282347D01*
X121255143Y-103264204D01*
X121251749Y-103263823D01*
X121248477Y-103262823D01*
X121188729Y-103256754D01*
X121129075Y-103250063D01*
X121122393Y-103250017D01*
X121122269Y-103250004D01*
X121122153Y-103250015D01*
X121120000Y-103250000D01*
X93870000Y-103250000D01*
X93810226Y-103255861D01*
X93750432Y-103261092D01*
X93747150Y-103262045D01*
X93743748Y-103262379D01*
X93686232Y-103279744D01*
X93628610Y-103296485D01*
X93625579Y-103298056D01*
X93622304Y-103299045D01*
X93569252Y-103327253D01*
X93515985Y-103354864D01*
X93513316Y-103356995D01*
X93510295Y-103358601D01*
X93463768Y-103396548D01*
X93416842Y-103434008D01*
X93412083Y-103438702D01*
X93411988Y-103438779D01*
X93411915Y-103438867D01*
X93410380Y-103440381D01*
X87645000Y-109205762D01*
X87645000Y-103925673D01*
X87732694Y-103031294D01*
X87984985Y-102195667D01*
X88394774Y-101424966D01*
X88668067Y-101089877D01*
X88631105Y-101206394D01*
X88602528Y-101461166D01*
X88602400Y-101479507D01*
X88602400Y-101798493D01*
X88627417Y-102053639D01*
X88701516Y-102299067D01*
X88821875Y-102525428D01*
X88983908Y-102724100D01*
X89181444Y-102887517D01*
X89406960Y-103009452D01*
X89651864Y-103085263D01*
X89906829Y-103112061D01*
X90162144Y-103088826D01*
X90408083Y-103016442D01*
X90635279Y-102897667D01*
X90835078Y-102737024D01*
X90999869Y-102540634D01*
X91123376Y-102315975D01*
X91186522Y-102116916D01*
X91241516Y-102299067D01*
X91361875Y-102525428D01*
X91523908Y-102724100D01*
X91721444Y-102887517D01*
X91946960Y-103009452D01*
X92191864Y-103085263D01*
X92446829Y-103112061D01*
X92702144Y-103088826D01*
X92948083Y-103016442D01*
X93175279Y-102897667D01*
X93375078Y-102737024D01*
X93539869Y-102540634D01*
X93663376Y-102315975D01*
X93726522Y-102116916D01*
X93781516Y-102299067D01*
X93901875Y-102525428D01*
X94063908Y-102724100D01*
X94261444Y-102887517D01*
X94486960Y-103009452D01*
X94731864Y-103085263D01*
X94986829Y-103112061D01*
X95242144Y-103088826D01*
X95488083Y-103016442D01*
X95715279Y-102897667D01*
X95915078Y-102737024D01*
X96079869Y-102540634D01*
X96203376Y-102315975D01*
X96267476Y-102113907D01*
X96324305Y-102298713D01*
X96446559Y-102525355D01*
X96610680Y-102723792D01*
X96810360Y-102886397D01*
X97037926Y-103006922D01*
X97284633Y-103080736D01*
X97325571Y-103088035D01*
X97531000Y-102992490D01*
X97531000Y-101644000D01*
X97511000Y-101644000D01*
X97511000Y-101634000D01*
X97531000Y-101634000D01*
X97531000Y-100285510D01*
X97541000Y-100285510D01*
X97541000Y-101634000D01*
X97561000Y-101634000D01*
X97561000Y-101644000D01*
X97541000Y-101644000D01*
X97541000Y-102992490D01*
X97746429Y-103088035D01*
X97787367Y-103080736D01*
X98034074Y-103006922D01*
X98261640Y-102886397D01*
X98461320Y-102723792D01*
X98625441Y-102525355D01*
X98747695Y-102298713D01*
X98805073Y-102112120D01*
X98861516Y-102299067D01*
X98981875Y-102525428D01*
X99143908Y-102724100D01*
X99341444Y-102887517D01*
X99566960Y-103009452D01*
X99811864Y-103085263D01*
X100066829Y-103112061D01*
X100322144Y-103088826D01*
X100568083Y-103016442D01*
X100795279Y-102897667D01*
X100995078Y-102737024D01*
X101159869Y-102540634D01*
X101283376Y-102315975D01*
X101346522Y-102116916D01*
X101401516Y-102299067D01*
X101521875Y-102525428D01*
X101683908Y-102724100D01*
X101881444Y-102887517D01*
X102106960Y-103009452D01*
X102351864Y-103085263D01*
X102606829Y-103112061D01*
X102862144Y-103088826D01*
X103108083Y-103016442D01*
X103335279Y-102897667D01*
X103535078Y-102737024D01*
X103699869Y-102540634D01*
X103823376Y-102315975D01*
X103886522Y-102116916D01*
X103941516Y-102299067D01*
X104061875Y-102525428D01*
X104223908Y-102724100D01*
X104421444Y-102887517D01*
X104646960Y-103009452D01*
X104891864Y-103085263D01*
X105146829Y-103112061D01*
X105402144Y-103088826D01*
X105648083Y-103016442D01*
X105875279Y-102897667D01*
X106075078Y-102737024D01*
X106239869Y-102540634D01*
X106363376Y-102315975D01*
X106426522Y-102116916D01*
X106481516Y-102299067D01*
X106601875Y-102525428D01*
X106763908Y-102724100D01*
X106961444Y-102887517D01*
X107186960Y-103009452D01*
X107431864Y-103085263D01*
X107686829Y-103112061D01*
X107942144Y-103088826D01*
X108188083Y-103016442D01*
X108415279Y-102897667D01*
X108615078Y-102737024D01*
X108779869Y-102540634D01*
X108903376Y-102315975D01*
X108966522Y-102116916D01*
X109021516Y-102299067D01*
X109141875Y-102525428D01*
X109303908Y-102724100D01*
X109501444Y-102887517D01*
X109726960Y-103009452D01*
X109971864Y-103085263D01*
X110226829Y-103112061D01*
X110482144Y-103088826D01*
X110728083Y-103016442D01*
X110955279Y-102897667D01*
X111155078Y-102737024D01*
X111319869Y-102540634D01*
X111443376Y-102315975D01*
X111460223Y-102262867D01*
X111460223Y-102655000D01*
X111468911Y-102743215D01*
X111494643Y-102828041D01*
X111536429Y-102906216D01*
X111592663Y-102974737D01*
X111661184Y-103030971D01*
X111739359Y-103072757D01*
X111824185Y-103098489D01*
X111912400Y-103107177D01*
X113639600Y-103107177D01*
X113727815Y-103098489D01*
X113812641Y-103072757D01*
X113890816Y-103030971D01*
X113959337Y-102974737D01*
X114015571Y-102906216D01*
X114057357Y-102828041D01*
X114083089Y-102743215D01*
X114091777Y-102655000D01*
X114091777Y-101479507D01*
X115526400Y-101479507D01*
X115526400Y-101798493D01*
X115551417Y-102053639D01*
X115625516Y-102299067D01*
X115745875Y-102525428D01*
X115907908Y-102724100D01*
X116105444Y-102887517D01*
X116330960Y-103009452D01*
X116575864Y-103085263D01*
X116830829Y-103112061D01*
X117086144Y-103088826D01*
X117332083Y-103016442D01*
X117559279Y-102897667D01*
X117759078Y-102737024D01*
X117923869Y-102540634D01*
X118047376Y-102315975D01*
X118110522Y-102116916D01*
X118165516Y-102299067D01*
X118285875Y-102525428D01*
X118447908Y-102724100D01*
X118645444Y-102887517D01*
X118870960Y-103009452D01*
X119115864Y-103085263D01*
X119370829Y-103112061D01*
X119626144Y-103088826D01*
X119872083Y-103016442D01*
X120099279Y-102897667D01*
X120299078Y-102737024D01*
X120463869Y-102540634D01*
X120587376Y-102315975D01*
X120650522Y-102116916D01*
X120705516Y-102299067D01*
X120825875Y-102525428D01*
X120987908Y-102724100D01*
X121185444Y-102887517D01*
X121410960Y-103009452D01*
X121655864Y-103085263D01*
X121910829Y-103112061D01*
X122166144Y-103088826D01*
X122412083Y-103016442D01*
X122639279Y-102897667D01*
X122839078Y-102737024D01*
X123003869Y-102540634D01*
X123127376Y-102315975D01*
X123190522Y-102116916D01*
X123245516Y-102299067D01*
X123365875Y-102525428D01*
X123527908Y-102724100D01*
X123725444Y-102887517D01*
X123950960Y-103009452D01*
X124195864Y-103085263D01*
X124450829Y-103112061D01*
X124706144Y-103088826D01*
X124952083Y-103016442D01*
X125179279Y-102897667D01*
X125379078Y-102737024D01*
X125543869Y-102540634D01*
X125667376Y-102315975D01*
X125730522Y-102116916D01*
X125785516Y-102299067D01*
X125905875Y-102525428D01*
X126067908Y-102724100D01*
X126265444Y-102887517D01*
X126490960Y-103009452D01*
X126735864Y-103085263D01*
X126990829Y-103112061D01*
X127246144Y-103088826D01*
X127492083Y-103016442D01*
X127719279Y-102897667D01*
X127919078Y-102737024D01*
X128083869Y-102540634D01*
X128207376Y-102315975D01*
X128270522Y-102116916D01*
X128325516Y-102299067D01*
X128445875Y-102525428D01*
X128607908Y-102724100D01*
X128805444Y-102887517D01*
X129030960Y-103009452D01*
X129275864Y-103085263D01*
X129530829Y-103112061D01*
X129786144Y-103088826D01*
X130032083Y-103016442D01*
X130259279Y-102897667D01*
X130459078Y-102737024D01*
X130623869Y-102540634D01*
X130747376Y-102315975D01*
X130810522Y-102116916D01*
X130865516Y-102299067D01*
X130985875Y-102525428D01*
X131147908Y-102724100D01*
X131345444Y-102887517D01*
X131570960Y-103009452D01*
X131815864Y-103085263D01*
X132070829Y-103112061D01*
X132326144Y-103088826D01*
X132572083Y-103016442D01*
X132799279Y-102897667D01*
X132999078Y-102737024D01*
X133163869Y-102540634D01*
X133287376Y-102315975D01*
X133304223Y-102262867D01*
X133304223Y-102655000D01*
X133312911Y-102743215D01*
X133338643Y-102828041D01*
X133380429Y-102906216D01*
X133436663Y-102974737D01*
X133505184Y-103030971D01*
X133583359Y-103072757D01*
X133668185Y-103098489D01*
X133756400Y-103107177D01*
X135483600Y-103107177D01*
X135571815Y-103098489D01*
X135656641Y-103072757D01*
X135734816Y-103030971D01*
X135803337Y-102974737D01*
X135859571Y-102906216D01*
X135901357Y-102828041D01*
X135927089Y-102743215D01*
X135935777Y-102655000D01*
X135935777Y-100623000D01*
X135927089Y-100534785D01*
X135901357Y-100449959D01*
X135859571Y-100371784D01*
X135803337Y-100303263D01*
X135734816Y-100247029D01*
X135656641Y-100205243D01*
X135571815Y-100179511D01*
X135483600Y-100170823D01*
X133756400Y-100170823D01*
X133668185Y-100179511D01*
X133583359Y-100205243D01*
X133505184Y-100247029D01*
X133436663Y-100303263D01*
X133380429Y-100371784D01*
X133338643Y-100449959D01*
X133312911Y-100534785D01*
X133304223Y-100623000D01*
X133304223Y-101011190D01*
X133294484Y-100978933D01*
X133174125Y-100752572D01*
X133012092Y-100553900D01*
X132814556Y-100390483D01*
X132589040Y-100268548D01*
X132344136Y-100192737D01*
X132089171Y-100165939D01*
X131833856Y-100189174D01*
X131587917Y-100261558D01*
X131360721Y-100380333D01*
X131160922Y-100540976D01*
X130996131Y-100737366D01*
X130872624Y-100962025D01*
X130809478Y-101161084D01*
X130754484Y-100978933D01*
X130634125Y-100752572D01*
X130472092Y-100553900D01*
X130274556Y-100390483D01*
X130049040Y-100268548D01*
X129804136Y-100192737D01*
X129549171Y-100165939D01*
X129293856Y-100189174D01*
X129047917Y-100261558D01*
X128820721Y-100380333D01*
X128620922Y-100540976D01*
X128456131Y-100737366D01*
X128332624Y-100962025D01*
X128269478Y-101161084D01*
X128214484Y-100978933D01*
X128094125Y-100752572D01*
X127932092Y-100553900D01*
X127734556Y-100390483D01*
X127509040Y-100268548D01*
X127264136Y-100192737D01*
X127009171Y-100165939D01*
X126753856Y-100189174D01*
X126507917Y-100261558D01*
X126280721Y-100380333D01*
X126080922Y-100540976D01*
X125916131Y-100737366D01*
X125792624Y-100962025D01*
X125729478Y-101161084D01*
X125674484Y-100978933D01*
X125554125Y-100752572D01*
X125392092Y-100553900D01*
X125194556Y-100390483D01*
X124969040Y-100268548D01*
X124724136Y-100192737D01*
X124469171Y-100165939D01*
X124213856Y-100189174D01*
X123967917Y-100261558D01*
X123740721Y-100380333D01*
X123540922Y-100540976D01*
X123376131Y-100737366D01*
X123252624Y-100962025D01*
X123189478Y-101161084D01*
X123134484Y-100978933D01*
X123014125Y-100752572D01*
X122852092Y-100553900D01*
X122654556Y-100390483D01*
X122429040Y-100268548D01*
X122184136Y-100192737D01*
X121929171Y-100165939D01*
X121673856Y-100189174D01*
X121427917Y-100261558D01*
X121200721Y-100380333D01*
X121000922Y-100540976D01*
X120836131Y-100737366D01*
X120712624Y-100962025D01*
X120649478Y-101161084D01*
X120594484Y-100978933D01*
X120474125Y-100752572D01*
X120312092Y-100553900D01*
X120114556Y-100390483D01*
X119889040Y-100268548D01*
X119644136Y-100192737D01*
X119389171Y-100165939D01*
X119133856Y-100189174D01*
X118887917Y-100261558D01*
X118660721Y-100380333D01*
X118460922Y-100540976D01*
X118296131Y-100737366D01*
X118172624Y-100962025D01*
X118109478Y-101161084D01*
X118054484Y-100978933D01*
X117934125Y-100752572D01*
X117772092Y-100553900D01*
X117574556Y-100390483D01*
X117349040Y-100268548D01*
X117104136Y-100192737D01*
X116849171Y-100165939D01*
X116593856Y-100189174D01*
X116347917Y-100261558D01*
X116120721Y-100380333D01*
X115920922Y-100540976D01*
X115756131Y-100737366D01*
X115632624Y-100962025D01*
X115555105Y-101206394D01*
X115526528Y-101461166D01*
X115526400Y-101479507D01*
X114091777Y-101479507D01*
X114091777Y-100623000D01*
X114083089Y-100534785D01*
X114057357Y-100449959D01*
X114015571Y-100371784D01*
X113959337Y-100303263D01*
X113890816Y-100247029D01*
X113812641Y-100205243D01*
X113727815Y-100179511D01*
X113639600Y-100170823D01*
X111912400Y-100170823D01*
X111824185Y-100179511D01*
X111739359Y-100205243D01*
X111661184Y-100247029D01*
X111592663Y-100303263D01*
X111536429Y-100371784D01*
X111494643Y-100449959D01*
X111468911Y-100534785D01*
X111460223Y-100623000D01*
X111460223Y-101011190D01*
X111450484Y-100978933D01*
X111330125Y-100752572D01*
X111168092Y-100553900D01*
X110970556Y-100390483D01*
X110745040Y-100268548D01*
X110500136Y-100192737D01*
X110245171Y-100165939D01*
X109989856Y-100189174D01*
X109743917Y-100261558D01*
X109516721Y-100380333D01*
X109316922Y-100540976D01*
X109152131Y-100737366D01*
X109028624Y-100962025D01*
X108965478Y-101161084D01*
X108910484Y-100978933D01*
X108790125Y-100752572D01*
X108628092Y-100553900D01*
X108430556Y-100390483D01*
X108205040Y-100268548D01*
X107960136Y-100192737D01*
X107705171Y-100165939D01*
X107449856Y-100189174D01*
X107203917Y-100261558D01*
X106976721Y-100380333D01*
X106776922Y-100540976D01*
X106612131Y-100737366D01*
X106488624Y-100962025D01*
X106425478Y-101161084D01*
X106370484Y-100978933D01*
X106250125Y-100752572D01*
X106088092Y-100553900D01*
X105890556Y-100390483D01*
X105665040Y-100268548D01*
X105420136Y-100192737D01*
X105165171Y-100165939D01*
X104909856Y-100189174D01*
X104663917Y-100261558D01*
X104436721Y-100380333D01*
X104236922Y-100540976D01*
X104072131Y-100737366D01*
X103948624Y-100962025D01*
X103885478Y-101161084D01*
X103830484Y-100978933D01*
X103710125Y-100752572D01*
X103548092Y-100553900D01*
X103350556Y-100390483D01*
X103125040Y-100268548D01*
X102880136Y-100192737D01*
X102625171Y-100165939D01*
X102369856Y-100189174D01*
X102123917Y-100261558D01*
X101896721Y-100380333D01*
X101696922Y-100540976D01*
X101532131Y-100737366D01*
X101408624Y-100962025D01*
X101345478Y-101161084D01*
X101290484Y-100978933D01*
X101170125Y-100752572D01*
X101008092Y-100553900D01*
X100810556Y-100390483D01*
X100585040Y-100268548D01*
X100340136Y-100192737D01*
X100085171Y-100165939D01*
X99829856Y-100189174D01*
X99583917Y-100261558D01*
X99356721Y-100380333D01*
X99156922Y-100540976D01*
X98992131Y-100737366D01*
X98868624Y-100962025D01*
X98804524Y-101164093D01*
X98747695Y-100979287D01*
X98625441Y-100752645D01*
X98461320Y-100554208D01*
X98261640Y-100391603D01*
X98034074Y-100271078D01*
X97787367Y-100197264D01*
X97746429Y-100189965D01*
X97541000Y-100285510D01*
X97531000Y-100285510D01*
X97325571Y-100189965D01*
X97284633Y-100197264D01*
X97037926Y-100271078D01*
X96810360Y-100391603D01*
X96610680Y-100554208D01*
X96446559Y-100752645D01*
X96324305Y-100979287D01*
X96266927Y-101165880D01*
X96210484Y-100978933D01*
X96090125Y-100752572D01*
X95928092Y-100553900D01*
X95730556Y-100390483D01*
X95505040Y-100268548D01*
X95260136Y-100192737D01*
X95005171Y-100165939D01*
X94749856Y-100189174D01*
X94503917Y-100261558D01*
X94276721Y-100380333D01*
X94076922Y-100540976D01*
X93912131Y-100737366D01*
X93788624Y-100962025D01*
X93725478Y-101161084D01*
X93670484Y-100978933D01*
X93550125Y-100752572D01*
X93388092Y-100553900D01*
X93190556Y-100390483D01*
X92965040Y-100268548D01*
X92720136Y-100192737D01*
X92465171Y-100165939D01*
X92209856Y-100189174D01*
X91963917Y-100261558D01*
X91736721Y-100380333D01*
X91536922Y-100540976D01*
X91372131Y-100737366D01*
X91248624Y-100962025D01*
X91185478Y-101161084D01*
X91130484Y-100978933D01*
X91010125Y-100752572D01*
X90848092Y-100553900D01*
X90650556Y-100390483D01*
X90425040Y-100268548D01*
X90180136Y-100192737D01*
X89925171Y-100165939D01*
X89669856Y-100189174D01*
X89596518Y-100210759D01*
X89619017Y-100192146D01*
X90386844Y-99776983D01*
X91220682Y-99518867D01*
X92113522Y-99425026D01*
X92120977Y-99425000D01*
X151594327Y-99425000D01*
X152488706Y-99512694D01*
X152488706Y-99512694D01*
G37*
X152488706Y-99512694D02*
X153324333Y-99764985D01*
X154095034Y-100174774D01*
X154771466Y-100726459D01*
X155327854Y-101399017D01*
X155743017Y-102166844D01*
X156001133Y-103000682D01*
X156094974Y-103893522D01*
X156095000Y-103900977D01*
X156095000Y-124819192D01*
X156015493Y-124626294D01*
X155722474Y-124185264D01*
X155349372Y-123809548D01*
X154910399Y-123513457D01*
X154422275Y-123308269D01*
X153903592Y-123201798D01*
X153374108Y-123198102D01*
X152853990Y-123297320D01*
X152363048Y-123495673D01*
X151919984Y-123785606D01*
X151541672Y-124156076D01*
X151242524Y-124592971D01*
X151033933Y-125079651D01*
X150923844Y-125597578D01*
X150916451Y-126127023D01*
X151012035Y-126647822D01*
X151206956Y-127140136D01*
X151493789Y-127585214D01*
X151861609Y-127966102D01*
X152296406Y-128268293D01*
X152781617Y-128480277D01*
X153298762Y-128593979D01*
X153828144Y-128605068D01*
X154349597Y-128513122D01*
X154843260Y-128321642D01*
X155290329Y-128037924D01*
X155673776Y-127672772D01*
X155978995Y-127240096D01*
X156095000Y-126979544D01*
X156095000Y-147874327D01*
X156007306Y-148768706D01*
X155755015Y-149604331D01*
X155345226Y-150375034D01*
X154793543Y-151051464D01*
X154120980Y-151607857D01*
X153353153Y-152023019D01*
X152519318Y-152281133D01*
X151626479Y-152374974D01*
X151619023Y-152375000D01*
X92145673Y-152375000D01*
X91251294Y-152287306D01*
X90415669Y-152035015D01*
X89644966Y-151625226D01*
X89395177Y-151421503D01*
X89437394Y-151434895D01*
X89692166Y-151463472D01*
X89710507Y-151463600D01*
X90029493Y-151463600D01*
X90284639Y-151438583D01*
X90530067Y-151364484D01*
X90756428Y-151244125D01*
X90955100Y-151082092D01*
X91118517Y-150884556D01*
X91240452Y-150659040D01*
X91316263Y-150414136D01*
X91343061Y-150159171D01*
X91319826Y-149903856D01*
X91247442Y-149657917D01*
X91128667Y-149430721D01*
X90968024Y-149230922D01*
X90771634Y-149066131D01*
X90546975Y-148942624D01*
X90359018Y-148883000D01*
X97744223Y-148883000D01*
X97744223Y-150915000D01*
X97752911Y-151003215D01*
X97778643Y-151088041D01*
X97820429Y-151166216D01*
X97876663Y-151234737D01*
X97945184Y-151290971D01*
X98023359Y-151332757D01*
X98108185Y-151358489D01*
X98196400Y-151367177D01*
X99923600Y-151367177D01*
X100011815Y-151358489D01*
X100096641Y-151332757D01*
X100174816Y-151290971D01*
X100243337Y-151234737D01*
X100299571Y-151166216D01*
X100341357Y-151088041D01*
X100367089Y-151003215D01*
X100375777Y-150915000D01*
X100375777Y-150526810D01*
X100385516Y-150559067D01*
X100505875Y-150785428D01*
X100667908Y-150984100D01*
X100865444Y-151147517D01*
X101090960Y-151269452D01*
X101335864Y-151345263D01*
X101590829Y-151372061D01*
X101846144Y-151348826D01*
X102092083Y-151276442D01*
X102319279Y-151157667D01*
X102519078Y-150997024D01*
X102683869Y-150800634D01*
X102807376Y-150575975D01*
X102870522Y-150376916D01*
X102925516Y-150559067D01*
X103045875Y-150785428D01*
X103207908Y-150984100D01*
X103405444Y-151147517D01*
X103630960Y-151269452D01*
X103875864Y-151345263D01*
X104130829Y-151372061D01*
X104386144Y-151348826D01*
X104632083Y-151276442D01*
X104859279Y-151157667D01*
X105059078Y-150997024D01*
X105223869Y-150800634D01*
X105347376Y-150575975D01*
X105410522Y-150376916D01*
X105465516Y-150559067D01*
X105585875Y-150785428D01*
X105747908Y-150984100D01*
X105945444Y-151147517D01*
X106170960Y-151269452D01*
X106415864Y-151345263D01*
X106670829Y-151372061D01*
X106926144Y-151348826D01*
X107172083Y-151276442D01*
X107399279Y-151157667D01*
X107599078Y-150997024D01*
X107763869Y-150800634D01*
X107887376Y-150575975D01*
X107950522Y-150376916D01*
X108005516Y-150559067D01*
X108125875Y-150785428D01*
X108287908Y-150984100D01*
X108485444Y-151147517D01*
X108710960Y-151269452D01*
X108955864Y-151345263D01*
X109210829Y-151372061D01*
X109466144Y-151348826D01*
X109712083Y-151276442D01*
X109939279Y-151157667D01*
X110139078Y-150997024D01*
X110303869Y-150800634D01*
X110427376Y-150575975D01*
X110491476Y-150373907D01*
X110548305Y-150558713D01*
X110670559Y-150785355D01*
X110834680Y-150983792D01*
X111034360Y-151146397D01*
X111261926Y-151266922D01*
X111508633Y-151340736D01*
X111549571Y-151348035D01*
X111755000Y-151252490D01*
X111755000Y-149904000D01*
X111765000Y-149904000D01*
X111765000Y-151252490D01*
X111970429Y-151348035D01*
X112011367Y-151340736D01*
X112258074Y-151266922D01*
X112485640Y-151146397D01*
X112685320Y-150983792D01*
X112849441Y-150785355D01*
X112971695Y-150558713D01*
X113030000Y-150369107D01*
X113088305Y-150558713D01*
X113210559Y-150785355D01*
X113374680Y-150983792D01*
X113574360Y-151146397D01*
X113801926Y-151266922D01*
X114048633Y-151340736D01*
X114089571Y-151348035D01*
X114295000Y-151252490D01*
X114295000Y-149904000D01*
X111765000Y-149904000D01*
X111755000Y-149904000D01*
X111735000Y-149904000D01*
X111735000Y-149894000D01*
X111755000Y-149894000D01*
X111755000Y-148545510D01*
X111765000Y-148545510D01*
X111765000Y-149894000D01*
X114295000Y-149894000D01*
X114295000Y-148545510D01*
X114305000Y-148545510D01*
X114305000Y-149894000D01*
X114325000Y-149894000D01*
X114325000Y-149904000D01*
X114305000Y-149904000D01*
X114305000Y-151252490D01*
X114510429Y-151348035D01*
X114551367Y-151340736D01*
X114798074Y-151266922D01*
X115025640Y-151146397D01*
X115225320Y-150983792D01*
X115389441Y-150785355D01*
X115511695Y-150558713D01*
X115569073Y-150372120D01*
X115625516Y-150559067D01*
X115745875Y-150785428D01*
X115907908Y-150984100D01*
X116105444Y-151147517D01*
X116330960Y-151269452D01*
X116575864Y-151345263D01*
X116830829Y-151372061D01*
X117086144Y-151348826D01*
X117332083Y-151276442D01*
X117559279Y-151157667D01*
X117759078Y-150997024D01*
X117923869Y-150800634D01*
X118047376Y-150575975D01*
X118124895Y-150331606D01*
X118153472Y-150076834D01*
X118153600Y-150058493D01*
X118153600Y-149739507D01*
X118128583Y-149484361D01*
X118054484Y-149238933D01*
X117934125Y-149012572D01*
X117828449Y-148883000D01*
X120604223Y-148883000D01*
X120604223Y-150915000D01*
X120612911Y-151003215D01*
X120638643Y-151088041D01*
X120680429Y-151166216D01*
X120736663Y-151234737D01*
X120805184Y-151290971D01*
X120883359Y-151332757D01*
X120968185Y-151358489D01*
X121056400Y-151367177D01*
X122783600Y-151367177D01*
X122871815Y-151358489D01*
X122956641Y-151332757D01*
X123034816Y-151290971D01*
X123103337Y-151234737D01*
X123159571Y-151166216D01*
X123201357Y-151088041D01*
X123227089Y-151003215D01*
X123235777Y-150915000D01*
X123235777Y-150526810D01*
X123245516Y-150559067D01*
X123365875Y-150785428D01*
X123527908Y-150984100D01*
X123725444Y-151147517D01*
X123950960Y-151269452D01*
X124195864Y-151345263D01*
X124450829Y-151372061D01*
X124706144Y-151348826D01*
X124952083Y-151276442D01*
X125179279Y-151157667D01*
X125379078Y-150997024D01*
X125543869Y-150800634D01*
X125667376Y-150575975D01*
X125730522Y-150376916D01*
X125785516Y-150559067D01*
X125905875Y-150785428D01*
X126067908Y-150984100D01*
X126265444Y-151147517D01*
X126490960Y-151269452D01*
X126735864Y-151345263D01*
X126990829Y-151372061D01*
X127246144Y-151348826D01*
X127492083Y-151276442D01*
X127719279Y-151157667D01*
X127919078Y-150997024D01*
X128083869Y-150800634D01*
X128207376Y-150575975D01*
X128270522Y-150376916D01*
X128325516Y-150559067D01*
X128445875Y-150785428D01*
X128607908Y-150984100D01*
X128805444Y-151147517D01*
X129030960Y-151269452D01*
X129275864Y-151345263D01*
X129530829Y-151372061D01*
X129786144Y-151348826D01*
X130032083Y-151276442D01*
X130259279Y-151157667D01*
X130459078Y-150997024D01*
X130623869Y-150800634D01*
X130747376Y-150575975D01*
X130810522Y-150376916D01*
X130865516Y-150559067D01*
X130985875Y-150785428D01*
X131147908Y-150984100D01*
X131345444Y-151147517D01*
X131570960Y-151269452D01*
X131815864Y-151345263D01*
X132070829Y-151372061D01*
X132326144Y-151348826D01*
X132572083Y-151276442D01*
X132799279Y-151157667D01*
X132999078Y-150997024D01*
X133163869Y-150800634D01*
X133287376Y-150575975D01*
X133350522Y-150376916D01*
X133405516Y-150559067D01*
X133525875Y-150785428D01*
X133687908Y-150984100D01*
X133885444Y-151147517D01*
X134110960Y-151269452D01*
X134355864Y-151345263D01*
X134610829Y-151372061D01*
X134866144Y-151348826D01*
X135112083Y-151276442D01*
X135339279Y-151157667D01*
X135539078Y-150997024D01*
X135703869Y-150800634D01*
X135827376Y-150575975D01*
X135904895Y-150331606D01*
X135933472Y-150076834D01*
X135933600Y-150058493D01*
X135933600Y-149739507D01*
X135908583Y-149484361D01*
X135834484Y-149238933D01*
X135714125Y-149012572D01*
X135552092Y-148813900D01*
X135354556Y-148650483D01*
X135129040Y-148528548D01*
X134884136Y-148452737D01*
X134629171Y-148425939D01*
X134373856Y-148449174D01*
X134127917Y-148521558D01*
X133900721Y-148640333D01*
X133700922Y-148800976D01*
X133536131Y-148997366D01*
X133412624Y-149222025D01*
X133349478Y-149421084D01*
X133294484Y-149238933D01*
X133174125Y-149012572D01*
X133012092Y-148813900D01*
X132814556Y-148650483D01*
X132589040Y-148528548D01*
X132344136Y-148452737D01*
X132089171Y-148425939D01*
X131833856Y-148449174D01*
X131587917Y-148521558D01*
X131360721Y-148640333D01*
X131160922Y-148800976D01*
X130996131Y-148997366D01*
X130872624Y-149222025D01*
X130809478Y-149421084D01*
X130754484Y-149238933D01*
X130634125Y-149012572D01*
X130472092Y-148813900D01*
X130274556Y-148650483D01*
X130049040Y-148528548D01*
X129804136Y-148452737D01*
X129549171Y-148425939D01*
X129293856Y-148449174D01*
X129047917Y-148521558D01*
X128820721Y-148640333D01*
X128620922Y-148800976D01*
X128456131Y-148997366D01*
X128332624Y-149222025D01*
X128269478Y-149421084D01*
X128214484Y-149238933D01*
X128094125Y-149012572D01*
X127932092Y-148813900D01*
X127734556Y-148650483D01*
X127509040Y-148528548D01*
X127264136Y-148452737D01*
X127009171Y-148425939D01*
X126753856Y-148449174D01*
X126507917Y-148521558D01*
X126280721Y-148640333D01*
X126080922Y-148800976D01*
X125916131Y-148997366D01*
X125792624Y-149222025D01*
X125729478Y-149421084D01*
X125674484Y-149238933D01*
X125554125Y-149012572D01*
X125392092Y-148813900D01*
X125194556Y-148650483D01*
X124969040Y-148528548D01*
X124724136Y-148452737D01*
X124469171Y-148425939D01*
X124213856Y-148449174D01*
X123967917Y-148521558D01*
X123740721Y-148640333D01*
X123540922Y-148800976D01*
X123376131Y-148997366D01*
X123252624Y-149222025D01*
X123235777Y-149275133D01*
X123235777Y-148883000D01*
X123227089Y-148794785D01*
X123201357Y-148709959D01*
X123159571Y-148631784D01*
X123103337Y-148563263D01*
X123034816Y-148507029D01*
X122956641Y-148465243D01*
X122871815Y-148439511D01*
X122783600Y-148430823D01*
X121056400Y-148430823D01*
X120968185Y-148439511D01*
X120883359Y-148465243D01*
X120805184Y-148507029D01*
X120736663Y-148563263D01*
X120680429Y-148631784D01*
X120638643Y-148709959D01*
X120612911Y-148794785D01*
X120604223Y-148883000D01*
X117828449Y-148883000D01*
X117772092Y-148813900D01*
X117574556Y-148650483D01*
X117349040Y-148528548D01*
X117104136Y-148452737D01*
X116849171Y-148425939D01*
X116593856Y-148449174D01*
X116347917Y-148521558D01*
X116120721Y-148640333D01*
X115920922Y-148800976D01*
X115756131Y-148997366D01*
X115632624Y-149222025D01*
X115568524Y-149424093D01*
X115511695Y-149239287D01*
X115389441Y-149012645D01*
X115225320Y-148814208D01*
X115025640Y-148651603D01*
X114798074Y-148531078D01*
X114551367Y-148457264D01*
X114510429Y-148449965D01*
X114305000Y-148545510D01*
X114295000Y-148545510D01*
X114089571Y-148449965D01*
X114048633Y-148457264D01*
X113801926Y-148531078D01*
X113574360Y-148651603D01*
X113374680Y-148814208D01*
X113210559Y-149012645D01*
X113088305Y-149239287D01*
X113030000Y-149428893D01*
X112971695Y-149239287D01*
X112849441Y-149012645D01*
X112685320Y-148814208D01*
X112485640Y-148651603D01*
X112258074Y-148531078D01*
X112011367Y-148457264D01*
X111970429Y-148449965D01*
X111765000Y-148545510D01*
X111755000Y-148545510D01*
X111549571Y-148449965D01*
X111508633Y-148457264D01*
X111261926Y-148531078D01*
X111034360Y-148651603D01*
X110834680Y-148814208D01*
X110670559Y-149012645D01*
X110548305Y-149239287D01*
X110490927Y-149425880D01*
X110434484Y-149238933D01*
X110314125Y-149012572D01*
X110152092Y-148813900D01*
X109954556Y-148650483D01*
X109729040Y-148528548D01*
X109484136Y-148452737D01*
X109229171Y-148425939D01*
X108973856Y-148449174D01*
X108727917Y-148521558D01*
X108500721Y-148640333D01*
X108300922Y-148800976D01*
X108136131Y-148997366D01*
X108012624Y-149222025D01*
X107949478Y-149421084D01*
X107894484Y-149238933D01*
X107774125Y-149012572D01*
X107612092Y-148813900D01*
X107414556Y-148650483D01*
X107189040Y-148528548D01*
X106944136Y-148452737D01*
X106689171Y-148425939D01*
X106433856Y-148449174D01*
X106187917Y-148521558D01*
X105960721Y-148640333D01*
X105760922Y-148800976D01*
X105596131Y-148997366D01*
X105472624Y-149222025D01*
X105409478Y-149421084D01*
X105354484Y-149238933D01*
X105234125Y-149012572D01*
X105072092Y-148813900D01*
X104874556Y-148650483D01*
X104649040Y-148528548D01*
X104404136Y-148452737D01*
X104149171Y-148425939D01*
X103893856Y-148449174D01*
X103647917Y-148521558D01*
X103420721Y-148640333D01*
X103220922Y-148800976D01*
X103056131Y-148997366D01*
X102932624Y-149222025D01*
X102869478Y-149421084D01*
X102814484Y-149238933D01*
X102694125Y-149012572D01*
X102532092Y-148813900D01*
X102334556Y-148650483D01*
X102109040Y-148528548D01*
X101864136Y-148452737D01*
X101609171Y-148425939D01*
X101353856Y-148449174D01*
X101107917Y-148521558D01*
X100880721Y-148640333D01*
X100680922Y-148800976D01*
X100516131Y-148997366D01*
X100392624Y-149222025D01*
X100375777Y-149275133D01*
X100375777Y-148883000D01*
X100367089Y-148794785D01*
X100341357Y-148709959D01*
X100299571Y-148631784D01*
X100243337Y-148563263D01*
X100174816Y-148507029D01*
X100096641Y-148465243D01*
X100011815Y-148439511D01*
X99923600Y-148430823D01*
X98196400Y-148430823D01*
X98108185Y-148439511D01*
X98023359Y-148465243D01*
X97945184Y-148507029D01*
X97876663Y-148563263D01*
X97820429Y-148631784D01*
X97778643Y-148709959D01*
X97752911Y-148794785D01*
X97744223Y-148883000D01*
X90359018Y-148883000D01*
X90344907Y-148878524D01*
X90529713Y-148821695D01*
X90756355Y-148699441D01*
X90954792Y-148535320D01*
X91117397Y-148335640D01*
X91237922Y-148108074D01*
X91292091Y-147927023D01*
X137916451Y-147927023D01*
X138012035Y-148447822D01*
X138206956Y-148940136D01*
X138493789Y-149385214D01*
X138861609Y-149766102D01*
X139296406Y-150068293D01*
X139781617Y-150280277D01*
X140298762Y-150393979D01*
X140828144Y-150405068D01*
X141349597Y-150313122D01*
X141843260Y-150121642D01*
X142290329Y-149837924D01*
X142673776Y-149472772D01*
X142978995Y-149040096D01*
X143194361Y-148556376D01*
X143311671Y-148040037D01*
X143320116Y-147435251D01*
X143217269Y-146915838D01*
X143015493Y-146426294D01*
X142722474Y-145985264D01*
X142349372Y-145609548D01*
X141910399Y-145313457D01*
X141422275Y-145108269D01*
X140903592Y-145001798D01*
X140374108Y-144998102D01*
X139853990Y-145097320D01*
X139363048Y-145295673D01*
X138919984Y-145585606D01*
X138541672Y-145956076D01*
X138242524Y-146392971D01*
X138033933Y-146879651D01*
X137923844Y-147397578D01*
X137916451Y-147927023D01*
X91292091Y-147927023D01*
X91311736Y-147861367D01*
X91319035Y-147820429D01*
X91223490Y-147615000D01*
X89875000Y-147615000D01*
X89875000Y-147635000D01*
X89865000Y-147635000D01*
X89865000Y-147615000D01*
X88516510Y-147615000D01*
X88420965Y-147820429D01*
X88428264Y-147861367D01*
X88502078Y-148108074D01*
X88622603Y-148335640D01*
X88785208Y-148535320D01*
X88983645Y-148699441D01*
X89210287Y-148821695D01*
X89396880Y-148879073D01*
X89209933Y-148935516D01*
X88983572Y-149055875D01*
X88784900Y-149217908D01*
X88621483Y-149415444D01*
X88499548Y-149640960D01*
X88423737Y-149885864D01*
X88396939Y-150140829D01*
X88420174Y-150396144D01*
X88426818Y-150418719D01*
X88412143Y-150400980D01*
X87996981Y-149633153D01*
X87738867Y-148799318D01*
X87645026Y-147906479D01*
X87645000Y-147899023D01*
X87645000Y-123596638D01*
X88449855Y-124401493D01*
X88423737Y-124485864D01*
X88396939Y-124740829D01*
X88420174Y-124996144D01*
X88492558Y-125242083D01*
X88611333Y-125469279D01*
X88771976Y-125669078D01*
X88968366Y-125833869D01*
X89193025Y-125957376D01*
X89392084Y-126020522D01*
X89209933Y-126075516D01*
X88983572Y-126195875D01*
X88784900Y-126357908D01*
X88621483Y-126555444D01*
X88499548Y-126780960D01*
X88423737Y-127025864D01*
X88396939Y-127280829D01*
X88420174Y-127536144D01*
X88492558Y-127782083D01*
X88611333Y-128009279D01*
X88771976Y-128209078D01*
X88968366Y-128373869D01*
X89193025Y-128497376D01*
X89392084Y-128560522D01*
X89209933Y-128615516D01*
X88983572Y-128735875D01*
X88784900Y-128897908D01*
X88621483Y-129095444D01*
X88499548Y-129320960D01*
X88423737Y-129565864D01*
X88396939Y-129820829D01*
X88420174Y-130076144D01*
X88492558Y-130322083D01*
X88611333Y-130549279D01*
X88771976Y-130749078D01*
X88968366Y-130913869D01*
X89193025Y-131037376D01*
X89392084Y-131100522D01*
X89209933Y-131155516D01*
X88983572Y-131275875D01*
X88784900Y-131437908D01*
X88621483Y-131635444D01*
X88499548Y-131860960D01*
X88423737Y-132105864D01*
X88396939Y-132360829D01*
X88420174Y-132616144D01*
X88492558Y-132862083D01*
X88611333Y-133089279D01*
X88771976Y-133289078D01*
X88968366Y-133453869D01*
X89193025Y-133577376D01*
X89392084Y-133640522D01*
X89209933Y-133695516D01*
X88983572Y-133815875D01*
X88784900Y-133977908D01*
X88621483Y-134175444D01*
X88499548Y-134400960D01*
X88423737Y-134645864D01*
X88396939Y-134900829D01*
X88420174Y-135156144D01*
X88492558Y-135402083D01*
X88611333Y-135629279D01*
X88771976Y-135829078D01*
X88968366Y-135993869D01*
X89193025Y-136117376D01*
X89392084Y-136180522D01*
X89209933Y-136235516D01*
X88983572Y-136355875D01*
X88784900Y-136517908D01*
X88621483Y-136715444D01*
X88499548Y-136940960D01*
X88423737Y-137185864D01*
X88396939Y-137440829D01*
X88420174Y-137696144D01*
X88492558Y-137942083D01*
X88611333Y-138169279D01*
X88771976Y-138369078D01*
X88968366Y-138533869D01*
X89193025Y-138657376D01*
X89392084Y-138720522D01*
X89209933Y-138775516D01*
X88983572Y-138895875D01*
X88784900Y-139057908D01*
X88621483Y-139255444D01*
X88499548Y-139480960D01*
X88423737Y-139725864D01*
X88396939Y-139980829D01*
X88420174Y-140236144D01*
X88492558Y-140482083D01*
X88611333Y-140709279D01*
X88771976Y-140909078D01*
X88968366Y-141073869D01*
X89193025Y-141197376D01*
X89392084Y-141260522D01*
X89209933Y-141315516D01*
X88983572Y-141435875D01*
X88784900Y-141597908D01*
X88621483Y-141795444D01*
X88499548Y-142020960D01*
X88423737Y-142265864D01*
X88396939Y-142520829D01*
X88420174Y-142776144D01*
X88492558Y-143022083D01*
X88611333Y-143249279D01*
X88771976Y-143449078D01*
X88968366Y-143613869D01*
X89193025Y-143737376D01*
X89392084Y-143800522D01*
X89209933Y-143855516D01*
X88983572Y-143975875D01*
X88784900Y-144137908D01*
X88621483Y-144335444D01*
X88499548Y-144560960D01*
X88423737Y-144805864D01*
X88396939Y-145060829D01*
X88420174Y-145316144D01*
X88492558Y-145562083D01*
X88611333Y-145789279D01*
X88771976Y-145989078D01*
X88968366Y-146153869D01*
X89193025Y-146277376D01*
X89395093Y-146341476D01*
X89210287Y-146398305D01*
X88983645Y-146520559D01*
X88785208Y-146684680D01*
X88622603Y-146884360D01*
X88502078Y-147111926D01*
X88428264Y-147358633D01*
X88420965Y-147399571D01*
X88516510Y-147605000D01*
X89865000Y-147605000D01*
X89865000Y-147585000D01*
X89875000Y-147585000D01*
X89875000Y-147605000D01*
X91223490Y-147605000D01*
X91319035Y-147399571D01*
X91311736Y-147358633D01*
X91237922Y-147111926D01*
X91117397Y-146884360D01*
X90954792Y-146684680D01*
X90756355Y-146520559D01*
X90529713Y-146398305D01*
X90343120Y-146340927D01*
X90530067Y-146284484D01*
X90756428Y-146164125D01*
X90955100Y-146002092D01*
X91118517Y-145804556D01*
X91240452Y-145579040D01*
X91316263Y-145334136D01*
X91343061Y-145079171D01*
X91331967Y-144957271D01*
X92459237Y-143830002D01*
X132479240Y-143830002D01*
X132539018Y-143824141D01*
X132598808Y-143818910D01*
X132602090Y-143817957D01*
X132605492Y-143817623D01*
X132662975Y-143800268D01*
X132720629Y-143783518D01*
X132723664Y-143781945D01*
X132726936Y-143780957D01*
X132779971Y-143752758D01*
X132833255Y-143725138D01*
X132835924Y-143723007D01*
X132838945Y-143721401D01*
X132885472Y-143683454D01*
X132932398Y-143645994D01*
X132937153Y-143641304D01*
X132937252Y-143641223D01*
X132937328Y-143641131D01*
X132938859Y-143639621D01*
X137035539Y-139542941D01*
X141667765Y-139542941D01*
X141727948Y-139870851D01*
X141850676Y-140180827D01*
X142031274Y-140461061D01*
X142262865Y-140700880D01*
X142536625Y-140891148D01*
X142842129Y-141024619D01*
X143167739Y-141096209D01*
X143501053Y-141103191D01*
X143829376Y-141045299D01*
X144140201Y-140924738D01*
X144421689Y-140746100D01*
X144663119Y-140516190D01*
X144855294Y-140243764D01*
X144990895Y-139939200D01*
X145064756Y-139614097D01*
X145070073Y-139233306D01*
X145005318Y-138906268D01*
X144910831Y-138677023D01*
X147516451Y-138677023D01*
X147612035Y-139197822D01*
X147806956Y-139690136D01*
X148093789Y-140135214D01*
X148461609Y-140516102D01*
X148896406Y-140818293D01*
X149381617Y-141030277D01*
X149898762Y-141143979D01*
X150428144Y-141155068D01*
X150949597Y-141063122D01*
X151443260Y-140871642D01*
X151890329Y-140587924D01*
X152273776Y-140222772D01*
X152578995Y-139790096D01*
X152794361Y-139306376D01*
X152911671Y-138790037D01*
X152920116Y-138185251D01*
X152817269Y-137665838D01*
X152615493Y-137176294D01*
X152322474Y-136735264D01*
X151949372Y-136359548D01*
X151510399Y-136063457D01*
X151022275Y-135858269D01*
X150503592Y-135751798D01*
X149974108Y-135748102D01*
X149453990Y-135847320D01*
X148963048Y-136045673D01*
X148519984Y-136335606D01*
X148141672Y-136706076D01*
X147842524Y-137142971D01*
X147633933Y-137629651D01*
X147523844Y-138147578D01*
X147516451Y-138677023D01*
X144910831Y-138677023D01*
X144878274Y-138598036D01*
X144693780Y-138320351D01*
X144458864Y-138083789D01*
X144182474Y-137897361D01*
X143875136Y-137768169D01*
X143548558Y-137701132D01*
X143215179Y-137698804D01*
X142887697Y-137761275D01*
X142578586Y-137886164D01*
X142299619Y-138068715D01*
X142061423Y-138301973D01*
X141873070Y-138577056D01*
X141741735Y-138883484D01*
X141672420Y-139209586D01*
X141667765Y-139542941D01*
X137035539Y-139542941D01*
X143349622Y-133228859D01*
X143387731Y-133182464D01*
X143426326Y-133136469D01*
X143427974Y-133133472D01*
X143430142Y-133130832D01*
X143458516Y-133077916D01*
X143487440Y-133025302D01*
X143488473Y-133022046D01*
X143490089Y-133019032D01*
X143507655Y-132961576D01*
X143525798Y-132904383D01*
X143526179Y-132900989D01*
X143527179Y-132897717D01*
X143533248Y-132837969D01*
X143539939Y-132778315D01*
X143539985Y-132771633D01*
X143539998Y-132771509D01*
X143539987Y-132771393D01*
X143540002Y-132769240D01*
X143540002Y-116990760D01*
X143534146Y-116931031D01*
X143528911Y-116871192D01*
X143527956Y-116867905D01*
X143527623Y-116864508D01*
X143510280Y-116807066D01*
X143493518Y-116749371D01*
X143491945Y-116746336D01*
X143490957Y-116743064D01*
X143462758Y-116690029D01*
X143435138Y-116636745D01*
X143433007Y-116634076D01*
X143431401Y-116631055D01*
X143393454Y-116584528D01*
X143355994Y-116537602D01*
X143351300Y-116532843D01*
X143351223Y-116532748D01*
X143351135Y-116532676D01*
X143349622Y-116531141D01*
X140445504Y-113627023D01*
X147516451Y-113627023D01*
X147612035Y-114147822D01*
X147806956Y-114640136D01*
X148093789Y-115085214D01*
X148461609Y-115466102D01*
X148896406Y-115768293D01*
X149381617Y-115980277D01*
X149898762Y-116093979D01*
X150428144Y-116105068D01*
X150949597Y-116013122D01*
X151443260Y-115821642D01*
X151890329Y-115537924D01*
X152273776Y-115172772D01*
X152578995Y-114740096D01*
X152794361Y-114256376D01*
X152911671Y-113740037D01*
X152920116Y-113135251D01*
X152817269Y-112615838D01*
X152615493Y-112126294D01*
X152322474Y-111685264D01*
X151949372Y-111309548D01*
X151510399Y-111013457D01*
X151022275Y-110808269D01*
X150503592Y-110701798D01*
X149974108Y-110698102D01*
X149453990Y-110797320D01*
X148963048Y-110995673D01*
X148519984Y-111285606D01*
X148141672Y-111656076D01*
X147842524Y-112092971D01*
X147633933Y-112579651D01*
X147523844Y-113097578D01*
X147516451Y-113627023D01*
X140445504Y-113627023D01*
X135861422Y-109042941D01*
X138667765Y-109042941D01*
X138727948Y-109370851D01*
X138850676Y-109680827D01*
X139031274Y-109961061D01*
X139262865Y-110200880D01*
X139536625Y-110391148D01*
X139842129Y-110524619D01*
X140167739Y-110596209D01*
X140501053Y-110603191D01*
X140829376Y-110545299D01*
X141140201Y-110424738D01*
X141421689Y-110246100D01*
X141663119Y-110016190D01*
X141855294Y-109743764D01*
X141990895Y-109439200D01*
X142064756Y-109114097D01*
X142070073Y-108733306D01*
X142005318Y-108406268D01*
X141878274Y-108098036D01*
X141693780Y-107820351D01*
X141458864Y-107583789D01*
X141182474Y-107397361D01*
X140875136Y-107268169D01*
X140548558Y-107201132D01*
X140215179Y-107198804D01*
X139887697Y-107261275D01*
X139578586Y-107386164D01*
X139299619Y-107568715D01*
X139061423Y-107801973D01*
X138873070Y-108077056D01*
X138741735Y-108383484D01*
X138672420Y-108709586D01*
X138667765Y-109042941D01*
X135861422Y-109042941D01*
X134713859Y-107895379D01*
X134667494Y-107857294D01*
X134621469Y-107818674D01*
X134618471Y-107817026D01*
X134615832Y-107814858D01*
X134562916Y-107786484D01*
X134510302Y-107757560D01*
X134507046Y-107756527D01*
X134504032Y-107754911D01*
X134446576Y-107737345D01*
X134389383Y-107719202D01*
X134385989Y-107718821D01*
X134382717Y-107717821D01*
X134322969Y-107711752D01*
X134263315Y-107705061D01*
X134256633Y-107705015D01*
X134256509Y-107705002D01*
X134256393Y-107705013D01*
X134254240Y-107704998D01*
X130429237Y-107704998D01*
X129890275Y-107166036D01*
X129921689Y-107146100D01*
X130163119Y-106916190D01*
X130355294Y-106643764D01*
X130490895Y-106339200D01*
X130564756Y-106014097D01*
X130570073Y-105633306D01*
X130505318Y-105306268D01*
X130378274Y-104998036D01*
X130193780Y-104720351D01*
X129958864Y-104483789D01*
X129726450Y-104327023D01*
X137916451Y-104327023D01*
X138012035Y-104847822D01*
X138206956Y-105340136D01*
X138493789Y-105785214D01*
X138861609Y-106166102D01*
X139296406Y-106468293D01*
X139781617Y-106680277D01*
X140298762Y-106793979D01*
X140828144Y-106805068D01*
X141349597Y-106713122D01*
X141843260Y-106521642D01*
X142290329Y-106237924D01*
X142673776Y-105872772D01*
X142978995Y-105440096D01*
X143194361Y-104956376D01*
X143311671Y-104440037D01*
X143320116Y-103835251D01*
X143217269Y-103315838D01*
X143015493Y-102826294D01*
X142722474Y-102385264D01*
X142349372Y-102009548D01*
X141910399Y-101713457D01*
X141422275Y-101508269D01*
X140903592Y-101401798D01*
X140374108Y-101398102D01*
X139853990Y-101497320D01*
X139363048Y-101695673D01*
X138919984Y-101985606D01*
X138541672Y-102356076D01*
X138242524Y-102792971D01*
X138033933Y-103279651D01*
X137923844Y-103797578D01*
X137916451Y-104327023D01*
X129726450Y-104327023D01*
X129682474Y-104297361D01*
X129375136Y-104168169D01*
X129048558Y-104101132D01*
X128715179Y-104098804D01*
X128387697Y-104161275D01*
X128078586Y-104286164D01*
X127799619Y-104468715D01*
X127561423Y-104701973D01*
X127373070Y-104977056D01*
X127241735Y-105283484D01*
X127172420Y-105609586D01*
X127167765Y-105942941D01*
X127227948Y-106270851D01*
X127350676Y-106580827D01*
X127531274Y-106861061D01*
X127762865Y-107100880D01*
X128036625Y-107291148D01*
X128323565Y-107416509D01*
X128324864Y-107419015D01*
X128326995Y-107421684D01*
X128328601Y-107424705D01*
X128366548Y-107471232D01*
X128404008Y-107518158D01*
X128408698Y-107522913D01*
X128408779Y-107523012D01*
X128408871Y-107523088D01*
X128410381Y-107524619D01*
X129240761Y-108355000D01*
X127904239Y-108355000D01*
X126160863Y-106611625D01*
X126421689Y-106446100D01*
X126663119Y-106216190D01*
X126855294Y-105943764D01*
X126990895Y-105639200D01*
X127064756Y-105314097D01*
X127070073Y-104933306D01*
X127005318Y-104606268D01*
X126878274Y-104298036D01*
X126693780Y-104020351D01*
X126458864Y-103783789D01*
X126182474Y-103597361D01*
X125875136Y-103468169D01*
X125548558Y-103401132D01*
X125215179Y-103398804D01*
X124887697Y-103461275D01*
X124578586Y-103586164D01*
X124299619Y-103768715D01*
X124061423Y-104001973D01*
X123873070Y-104277056D01*
X123741735Y-104583484D01*
X123672420Y-104909586D01*
X123667765Y-105242941D01*
X123727948Y-105570851D01*
X123739653Y-105600415D01*
X121579619Y-103440381D01*
X121533254Y-103402296D01*
X121487229Y-103363676D01*
X121484231Y-103362028D01*
X121481592Y-103359860D01*
X121428676Y-103331486D01*
X121376062Y-103302562D01*
X121372806Y-103301529D01*
X121369792Y-103299913D01*
X121312336Y-103282347D01*
X121255143Y-103264204D01*
X121251749Y-103263823D01*
X121248477Y-103262823D01*
X121188729Y-103256754D01*
X121129075Y-103250063D01*
X121122393Y-103250017D01*
X121122269Y-103250004D01*
X121122153Y-103250015D01*
X121120000Y-103250000D01*
X93870000Y-103250000D01*
X93810226Y-103255861D01*
X93750432Y-103261092D01*
X93747150Y-103262045D01*
X93743748Y-103262379D01*
X93686232Y-103279744D01*
X93628610Y-103296485D01*
X93625579Y-103298056D01*
X93622304Y-103299045D01*
X93569252Y-103327253D01*
X93515985Y-103354864D01*
X93513316Y-103356995D01*
X93510295Y-103358601D01*
X93463768Y-103396548D01*
X93416842Y-103434008D01*
X93412083Y-103438702D01*
X93411988Y-103438779D01*
X93411915Y-103438867D01*
X93410380Y-103440381D01*
X87645000Y-109205762D01*
X87645000Y-103925673D01*
X87732694Y-103031294D01*
X87984985Y-102195667D01*
X88394774Y-101424966D01*
X88668067Y-101089877D01*
X88631105Y-101206394D01*
X88602528Y-101461166D01*
X88602400Y-101479507D01*
X88602400Y-101798493D01*
X88627417Y-102053639D01*
X88701516Y-102299067D01*
X88821875Y-102525428D01*
X88983908Y-102724100D01*
X89181444Y-102887517D01*
X89406960Y-103009452D01*
X89651864Y-103085263D01*
X89906829Y-103112061D01*
X90162144Y-103088826D01*
X90408083Y-103016442D01*
X90635279Y-102897667D01*
X90835078Y-102737024D01*
X90999869Y-102540634D01*
X91123376Y-102315975D01*
X91186522Y-102116916D01*
X91241516Y-102299067D01*
X91361875Y-102525428D01*
X91523908Y-102724100D01*
X91721444Y-102887517D01*
X91946960Y-103009452D01*
X92191864Y-103085263D01*
X92446829Y-103112061D01*
X92702144Y-103088826D01*
X92948083Y-103016442D01*
X93175279Y-102897667D01*
X93375078Y-102737024D01*
X93539869Y-102540634D01*
X93663376Y-102315975D01*
X93726522Y-102116916D01*
X93781516Y-102299067D01*
X93901875Y-102525428D01*
X94063908Y-102724100D01*
X94261444Y-102887517D01*
X94486960Y-103009452D01*
X94731864Y-103085263D01*
X94986829Y-103112061D01*
X95242144Y-103088826D01*
X95488083Y-103016442D01*
X95715279Y-102897667D01*
X95915078Y-102737024D01*
X96079869Y-102540634D01*
X96203376Y-102315975D01*
X96267476Y-102113907D01*
X96324305Y-102298713D01*
X96446559Y-102525355D01*
X96610680Y-102723792D01*
X96810360Y-102886397D01*
X97037926Y-103006922D01*
X97284633Y-103080736D01*
X97325571Y-103088035D01*
X97531000Y-102992490D01*
X97531000Y-101644000D01*
X97511000Y-101644000D01*
X97511000Y-101634000D01*
X97531000Y-101634000D01*
X97531000Y-100285510D01*
X97541000Y-100285510D01*
X97541000Y-101634000D01*
X97561000Y-101634000D01*
X97561000Y-101644000D01*
X97541000Y-101644000D01*
X97541000Y-102992490D01*
X97746429Y-103088035D01*
X97787367Y-103080736D01*
X98034074Y-103006922D01*
X98261640Y-102886397D01*
X98461320Y-102723792D01*
X98625441Y-102525355D01*
X98747695Y-102298713D01*
X98805073Y-102112120D01*
X98861516Y-102299067D01*
X98981875Y-102525428D01*
X99143908Y-102724100D01*
X99341444Y-102887517D01*
X99566960Y-103009452D01*
X99811864Y-103085263D01*
X100066829Y-103112061D01*
X100322144Y-103088826D01*
X100568083Y-103016442D01*
X100795279Y-102897667D01*
X100995078Y-102737024D01*
X101159869Y-102540634D01*
X101283376Y-102315975D01*
X101346522Y-102116916D01*
X101401516Y-102299067D01*
X101521875Y-102525428D01*
X101683908Y-102724100D01*
X101881444Y-102887517D01*
X102106960Y-103009452D01*
X102351864Y-103085263D01*
X102606829Y-103112061D01*
X102862144Y-103088826D01*
X103108083Y-103016442D01*
X103335279Y-102897667D01*
X103535078Y-102737024D01*
X103699869Y-102540634D01*
X103823376Y-102315975D01*
X103886522Y-102116916D01*
X103941516Y-102299067D01*
X104061875Y-102525428D01*
X104223908Y-102724100D01*
X104421444Y-102887517D01*
X104646960Y-103009452D01*
X104891864Y-103085263D01*
X105146829Y-103112061D01*
X105402144Y-103088826D01*
X105648083Y-103016442D01*
X105875279Y-102897667D01*
X106075078Y-102737024D01*
X106239869Y-102540634D01*
X106363376Y-102315975D01*
X106426522Y-102116916D01*
X106481516Y-102299067D01*
X106601875Y-102525428D01*
X106763908Y-102724100D01*
X106961444Y-102887517D01*
X107186960Y-103009452D01*
X107431864Y-103085263D01*
X107686829Y-103112061D01*
X107942144Y-103088826D01*
X108188083Y-103016442D01*
X108415279Y-102897667D01*
X108615078Y-102737024D01*
X108779869Y-102540634D01*
X108903376Y-102315975D01*
X108966522Y-102116916D01*
X109021516Y-102299067D01*
X109141875Y-102525428D01*
X109303908Y-102724100D01*
X109501444Y-102887517D01*
X109726960Y-103009452D01*
X109971864Y-103085263D01*
X110226829Y-103112061D01*
X110482144Y-103088826D01*
X110728083Y-103016442D01*
X110955279Y-102897667D01*
X111155078Y-102737024D01*
X111319869Y-102540634D01*
X111443376Y-102315975D01*
X111460223Y-102262867D01*
X111460223Y-102655000D01*
X111468911Y-102743215D01*
X111494643Y-102828041D01*
X111536429Y-102906216D01*
X111592663Y-102974737D01*
X111661184Y-103030971D01*
X111739359Y-103072757D01*
X111824185Y-103098489D01*
X111912400Y-103107177D01*
X113639600Y-103107177D01*
X113727815Y-103098489D01*
X113812641Y-103072757D01*
X113890816Y-103030971D01*
X113959337Y-102974737D01*
X114015571Y-102906216D01*
X114057357Y-102828041D01*
X114083089Y-102743215D01*
X114091777Y-102655000D01*
X114091777Y-101479507D01*
X115526400Y-101479507D01*
X115526400Y-101798493D01*
X115551417Y-102053639D01*
X115625516Y-102299067D01*
X115745875Y-102525428D01*
X115907908Y-102724100D01*
X116105444Y-102887517D01*
X116330960Y-103009452D01*
X116575864Y-103085263D01*
X116830829Y-103112061D01*
X117086144Y-103088826D01*
X117332083Y-103016442D01*
X117559279Y-102897667D01*
X117759078Y-102737024D01*
X117923869Y-102540634D01*
X118047376Y-102315975D01*
X118110522Y-102116916D01*
X118165516Y-102299067D01*
X118285875Y-102525428D01*
X118447908Y-102724100D01*
X118645444Y-102887517D01*
X118870960Y-103009452D01*
X119115864Y-103085263D01*
X119370829Y-103112061D01*
X119626144Y-103088826D01*
X119872083Y-103016442D01*
X120099279Y-102897667D01*
X120299078Y-102737024D01*
X120463869Y-102540634D01*
X120587376Y-102315975D01*
X120650522Y-102116916D01*
X120705516Y-102299067D01*
X120825875Y-102525428D01*
X120987908Y-102724100D01*
X121185444Y-102887517D01*
X121410960Y-103009452D01*
X121655864Y-103085263D01*
X121910829Y-103112061D01*
X122166144Y-103088826D01*
X122412083Y-103016442D01*
X122639279Y-102897667D01*
X122839078Y-102737024D01*
X123003869Y-102540634D01*
X123127376Y-102315975D01*
X123190522Y-102116916D01*
X123245516Y-102299067D01*
X123365875Y-102525428D01*
X123527908Y-102724100D01*
X123725444Y-102887517D01*
X123950960Y-103009452D01*
X124195864Y-103085263D01*
X124450829Y-103112061D01*
X124706144Y-103088826D01*
X124952083Y-103016442D01*
X125179279Y-102897667D01*
X125379078Y-102737024D01*
X125543869Y-102540634D01*
X125667376Y-102315975D01*
X125730522Y-102116916D01*
X125785516Y-102299067D01*
X125905875Y-102525428D01*
X126067908Y-102724100D01*
X126265444Y-102887517D01*
X126490960Y-103009452D01*
X126735864Y-103085263D01*
X126990829Y-103112061D01*
X127246144Y-103088826D01*
X127492083Y-103016442D01*
X127719279Y-102897667D01*
X127919078Y-102737024D01*
X128083869Y-102540634D01*
X128207376Y-102315975D01*
X128270522Y-102116916D01*
X128325516Y-102299067D01*
X128445875Y-102525428D01*
X128607908Y-102724100D01*
X128805444Y-102887517D01*
X129030960Y-103009452D01*
X129275864Y-103085263D01*
X129530829Y-103112061D01*
X129786144Y-103088826D01*
X130032083Y-103016442D01*
X130259279Y-102897667D01*
X130459078Y-102737024D01*
X130623869Y-102540634D01*
X130747376Y-102315975D01*
X130810522Y-102116916D01*
X130865516Y-102299067D01*
X130985875Y-102525428D01*
X131147908Y-102724100D01*
X131345444Y-102887517D01*
X131570960Y-103009452D01*
X131815864Y-103085263D01*
X132070829Y-103112061D01*
X132326144Y-103088826D01*
X132572083Y-103016442D01*
X132799279Y-102897667D01*
X132999078Y-102737024D01*
X133163869Y-102540634D01*
X133287376Y-102315975D01*
X133304223Y-102262867D01*
X133304223Y-102655000D01*
X133312911Y-102743215D01*
X133338643Y-102828041D01*
X133380429Y-102906216D01*
X133436663Y-102974737D01*
X133505184Y-103030971D01*
X133583359Y-103072757D01*
X133668185Y-103098489D01*
X133756400Y-103107177D01*
X135483600Y-103107177D01*
X135571815Y-103098489D01*
X135656641Y-103072757D01*
X135734816Y-103030971D01*
X135803337Y-102974737D01*
X135859571Y-102906216D01*
X135901357Y-102828041D01*
X135927089Y-102743215D01*
X135935777Y-102655000D01*
X135935777Y-100623000D01*
X135927089Y-100534785D01*
X135901357Y-100449959D01*
X135859571Y-100371784D01*
X135803337Y-100303263D01*
X135734816Y-100247029D01*
X135656641Y-100205243D01*
X135571815Y-100179511D01*
X135483600Y-100170823D01*
X133756400Y-100170823D01*
X133668185Y-100179511D01*
X133583359Y-100205243D01*
X133505184Y-100247029D01*
X133436663Y-100303263D01*
X133380429Y-100371784D01*
X133338643Y-100449959D01*
X133312911Y-100534785D01*
X133304223Y-100623000D01*
X133304223Y-101011190D01*
X133294484Y-100978933D01*
X133174125Y-100752572D01*
X133012092Y-100553900D01*
X132814556Y-100390483D01*
X132589040Y-100268548D01*
X132344136Y-100192737D01*
X132089171Y-100165939D01*
X131833856Y-100189174D01*
X131587917Y-100261558D01*
X131360721Y-100380333D01*
X131160922Y-100540976D01*
X130996131Y-100737366D01*
X130872624Y-100962025D01*
X130809478Y-101161084D01*
X130754484Y-100978933D01*
X130634125Y-100752572D01*
X130472092Y-100553900D01*
X130274556Y-100390483D01*
X130049040Y-100268548D01*
X129804136Y-100192737D01*
X129549171Y-100165939D01*
X129293856Y-100189174D01*
X129047917Y-100261558D01*
X128820721Y-100380333D01*
X128620922Y-100540976D01*
X128456131Y-100737366D01*
X128332624Y-100962025D01*
X128269478Y-101161084D01*
X128214484Y-100978933D01*
X128094125Y-100752572D01*
X127932092Y-100553900D01*
X127734556Y-100390483D01*
X127509040Y-100268548D01*
X127264136Y-100192737D01*
X127009171Y-100165939D01*
X126753856Y-100189174D01*
X126507917Y-100261558D01*
X126280721Y-100380333D01*
X126080922Y-100540976D01*
X125916131Y-100737366D01*
X125792624Y-100962025D01*
X125729478Y-101161084D01*
X125674484Y-100978933D01*
X125554125Y-100752572D01*
X125392092Y-100553900D01*
X125194556Y-100390483D01*
X124969040Y-100268548D01*
X124724136Y-100192737D01*
X124469171Y-100165939D01*
X124213856Y-100189174D01*
X123967917Y-100261558D01*
X123740721Y-100380333D01*
X123540922Y-100540976D01*
X123376131Y-100737366D01*
X123252624Y-100962025D01*
X123189478Y-101161084D01*
X123134484Y-100978933D01*
X123014125Y-100752572D01*
X122852092Y-100553900D01*
X122654556Y-100390483D01*
X122429040Y-100268548D01*
X122184136Y-100192737D01*
X121929171Y-100165939D01*
X121673856Y-100189174D01*
X121427917Y-100261558D01*
X121200721Y-100380333D01*
X121000922Y-100540976D01*
X120836131Y-100737366D01*
X120712624Y-100962025D01*
X120649478Y-101161084D01*
X120594484Y-100978933D01*
X120474125Y-100752572D01*
X120312092Y-100553900D01*
X120114556Y-100390483D01*
X119889040Y-100268548D01*
X119644136Y-100192737D01*
X119389171Y-100165939D01*
X119133856Y-100189174D01*
X118887917Y-100261558D01*
X118660721Y-100380333D01*
X118460922Y-100540976D01*
X118296131Y-100737366D01*
X118172624Y-100962025D01*
X118109478Y-101161084D01*
X118054484Y-100978933D01*
X117934125Y-100752572D01*
X117772092Y-100553900D01*
X117574556Y-100390483D01*
X117349040Y-100268548D01*
X117104136Y-100192737D01*
X116849171Y-100165939D01*
X116593856Y-100189174D01*
X116347917Y-100261558D01*
X116120721Y-100380333D01*
X115920922Y-100540976D01*
X115756131Y-100737366D01*
X115632624Y-100962025D01*
X115555105Y-101206394D01*
X115526528Y-101461166D01*
X115526400Y-101479507D01*
X114091777Y-101479507D01*
X114091777Y-100623000D01*
X114083089Y-100534785D01*
X114057357Y-100449959D01*
X114015571Y-100371784D01*
X113959337Y-100303263D01*
X113890816Y-100247029D01*
X113812641Y-100205243D01*
X113727815Y-100179511D01*
X113639600Y-100170823D01*
X111912400Y-100170823D01*
X111824185Y-100179511D01*
X111739359Y-100205243D01*
X111661184Y-100247029D01*
X111592663Y-100303263D01*
X111536429Y-100371784D01*
X111494643Y-100449959D01*
X111468911Y-100534785D01*
X111460223Y-100623000D01*
X111460223Y-101011190D01*
X111450484Y-100978933D01*
X111330125Y-100752572D01*
X111168092Y-100553900D01*
X110970556Y-100390483D01*
X110745040Y-100268548D01*
X110500136Y-100192737D01*
X110245171Y-100165939D01*
X109989856Y-100189174D01*
X109743917Y-100261558D01*
X109516721Y-100380333D01*
X109316922Y-100540976D01*
X109152131Y-100737366D01*
X109028624Y-100962025D01*
X108965478Y-101161084D01*
X108910484Y-100978933D01*
X108790125Y-100752572D01*
X108628092Y-100553900D01*
X108430556Y-100390483D01*
X108205040Y-100268548D01*
X107960136Y-100192737D01*
X107705171Y-100165939D01*
X107449856Y-100189174D01*
X107203917Y-100261558D01*
X106976721Y-100380333D01*
X106776922Y-100540976D01*
X106612131Y-100737366D01*
X106488624Y-100962025D01*
X106425478Y-101161084D01*
X106370484Y-100978933D01*
X106250125Y-100752572D01*
X106088092Y-100553900D01*
X105890556Y-100390483D01*
X105665040Y-100268548D01*
X105420136Y-100192737D01*
X105165171Y-100165939D01*
X104909856Y-100189174D01*
X104663917Y-100261558D01*
X104436721Y-100380333D01*
X104236922Y-100540976D01*
X104072131Y-100737366D01*
X103948624Y-100962025D01*
X103885478Y-101161084D01*
X103830484Y-100978933D01*
X103710125Y-100752572D01*
X103548092Y-100553900D01*
X103350556Y-100390483D01*
X103125040Y-100268548D01*
X102880136Y-100192737D01*
X102625171Y-100165939D01*
X102369856Y-100189174D01*
X102123917Y-100261558D01*
X101896721Y-100380333D01*
X101696922Y-100540976D01*
X101532131Y-100737366D01*
X101408624Y-100962025D01*
X101345478Y-101161084D01*
X101290484Y-100978933D01*
X101170125Y-100752572D01*
X101008092Y-100553900D01*
X100810556Y-100390483D01*
X100585040Y-100268548D01*
X100340136Y-100192737D01*
X100085171Y-100165939D01*
X99829856Y-100189174D01*
X99583917Y-100261558D01*
X99356721Y-100380333D01*
X99156922Y-100540976D01*
X98992131Y-100737366D01*
X98868624Y-100962025D01*
X98804524Y-101164093D01*
X98747695Y-100979287D01*
X98625441Y-100752645D01*
X98461320Y-100554208D01*
X98261640Y-100391603D01*
X98034074Y-100271078D01*
X97787367Y-100197264D01*
X97746429Y-100189965D01*
X97541000Y-100285510D01*
X97531000Y-100285510D01*
X97325571Y-100189965D01*
X97284633Y-100197264D01*
X97037926Y-100271078D01*
X96810360Y-100391603D01*
X96610680Y-100554208D01*
X96446559Y-100752645D01*
X96324305Y-100979287D01*
X96266927Y-101165880D01*
X96210484Y-100978933D01*
X96090125Y-100752572D01*
X95928092Y-100553900D01*
X95730556Y-100390483D01*
X95505040Y-100268548D01*
X95260136Y-100192737D01*
X95005171Y-100165939D01*
X94749856Y-100189174D01*
X94503917Y-100261558D01*
X94276721Y-100380333D01*
X94076922Y-100540976D01*
X93912131Y-100737366D01*
X93788624Y-100962025D01*
X93725478Y-101161084D01*
X93670484Y-100978933D01*
X93550125Y-100752572D01*
X93388092Y-100553900D01*
X93190556Y-100390483D01*
X92965040Y-100268548D01*
X92720136Y-100192737D01*
X92465171Y-100165939D01*
X92209856Y-100189174D01*
X91963917Y-100261558D01*
X91736721Y-100380333D01*
X91536922Y-100540976D01*
X91372131Y-100737366D01*
X91248624Y-100962025D01*
X91185478Y-101161084D01*
X91130484Y-100978933D01*
X91010125Y-100752572D01*
X90848092Y-100553900D01*
X90650556Y-100390483D01*
X90425040Y-100268548D01*
X90180136Y-100192737D01*
X89925171Y-100165939D01*
X89669856Y-100189174D01*
X89596518Y-100210759D01*
X89619017Y-100192146D01*
X90386844Y-99776983D01*
X91220682Y-99518867D01*
X92113522Y-99425026D01*
X92120977Y-99425000D01*
X151594327Y-99425000D01*
X152488706Y-99512694D01*
G36*
X123160381Y-106859619D02*
X123206746Y-106897704D01*
X123252771Y-106936324D01*
X123255769Y-106937972D01*
X123258408Y-106940140D01*
X123258968Y-106940440D01*
X123418403Y-107099876D01*
X123328586Y-107136164D01*
X123049619Y-107318715D01*
X122811423Y-107551973D01*
X122623070Y-107827056D01*
X122491735Y-108133484D01*
X122422420Y-108459586D01*
X122417765Y-108792941D01*
X122477948Y-109120851D01*
X122600676Y-109430827D01*
X122781274Y-109711061D01*
X123012865Y-109950880D01*
X123286625Y-110141148D01*
X123592129Y-110274619D01*
X123917739Y-110346209D01*
X124251053Y-110353191D01*
X124579376Y-110295299D01*
X124890201Y-110174738D01*
X125171689Y-109996100D01*
X125413119Y-109766190D01*
X125605294Y-109493764D01*
X125740895Y-109189200D01*
X125814756Y-108864097D01*
X125820073Y-108483306D01*
X125755318Y-108156268D01*
X125676989Y-107966227D01*
X127175381Y-109464620D01*
X127221776Y-109502729D01*
X127267771Y-109541324D01*
X127270768Y-109542972D01*
X127273408Y-109545140D01*
X127326324Y-109573514D01*
X127378938Y-109602438D01*
X127382194Y-109603471D01*
X127385208Y-109605087D01*
X127442664Y-109622653D01*
X127499857Y-109640796D01*
X127503251Y-109641177D01*
X127506523Y-109642177D01*
X127566271Y-109648246D01*
X127625925Y-109654937D01*
X127632607Y-109654983D01*
X127632731Y-109654996D01*
X127632847Y-109654985D01*
X127635000Y-109655000D01*
X133715762Y-109655000D01*
X141590000Y-117529238D01*
X141590000Y-132230762D01*
X131940762Y-141880000D01*
X91164885Y-141880000D01*
X91128667Y-141810721D01*
X90968024Y-141610922D01*
X90771634Y-141446131D01*
X90546975Y-141322624D01*
X90347916Y-141259478D01*
X90530067Y-141204484D01*
X90756428Y-141084125D01*
X90955100Y-140922092D01*
X91118517Y-140724556D01*
X91240452Y-140499040D01*
X91316263Y-140254136D01*
X91343061Y-139999171D01*
X91319826Y-139743856D01*
X91247442Y-139497917D01*
X91128667Y-139270721D01*
X90968024Y-139070922D01*
X90771634Y-138906131D01*
X90546975Y-138782624D01*
X90347916Y-138719478D01*
X90488535Y-138677023D01*
X104816451Y-138677023D01*
X104912035Y-139197822D01*
X105106956Y-139690136D01*
X105393789Y-140135214D01*
X105761609Y-140516102D01*
X106196406Y-140818293D01*
X106681617Y-141030277D01*
X107198762Y-141143979D01*
X107728144Y-141155068D01*
X108249597Y-141063122D01*
X108743260Y-140871642D01*
X109190329Y-140587924D01*
X109573776Y-140222772D01*
X109878995Y-139790096D01*
X110094361Y-139306376D01*
X110211671Y-138790037D01*
X110220116Y-138185251D01*
X110117269Y-137665838D01*
X109915493Y-137176294D01*
X109622474Y-136735264D01*
X109249372Y-136359548D01*
X108810399Y-136063457D01*
X108322275Y-135858269D01*
X107803592Y-135751798D01*
X107274108Y-135748102D01*
X106753990Y-135847320D01*
X106263048Y-136045673D01*
X105819984Y-136335606D01*
X105441672Y-136706076D01*
X105142524Y-137142971D01*
X104933933Y-137629651D01*
X104823844Y-138147578D01*
X104816451Y-138677023D01*
X90488535Y-138677023D01*
X90530067Y-138664484D01*
X90756428Y-138544125D01*
X90955100Y-138382092D01*
X91118517Y-138184556D01*
X91240452Y-137959040D01*
X91316263Y-137714136D01*
X91343061Y-137459171D01*
X91319826Y-137203856D01*
X91247442Y-136957917D01*
X91241908Y-136947330D01*
X92079619Y-136109619D01*
X92117704Y-136063254D01*
X92156324Y-136017229D01*
X92157972Y-136014231D01*
X92160140Y-136011592D01*
X92188514Y-135958676D01*
X92217438Y-135906062D01*
X92218471Y-135902806D01*
X92220087Y-135899792D01*
X92237653Y-135842336D01*
X92255796Y-135785143D01*
X92256177Y-135781749D01*
X92257177Y-135778477D01*
X92263246Y-135718729D01*
X92269937Y-135659075D01*
X92269983Y-135652393D01*
X92269996Y-135652269D01*
X92269985Y-135652153D01*
X92270000Y-135650000D01*
X92270000Y-132971470D01*
X107768882Y-132971470D01*
X107798974Y-133135425D01*
X107860338Y-133290413D01*
X107950637Y-133430530D01*
X108066432Y-133550440D01*
X108203313Y-133645574D01*
X108356065Y-133712310D01*
X108518870Y-133748105D01*
X108549509Y-133748747D01*
X110268928Y-135468166D01*
X110268882Y-135471470D01*
X110298974Y-135635425D01*
X110360338Y-135790413D01*
X110450637Y-135930530D01*
X110566432Y-136050440D01*
X110703313Y-136145574D01*
X110856065Y-136212310D01*
X111018870Y-136248105D01*
X111185527Y-136251596D01*
X111349688Y-136222650D01*
X111505100Y-136162369D01*
X111645844Y-136073050D01*
X111766559Y-135958095D01*
X111862647Y-135821882D01*
X111930447Y-135669600D01*
X111967378Y-135507049D01*
X111970037Y-135316653D01*
X111937659Y-135153134D01*
X111874137Y-134999018D01*
X111781890Y-134860176D01*
X111664432Y-134741895D01*
X111526237Y-134648681D01*
X111372568Y-134584084D01*
X111209279Y-134550566D01*
X111189667Y-134550429D01*
X110682179Y-134042941D01*
X111667765Y-134042941D01*
X111727948Y-134370851D01*
X111850676Y-134680827D01*
X112031274Y-134961061D01*
X112262865Y-135200880D01*
X112536625Y-135391148D01*
X112842129Y-135524619D01*
X113167739Y-135596209D01*
X113501053Y-135603191D01*
X113829376Y-135545299D01*
X114140201Y-135424738D01*
X114421689Y-135246100D01*
X114663119Y-135016190D01*
X114855294Y-134743764D01*
X114990895Y-134439200D01*
X115064756Y-134114097D01*
X115070073Y-133733306D01*
X115005318Y-133406268D01*
X114878274Y-133098036D01*
X114693780Y-132820351D01*
X114458864Y-132583789D01*
X114182474Y-132397361D01*
X113875136Y-132268169D01*
X113548558Y-132201132D01*
X113215179Y-132198804D01*
X112887697Y-132261275D01*
X112578586Y-132386164D01*
X112299619Y-132568715D01*
X112061423Y-132801973D01*
X111873070Y-133077056D01*
X111741735Y-133383484D01*
X111672420Y-133709586D01*
X111667765Y-134042941D01*
X110682179Y-134042941D01*
X109469842Y-132830604D01*
X109470037Y-132816653D01*
X109437659Y-132653134D01*
X109374137Y-132499018D01*
X109281890Y-132360176D01*
X109164432Y-132241895D01*
X109026237Y-132148681D01*
X108872568Y-132084084D01*
X108709279Y-132050566D01*
X108542590Y-132049402D01*
X108378848Y-132080637D01*
X108224293Y-132143082D01*
X108084810Y-132234357D01*
X107965711Y-132350987D01*
X107871535Y-132488528D01*
X107805867Y-132641742D01*
X107771210Y-132804793D01*
X107768882Y-132971470D01*
X92270000Y-132971470D01*
X92270000Y-132419238D01*
X92889239Y-131800000D01*
X112620000Y-131800000D01*
X112679778Y-131794139D01*
X112739568Y-131788908D01*
X112742850Y-131787955D01*
X112746252Y-131787621D01*
X112803735Y-131770266D01*
X112861389Y-131753516D01*
X112864424Y-131751943D01*
X112867696Y-131750955D01*
X112920731Y-131722756D01*
X112974015Y-131695136D01*
X112976684Y-131693005D01*
X112979705Y-131691399D01*
X113026232Y-131653452D01*
X113073158Y-131615992D01*
X113077913Y-131611302D01*
X113078012Y-131611221D01*
X113078091Y-131611126D01*
X113079619Y-131609619D01*
X117700557Y-126988682D01*
X117841386Y-128244204D01*
X118506749Y-130341695D01*
X119566845Y-132270003D01*
X120981296Y-133955679D01*
X122696225Y-135334518D01*
X124646311Y-136353998D01*
X126757276Y-136975289D01*
X128948714Y-137174725D01*
X131137154Y-136944711D01*
X133239238Y-136294007D01*
X135174900Y-135247399D01*
X136870410Y-133844751D01*
X138261187Y-132139490D01*
X139294257Y-130196568D01*
X139930269Y-128089992D01*
X140145000Y-125900000D01*
X140140604Y-125585184D01*
X139864809Y-123402041D01*
X139170225Y-121314044D01*
X138083309Y-119400726D01*
X136645460Y-117734962D01*
X134911447Y-116380203D01*
X132947317Y-115388049D01*
X130827883Y-114796293D01*
X128633874Y-114627473D01*
X126448859Y-114888020D01*
X124356065Y-115568010D01*
X122435205Y-116641543D01*
X120759444Y-118067727D01*
X119392612Y-119792240D01*
X118386770Y-121749396D01*
X118270000Y-122156622D01*
X118270000Y-120169238D01*
X124354243Y-114084996D01*
X124579376Y-114045299D01*
X124890201Y-113924738D01*
X125171689Y-113746100D01*
X125413119Y-113516190D01*
X125605294Y-113243764D01*
X125694706Y-113042941D01*
X131417765Y-113042941D01*
X131477948Y-113370851D01*
X131600676Y-113680827D01*
X131781274Y-113961061D01*
X132012865Y-114200880D01*
X132286625Y-114391148D01*
X132592129Y-114524619D01*
X132917739Y-114596209D01*
X133251053Y-114603191D01*
X133579376Y-114545299D01*
X133890201Y-114424738D01*
X134171689Y-114246100D01*
X134413119Y-114016190D01*
X134605294Y-113743764D01*
X134740895Y-113439200D01*
X134814756Y-113114097D01*
X134820073Y-112733306D01*
X134755318Y-112406268D01*
X134628274Y-112098036D01*
X134443780Y-111820351D01*
X134208864Y-111583789D01*
X133932474Y-111397361D01*
X133625136Y-111268169D01*
X133298558Y-111201132D01*
X132965179Y-111198804D01*
X132637697Y-111261275D01*
X132328586Y-111386164D01*
X132049619Y-111568715D01*
X131811423Y-111801973D01*
X131623070Y-112077056D01*
X131491735Y-112383484D01*
X131422420Y-112709586D01*
X131417765Y-113042941D01*
X125694706Y-113042941D01*
X125740895Y-112939200D01*
X125814756Y-112614097D01*
X125820073Y-112233306D01*
X125755318Y-111906268D01*
X125628274Y-111598036D01*
X125443780Y-111320351D01*
X125208864Y-111083789D01*
X124932474Y-110897361D01*
X124625136Y-110768169D01*
X124298558Y-110701132D01*
X123965179Y-110698804D01*
X123637697Y-110761275D01*
X123328586Y-110886164D01*
X123049619Y-111068715D01*
X122811423Y-111301973D01*
X122623070Y-111577056D01*
X122571549Y-111697264D01*
X122458864Y-111583789D01*
X122182474Y-111397361D01*
X121875136Y-111268169D01*
X121548558Y-111201132D01*
X121215179Y-111198804D01*
X120887697Y-111261275D01*
X120578586Y-111386164D01*
X120299619Y-111568715D01*
X120061423Y-111801973D01*
X119920010Y-112008502D01*
X119920010Y-111300010D01*
X119914149Y-111240232D01*
X119908918Y-111180442D01*
X119907965Y-111177160D01*
X119907631Y-111173758D01*
X119890276Y-111116275D01*
X119873526Y-111058621D01*
X119871953Y-111055586D01*
X119870965Y-111052314D01*
X119842766Y-110999279D01*
X119815146Y-110945995D01*
X119813015Y-110943326D01*
X119811409Y-110940305D01*
X119773462Y-110893778D01*
X119736002Y-110846852D01*
X119731312Y-110842097D01*
X119731231Y-110841998D01*
X119731139Y-110841922D01*
X119729629Y-110840391D01*
X119440847Y-110551609D01*
X119490895Y-110439200D01*
X119564756Y-110114097D01*
X119570073Y-109733306D01*
X119505318Y-109406268D01*
X119378274Y-109098036D01*
X119193780Y-108820351D01*
X118958864Y-108583789D01*
X118682474Y-108397361D01*
X118375136Y-108268169D01*
X118048558Y-108201132D01*
X117715179Y-108198804D01*
X117387697Y-108261275D01*
X117078586Y-108386164D01*
X116799619Y-108568715D01*
X116561423Y-108801973D01*
X116435243Y-108986254D01*
X116378274Y-108848036D01*
X116193780Y-108570351D01*
X115958864Y-108333789D01*
X115682474Y-108147361D01*
X115375136Y-108018169D01*
X115048558Y-107951132D01*
X114715179Y-107948804D01*
X114387697Y-108011275D01*
X114078586Y-108136164D01*
X113799619Y-108318715D01*
X113561423Y-108551973D01*
X113373070Y-108827056D01*
X113241735Y-109133484D01*
X113172420Y-109459586D01*
X113167765Y-109792941D01*
X113227948Y-110120851D01*
X113350676Y-110430827D01*
X113531274Y-110711061D01*
X113578545Y-110760012D01*
X113513914Y-110737811D01*
X113182068Y-110692901D01*
X112847837Y-110713593D01*
X112524065Y-110799093D01*
X112223194Y-110946116D01*
X112119979Y-111015083D01*
X111995193Y-111268121D01*
X113120000Y-112392929D01*
X113134142Y-112378786D01*
X113141214Y-112385858D01*
X113127071Y-112400000D01*
X114251879Y-113524807D01*
X114504917Y-113400021D01*
X114673401Y-113110622D01*
X114782189Y-112793914D01*
X114827099Y-112462068D01*
X114806407Y-112127837D01*
X114720907Y-111804065D01*
X114573884Y-111503194D01*
X114504917Y-111399979D01*
X114251880Y-111275194D01*
X114279721Y-111247353D01*
X114342129Y-111274619D01*
X114667739Y-111346209D01*
X115001053Y-111353191D01*
X115329376Y-111295299D01*
X115521529Y-111220768D01*
X117970000Y-113669239D01*
X117970000Y-116792253D01*
X117540238Y-117222016D01*
X117564756Y-117114097D01*
X117570073Y-116733306D01*
X117505318Y-116406268D01*
X117378274Y-116098036D01*
X117193780Y-115820351D01*
X116958864Y-115583789D01*
X116682474Y-115397361D01*
X116375136Y-115268169D01*
X116048558Y-115201132D01*
X115715179Y-115198804D01*
X115387697Y-115261275D01*
X115078586Y-115386164D01*
X114799619Y-115568715D01*
X114561423Y-115801973D01*
X114373070Y-116077056D01*
X114369645Y-116085048D01*
X114193780Y-115820351D01*
X113958864Y-115583789D01*
X113682474Y-115397361D01*
X113375136Y-115268169D01*
X113048558Y-115201132D01*
X112715179Y-115198804D01*
X112387697Y-115261275D01*
X112078586Y-115386164D01*
X111799619Y-115568715D01*
X111569221Y-115794337D01*
X111570073Y-115733306D01*
X111505318Y-115406268D01*
X111378274Y-115098036D01*
X111193780Y-114820351D01*
X110958864Y-114583789D01*
X110682474Y-114397361D01*
X110375136Y-114268169D01*
X110048558Y-114201132D01*
X109715179Y-114198804D01*
X109387697Y-114261275D01*
X109078586Y-114386164D01*
X108799619Y-114568715D01*
X108561423Y-114801973D01*
X108373070Y-115077056D01*
X108241735Y-115383484D01*
X108172420Y-115709586D01*
X108167765Y-116042941D01*
X108227948Y-116370851D01*
X108350676Y-116680827D01*
X108524146Y-116950001D01*
X107589239Y-116950001D01*
X104171117Y-113531879D01*
X111995193Y-113531879D01*
X112119979Y-113784917D01*
X112409378Y-113953401D01*
X112726086Y-114062189D01*
X113057932Y-114107099D01*
X113392163Y-114086407D01*
X113715935Y-114000907D01*
X114016806Y-113853884D01*
X114120021Y-113784917D01*
X114244807Y-113531879D01*
X113120000Y-112407071D01*
X111995193Y-113531879D01*
X104171117Y-113531879D01*
X103535618Y-112896380D01*
X103699869Y-112700634D01*
X103823376Y-112475975D01*
X103886522Y-112276916D01*
X103941516Y-112459067D01*
X104061875Y-112685428D01*
X104223908Y-112884100D01*
X104421444Y-113047517D01*
X104646960Y-113169452D01*
X104891864Y-113245263D01*
X105146829Y-113272061D01*
X105402144Y-113248826D01*
X105648083Y-113176442D01*
X105875279Y-113057667D01*
X106075078Y-112897024D01*
X106239869Y-112700634D01*
X106363376Y-112475975D01*
X106426522Y-112276916D01*
X106481516Y-112459067D01*
X106601875Y-112685428D01*
X106763908Y-112884100D01*
X106961444Y-113047517D01*
X107186960Y-113169452D01*
X107431864Y-113245263D01*
X107686829Y-113272061D01*
X107942144Y-113248826D01*
X108188083Y-113176442D01*
X108415279Y-113057667D01*
X108615078Y-112897024D01*
X108779869Y-112700634D01*
X108903376Y-112475975D01*
X108947166Y-112337932D01*
X111412901Y-112337932D01*
X111433593Y-112672163D01*
X111519093Y-112995935D01*
X111666116Y-113296806D01*
X111735083Y-113400021D01*
X111988121Y-113524807D01*
X113112929Y-112400000D01*
X111988121Y-111275193D01*
X111735083Y-111399979D01*
X111566599Y-111689378D01*
X111457811Y-112006086D01*
X111412901Y-112337932D01*
X108947166Y-112337932D01*
X108980895Y-112231606D01*
X109009472Y-111976834D01*
X109009600Y-111958493D01*
X109009600Y-111639507D01*
X108984583Y-111384361D01*
X108910484Y-111138933D01*
X108790125Y-110912572D01*
X108628092Y-110713900D01*
X108430556Y-110550483D01*
X108205040Y-110428548D01*
X107960136Y-110352737D01*
X107705171Y-110325939D01*
X107449856Y-110349174D01*
X107203917Y-110421558D01*
X106976721Y-110540333D01*
X106776922Y-110700976D01*
X106612131Y-110897366D01*
X106488624Y-111122025D01*
X106425478Y-111321084D01*
X106370484Y-111138933D01*
X106250125Y-110912572D01*
X106088092Y-110713900D01*
X105890556Y-110550483D01*
X105665040Y-110428548D01*
X105420136Y-110352737D01*
X105165171Y-110325939D01*
X104909856Y-110349174D01*
X104663917Y-110421558D01*
X104436721Y-110540333D01*
X104236922Y-110700976D01*
X104072131Y-110897366D01*
X103948624Y-111122025D01*
X103885478Y-111321084D01*
X103830484Y-111138933D01*
X103710125Y-110912572D01*
X103548092Y-110713900D01*
X103350556Y-110550483D01*
X103125040Y-110428548D01*
X102880136Y-110352737D01*
X102625171Y-110325939D01*
X102369856Y-110349174D01*
X102123917Y-110421558D01*
X101896721Y-110540333D01*
X101696922Y-110700976D01*
X101532131Y-110897366D01*
X101408624Y-111122025D01*
X101345478Y-111321084D01*
X101290484Y-111138933D01*
X101170125Y-110912572D01*
X101008092Y-110713900D01*
X100810556Y-110550483D01*
X100585040Y-110428548D01*
X100340136Y-110352737D01*
X100085171Y-110325939D01*
X99829856Y-110349174D01*
X99583917Y-110421558D01*
X99356721Y-110540333D01*
X99156922Y-110700976D01*
X98992131Y-110897366D01*
X98868624Y-111122025D01*
X98805478Y-111321084D01*
X98750484Y-111138933D01*
X98630125Y-110912572D01*
X98468092Y-110713900D01*
X98270556Y-110550483D01*
X98045040Y-110428548D01*
X97800136Y-110352737D01*
X97545171Y-110325939D01*
X97289856Y-110349174D01*
X97043917Y-110421558D01*
X96816721Y-110540333D01*
X96616922Y-110700976D01*
X96452131Y-110897366D01*
X96328624Y-111122025D01*
X96265478Y-111321084D01*
X96210484Y-111138933D01*
X96090125Y-110912572D01*
X95928092Y-110713900D01*
X95730556Y-110550483D01*
X95505040Y-110428548D01*
X95260136Y-110352737D01*
X95005171Y-110325939D01*
X94749856Y-110349174D01*
X94503917Y-110421558D01*
X94276721Y-110540333D01*
X94076922Y-110700976D01*
X93912131Y-110897366D01*
X93788624Y-111122025D01*
X93725478Y-111321084D01*
X93670484Y-111138933D01*
X93550125Y-110912572D01*
X93388092Y-110713900D01*
X93190556Y-110550483D01*
X92965040Y-110428548D01*
X92720136Y-110352737D01*
X92465171Y-110325939D01*
X92209856Y-110349174D01*
X91963917Y-110421558D01*
X91736721Y-110540333D01*
X91536922Y-110700976D01*
X91372131Y-110897366D01*
X91248624Y-111122025D01*
X91231777Y-111175133D01*
X91231777Y-110783000D01*
X91223089Y-110694785D01*
X91197357Y-110609959D01*
X91155571Y-110531784D01*
X91099337Y-110463263D01*
X91030816Y-110407029D01*
X90952641Y-110365243D01*
X90867815Y-110339511D01*
X90779600Y-110330823D01*
X89052400Y-110330823D01*
X88964185Y-110339511D01*
X88879359Y-110365243D01*
X88801184Y-110407029D01*
X88732663Y-110463263D01*
X88676429Y-110531784D01*
X88634643Y-110609959D01*
X88608911Y-110694785D01*
X88600223Y-110783000D01*
X88600223Y-112815000D01*
X88608911Y-112903215D01*
X88634643Y-112988041D01*
X88676429Y-113066216D01*
X88732663Y-113134737D01*
X88801184Y-113190971D01*
X88879359Y-113232757D01*
X88964185Y-113258489D01*
X89052400Y-113267177D01*
X90779600Y-113267177D01*
X90867815Y-113258489D01*
X90952641Y-113232757D01*
X91030816Y-113190971D01*
X91099337Y-113134737D01*
X91155571Y-113066216D01*
X91197357Y-112988041D01*
X91223089Y-112903215D01*
X91231777Y-112815000D01*
X91231777Y-112426810D01*
X91241516Y-112459067D01*
X91361875Y-112685428D01*
X91523908Y-112884100D01*
X91721444Y-113047517D01*
X91946960Y-113169452D01*
X92191864Y-113245263D01*
X92446829Y-113272061D01*
X92702144Y-113248826D01*
X92948083Y-113176442D01*
X93175279Y-113057667D01*
X93375078Y-112897024D01*
X93539869Y-112700634D01*
X93663376Y-112475975D01*
X93726522Y-112276916D01*
X93781516Y-112459067D01*
X93901875Y-112685428D01*
X94063908Y-112884100D01*
X94261444Y-113047517D01*
X94486960Y-113169452D01*
X94731864Y-113245263D01*
X94986829Y-113272061D01*
X95242144Y-113248826D01*
X95344162Y-113218800D01*
X107544600Y-125419238D01*
X107544600Y-127474600D01*
X107550461Y-127534378D01*
X107555692Y-127594168D01*
X107556645Y-127597450D01*
X107556979Y-127600852D01*
X107574334Y-127658335D01*
X107591084Y-127715989D01*
X107592657Y-127719024D01*
X107593645Y-127722296D01*
X107621844Y-127775331D01*
X107649464Y-127828615D01*
X107651595Y-127831284D01*
X107653201Y-127834305D01*
X107691148Y-127880832D01*
X107728608Y-127927758D01*
X107733298Y-127932513D01*
X107733379Y-127932612D01*
X107733471Y-127932688D01*
X107734981Y-127934219D01*
X107768928Y-127968166D01*
X107768882Y-127971470D01*
X107798974Y-128135425D01*
X107860338Y-128290413D01*
X107950637Y-128430530D01*
X108065977Y-128549969D01*
X104640627Y-128549969D01*
X104849597Y-128513122D01*
X105343260Y-128321642D01*
X105790329Y-128037924D01*
X106173776Y-127672772D01*
X106478995Y-127240096D01*
X106694361Y-126756376D01*
X106811671Y-126240037D01*
X106820116Y-125635251D01*
X106717269Y-125115838D01*
X106515493Y-124626294D01*
X106222474Y-124185264D01*
X105849372Y-123809548D01*
X105410399Y-123513457D01*
X104922275Y-123308269D01*
X104403592Y-123201798D01*
X103874108Y-123198102D01*
X103353990Y-123297320D01*
X102863048Y-123495673D01*
X102419984Y-123785606D01*
X102041672Y-124156076D01*
X101742524Y-124592971D01*
X101533933Y-125079651D01*
X101423844Y-125597578D01*
X101416451Y-126127023D01*
X101512035Y-126647822D01*
X101706956Y-127140136D01*
X101993789Y-127585214D01*
X102361609Y-127966102D01*
X102796406Y-128268293D01*
X103281617Y-128480277D01*
X103598594Y-128549969D01*
X101939207Y-128549969D01*
X98270000Y-124880762D01*
X98270000Y-117703217D01*
X98362647Y-117571882D01*
X98430447Y-117419600D01*
X98467378Y-117257049D01*
X98470037Y-117066653D01*
X98437659Y-116903134D01*
X98374137Y-116749018D01*
X98281890Y-116610176D01*
X98164432Y-116491895D01*
X98026237Y-116398681D01*
X97872568Y-116334084D01*
X97709279Y-116300566D01*
X97542590Y-116299402D01*
X97378848Y-116330637D01*
X97224293Y-116393082D01*
X97084810Y-116484357D01*
X96965711Y-116600987D01*
X96871535Y-116738528D01*
X96805867Y-116891742D01*
X96771210Y-117054793D01*
X96768882Y-117221470D01*
X96798974Y-117385425D01*
X96860338Y-117540413D01*
X96950637Y-117680530D01*
X96970000Y-117700581D01*
X96970000Y-125150000D01*
X96975861Y-125209778D01*
X96981092Y-125269568D01*
X96982045Y-125272850D01*
X96982379Y-125276252D01*
X96999734Y-125333735D01*
X97016484Y-125391389D01*
X97018057Y-125394424D01*
X97019045Y-125397696D01*
X97047244Y-125450731D01*
X97074864Y-125504015D01*
X97076995Y-125506684D01*
X97078601Y-125509705D01*
X97116548Y-125556232D01*
X97154008Y-125603158D01*
X97158698Y-125607913D01*
X97158779Y-125608012D01*
X97158871Y-125608088D01*
X97160381Y-125609619D01*
X100750738Y-129199978D01*
X91439345Y-129199978D01*
X91421143Y-129194204D01*
X91417749Y-129193823D01*
X91414477Y-129192823D01*
X91354729Y-129186754D01*
X91295075Y-129180063D01*
X91288393Y-129180017D01*
X91288269Y-129180004D01*
X91288153Y-129180015D01*
X91286000Y-129180000D01*
X91164885Y-129180000D01*
X91128667Y-129110721D01*
X90968024Y-128910922D01*
X90771634Y-128746131D01*
X90546975Y-128622624D01*
X90347916Y-128559478D01*
X90530067Y-128504484D01*
X90756428Y-128384125D01*
X90955100Y-128222092D01*
X91118517Y-128024556D01*
X91240452Y-127799040D01*
X91316263Y-127554136D01*
X91343061Y-127299171D01*
X91319826Y-127043856D01*
X91247442Y-126797917D01*
X91128667Y-126570721D01*
X90968024Y-126370922D01*
X90771634Y-126206131D01*
X90546975Y-126082624D01*
X90347916Y-126019478D01*
X90530067Y-125964484D01*
X90756428Y-125844125D01*
X90955100Y-125682092D01*
X91118517Y-125484556D01*
X91240452Y-125259040D01*
X91316263Y-125014136D01*
X91343061Y-124759171D01*
X91319826Y-124503856D01*
X91247442Y-124257917D01*
X91128667Y-124030721D01*
X90968024Y-123830922D01*
X90771634Y-123666131D01*
X90546975Y-123542624D01*
X90347916Y-123479478D01*
X90530067Y-123424484D01*
X90756428Y-123304125D01*
X90955100Y-123142092D01*
X91118517Y-122944556D01*
X91240452Y-122719040D01*
X91316263Y-122474136D01*
X91343061Y-122219171D01*
X91319826Y-121963856D01*
X91247442Y-121717917D01*
X91128667Y-121490721D01*
X90968024Y-121290922D01*
X90771634Y-121126131D01*
X90546975Y-121002624D01*
X90493867Y-120985777D01*
X90886000Y-120985777D01*
X90974215Y-120977089D01*
X91059041Y-120951357D01*
X91137216Y-120909571D01*
X91205737Y-120853337D01*
X91261971Y-120784816D01*
X91303757Y-120706641D01*
X91329489Y-120621815D01*
X91338177Y-120533600D01*
X91338177Y-118806400D01*
X91329489Y-118718185D01*
X91303757Y-118633359D01*
X91261971Y-118555184D01*
X91205737Y-118486663D01*
X91137216Y-118430429D01*
X91059041Y-118388643D01*
X90974215Y-118362911D01*
X90886000Y-118354223D01*
X88854000Y-118354223D01*
X88765785Y-118362911D01*
X88680959Y-118388643D01*
X88602784Y-118430429D01*
X88534263Y-118486663D01*
X88520000Y-118504042D01*
X88520000Y-110169238D01*
X91896297Y-106792941D01*
X118417765Y-106792941D01*
X118477948Y-107120851D01*
X118600676Y-107430827D01*
X118781274Y-107711061D01*
X119012865Y-107950880D01*
X119286625Y-108141148D01*
X119592129Y-108274619D01*
X119917739Y-108346209D01*
X120251053Y-108353191D01*
X120579376Y-108295299D01*
X120890201Y-108174738D01*
X121171689Y-107996100D01*
X121413119Y-107766190D01*
X121605294Y-107493764D01*
X121740895Y-107189200D01*
X121814756Y-106864097D01*
X121820073Y-106483306D01*
X121755318Y-106156268D01*
X121628274Y-105848036D01*
X121443780Y-105570351D01*
X121208864Y-105333789D01*
X120932474Y-105147361D01*
X120625136Y-105018169D01*
X120298558Y-104951132D01*
X119965179Y-104948804D01*
X119637697Y-105011275D01*
X119328586Y-105136164D01*
X119049619Y-105318715D01*
X118811423Y-105551973D01*
X118623070Y-105827056D01*
X118491735Y-106133484D01*
X118422420Y-106459586D01*
X118417765Y-106792941D01*
X91896297Y-106792941D01*
X94139239Y-104550000D01*
X120850762Y-104550000D01*
X123160381Y-106859619D01*
X123160381Y-106859619D01*
G37*
X123160381Y-106859619D02*
X123206746Y-106897704D01*
X123252771Y-106936324D01*
X123255769Y-106937972D01*
X123258408Y-106940140D01*
X123258968Y-106940440D01*
X123418403Y-107099876D01*
X123328586Y-107136164D01*
X123049619Y-107318715D01*
X122811423Y-107551973D01*
X122623070Y-107827056D01*
X122491735Y-108133484D01*
X122422420Y-108459586D01*
X122417765Y-108792941D01*
X122477948Y-109120851D01*
X122600676Y-109430827D01*
X122781274Y-109711061D01*
X123012865Y-109950880D01*
X123286625Y-110141148D01*
X123592129Y-110274619D01*
X123917739Y-110346209D01*
X124251053Y-110353191D01*
X124579376Y-110295299D01*
X124890201Y-110174738D01*
X125171689Y-109996100D01*
X125413119Y-109766190D01*
X125605294Y-109493764D01*
X125740895Y-109189200D01*
X125814756Y-108864097D01*
X125820073Y-108483306D01*
X125755318Y-108156268D01*
X125676989Y-107966227D01*
X127175381Y-109464620D01*
X127221776Y-109502729D01*
X127267771Y-109541324D01*
X127270768Y-109542972D01*
X127273408Y-109545140D01*
X127326324Y-109573514D01*
X127378938Y-109602438D01*
X127382194Y-109603471D01*
X127385208Y-109605087D01*
X127442664Y-109622653D01*
X127499857Y-109640796D01*
X127503251Y-109641177D01*
X127506523Y-109642177D01*
X127566271Y-109648246D01*
X127625925Y-109654937D01*
X127632607Y-109654983D01*
X127632731Y-109654996D01*
X127632847Y-109654985D01*
X127635000Y-109655000D01*
X133715762Y-109655000D01*
X141590000Y-117529238D01*
X141590000Y-132230762D01*
X131940762Y-141880000D01*
X91164885Y-141880000D01*
X91128667Y-141810721D01*
X90968024Y-141610922D01*
X90771634Y-141446131D01*
X90546975Y-141322624D01*
X90347916Y-141259478D01*
X90530067Y-141204484D01*
X90756428Y-141084125D01*
X90955100Y-140922092D01*
X91118517Y-140724556D01*
X91240452Y-140499040D01*
X91316263Y-140254136D01*
X91343061Y-139999171D01*
X91319826Y-139743856D01*
X91247442Y-139497917D01*
X91128667Y-139270721D01*
X90968024Y-139070922D01*
X90771634Y-138906131D01*
X90546975Y-138782624D01*
X90347916Y-138719478D01*
X90488535Y-138677023D01*
X104816451Y-138677023D01*
X104912035Y-139197822D01*
X105106956Y-139690136D01*
X105393789Y-140135214D01*
X105761609Y-140516102D01*
X106196406Y-140818293D01*
X106681617Y-141030277D01*
X107198762Y-141143979D01*
X107728144Y-141155068D01*
X108249597Y-141063122D01*
X108743260Y-140871642D01*
X109190329Y-140587924D01*
X109573776Y-140222772D01*
X109878995Y-139790096D01*
X110094361Y-139306376D01*
X110211671Y-138790037D01*
X110220116Y-138185251D01*
X110117269Y-137665838D01*
X109915493Y-137176294D01*
X109622474Y-136735264D01*
X109249372Y-136359548D01*
X108810399Y-136063457D01*
X108322275Y-135858269D01*
X107803592Y-135751798D01*
X107274108Y-135748102D01*
X106753990Y-135847320D01*
X106263048Y-136045673D01*
X105819984Y-136335606D01*
X105441672Y-136706076D01*
X105142524Y-137142971D01*
X104933933Y-137629651D01*
X104823844Y-138147578D01*
X104816451Y-138677023D01*
X90488535Y-138677023D01*
X90530067Y-138664484D01*
X90756428Y-138544125D01*
X90955100Y-138382092D01*
X91118517Y-138184556D01*
X91240452Y-137959040D01*
X91316263Y-137714136D01*
X91343061Y-137459171D01*
X91319826Y-137203856D01*
X91247442Y-136957917D01*
X91241908Y-136947330D01*
X92079619Y-136109619D01*
X92117704Y-136063254D01*
X92156324Y-136017229D01*
X92157972Y-136014231D01*
X92160140Y-136011592D01*
X92188514Y-135958676D01*
X92217438Y-135906062D01*
X92218471Y-135902806D01*
X92220087Y-135899792D01*
X92237653Y-135842336D01*
X92255796Y-135785143D01*
X92256177Y-135781749D01*
X92257177Y-135778477D01*
X92263246Y-135718729D01*
X92269937Y-135659075D01*
X92269983Y-135652393D01*
X92269996Y-135652269D01*
X92269985Y-135652153D01*
X92270000Y-135650000D01*
X92270000Y-132971470D01*
X107768882Y-132971470D01*
X107798974Y-133135425D01*
X107860338Y-133290413D01*
X107950637Y-133430530D01*
X108066432Y-133550440D01*
X108203313Y-133645574D01*
X108356065Y-133712310D01*
X108518870Y-133748105D01*
X108549509Y-133748747D01*
X110268928Y-135468166D01*
X110268882Y-135471470D01*
X110298974Y-135635425D01*
X110360338Y-135790413D01*
X110450637Y-135930530D01*
X110566432Y-136050440D01*
X110703313Y-136145574D01*
X110856065Y-136212310D01*
X111018870Y-136248105D01*
X111185527Y-136251596D01*
X111349688Y-136222650D01*
X111505100Y-136162369D01*
X111645844Y-136073050D01*
X111766559Y-135958095D01*
X111862647Y-135821882D01*
X111930447Y-135669600D01*
X111967378Y-135507049D01*
X111970037Y-135316653D01*
X111937659Y-135153134D01*
X111874137Y-134999018D01*
X111781890Y-134860176D01*
X111664432Y-134741895D01*
X111526237Y-134648681D01*
X111372568Y-134584084D01*
X111209279Y-134550566D01*
X111189667Y-134550429D01*
X110682179Y-134042941D01*
X111667765Y-134042941D01*
X111727948Y-134370851D01*
X111850676Y-134680827D01*
X112031274Y-134961061D01*
X112262865Y-135200880D01*
X112536625Y-135391148D01*
X112842129Y-135524619D01*
X113167739Y-135596209D01*
X113501053Y-135603191D01*
X113829376Y-135545299D01*
X114140201Y-135424738D01*
X114421689Y-135246100D01*
X114663119Y-135016190D01*
X114855294Y-134743764D01*
X114990895Y-134439200D01*
X115064756Y-134114097D01*
X115070073Y-133733306D01*
X115005318Y-133406268D01*
X114878274Y-133098036D01*
X114693780Y-132820351D01*
X114458864Y-132583789D01*
X114182474Y-132397361D01*
X113875136Y-132268169D01*
X113548558Y-132201132D01*
X113215179Y-132198804D01*
X112887697Y-132261275D01*
X112578586Y-132386164D01*
X112299619Y-132568715D01*
X112061423Y-132801973D01*
X111873070Y-133077056D01*
X111741735Y-133383484D01*
X111672420Y-133709586D01*
X111667765Y-134042941D01*
X110682179Y-134042941D01*
X109469842Y-132830604D01*
X109470037Y-132816653D01*
X109437659Y-132653134D01*
X109374137Y-132499018D01*
X109281890Y-132360176D01*
X109164432Y-132241895D01*
X109026237Y-132148681D01*
X108872568Y-132084084D01*
X108709279Y-132050566D01*
X108542590Y-132049402D01*
X108378848Y-132080637D01*
X108224293Y-132143082D01*
X108084810Y-132234357D01*
X107965711Y-132350987D01*
X107871535Y-132488528D01*
X107805867Y-132641742D01*
X107771210Y-132804793D01*
X107768882Y-132971470D01*
X92270000Y-132971470D01*
X92270000Y-132419238D01*
X92889239Y-131800000D01*
X112620000Y-131800000D01*
X112679778Y-131794139D01*
X112739568Y-131788908D01*
X112742850Y-131787955D01*
X112746252Y-131787621D01*
X112803735Y-131770266D01*
X112861389Y-131753516D01*
X112864424Y-131751943D01*
X112867696Y-131750955D01*
X112920731Y-131722756D01*
X112974015Y-131695136D01*
X112976684Y-131693005D01*
X112979705Y-131691399D01*
X113026232Y-131653452D01*
X113073158Y-131615992D01*
X113077913Y-131611302D01*
X113078012Y-131611221D01*
X113078091Y-131611126D01*
X113079619Y-131609619D01*
X117700557Y-126988682D01*
X117841386Y-128244204D01*
X118506749Y-130341695D01*
X119566845Y-132270003D01*
X120981296Y-133955679D01*
X122696225Y-135334518D01*
X124646311Y-136353998D01*
X126757276Y-136975289D01*
X128948714Y-137174725D01*
X131137154Y-136944711D01*
X133239238Y-136294007D01*
X135174900Y-135247399D01*
X136870410Y-133844751D01*
X138261187Y-132139490D01*
X139294257Y-130196568D01*
X139930269Y-128089992D01*
X140145000Y-125900000D01*
X140140604Y-125585184D01*
X139864809Y-123402041D01*
X139170225Y-121314044D01*
X138083309Y-119400726D01*
X136645460Y-117734962D01*
X134911447Y-116380203D01*
X132947317Y-115388049D01*
X130827883Y-114796293D01*
X128633874Y-114627473D01*
X126448859Y-114888020D01*
X124356065Y-115568010D01*
X122435205Y-116641543D01*
X120759444Y-118067727D01*
X119392612Y-119792240D01*
X118386770Y-121749396D01*
X118270000Y-122156622D01*
X118270000Y-120169238D01*
X124354243Y-114084996D01*
X124579376Y-114045299D01*
X124890201Y-113924738D01*
X125171689Y-113746100D01*
X125413119Y-113516190D01*
X125605294Y-113243764D01*
X125694706Y-113042941D01*
X131417765Y-113042941D01*
X131477948Y-113370851D01*
X131600676Y-113680827D01*
X131781274Y-113961061D01*
X132012865Y-114200880D01*
X132286625Y-114391148D01*
X132592129Y-114524619D01*
X132917739Y-114596209D01*
X133251053Y-114603191D01*
X133579376Y-114545299D01*
X133890201Y-114424738D01*
X134171689Y-114246100D01*
X134413119Y-114016190D01*
X134605294Y-113743764D01*
X134740895Y-113439200D01*
X134814756Y-113114097D01*
X134820073Y-112733306D01*
X134755318Y-112406268D01*
X134628274Y-112098036D01*
X134443780Y-111820351D01*
X134208864Y-111583789D01*
X133932474Y-111397361D01*
X133625136Y-111268169D01*
X133298558Y-111201132D01*
X132965179Y-111198804D01*
X132637697Y-111261275D01*
X132328586Y-111386164D01*
X132049619Y-111568715D01*
X131811423Y-111801973D01*
X131623070Y-112077056D01*
X131491735Y-112383484D01*
X131422420Y-112709586D01*
X131417765Y-113042941D01*
X125694706Y-113042941D01*
X125740895Y-112939200D01*
X125814756Y-112614097D01*
X125820073Y-112233306D01*
X125755318Y-111906268D01*
X125628274Y-111598036D01*
X125443780Y-111320351D01*
X125208864Y-111083789D01*
X124932474Y-110897361D01*
X124625136Y-110768169D01*
X124298558Y-110701132D01*
X123965179Y-110698804D01*
X123637697Y-110761275D01*
X123328586Y-110886164D01*
X123049619Y-111068715D01*
X122811423Y-111301973D01*
X122623070Y-111577056D01*
X122571549Y-111697264D01*
X122458864Y-111583789D01*
X122182474Y-111397361D01*
X121875136Y-111268169D01*
X121548558Y-111201132D01*
X121215179Y-111198804D01*
X120887697Y-111261275D01*
X120578586Y-111386164D01*
X120299619Y-111568715D01*
X120061423Y-111801973D01*
X119920010Y-112008502D01*
X119920010Y-111300010D01*
X119914149Y-111240232D01*
X119908918Y-111180442D01*
X119907965Y-111177160D01*
X119907631Y-111173758D01*
X119890276Y-111116275D01*
X119873526Y-111058621D01*
X119871953Y-111055586D01*
X119870965Y-111052314D01*
X119842766Y-110999279D01*
X119815146Y-110945995D01*
X119813015Y-110943326D01*
X119811409Y-110940305D01*
X119773462Y-110893778D01*
X119736002Y-110846852D01*
X119731312Y-110842097D01*
X119731231Y-110841998D01*
X119731139Y-110841922D01*
X119729629Y-110840391D01*
X119440847Y-110551609D01*
X119490895Y-110439200D01*
X119564756Y-110114097D01*
X119570073Y-109733306D01*
X119505318Y-109406268D01*
X119378274Y-109098036D01*
X119193780Y-108820351D01*
X118958864Y-108583789D01*
X118682474Y-108397361D01*
X118375136Y-108268169D01*
X118048558Y-108201132D01*
X117715179Y-108198804D01*
X117387697Y-108261275D01*
X117078586Y-108386164D01*
X116799619Y-108568715D01*
X116561423Y-108801973D01*
X116435243Y-108986254D01*
X116378274Y-108848036D01*
X116193780Y-108570351D01*
X115958864Y-108333789D01*
X115682474Y-108147361D01*
X115375136Y-108018169D01*
X115048558Y-107951132D01*
X114715179Y-107948804D01*
X114387697Y-108011275D01*
X114078586Y-108136164D01*
X113799619Y-108318715D01*
X113561423Y-108551973D01*
X113373070Y-108827056D01*
X113241735Y-109133484D01*
X113172420Y-109459586D01*
X113167765Y-109792941D01*
X113227948Y-110120851D01*
X113350676Y-110430827D01*
X113531274Y-110711061D01*
X113578545Y-110760012D01*
X113513914Y-110737811D01*
X113182068Y-110692901D01*
X112847837Y-110713593D01*
X112524065Y-110799093D01*
X112223194Y-110946116D01*
X112119979Y-111015083D01*
X111995193Y-111268121D01*
X113120000Y-112392929D01*
X113134142Y-112378786D01*
X113141214Y-112385858D01*
X113127071Y-112400000D01*
X114251879Y-113524807D01*
X114504917Y-113400021D01*
X114673401Y-113110622D01*
X114782189Y-112793914D01*
X114827099Y-112462068D01*
X114806407Y-112127837D01*
X114720907Y-111804065D01*
X114573884Y-111503194D01*
X114504917Y-111399979D01*
X114251880Y-111275194D01*
X114279721Y-111247353D01*
X114342129Y-111274619D01*
X114667739Y-111346209D01*
X115001053Y-111353191D01*
X115329376Y-111295299D01*
X115521529Y-111220768D01*
X117970000Y-113669239D01*
X117970000Y-116792253D01*
X117540238Y-117222016D01*
X117564756Y-117114097D01*
X117570073Y-116733306D01*
X117505318Y-116406268D01*
X117378274Y-116098036D01*
X117193780Y-115820351D01*
X116958864Y-115583789D01*
X116682474Y-115397361D01*
X116375136Y-115268169D01*
X116048558Y-115201132D01*
X115715179Y-115198804D01*
X115387697Y-115261275D01*
X115078586Y-115386164D01*
X114799619Y-115568715D01*
X114561423Y-115801973D01*
X114373070Y-116077056D01*
X114369645Y-116085048D01*
X114193780Y-115820351D01*
X113958864Y-115583789D01*
X113682474Y-115397361D01*
X113375136Y-115268169D01*
X113048558Y-115201132D01*
X112715179Y-115198804D01*
X112387697Y-115261275D01*
X112078586Y-115386164D01*
X111799619Y-115568715D01*
X111569221Y-115794337D01*
X111570073Y-115733306D01*
X111505318Y-115406268D01*
X111378274Y-115098036D01*
X111193780Y-114820351D01*
X110958864Y-114583789D01*
X110682474Y-114397361D01*
X110375136Y-114268169D01*
X110048558Y-114201132D01*
X109715179Y-114198804D01*
X109387697Y-114261275D01*
X109078586Y-114386164D01*
X108799619Y-114568715D01*
X108561423Y-114801973D01*
X108373070Y-115077056D01*
X108241735Y-115383484D01*
X108172420Y-115709586D01*
X108167765Y-116042941D01*
X108227948Y-116370851D01*
X108350676Y-116680827D01*
X108524146Y-116950001D01*
X107589239Y-116950001D01*
X104171117Y-113531879D01*
X111995193Y-113531879D01*
X112119979Y-113784917D01*
X112409378Y-113953401D01*
X112726086Y-114062189D01*
X113057932Y-114107099D01*
X113392163Y-114086407D01*
X113715935Y-114000907D01*
X114016806Y-113853884D01*
X114120021Y-113784917D01*
X114244807Y-113531879D01*
X113120000Y-112407071D01*
X111995193Y-113531879D01*
X104171117Y-113531879D01*
X103535618Y-112896380D01*
X103699869Y-112700634D01*
X103823376Y-112475975D01*
X103886522Y-112276916D01*
X103941516Y-112459067D01*
X104061875Y-112685428D01*
X104223908Y-112884100D01*
X104421444Y-113047517D01*
X104646960Y-113169452D01*
X104891864Y-113245263D01*
X105146829Y-113272061D01*
X105402144Y-113248826D01*
X105648083Y-113176442D01*
X105875279Y-113057667D01*
X106075078Y-112897024D01*
X106239869Y-112700634D01*
X106363376Y-112475975D01*
X106426522Y-112276916D01*
X106481516Y-112459067D01*
X106601875Y-112685428D01*
X106763908Y-112884100D01*
X106961444Y-113047517D01*
X107186960Y-113169452D01*
X107431864Y-113245263D01*
X107686829Y-113272061D01*
X107942144Y-113248826D01*
X108188083Y-113176442D01*
X108415279Y-113057667D01*
X108615078Y-112897024D01*
X108779869Y-112700634D01*
X108903376Y-112475975D01*
X108947166Y-112337932D01*
X111412901Y-112337932D01*
X111433593Y-112672163D01*
X111519093Y-112995935D01*
X111666116Y-113296806D01*
X111735083Y-113400021D01*
X111988121Y-113524807D01*
X113112929Y-112400000D01*
X111988121Y-111275193D01*
X111735083Y-111399979D01*
X111566599Y-111689378D01*
X111457811Y-112006086D01*
X111412901Y-112337932D01*
X108947166Y-112337932D01*
X108980895Y-112231606D01*
X109009472Y-111976834D01*
X109009600Y-111958493D01*
X109009600Y-111639507D01*
X108984583Y-111384361D01*
X108910484Y-111138933D01*
X108790125Y-110912572D01*
X108628092Y-110713900D01*
X108430556Y-110550483D01*
X108205040Y-110428548D01*
X107960136Y-110352737D01*
X107705171Y-110325939D01*
X107449856Y-110349174D01*
X107203917Y-110421558D01*
X106976721Y-110540333D01*
X106776922Y-110700976D01*
X106612131Y-110897366D01*
X106488624Y-111122025D01*
X106425478Y-111321084D01*
X106370484Y-111138933D01*
X106250125Y-110912572D01*
X106088092Y-110713900D01*
X105890556Y-110550483D01*
X105665040Y-110428548D01*
X105420136Y-110352737D01*
X105165171Y-110325939D01*
X104909856Y-110349174D01*
X104663917Y-110421558D01*
X104436721Y-110540333D01*
X104236922Y-110700976D01*
X104072131Y-110897366D01*
X103948624Y-111122025D01*
X103885478Y-111321084D01*
X103830484Y-111138933D01*
X103710125Y-110912572D01*
X103548092Y-110713900D01*
X103350556Y-110550483D01*
X103125040Y-110428548D01*
X102880136Y-110352737D01*
X102625171Y-110325939D01*
X102369856Y-110349174D01*
X102123917Y-110421558D01*
X101896721Y-110540333D01*
X101696922Y-110700976D01*
X101532131Y-110897366D01*
X101408624Y-111122025D01*
X101345478Y-111321084D01*
X101290484Y-111138933D01*
X101170125Y-110912572D01*
X101008092Y-110713900D01*
X100810556Y-110550483D01*
X100585040Y-110428548D01*
X100340136Y-110352737D01*
X100085171Y-110325939D01*
X99829856Y-110349174D01*
X99583917Y-110421558D01*
X99356721Y-110540333D01*
X99156922Y-110700976D01*
X98992131Y-110897366D01*
X98868624Y-111122025D01*
X98805478Y-111321084D01*
X98750484Y-111138933D01*
X98630125Y-110912572D01*
X98468092Y-110713900D01*
X98270556Y-110550483D01*
X98045040Y-110428548D01*
X97800136Y-110352737D01*
X97545171Y-110325939D01*
X97289856Y-110349174D01*
X97043917Y-110421558D01*
X96816721Y-110540333D01*
X96616922Y-110700976D01*
X96452131Y-110897366D01*
X96328624Y-111122025D01*
X96265478Y-111321084D01*
X96210484Y-111138933D01*
X96090125Y-110912572D01*
X95928092Y-110713900D01*
X95730556Y-110550483D01*
X95505040Y-110428548D01*
X95260136Y-110352737D01*
X95005171Y-110325939D01*
X94749856Y-110349174D01*
X94503917Y-110421558D01*
X94276721Y-110540333D01*
X94076922Y-110700976D01*
X93912131Y-110897366D01*
X93788624Y-111122025D01*
X93725478Y-111321084D01*
X93670484Y-111138933D01*
X93550125Y-110912572D01*
X93388092Y-110713900D01*
X93190556Y-110550483D01*
X92965040Y-110428548D01*
X92720136Y-110352737D01*
X92465171Y-110325939D01*
X92209856Y-110349174D01*
X91963917Y-110421558D01*
X91736721Y-110540333D01*
X91536922Y-110700976D01*
X91372131Y-110897366D01*
X91248624Y-111122025D01*
X91231777Y-111175133D01*
X91231777Y-110783000D01*
X91223089Y-110694785D01*
X91197357Y-110609959D01*
X91155571Y-110531784D01*
X91099337Y-110463263D01*
X91030816Y-110407029D01*
X90952641Y-110365243D01*
X90867815Y-110339511D01*
X90779600Y-110330823D01*
X89052400Y-110330823D01*
X88964185Y-110339511D01*
X88879359Y-110365243D01*
X88801184Y-110407029D01*
X88732663Y-110463263D01*
X88676429Y-110531784D01*
X88634643Y-110609959D01*
X88608911Y-110694785D01*
X88600223Y-110783000D01*
X88600223Y-112815000D01*
X88608911Y-112903215D01*
X88634643Y-112988041D01*
X88676429Y-113066216D01*
X88732663Y-113134737D01*
X88801184Y-113190971D01*
X88879359Y-113232757D01*
X88964185Y-113258489D01*
X89052400Y-113267177D01*
X90779600Y-113267177D01*
X90867815Y-113258489D01*
X90952641Y-113232757D01*
X91030816Y-113190971D01*
X91099337Y-113134737D01*
X91155571Y-113066216D01*
X91197357Y-112988041D01*
X91223089Y-112903215D01*
X91231777Y-112815000D01*
X91231777Y-112426810D01*
X91241516Y-112459067D01*
X91361875Y-112685428D01*
X91523908Y-112884100D01*
X91721444Y-113047517D01*
X91946960Y-113169452D01*
X92191864Y-113245263D01*
X92446829Y-113272061D01*
X92702144Y-113248826D01*
X92948083Y-113176442D01*
X93175279Y-113057667D01*
X93375078Y-112897024D01*
X93539869Y-112700634D01*
X93663376Y-112475975D01*
X93726522Y-112276916D01*
X93781516Y-112459067D01*
X93901875Y-112685428D01*
X94063908Y-112884100D01*
X94261444Y-113047517D01*
X94486960Y-113169452D01*
X94731864Y-113245263D01*
X94986829Y-113272061D01*
X95242144Y-113248826D01*
X95344162Y-113218800D01*
X107544600Y-125419238D01*
X107544600Y-127474600D01*
X107550461Y-127534378D01*
X107555692Y-127594168D01*
X107556645Y-127597450D01*
X107556979Y-127600852D01*
X107574334Y-127658335D01*
X107591084Y-127715989D01*
X107592657Y-127719024D01*
X107593645Y-127722296D01*
X107621844Y-127775331D01*
X107649464Y-127828615D01*
X107651595Y-127831284D01*
X107653201Y-127834305D01*
X107691148Y-127880832D01*
X107728608Y-127927758D01*
X107733298Y-127932513D01*
X107733379Y-127932612D01*
X107733471Y-127932688D01*
X107734981Y-127934219D01*
X107768928Y-127968166D01*
X107768882Y-127971470D01*
X107798974Y-128135425D01*
X107860338Y-128290413D01*
X107950637Y-128430530D01*
X108065977Y-128549969D01*
X104640627Y-128549969D01*
X104849597Y-128513122D01*
X105343260Y-128321642D01*
X105790329Y-128037924D01*
X106173776Y-127672772D01*
X106478995Y-127240096D01*
X106694361Y-126756376D01*
X106811671Y-126240037D01*
X106820116Y-125635251D01*
X106717269Y-125115838D01*
X106515493Y-124626294D01*
X106222474Y-124185264D01*
X105849372Y-123809548D01*
X105410399Y-123513457D01*
X104922275Y-123308269D01*
X104403592Y-123201798D01*
X103874108Y-123198102D01*
X103353990Y-123297320D01*
X102863048Y-123495673D01*
X102419984Y-123785606D01*
X102041672Y-124156076D01*
X101742524Y-124592971D01*
X101533933Y-125079651D01*
X101423844Y-125597578D01*
X101416451Y-126127023D01*
X101512035Y-126647822D01*
X101706956Y-127140136D01*
X101993789Y-127585214D01*
X102361609Y-127966102D01*
X102796406Y-128268293D01*
X103281617Y-128480277D01*
X103598594Y-128549969D01*
X101939207Y-128549969D01*
X98270000Y-124880762D01*
X98270000Y-117703217D01*
X98362647Y-117571882D01*
X98430447Y-117419600D01*
X98467378Y-117257049D01*
X98470037Y-117066653D01*
X98437659Y-116903134D01*
X98374137Y-116749018D01*
X98281890Y-116610176D01*
X98164432Y-116491895D01*
X98026237Y-116398681D01*
X97872568Y-116334084D01*
X97709279Y-116300566D01*
X97542590Y-116299402D01*
X97378848Y-116330637D01*
X97224293Y-116393082D01*
X97084810Y-116484357D01*
X96965711Y-116600987D01*
X96871535Y-116738528D01*
X96805867Y-116891742D01*
X96771210Y-117054793D01*
X96768882Y-117221470D01*
X96798974Y-117385425D01*
X96860338Y-117540413D01*
X96950637Y-117680530D01*
X96970000Y-117700581D01*
X96970000Y-125150000D01*
X96975861Y-125209778D01*
X96981092Y-125269568D01*
X96982045Y-125272850D01*
X96982379Y-125276252D01*
X96999734Y-125333735D01*
X97016484Y-125391389D01*
X97018057Y-125394424D01*
X97019045Y-125397696D01*
X97047244Y-125450731D01*
X97074864Y-125504015D01*
X97076995Y-125506684D01*
X97078601Y-125509705D01*
X97116548Y-125556232D01*
X97154008Y-125603158D01*
X97158698Y-125607913D01*
X97158779Y-125608012D01*
X97158871Y-125608088D01*
X97160381Y-125609619D01*
X100750738Y-129199978D01*
X91439345Y-129199978D01*
X91421143Y-129194204D01*
X91417749Y-129193823D01*
X91414477Y-129192823D01*
X91354729Y-129186754D01*
X91295075Y-129180063D01*
X91288393Y-129180017D01*
X91288269Y-129180004D01*
X91288153Y-129180015D01*
X91286000Y-129180000D01*
X91164885Y-129180000D01*
X91128667Y-129110721D01*
X90968024Y-128910922D01*
X90771634Y-128746131D01*
X90546975Y-128622624D01*
X90347916Y-128559478D01*
X90530067Y-128504484D01*
X90756428Y-128384125D01*
X90955100Y-128222092D01*
X91118517Y-128024556D01*
X91240452Y-127799040D01*
X91316263Y-127554136D01*
X91343061Y-127299171D01*
X91319826Y-127043856D01*
X91247442Y-126797917D01*
X91128667Y-126570721D01*
X90968024Y-126370922D01*
X90771634Y-126206131D01*
X90546975Y-126082624D01*
X90347916Y-126019478D01*
X90530067Y-125964484D01*
X90756428Y-125844125D01*
X90955100Y-125682092D01*
X91118517Y-125484556D01*
X91240452Y-125259040D01*
X91316263Y-125014136D01*
X91343061Y-124759171D01*
X91319826Y-124503856D01*
X91247442Y-124257917D01*
X91128667Y-124030721D01*
X90968024Y-123830922D01*
X90771634Y-123666131D01*
X90546975Y-123542624D01*
X90347916Y-123479478D01*
X90530067Y-123424484D01*
X90756428Y-123304125D01*
X90955100Y-123142092D01*
X91118517Y-122944556D01*
X91240452Y-122719040D01*
X91316263Y-122474136D01*
X91343061Y-122219171D01*
X91319826Y-121963856D01*
X91247442Y-121717917D01*
X91128667Y-121490721D01*
X90968024Y-121290922D01*
X90771634Y-121126131D01*
X90546975Y-121002624D01*
X90493867Y-120985777D01*
X90886000Y-120985777D01*
X90974215Y-120977089D01*
X91059041Y-120951357D01*
X91137216Y-120909571D01*
X91205737Y-120853337D01*
X91261971Y-120784816D01*
X91303757Y-120706641D01*
X91329489Y-120621815D01*
X91338177Y-120533600D01*
X91338177Y-118806400D01*
X91329489Y-118718185D01*
X91303757Y-118633359D01*
X91261971Y-118555184D01*
X91205737Y-118486663D01*
X91137216Y-118430429D01*
X91059041Y-118388643D01*
X90974215Y-118362911D01*
X90886000Y-118354223D01*
X88854000Y-118354223D01*
X88765785Y-118362911D01*
X88680959Y-118388643D01*
X88602784Y-118430429D01*
X88534263Y-118486663D01*
X88520000Y-118504042D01*
X88520000Y-110169238D01*
X91896297Y-106792941D01*
X118417765Y-106792941D01*
X118477948Y-107120851D01*
X118600676Y-107430827D01*
X118781274Y-107711061D01*
X119012865Y-107950880D01*
X119286625Y-108141148D01*
X119592129Y-108274619D01*
X119917739Y-108346209D01*
X120251053Y-108353191D01*
X120579376Y-108295299D01*
X120890201Y-108174738D01*
X121171689Y-107996100D01*
X121413119Y-107766190D01*
X121605294Y-107493764D01*
X121740895Y-107189200D01*
X121814756Y-106864097D01*
X121820073Y-106483306D01*
X121755318Y-106156268D01*
X121628274Y-105848036D01*
X121443780Y-105570351D01*
X121208864Y-105333789D01*
X120932474Y-105147361D01*
X120625136Y-105018169D01*
X120298558Y-104951132D01*
X119965179Y-104948804D01*
X119637697Y-105011275D01*
X119328586Y-105136164D01*
X119049619Y-105318715D01*
X118811423Y-105551973D01*
X118623070Y-105827056D01*
X118491735Y-106133484D01*
X118422420Y-106459586D01*
X118417765Y-106792941D01*
X91896297Y-106792941D01*
X94139239Y-104550000D01*
X120850762Y-104550000D01*
X123160381Y-106859619D01*
G36*
X101401516Y-112459067D02*
X101521875Y-112685428D01*
X101683908Y-112884100D01*
X101881444Y-113047517D01*
X102005929Y-113114825D01*
X102012484Y-113137389D01*
X102014057Y-113140424D01*
X102015045Y-113143696D01*
X102043244Y-113196731D01*
X102070864Y-113250015D01*
X102072995Y-113252684D01*
X102074601Y-113255705D01*
X102112548Y-113302232D01*
X102150008Y-113349158D01*
X102154698Y-113353913D01*
X102154779Y-113354012D01*
X102154871Y-113354088D01*
X102156381Y-113355619D01*
X106860382Y-118059620D01*
X106906747Y-118097705D01*
X106952772Y-118136325D01*
X106955770Y-118137973D01*
X106958409Y-118140141D01*
X107011325Y-118168515D01*
X107063939Y-118197439D01*
X107067195Y-118198472D01*
X107070209Y-118200088D01*
X107127665Y-118217654D01*
X107184858Y-118235797D01*
X107188252Y-118236178D01*
X107191524Y-118237178D01*
X107251272Y-118243247D01*
X107310926Y-118249938D01*
X107317608Y-118249984D01*
X107317732Y-118249997D01*
X107317848Y-118249986D01*
X107320001Y-118250001D01*
X109114495Y-118250001D01*
X109061423Y-118301973D01*
X108873070Y-118577056D01*
X108741735Y-118883484D01*
X108672420Y-119209586D01*
X108667765Y-119542941D01*
X108727948Y-119870851D01*
X108758837Y-119948869D01*
X108682474Y-119897361D01*
X108375136Y-119768169D01*
X108048558Y-119701132D01*
X107715179Y-119698804D01*
X107387697Y-119761275D01*
X107078586Y-119886164D01*
X106799619Y-120068715D01*
X106561423Y-120301973D01*
X106373070Y-120577056D01*
X106241735Y-120883484D01*
X106172420Y-121209586D01*
X106171856Y-121250000D01*
X106139239Y-121250000D01*
X98186000Y-113296762D01*
X98186000Y-113093885D01*
X98255279Y-113057667D01*
X98455078Y-112897024D01*
X98619869Y-112700634D01*
X98743376Y-112475975D01*
X98806522Y-112276916D01*
X98861516Y-112459067D01*
X98981875Y-112685428D01*
X99143908Y-112884100D01*
X99341444Y-113047517D01*
X99566960Y-113169452D01*
X99811864Y-113245263D01*
X100066829Y-113272061D01*
X100322144Y-113248826D01*
X100568083Y-113176442D01*
X100795279Y-113057667D01*
X100995078Y-112897024D01*
X101159869Y-112700634D01*
X101283376Y-112475975D01*
X101346522Y-112276916D01*
X101401516Y-112459067D01*
X101401516Y-112459067D01*
G37*
X101401516Y-112459067D02*
X101521875Y-112685428D01*
X101683908Y-112884100D01*
X101881444Y-113047517D01*
X102005929Y-113114825D01*
X102012484Y-113137389D01*
X102014057Y-113140424D01*
X102015045Y-113143696D01*
X102043244Y-113196731D01*
X102070864Y-113250015D01*
X102072995Y-113252684D01*
X102074601Y-113255705D01*
X102112548Y-113302232D01*
X102150008Y-113349158D01*
X102154698Y-113353913D01*
X102154779Y-113354012D01*
X102154871Y-113354088D01*
X102156381Y-113355619D01*
X106860382Y-118059620D01*
X106906747Y-118097705D01*
X106952772Y-118136325D01*
X106955770Y-118137973D01*
X106958409Y-118140141D01*
X107011325Y-118168515D01*
X107063939Y-118197439D01*
X107067195Y-118198472D01*
X107070209Y-118200088D01*
X107127665Y-118217654D01*
X107184858Y-118235797D01*
X107188252Y-118236178D01*
X107191524Y-118237178D01*
X107251272Y-118243247D01*
X107310926Y-118249938D01*
X107317608Y-118249984D01*
X107317732Y-118249997D01*
X107317848Y-118249986D01*
X107320001Y-118250001D01*
X109114495Y-118250001D01*
X109061423Y-118301973D01*
X108873070Y-118577056D01*
X108741735Y-118883484D01*
X108672420Y-119209586D01*
X108667765Y-119542941D01*
X108727948Y-119870851D01*
X108758837Y-119948869D01*
X108682474Y-119897361D01*
X108375136Y-119768169D01*
X108048558Y-119701132D01*
X107715179Y-119698804D01*
X107387697Y-119761275D01*
X107078586Y-119886164D01*
X106799619Y-120068715D01*
X106561423Y-120301973D01*
X106373070Y-120577056D01*
X106241735Y-120883484D01*
X106172420Y-121209586D01*
X106171856Y-121250000D01*
X106139239Y-121250000D01*
X98186000Y-113296762D01*
X98186000Y-113093885D01*
X98255279Y-113057667D01*
X98455078Y-112897024D01*
X98619869Y-112700634D01*
X98743376Y-112475975D01*
X98806522Y-112276916D01*
X98861516Y-112459067D01*
X98981875Y-112685428D01*
X99143908Y-112884100D01*
X99341444Y-113047517D01*
X99566960Y-113169452D01*
X99811864Y-113245263D01*
X100066829Y-113272061D01*
X100322144Y-113248826D01*
X100568083Y-113176442D01*
X100795279Y-113057667D01*
X100995078Y-112897024D01*
X101159869Y-112700634D01*
X101283376Y-112475975D01*
X101346522Y-112276916D01*
X101401516Y-112459067D01*
M02*
