M48
;DRILL file {KiCad (2016-05-05 BZR 6775)-product} date 2016 August 31, Wednesday 02:40:11
;FORMAT={-:-/ absolute / metric / decimal}
FMAT,2
METRIC,TZ
T1C0.400
T2C1.016
T3C1.900
T4C2.700
%
G90
G05
M71
T1
X88.62Y-105.4
X90.62Y-116.4
X93.62Y-145.4
X95.12Y-115.4
X96.12Y-105.4
X96.12Y-118.4
X97.62Y-117.15
X99.12Y-117.9
X101.12Y-114.9
X101.12Y-145.4
X103.12Y-115.9
X103.62Y-105.4
X107.12Y-114.9
X108.62Y-127.9
X108.62Y-132.9
X108.62Y-145.4
X111.12Y-107.9
X111.12Y-135.4
X113.62Y-140.4
X116.12Y-130.4
X116.12Y-135.4
X116.12Y-145.4
X121.12Y-137.9
X123.62Y-145.4
X128.62Y-105.15
X128.62Y-137.9
X131.12Y-145.4
X133.62Y-137.9
X136.12Y-107.9
X136.12Y-115.4
X136.12Y-145.4
X138.62Y-132.9
X141.12Y-120.4
X141.12Y-125.4
X141.12Y-137.9
X143.62Y-107.9
X143.62Y-112.9
X143.62Y-150.4
X146.12Y-117.9
X146.12Y-125.4
X146.12Y-132.9
X146.12Y-142.9
X148.62Y-105.4
X148.62Y-122.9
X148.62Y-145.4
X153.62Y-107.9
X153.62Y-115.4
X153.62Y-120.4
X153.62Y-130.4
X153.62Y-135.4
X153.62Y-142.9
X153.62Y-150.4
T2
X89.87Y-119.67
X89.87Y-122.21
X89.87Y-124.75
X89.87Y-127.29
X89.87Y-129.83
X89.87Y-132.37
X89.87Y-134.91
X89.87Y-137.45
X89.87Y-139.99
X89.87Y-142.53
X89.87Y-145.07
X89.87Y-147.61
X89.87Y-150.15
X89.916Y-101.639
X89.916Y-111.799
X92.456Y-101.639
X92.456Y-111.799
X94.996Y-101.639
X94.996Y-111.799
X97.536Y-101.639
X97.536Y-111.799
X99.06Y-149.899
X100.076Y-101.639
X100.076Y-111.799
X101.6Y-149.899
X102.616Y-101.639
X102.616Y-111.799
X104.14Y-149.899
X105.156Y-101.639
X105.156Y-111.799
X106.68Y-149.899
X107.696Y-101.639
X107.696Y-111.799
X109.22Y-149.899
X110.236Y-101.639
X111.76Y-149.899
X112.776Y-101.639
X114.3Y-149.899
X116.84Y-101.639
X116.84Y-149.899
X119.38Y-101.639
X121.92Y-101.639
X121.92Y-149.899
X124.46Y-101.639
X124.46Y-149.899
X127.Y-101.639
X127.Y-149.899
X129.54Y-101.639
X129.54Y-149.899
X132.08Y-101.639
X132.08Y-149.899
X134.62Y-101.639
X134.62Y-149.899
T3
X107.87Y-121.4
X109.87Y-115.9
X110.37Y-119.4
X110.37Y-122.9
X112.87Y-116.9
X113.12Y-112.4
X113.37Y-133.9
X114.12Y-120.4
X114.37Y-124.4
X114.87Y-109.65
X115.87Y-116.9
X117.87Y-109.9
X120.12Y-106.65
X121.37Y-112.9
X124.12Y-108.65
X124.12Y-112.4
X125.37Y-105.1
X128.87Y-105.8
X133.12Y-112.9
X140.37Y-108.9
X143.37Y-139.4
T4
X104.12Y-125.9
X107.52Y-138.45
X140.62Y-104.1
X140.62Y-147.7
X150.22Y-113.4
X150.22Y-138.45
X153.62Y-125.9
T0
M30
