G04 #@! TF.FileFunction,Legend,Bot*
%FSLAX46Y46*%
G04 Gerber Fmt 4.6, Leading zero omitted, Abs format (unit mm)*
G04 Created by KiCad (PCBNEW (2016-05-05 BZR 6775)-product) date 2016 August 31, Wednesday 02:40:09*
%MOMM*%
%LPD*%
G01*
G04 APERTURE LIST*
%ADD10C,0.020000*%
%ADD11C,0.150000*%
%ADD12R,1.927200X2.232000*%
%ADD13O,1.927200X2.232000*%
%ADD14C,4.700000*%
%ADD15C,2.700000*%
%ADD16R,2.232000X1.927200*%
%ADD17O,2.232000X1.927200*%
G04 APERTURE END LIST*
D10*
D11*
X92355119Y-151566666D02*
X91878928Y-151566666D01*
X92486071Y-151852380D02*
X92027738Y-150852380D01*
X91819404Y-151852380D01*
X91456309Y-150852380D02*
X90837261Y-150852380D01*
X91218214Y-151233333D01*
X91075357Y-151233333D01*
X90986071Y-151280952D01*
X90944404Y-151328571D01*
X90908690Y-151423809D01*
X90938452Y-151661904D01*
X90997976Y-151757142D01*
X91051547Y-151804761D01*
X91152738Y-151852380D01*
X91438452Y-151852380D01*
X91527738Y-151804761D01*
X91569404Y-151757142D01*
X100330000Y-151169000D02*
X118110000Y-151169000D01*
X118110000Y-151169000D02*
X118110000Y-148629000D01*
X118110000Y-148629000D02*
X100330000Y-148629000D01*
X97510000Y-151449000D02*
X99060000Y-151449000D01*
X100330000Y-151169000D02*
X100330000Y-148629000D01*
X99060000Y-148349000D02*
X97510000Y-148349000D01*
X97510000Y-148349000D02*
X97510000Y-151449000D01*
X123190000Y-151169000D02*
X135890000Y-151169000D01*
X135890000Y-151169000D02*
X135890000Y-148629000D01*
X135890000Y-148629000D02*
X123190000Y-148629000D01*
X120370000Y-151449000D02*
X121920000Y-151449000D01*
X123190000Y-151169000D02*
X123190000Y-148629000D01*
X121920000Y-148349000D02*
X120370000Y-148349000D01*
X120370000Y-148349000D02*
X120370000Y-151449000D01*
X133350000Y-100369000D02*
X115570000Y-100369000D01*
X115570000Y-100369000D02*
X115570000Y-102909000D01*
X115570000Y-102909000D02*
X133350000Y-102909000D01*
X136170000Y-100089000D02*
X134620000Y-100089000D01*
X133350000Y-100369000D02*
X133350000Y-102909000D01*
X134620000Y-103189000D02*
X136170000Y-103189000D01*
X136170000Y-103189000D02*
X136170000Y-100089000D01*
X111506000Y-100369000D02*
X88646000Y-100369000D01*
X88646000Y-100369000D02*
X88646000Y-102909000D01*
X88646000Y-102909000D02*
X111506000Y-102909000D01*
X114326000Y-100089000D02*
X112776000Y-100089000D01*
X111506000Y-100369000D02*
X111506000Y-102909000D01*
X112776000Y-103189000D02*
X114326000Y-103189000D01*
X114326000Y-103189000D02*
X114326000Y-100089000D01*
X91186000Y-110529000D02*
X108966000Y-110529000D01*
X108966000Y-110529000D02*
X108966000Y-113069000D01*
X108966000Y-113069000D02*
X91186000Y-113069000D01*
X88366000Y-110249000D02*
X89916000Y-110249000D01*
X91186000Y-110529000D02*
X91186000Y-113069000D01*
X89916000Y-113349000D02*
X88366000Y-113349000D01*
X88366000Y-113349000D02*
X88366000Y-110249000D01*
X108858095Y-147352380D02*
X108858095Y-146352380D01*
X108477142Y-146352380D01*
X108381904Y-146400000D01*
X108334285Y-146447619D01*
X108286666Y-146542857D01*
X108286666Y-146685714D01*
X108334285Y-146780952D01*
X108381904Y-146828571D01*
X108477142Y-146876190D01*
X108858095Y-146876190D01*
X107334285Y-147352380D02*
X107905714Y-147352380D01*
X107620000Y-147352380D02*
X107620000Y-146352380D01*
X107715238Y-146495238D01*
X107810476Y-146590476D01*
X107905714Y-146638095D01*
X129108095Y-147602380D02*
X129108095Y-146602380D01*
X128727142Y-146602380D01*
X128631904Y-146650000D01*
X128584285Y-146697619D01*
X128536666Y-146792857D01*
X128536666Y-146935714D01*
X128584285Y-147030952D01*
X128631904Y-147078571D01*
X128727142Y-147126190D01*
X129108095Y-147126190D01*
X128155714Y-146697619D02*
X128108095Y-146650000D01*
X128012857Y-146602380D01*
X127774761Y-146602380D01*
X127679523Y-146650000D01*
X127631904Y-146697619D01*
X127584285Y-146792857D01*
X127584285Y-146888095D01*
X127631904Y-147030952D01*
X128203333Y-147602380D01*
X127584285Y-147602380D01*
X138208095Y-102102380D02*
X138208095Y-101102380D01*
X137827142Y-101102380D01*
X137731904Y-101150000D01*
X137684285Y-101197619D01*
X137636666Y-101292857D01*
X137636666Y-101435714D01*
X137684285Y-101530952D01*
X137731904Y-101578571D01*
X137827142Y-101626190D01*
X138208095Y-101626190D01*
X137303333Y-101102380D02*
X136684285Y-101102380D01*
X137017619Y-101483333D01*
X136874761Y-101483333D01*
X136779523Y-101530952D01*
X136731904Y-101578571D01*
X136684285Y-101673809D01*
X136684285Y-101911904D01*
X136731904Y-102007142D01*
X136779523Y-102054761D01*
X136874761Y-102102380D01*
X137160476Y-102102380D01*
X137255714Y-102054761D01*
X137303333Y-102007142D01*
X102084095Y-104631380D02*
X102084095Y-103631380D01*
X101703142Y-103631380D01*
X101607904Y-103679000D01*
X101560285Y-103726619D01*
X101512666Y-103821857D01*
X101512666Y-103964714D01*
X101560285Y-104059952D01*
X101607904Y-104107571D01*
X101703142Y-104155190D01*
X102084095Y-104155190D01*
X100655523Y-103964714D02*
X100655523Y-104631380D01*
X100893619Y-103583761D02*
X101131714Y-104298047D01*
X100512666Y-104298047D01*
X100020285Y-114791380D02*
X100020285Y-113791380D01*
X99639333Y-113791380D01*
X99544095Y-113839000D01*
X99496476Y-113886619D01*
X99448857Y-113981857D01*
X99448857Y-114124714D01*
X99496476Y-114219952D01*
X99544095Y-114267571D01*
X99639333Y-114315190D01*
X100020285Y-114315190D01*
X99067904Y-113886619D02*
X99020285Y-113839000D01*
X98925047Y-113791380D01*
X98686952Y-113791380D01*
X98591714Y-113839000D01*
X98544095Y-113886619D01*
X98496476Y-113981857D01*
X98496476Y-114077095D01*
X98544095Y-114219952D01*
X99115523Y-114791380D01*
X98496476Y-114791380D01*
X97877428Y-113791380D02*
X97782190Y-113791380D01*
X97686952Y-113839000D01*
X97639333Y-113886619D01*
X97591714Y-113981857D01*
X97544095Y-114172333D01*
X97544095Y-114410428D01*
X97591714Y-114600904D01*
X97639333Y-114696142D01*
X97686952Y-114743761D01*
X97782190Y-114791380D01*
X97877428Y-114791380D01*
X97972666Y-114743761D01*
X98020285Y-114696142D01*
X98067904Y-114600904D01*
X98115523Y-114410428D01*
X98115523Y-114172333D01*
X98067904Y-113981857D01*
X98020285Y-113886619D01*
X97972666Y-113839000D01*
X97877428Y-113791380D01*
X109210476Y-142302380D02*
X109210476Y-141302380D01*
X108829523Y-141302380D01*
X108734285Y-141350000D01*
X108686666Y-141397619D01*
X108639047Y-141492857D01*
X108639047Y-141635714D01*
X108686666Y-141730952D01*
X108734285Y-141778571D01*
X108829523Y-141826190D01*
X109210476Y-141826190D01*
X107686666Y-142302380D02*
X108258095Y-142302380D01*
X107972380Y-142302380D02*
X107972380Y-141302380D01*
X108067619Y-141445238D01*
X108162857Y-141540476D01*
X108258095Y-141588095D01*
X107067619Y-141302380D02*
X106972380Y-141302380D01*
X106877142Y-141350000D01*
X106829523Y-141397619D01*
X106781904Y-141492857D01*
X106734285Y-141683333D01*
X106734285Y-141921428D01*
X106781904Y-142111904D01*
X106829523Y-142207142D01*
X106877142Y-142254761D01*
X106972380Y-142302380D01*
X107067619Y-142302380D01*
X107162857Y-142254761D01*
X107210476Y-142207142D01*
X107258095Y-142111904D01*
X107305714Y-141921428D01*
X107305714Y-141683333D01*
X107258095Y-141492857D01*
X107210476Y-141397619D01*
X107162857Y-141350000D01*
X107067619Y-141302380D01*
X105877142Y-141635714D02*
X105877142Y-142302380D01*
X106115238Y-141254761D02*
X106353333Y-141969047D01*
X105734285Y-141969047D01*
X101060476Y-126352380D02*
X101060476Y-125352380D01*
X100679523Y-125352380D01*
X100584285Y-125400000D01*
X100536666Y-125447619D01*
X100489047Y-125542857D01*
X100489047Y-125685714D01*
X100536666Y-125780952D01*
X100584285Y-125828571D01*
X100679523Y-125876190D01*
X101060476Y-125876190D01*
X99536666Y-126352380D02*
X100108095Y-126352380D01*
X99822380Y-126352380D02*
X99822380Y-125352380D01*
X99917619Y-125495238D01*
X100012857Y-125590476D01*
X100108095Y-125638095D01*
X98917619Y-125352380D02*
X98822380Y-125352380D01*
X98727142Y-125400000D01*
X98679523Y-125447619D01*
X98631904Y-125542857D01*
X98584285Y-125733333D01*
X98584285Y-125971428D01*
X98631904Y-126161904D01*
X98679523Y-126257142D01*
X98727142Y-126304761D01*
X98822380Y-126352380D01*
X98917619Y-126352380D01*
X99012857Y-126304761D01*
X99060476Y-126257142D01*
X99108095Y-126161904D01*
X99155714Y-125971428D01*
X99155714Y-125733333D01*
X99108095Y-125542857D01*
X99060476Y-125447619D01*
X99012857Y-125400000D01*
X98917619Y-125352380D01*
X97679523Y-125352380D02*
X98155714Y-125352380D01*
X98203333Y-125828571D01*
X98155714Y-125780952D01*
X98060476Y-125733333D01*
X97822380Y-125733333D01*
X97727142Y-125780952D01*
X97679523Y-125828571D01*
X97631904Y-125923809D01*
X97631904Y-126161904D01*
X97679523Y-126257142D01*
X97727142Y-126304761D01*
X97822380Y-126352380D01*
X98060476Y-126352380D01*
X98155714Y-126304761D01*
X98203333Y-126257142D01*
X155310476Y-123052380D02*
X155310476Y-122052380D01*
X154929523Y-122052380D01*
X154834285Y-122100000D01*
X154786666Y-122147619D01*
X154739047Y-122242857D01*
X154739047Y-122385714D01*
X154786666Y-122480952D01*
X154834285Y-122528571D01*
X154929523Y-122576190D01*
X155310476Y-122576190D01*
X153786666Y-123052380D02*
X154358095Y-123052380D01*
X154072380Y-123052380D02*
X154072380Y-122052380D01*
X154167619Y-122195238D01*
X154262857Y-122290476D01*
X154358095Y-122338095D01*
X153167619Y-122052380D02*
X153072380Y-122052380D01*
X152977142Y-122100000D01*
X152929523Y-122147619D01*
X152881904Y-122242857D01*
X152834285Y-122433333D01*
X152834285Y-122671428D01*
X152881904Y-122861904D01*
X152929523Y-122957142D01*
X152977142Y-123004761D01*
X153072380Y-123052380D01*
X153167619Y-123052380D01*
X153262857Y-123004761D01*
X153310476Y-122957142D01*
X153358095Y-122861904D01*
X153405714Y-122671428D01*
X153405714Y-122433333D01*
X153358095Y-122242857D01*
X153310476Y-122147619D01*
X153262857Y-122100000D01*
X153167619Y-122052380D01*
X151977142Y-122052380D02*
X152167619Y-122052380D01*
X152262857Y-122100000D01*
X152310476Y-122147619D01*
X152405714Y-122290476D01*
X152453333Y-122480952D01*
X152453333Y-122861904D01*
X152405714Y-122957142D01*
X152358095Y-123004761D01*
X152262857Y-123052380D01*
X152072380Y-123052380D01*
X151977142Y-123004761D01*
X151929523Y-122957142D01*
X151881904Y-122861904D01*
X151881904Y-122623809D01*
X151929523Y-122528571D01*
X151977142Y-122480952D01*
X152072380Y-122433333D01*
X152262857Y-122433333D01*
X152358095Y-122480952D01*
X152405714Y-122528571D01*
X152453333Y-122623809D01*
X115810476Y-127252380D02*
X115810476Y-126252380D01*
X115429523Y-126252380D01*
X115334285Y-126300000D01*
X115286666Y-126347619D01*
X115239047Y-126442857D01*
X115239047Y-126585714D01*
X115286666Y-126680952D01*
X115334285Y-126728571D01*
X115429523Y-126776190D01*
X115810476Y-126776190D01*
X114858095Y-126347619D02*
X114810476Y-126300000D01*
X114715238Y-126252380D01*
X114477142Y-126252380D01*
X114381904Y-126300000D01*
X114334285Y-126347619D01*
X114286666Y-126442857D01*
X114286666Y-126538095D01*
X114334285Y-126680952D01*
X114905714Y-127252380D01*
X114286666Y-127252380D01*
X113667619Y-126252380D02*
X113572380Y-126252380D01*
X113477142Y-126300000D01*
X113429523Y-126347619D01*
X113381904Y-126442857D01*
X113334285Y-126633333D01*
X113334285Y-126871428D01*
X113381904Y-127061904D01*
X113429523Y-127157142D01*
X113477142Y-127204761D01*
X113572380Y-127252380D01*
X113667619Y-127252380D01*
X113762857Y-127204761D01*
X113810476Y-127157142D01*
X113858095Y-127061904D01*
X113905714Y-126871428D01*
X113905714Y-126633333D01*
X113858095Y-126442857D01*
X113810476Y-126347619D01*
X113762857Y-126300000D01*
X113667619Y-126252380D01*
X113000952Y-126252380D02*
X112381904Y-126252380D01*
X112715238Y-126633333D01*
X112572380Y-126633333D01*
X112477142Y-126680952D01*
X112429523Y-126728571D01*
X112381904Y-126823809D01*
X112381904Y-127061904D01*
X112429523Y-127157142D01*
X112477142Y-127204761D01*
X112572380Y-127252380D01*
X112858095Y-127252380D01*
X112953333Y-127204761D01*
X113000952Y-127157142D01*
X114610476Y-115052380D02*
X114610476Y-114052380D01*
X114229523Y-114052380D01*
X114134285Y-114100000D01*
X114086666Y-114147619D01*
X114039047Y-114242857D01*
X114039047Y-114385714D01*
X114086666Y-114480952D01*
X114134285Y-114528571D01*
X114229523Y-114576190D01*
X114610476Y-114576190D01*
X113658095Y-114147619D02*
X113610476Y-114100000D01*
X113515238Y-114052380D01*
X113277142Y-114052380D01*
X113181904Y-114100000D01*
X113134285Y-114147619D01*
X113086666Y-114242857D01*
X113086666Y-114338095D01*
X113134285Y-114480952D01*
X113705714Y-115052380D01*
X113086666Y-115052380D01*
X112467619Y-114052380D02*
X112372380Y-114052380D01*
X112277142Y-114100000D01*
X112229523Y-114147619D01*
X112181904Y-114242857D01*
X112134285Y-114433333D01*
X112134285Y-114671428D01*
X112181904Y-114861904D01*
X112229523Y-114957142D01*
X112277142Y-115004761D01*
X112372380Y-115052380D01*
X112467619Y-115052380D01*
X112562857Y-115004761D01*
X112610476Y-114957142D01*
X112658095Y-114861904D01*
X112705714Y-114671428D01*
X112705714Y-114433333D01*
X112658095Y-114242857D01*
X112610476Y-114147619D01*
X112562857Y-114100000D01*
X112467619Y-114052380D01*
X111229523Y-114052380D02*
X111705714Y-114052380D01*
X111753333Y-114528571D01*
X111705714Y-114480952D01*
X111610476Y-114433333D01*
X111372380Y-114433333D01*
X111277142Y-114480952D01*
X111229523Y-114528571D01*
X111181904Y-114623809D01*
X111181904Y-114861904D01*
X111229523Y-114957142D01*
X111277142Y-115004761D01*
X111372380Y-115052380D01*
X111610476Y-115052380D01*
X111705714Y-115004761D01*
X111753333Y-114957142D01*
X110810476Y-125852380D02*
X110810476Y-124852380D01*
X110429523Y-124852380D01*
X110334285Y-124900000D01*
X110286666Y-124947619D01*
X110239047Y-125042857D01*
X110239047Y-125185714D01*
X110286666Y-125280952D01*
X110334285Y-125328571D01*
X110429523Y-125376190D01*
X110810476Y-125376190D01*
X109858095Y-124947619D02*
X109810476Y-124900000D01*
X109715238Y-124852380D01*
X109477142Y-124852380D01*
X109381904Y-124900000D01*
X109334285Y-124947619D01*
X109286666Y-125042857D01*
X109286666Y-125138095D01*
X109334285Y-125280952D01*
X109905714Y-125852380D01*
X109286666Y-125852380D01*
X108667619Y-124852380D02*
X108572380Y-124852380D01*
X108477142Y-124900000D01*
X108429523Y-124947619D01*
X108381904Y-125042857D01*
X108334285Y-125233333D01*
X108334285Y-125471428D01*
X108381904Y-125661904D01*
X108429523Y-125757142D01*
X108477142Y-125804761D01*
X108572380Y-125852380D01*
X108667619Y-125852380D01*
X108762857Y-125804761D01*
X108810476Y-125757142D01*
X108858095Y-125661904D01*
X108905714Y-125471428D01*
X108905714Y-125233333D01*
X108858095Y-125042857D01*
X108810476Y-124947619D01*
X108762857Y-124900000D01*
X108667619Y-124852380D01*
X107477142Y-125185714D02*
X107477142Y-125852380D01*
X107715238Y-124804761D02*
X107953333Y-125519047D01*
X107334285Y-125519047D01*
X106010476Y-121752380D02*
X106010476Y-120752380D01*
X105629523Y-120752380D01*
X105534285Y-120800000D01*
X105486666Y-120847619D01*
X105439047Y-120942857D01*
X105439047Y-121085714D01*
X105486666Y-121180952D01*
X105534285Y-121228571D01*
X105629523Y-121276190D01*
X106010476Y-121276190D01*
X105058095Y-120847619D02*
X105010476Y-120800000D01*
X104915238Y-120752380D01*
X104677142Y-120752380D01*
X104581904Y-120800000D01*
X104534285Y-120847619D01*
X104486666Y-120942857D01*
X104486666Y-121038095D01*
X104534285Y-121180952D01*
X105105714Y-121752380D01*
X104486666Y-121752380D01*
X103867619Y-120752380D02*
X103772380Y-120752380D01*
X103677142Y-120800000D01*
X103629523Y-120847619D01*
X103581904Y-120942857D01*
X103534285Y-121133333D01*
X103534285Y-121371428D01*
X103581904Y-121561904D01*
X103629523Y-121657142D01*
X103677142Y-121704761D01*
X103772380Y-121752380D01*
X103867619Y-121752380D01*
X103962857Y-121704761D01*
X104010476Y-121657142D01*
X104058095Y-121561904D01*
X104105714Y-121371428D01*
X104105714Y-121133333D01*
X104058095Y-120942857D01*
X104010476Y-120847619D01*
X103962857Y-120800000D01*
X103867619Y-120752380D01*
X103153333Y-120847619D02*
X103105714Y-120800000D01*
X103010476Y-120752380D01*
X102772380Y-120752380D01*
X102677142Y-120800000D01*
X102629523Y-120847619D01*
X102581904Y-120942857D01*
X102581904Y-121038095D01*
X102629523Y-121180952D01*
X103200952Y-121752380D01*
X102581904Y-121752380D01*
X108010476Y-116352380D02*
X108010476Y-115352380D01*
X107629523Y-115352380D01*
X107534285Y-115400000D01*
X107486666Y-115447619D01*
X107439047Y-115542857D01*
X107439047Y-115685714D01*
X107486666Y-115780952D01*
X107534285Y-115828571D01*
X107629523Y-115876190D01*
X108010476Y-115876190D01*
X107058095Y-115447619D02*
X107010476Y-115400000D01*
X106915238Y-115352380D01*
X106677142Y-115352380D01*
X106581904Y-115400000D01*
X106534285Y-115447619D01*
X106486666Y-115542857D01*
X106486666Y-115638095D01*
X106534285Y-115780952D01*
X107105714Y-116352380D01*
X106486666Y-116352380D01*
X105867619Y-115352380D02*
X105772380Y-115352380D01*
X105677142Y-115400000D01*
X105629523Y-115447619D01*
X105581904Y-115542857D01*
X105534285Y-115733333D01*
X105534285Y-115971428D01*
X105581904Y-116161904D01*
X105629523Y-116257142D01*
X105677142Y-116304761D01*
X105772380Y-116352380D01*
X105867619Y-116352380D01*
X105962857Y-116304761D01*
X106010476Y-116257142D01*
X106058095Y-116161904D01*
X106105714Y-115971428D01*
X106105714Y-115733333D01*
X106058095Y-115542857D01*
X106010476Y-115447619D01*
X105962857Y-115400000D01*
X105867619Y-115352380D01*
X104581904Y-116352380D02*
X105153333Y-116352380D01*
X104867619Y-116352380D02*
X104867619Y-115352380D01*
X104962857Y-115495238D01*
X105058095Y-115590476D01*
X105153333Y-115638095D01*
X117072380Y-118709523D02*
X116072380Y-118709523D01*
X116072380Y-119090476D01*
X116120000Y-119185714D01*
X116167619Y-119233333D01*
X116262857Y-119280952D01*
X116405714Y-119280952D01*
X116500952Y-119233333D01*
X116548571Y-119185714D01*
X116596190Y-119090476D01*
X116596190Y-118709523D01*
X116167619Y-119661904D02*
X116120000Y-119709523D01*
X116072380Y-119804761D01*
X116072380Y-120042857D01*
X116120000Y-120138095D01*
X116167619Y-120185714D01*
X116262857Y-120233333D01*
X116358095Y-120233333D01*
X116500952Y-120185714D01*
X117072380Y-119614285D01*
X117072380Y-120233333D01*
X116072380Y-120852380D02*
X116072380Y-120947619D01*
X116120000Y-121042857D01*
X116167619Y-121090476D01*
X116262857Y-121138095D01*
X116453333Y-121185714D01*
X116691428Y-121185714D01*
X116881904Y-121138095D01*
X116977142Y-121090476D01*
X117024761Y-121042857D01*
X117072380Y-120947619D01*
X117072380Y-120852380D01*
X117024761Y-120757142D01*
X116977142Y-120709523D01*
X116881904Y-120661904D01*
X116691428Y-120614285D01*
X116453333Y-120614285D01*
X116262857Y-120661904D01*
X116167619Y-120709523D01*
X116120000Y-120757142D01*
X116072380Y-120852380D01*
X116072380Y-121804761D02*
X116072380Y-121900000D01*
X116120000Y-121995238D01*
X116167619Y-122042857D01*
X116262857Y-122090476D01*
X116453333Y-122138095D01*
X116691428Y-122138095D01*
X116881904Y-122090476D01*
X116977142Y-122042857D01*
X117024761Y-121995238D01*
X117072380Y-121900000D01*
X117072380Y-121804761D01*
X117024761Y-121709523D01*
X116977142Y-121661904D01*
X116881904Y-121614285D01*
X116691428Y-121566666D01*
X116453333Y-121566666D01*
X116262857Y-121614285D01*
X116167619Y-121661904D01*
X116120000Y-121709523D01*
X116072380Y-121804761D01*
X115060476Y-131852380D02*
X115060476Y-130852380D01*
X114679523Y-130852380D01*
X114584285Y-130900000D01*
X114536666Y-130947619D01*
X114489047Y-131042857D01*
X114489047Y-131185714D01*
X114536666Y-131280952D01*
X114584285Y-131328571D01*
X114679523Y-131376190D01*
X115060476Y-131376190D01*
X113536666Y-131852380D02*
X114108095Y-131852380D01*
X113822380Y-131852380D02*
X113822380Y-130852380D01*
X113917619Y-130995238D01*
X114012857Y-131090476D01*
X114108095Y-131138095D01*
X112917619Y-130852380D02*
X112822380Y-130852380D01*
X112727142Y-130900000D01*
X112679523Y-130947619D01*
X112631904Y-131042857D01*
X112584285Y-131233333D01*
X112584285Y-131471428D01*
X112631904Y-131661904D01*
X112679523Y-131757142D01*
X112727142Y-131804761D01*
X112822380Y-131852380D01*
X112917619Y-131852380D01*
X113012857Y-131804761D01*
X113060476Y-131757142D01*
X113108095Y-131661904D01*
X113155714Y-131471428D01*
X113155714Y-131233333D01*
X113108095Y-131042857D01*
X113060476Y-130947619D01*
X113012857Y-130900000D01*
X112917619Y-130852380D01*
X111631904Y-131852380D02*
X112203333Y-131852380D01*
X111917619Y-131852380D02*
X111917619Y-130852380D01*
X112012857Y-130995238D01*
X112108095Y-131090476D01*
X112203333Y-131138095D01*
X145060476Y-137352380D02*
X145060476Y-136352380D01*
X144679523Y-136352380D01*
X144584285Y-136400000D01*
X144536666Y-136447619D01*
X144489047Y-136542857D01*
X144489047Y-136685714D01*
X144536666Y-136780952D01*
X144584285Y-136828571D01*
X144679523Y-136876190D01*
X145060476Y-136876190D01*
X143536666Y-137352380D02*
X144108095Y-137352380D01*
X143822380Y-137352380D02*
X143822380Y-136352380D01*
X143917619Y-136495238D01*
X144012857Y-136590476D01*
X144108095Y-136638095D01*
X142917619Y-136352380D02*
X142822380Y-136352380D01*
X142727142Y-136400000D01*
X142679523Y-136447619D01*
X142631904Y-136542857D01*
X142584285Y-136733333D01*
X142584285Y-136971428D01*
X142631904Y-137161904D01*
X142679523Y-137257142D01*
X142727142Y-137304761D01*
X142822380Y-137352380D01*
X142917619Y-137352380D01*
X143012857Y-137304761D01*
X143060476Y-137257142D01*
X143108095Y-137161904D01*
X143155714Y-136971428D01*
X143155714Y-136733333D01*
X143108095Y-136542857D01*
X143060476Y-136447619D01*
X143012857Y-136400000D01*
X142917619Y-136352380D01*
X142203333Y-136447619D02*
X142155714Y-136400000D01*
X142060476Y-136352380D01*
X141822380Y-136352380D01*
X141727142Y-136400000D01*
X141679523Y-136447619D01*
X141631904Y-136542857D01*
X141631904Y-136638095D01*
X141679523Y-136780952D01*
X142250952Y-137352380D01*
X141631904Y-137352380D01*
X142060476Y-112102380D02*
X142060476Y-111102380D01*
X141679523Y-111102380D01*
X141584285Y-111150000D01*
X141536666Y-111197619D01*
X141489047Y-111292857D01*
X141489047Y-111435714D01*
X141536666Y-111530952D01*
X141584285Y-111578571D01*
X141679523Y-111626190D01*
X142060476Y-111626190D01*
X140536666Y-112102380D02*
X141108095Y-112102380D01*
X140822380Y-112102380D02*
X140822380Y-111102380D01*
X140917619Y-111245238D01*
X141012857Y-111340476D01*
X141108095Y-111388095D01*
X139917619Y-111102380D02*
X139822380Y-111102380D01*
X139727142Y-111150000D01*
X139679523Y-111197619D01*
X139631904Y-111292857D01*
X139584285Y-111483333D01*
X139584285Y-111721428D01*
X139631904Y-111911904D01*
X139679523Y-112007142D01*
X139727142Y-112054761D01*
X139822380Y-112102380D01*
X139917619Y-112102380D01*
X140012857Y-112054761D01*
X140060476Y-112007142D01*
X140108095Y-111911904D01*
X140155714Y-111721428D01*
X140155714Y-111483333D01*
X140108095Y-111292857D01*
X140060476Y-111197619D01*
X140012857Y-111150000D01*
X139917619Y-111102380D01*
X139250952Y-111102380D02*
X138631904Y-111102380D01*
X138965238Y-111483333D01*
X138822380Y-111483333D01*
X138727142Y-111530952D01*
X138679523Y-111578571D01*
X138631904Y-111673809D01*
X138631904Y-111911904D01*
X138679523Y-112007142D01*
X138727142Y-112054761D01*
X138822380Y-112102380D01*
X139108095Y-112102380D01*
X139203333Y-112054761D01*
X139250952Y-112007142D01*
X112822380Y-106959523D02*
X111822380Y-106959523D01*
X111822380Y-107340476D01*
X111870000Y-107435714D01*
X111917619Y-107483333D01*
X112012857Y-107530952D01*
X112155714Y-107530952D01*
X112250952Y-107483333D01*
X112298571Y-107435714D01*
X112346190Y-107340476D01*
X112346190Y-106959523D01*
X111917619Y-107911904D02*
X111870000Y-107959523D01*
X111822380Y-108054761D01*
X111822380Y-108292857D01*
X111870000Y-108388095D01*
X111917619Y-108435714D01*
X112012857Y-108483333D01*
X112108095Y-108483333D01*
X112250952Y-108435714D01*
X112822380Y-107864285D01*
X112822380Y-108483333D01*
X111822380Y-109102380D02*
X111822380Y-109197619D01*
X111870000Y-109292857D01*
X111917619Y-109340476D01*
X112012857Y-109388095D01*
X112203333Y-109435714D01*
X112441428Y-109435714D01*
X112631904Y-109388095D01*
X112727142Y-109340476D01*
X112774761Y-109292857D01*
X112822380Y-109197619D01*
X112822380Y-109102380D01*
X112774761Y-109007142D01*
X112727142Y-108959523D01*
X112631904Y-108911904D01*
X112441428Y-108864285D01*
X112203333Y-108864285D01*
X112012857Y-108911904D01*
X111917619Y-108959523D01*
X111870000Y-109007142D01*
X111822380Y-109102380D01*
X111822380Y-110292857D02*
X111822380Y-110102380D01*
X111870000Y-110007142D01*
X111917619Y-109959523D01*
X112060476Y-109864285D01*
X112250952Y-109816666D01*
X112631904Y-109816666D01*
X112727142Y-109864285D01*
X112774761Y-109911904D01*
X112822380Y-110007142D01*
X112822380Y-110197619D01*
X112774761Y-110292857D01*
X112727142Y-110340476D01*
X112631904Y-110388095D01*
X112393809Y-110388095D01*
X112298571Y-110340476D01*
X112250952Y-110292857D01*
X112203333Y-110197619D01*
X112203333Y-110007142D01*
X112250952Y-109911904D01*
X112298571Y-109864285D01*
X112393809Y-109816666D01*
X108610476Y-119052380D02*
X108610476Y-118052380D01*
X108229523Y-118052380D01*
X108134285Y-118100000D01*
X108086666Y-118147619D01*
X108039047Y-118242857D01*
X108039047Y-118385714D01*
X108086666Y-118480952D01*
X108134285Y-118528571D01*
X108229523Y-118576190D01*
X108610476Y-118576190D01*
X107658095Y-118147619D02*
X107610476Y-118100000D01*
X107515238Y-118052380D01*
X107277142Y-118052380D01*
X107181904Y-118100000D01*
X107134285Y-118147619D01*
X107086666Y-118242857D01*
X107086666Y-118338095D01*
X107134285Y-118480952D01*
X107705714Y-119052380D01*
X107086666Y-119052380D01*
X106467619Y-118052380D02*
X106372380Y-118052380D01*
X106277142Y-118100000D01*
X106229523Y-118147619D01*
X106181904Y-118242857D01*
X106134285Y-118433333D01*
X106134285Y-118671428D01*
X106181904Y-118861904D01*
X106229523Y-118957142D01*
X106277142Y-119004761D01*
X106372380Y-119052380D01*
X106467619Y-119052380D01*
X106562857Y-119004761D01*
X106610476Y-118957142D01*
X106658095Y-118861904D01*
X106705714Y-118671428D01*
X106705714Y-118433333D01*
X106658095Y-118242857D01*
X106610476Y-118147619D01*
X106562857Y-118100000D01*
X106467619Y-118052380D01*
X105800952Y-118052380D02*
X105134285Y-118052380D01*
X105562857Y-119052380D01*
X116372380Y-111609523D02*
X115372380Y-111609523D01*
X115372380Y-111990476D01*
X115420000Y-112085714D01*
X115467619Y-112133333D01*
X115562857Y-112180952D01*
X115705714Y-112180952D01*
X115800952Y-112133333D01*
X115848571Y-112085714D01*
X115896190Y-111990476D01*
X115896190Y-111609523D01*
X115467619Y-112561904D02*
X115420000Y-112609523D01*
X115372380Y-112704761D01*
X115372380Y-112942857D01*
X115420000Y-113038095D01*
X115467619Y-113085714D01*
X115562857Y-113133333D01*
X115658095Y-113133333D01*
X115800952Y-113085714D01*
X116372380Y-112514285D01*
X116372380Y-113133333D01*
X115372380Y-113752380D02*
X115372380Y-113847619D01*
X115420000Y-113942857D01*
X115467619Y-113990476D01*
X115562857Y-114038095D01*
X115753333Y-114085714D01*
X115991428Y-114085714D01*
X116181904Y-114038095D01*
X116277142Y-113990476D01*
X116324761Y-113942857D01*
X116372380Y-113847619D01*
X116372380Y-113752380D01*
X116324761Y-113657142D01*
X116277142Y-113609523D01*
X116181904Y-113561904D01*
X115991428Y-113514285D01*
X115753333Y-113514285D01*
X115562857Y-113561904D01*
X115467619Y-113609523D01*
X115420000Y-113657142D01*
X115372380Y-113752380D01*
X115800952Y-114657142D02*
X115753333Y-114561904D01*
X115705714Y-114514285D01*
X115610476Y-114466666D01*
X115562857Y-114466666D01*
X115467619Y-114514285D01*
X115420000Y-114561904D01*
X115372380Y-114657142D01*
X115372380Y-114847619D01*
X115420000Y-114942857D01*
X115467619Y-114990476D01*
X115562857Y-115038095D01*
X115610476Y-115038095D01*
X115705714Y-114990476D01*
X115753333Y-114942857D01*
X115800952Y-114847619D01*
X115800952Y-114657142D01*
X115848571Y-114561904D01*
X115896190Y-114514285D01*
X115991428Y-114466666D01*
X116181904Y-114466666D01*
X116277142Y-114514285D01*
X116324761Y-114561904D01*
X116372380Y-114657142D01*
X116372380Y-114847619D01*
X116324761Y-114942857D01*
X116277142Y-114990476D01*
X116181904Y-115038095D01*
X115991428Y-115038095D01*
X115896190Y-114990476D01*
X115848571Y-114942857D01*
X115800952Y-114847619D01*
X121310476Y-115852380D02*
X121310476Y-114852380D01*
X120929523Y-114852380D01*
X120834285Y-114900000D01*
X120786666Y-114947619D01*
X120739047Y-115042857D01*
X120739047Y-115185714D01*
X120786666Y-115280952D01*
X120834285Y-115328571D01*
X120929523Y-115376190D01*
X121310476Y-115376190D01*
X120358095Y-114947619D02*
X120310476Y-114900000D01*
X120215238Y-114852380D01*
X119977142Y-114852380D01*
X119881904Y-114900000D01*
X119834285Y-114947619D01*
X119786666Y-115042857D01*
X119786666Y-115138095D01*
X119834285Y-115280952D01*
X120405714Y-115852380D01*
X119786666Y-115852380D01*
X119167619Y-114852380D02*
X119072380Y-114852380D01*
X118977142Y-114900000D01*
X118929523Y-114947619D01*
X118881904Y-115042857D01*
X118834285Y-115233333D01*
X118834285Y-115471428D01*
X118881904Y-115661904D01*
X118929523Y-115757142D01*
X118977142Y-115804761D01*
X119072380Y-115852380D01*
X119167619Y-115852380D01*
X119262857Y-115804761D01*
X119310476Y-115757142D01*
X119358095Y-115661904D01*
X119405714Y-115471428D01*
X119405714Y-115233333D01*
X119358095Y-115042857D01*
X119310476Y-114947619D01*
X119262857Y-114900000D01*
X119167619Y-114852380D01*
X118358095Y-115852380D02*
X118167619Y-115852380D01*
X118072380Y-115804761D01*
X118024761Y-115757142D01*
X117929523Y-115614285D01*
X117881904Y-115423809D01*
X117881904Y-115042857D01*
X117929523Y-114947619D01*
X117977142Y-114900000D01*
X118072380Y-114852380D01*
X118262857Y-114852380D01*
X118358095Y-114900000D01*
X118405714Y-114947619D01*
X118453333Y-115042857D01*
X118453333Y-115280952D01*
X118405714Y-115376190D01*
X118358095Y-115423809D01*
X118262857Y-115471428D01*
X118072380Y-115471428D01*
X117977142Y-115423809D01*
X117929523Y-115376190D01*
X117881904Y-115280952D01*
X115272380Y-104409523D02*
X114272380Y-104409523D01*
X114272380Y-104790476D01*
X114320000Y-104885714D01*
X114367619Y-104933333D01*
X114462857Y-104980952D01*
X114605714Y-104980952D01*
X114700952Y-104933333D01*
X114748571Y-104885714D01*
X114796190Y-104790476D01*
X114796190Y-104409523D01*
X114367619Y-105361904D02*
X114320000Y-105409523D01*
X114272380Y-105504761D01*
X114272380Y-105742857D01*
X114320000Y-105838095D01*
X114367619Y-105885714D01*
X114462857Y-105933333D01*
X114558095Y-105933333D01*
X114700952Y-105885714D01*
X115272380Y-105314285D01*
X115272380Y-105933333D01*
X115272380Y-106885714D02*
X115272380Y-106314285D01*
X115272380Y-106600000D02*
X114272380Y-106600000D01*
X114415238Y-106504761D01*
X114510476Y-106409523D01*
X114558095Y-106314285D01*
X114272380Y-107504761D02*
X114272380Y-107600000D01*
X114320000Y-107695238D01*
X114367619Y-107742857D01*
X114462857Y-107790476D01*
X114653333Y-107838095D01*
X114891428Y-107838095D01*
X115081904Y-107790476D01*
X115177142Y-107742857D01*
X115224761Y-107695238D01*
X115272380Y-107600000D01*
X115272380Y-107504761D01*
X115224761Y-107409523D01*
X115177142Y-107361904D01*
X115081904Y-107314285D01*
X114891428Y-107266666D01*
X114653333Y-107266666D01*
X114462857Y-107314285D01*
X114367619Y-107361904D01*
X114320000Y-107409523D01*
X114272380Y-107504761D01*
X118372380Y-104709523D02*
X117372380Y-104709523D01*
X117372380Y-105090476D01*
X117420000Y-105185714D01*
X117467619Y-105233333D01*
X117562857Y-105280952D01*
X117705714Y-105280952D01*
X117800952Y-105233333D01*
X117848571Y-105185714D01*
X117896190Y-105090476D01*
X117896190Y-104709523D01*
X117467619Y-105661904D02*
X117420000Y-105709523D01*
X117372380Y-105804761D01*
X117372380Y-106042857D01*
X117420000Y-106138095D01*
X117467619Y-106185714D01*
X117562857Y-106233333D01*
X117658095Y-106233333D01*
X117800952Y-106185714D01*
X118372380Y-105614285D01*
X118372380Y-106233333D01*
X118372380Y-107185714D02*
X118372380Y-106614285D01*
X118372380Y-106900000D02*
X117372380Y-106900000D01*
X117515238Y-106804761D01*
X117610476Y-106709523D01*
X117658095Y-106614285D01*
X118372380Y-108138095D02*
X118372380Y-107566666D01*
X118372380Y-107852380D02*
X117372380Y-107852380D01*
X117515238Y-107757142D01*
X117610476Y-107661904D01*
X117658095Y-107566666D01*
X122560476Y-104852380D02*
X122560476Y-103852380D01*
X122179523Y-103852380D01*
X122084285Y-103900000D01*
X122036666Y-103947619D01*
X121989047Y-104042857D01*
X121989047Y-104185714D01*
X122036666Y-104280952D01*
X122084285Y-104328571D01*
X122179523Y-104376190D01*
X122560476Y-104376190D01*
X121608095Y-103947619D02*
X121560476Y-103900000D01*
X121465238Y-103852380D01*
X121227142Y-103852380D01*
X121131904Y-103900000D01*
X121084285Y-103947619D01*
X121036666Y-104042857D01*
X121036666Y-104138095D01*
X121084285Y-104280952D01*
X121655714Y-104852380D01*
X121036666Y-104852380D01*
X120084285Y-104852380D02*
X120655714Y-104852380D01*
X120370000Y-104852380D02*
X120370000Y-103852380D01*
X120465238Y-103995238D01*
X120560476Y-104090476D01*
X120655714Y-104138095D01*
X119703333Y-103947619D02*
X119655714Y-103900000D01*
X119560476Y-103852380D01*
X119322380Y-103852380D01*
X119227142Y-103900000D01*
X119179523Y-103947619D01*
X119131904Y-104042857D01*
X119131904Y-104138095D01*
X119179523Y-104280952D01*
X119750952Y-104852380D01*
X119131904Y-104852380D01*
X129810476Y-112602380D02*
X129810476Y-111602380D01*
X129429523Y-111602380D01*
X129334285Y-111650000D01*
X129286666Y-111697619D01*
X129239047Y-111792857D01*
X129239047Y-111935714D01*
X129286666Y-112030952D01*
X129334285Y-112078571D01*
X129429523Y-112126190D01*
X129810476Y-112126190D01*
X128858095Y-111697619D02*
X128810476Y-111650000D01*
X128715238Y-111602380D01*
X128477142Y-111602380D01*
X128381904Y-111650000D01*
X128334285Y-111697619D01*
X128286666Y-111792857D01*
X128286666Y-111888095D01*
X128334285Y-112030952D01*
X128905714Y-112602380D01*
X128286666Y-112602380D01*
X127334285Y-112602380D02*
X127905714Y-112602380D01*
X127620000Y-112602380D02*
X127620000Y-111602380D01*
X127715238Y-111745238D01*
X127810476Y-111840476D01*
X127905714Y-111888095D01*
X127000952Y-111602380D02*
X126381904Y-111602380D01*
X126715238Y-111983333D01*
X126572380Y-111983333D01*
X126477142Y-112030952D01*
X126429523Y-112078571D01*
X126381904Y-112173809D01*
X126381904Y-112411904D01*
X126429523Y-112507142D01*
X126477142Y-112554761D01*
X126572380Y-112602380D01*
X126858095Y-112602380D01*
X126953333Y-112554761D01*
X127000952Y-112507142D01*
X134810476Y-110852380D02*
X134810476Y-109852380D01*
X134429523Y-109852380D01*
X134334285Y-109900000D01*
X134286666Y-109947619D01*
X134239047Y-110042857D01*
X134239047Y-110185714D01*
X134286666Y-110280952D01*
X134334285Y-110328571D01*
X134429523Y-110376190D01*
X134810476Y-110376190D01*
X133858095Y-109947619D02*
X133810476Y-109900000D01*
X133715238Y-109852380D01*
X133477142Y-109852380D01*
X133381904Y-109900000D01*
X133334285Y-109947619D01*
X133286666Y-110042857D01*
X133286666Y-110138095D01*
X133334285Y-110280952D01*
X133905714Y-110852380D01*
X133286666Y-110852380D01*
X132334285Y-110852380D02*
X132905714Y-110852380D01*
X132620000Y-110852380D02*
X132620000Y-109852380D01*
X132715238Y-109995238D01*
X132810476Y-110090476D01*
X132905714Y-110138095D01*
X131477142Y-110185714D02*
X131477142Y-110852380D01*
X131715238Y-109804761D02*
X131953333Y-110519047D01*
X131334285Y-110519047D01*
X129560476Y-109102380D02*
X129560476Y-108102380D01*
X129179523Y-108102380D01*
X129084285Y-108150000D01*
X129036666Y-108197619D01*
X128989047Y-108292857D01*
X128989047Y-108435714D01*
X129036666Y-108530952D01*
X129084285Y-108578571D01*
X129179523Y-108626190D01*
X129560476Y-108626190D01*
X128608095Y-108197619D02*
X128560476Y-108150000D01*
X128465238Y-108102380D01*
X128227142Y-108102380D01*
X128131904Y-108150000D01*
X128084285Y-108197619D01*
X128036666Y-108292857D01*
X128036666Y-108388095D01*
X128084285Y-108530952D01*
X128655714Y-109102380D01*
X128036666Y-109102380D01*
X127084285Y-109102380D02*
X127655714Y-109102380D01*
X127370000Y-109102380D02*
X127370000Y-108102380D01*
X127465238Y-108245238D01*
X127560476Y-108340476D01*
X127655714Y-108388095D01*
X126179523Y-108102380D02*
X126655714Y-108102380D01*
X126703333Y-108578571D01*
X126655714Y-108530952D01*
X126560476Y-108483333D01*
X126322380Y-108483333D01*
X126227142Y-108530952D01*
X126179523Y-108578571D01*
X126131904Y-108673809D01*
X126131904Y-108911904D01*
X126179523Y-109007142D01*
X126227142Y-109054761D01*
X126322380Y-109102380D01*
X126560476Y-109102380D01*
X126655714Y-109054761D01*
X126703333Y-109007142D01*
X151910476Y-110552380D02*
X151910476Y-109552380D01*
X151529523Y-109552380D01*
X151434285Y-109600000D01*
X151386666Y-109647619D01*
X151339047Y-109742857D01*
X151339047Y-109885714D01*
X151386666Y-109980952D01*
X151434285Y-110028571D01*
X151529523Y-110076190D01*
X151910476Y-110076190D01*
X150386666Y-110552380D02*
X150958095Y-110552380D01*
X150672380Y-110552380D02*
X150672380Y-109552380D01*
X150767619Y-109695238D01*
X150862857Y-109790476D01*
X150958095Y-109838095D01*
X149767619Y-109552380D02*
X149672380Y-109552380D01*
X149577142Y-109600000D01*
X149529523Y-109647619D01*
X149481904Y-109742857D01*
X149434285Y-109933333D01*
X149434285Y-110171428D01*
X149481904Y-110361904D01*
X149529523Y-110457142D01*
X149577142Y-110504761D01*
X149672380Y-110552380D01*
X149767619Y-110552380D01*
X149862857Y-110504761D01*
X149910476Y-110457142D01*
X149958095Y-110361904D01*
X150005714Y-110171428D01*
X150005714Y-109933333D01*
X149958095Y-109742857D01*
X149910476Y-109647619D01*
X149862857Y-109600000D01*
X149767619Y-109552380D01*
X149100952Y-109552380D02*
X148434285Y-109552380D01*
X148862857Y-110552380D01*
X142310476Y-144852380D02*
X142310476Y-143852380D01*
X141929523Y-143852380D01*
X141834285Y-143900000D01*
X141786666Y-143947619D01*
X141739047Y-144042857D01*
X141739047Y-144185714D01*
X141786666Y-144280952D01*
X141834285Y-144328571D01*
X141929523Y-144376190D01*
X142310476Y-144376190D01*
X140786666Y-144852380D02*
X141358095Y-144852380D01*
X141072380Y-144852380D02*
X141072380Y-143852380D01*
X141167619Y-143995238D01*
X141262857Y-144090476D01*
X141358095Y-144138095D01*
X140167619Y-143852380D02*
X140072380Y-143852380D01*
X139977142Y-143900000D01*
X139929523Y-143947619D01*
X139881904Y-144042857D01*
X139834285Y-144233333D01*
X139834285Y-144471428D01*
X139881904Y-144661904D01*
X139929523Y-144757142D01*
X139977142Y-144804761D01*
X140072380Y-144852380D01*
X140167619Y-144852380D01*
X140262857Y-144804761D01*
X140310476Y-144757142D01*
X140358095Y-144661904D01*
X140405714Y-144471428D01*
X140405714Y-144233333D01*
X140358095Y-144042857D01*
X140310476Y-143947619D01*
X140262857Y-143900000D01*
X140167619Y-143852380D01*
X139262857Y-144280952D02*
X139358095Y-144233333D01*
X139405714Y-144185714D01*
X139453333Y-144090476D01*
X139453333Y-144042857D01*
X139405714Y-143947619D01*
X139358095Y-143900000D01*
X139262857Y-143852380D01*
X139072380Y-143852380D01*
X138977142Y-143900000D01*
X138929523Y-143947619D01*
X138881904Y-144042857D01*
X138881904Y-144090476D01*
X138929523Y-144185714D01*
X138977142Y-144233333D01*
X139072380Y-144280952D01*
X139262857Y-144280952D01*
X139358095Y-144328571D01*
X139405714Y-144376190D01*
X139453333Y-144471428D01*
X139453333Y-144661904D01*
X139405714Y-144757142D01*
X139358095Y-144804761D01*
X139262857Y-144852380D01*
X139072380Y-144852380D01*
X138977142Y-144804761D01*
X138929523Y-144757142D01*
X138881904Y-144661904D01*
X138881904Y-144471428D01*
X138929523Y-144376190D01*
X138977142Y-144328571D01*
X139072380Y-144280952D01*
X142310476Y-100802380D02*
X142310476Y-99802380D01*
X141929523Y-99802380D01*
X141834285Y-99850000D01*
X141786666Y-99897619D01*
X141739047Y-99992857D01*
X141739047Y-100135714D01*
X141786666Y-100230952D01*
X141834285Y-100278571D01*
X141929523Y-100326190D01*
X142310476Y-100326190D01*
X140786666Y-100802380D02*
X141358095Y-100802380D01*
X141072380Y-100802380D02*
X141072380Y-99802380D01*
X141167619Y-99945238D01*
X141262857Y-100040476D01*
X141358095Y-100088095D01*
X140167619Y-99802380D02*
X140072380Y-99802380D01*
X139977142Y-99850000D01*
X139929523Y-99897619D01*
X139881904Y-99992857D01*
X139834285Y-100183333D01*
X139834285Y-100421428D01*
X139881904Y-100611904D01*
X139929523Y-100707142D01*
X139977142Y-100754761D01*
X140072380Y-100802380D01*
X140167619Y-100802380D01*
X140262857Y-100754761D01*
X140310476Y-100707142D01*
X140358095Y-100611904D01*
X140405714Y-100421428D01*
X140405714Y-100183333D01*
X140358095Y-99992857D01*
X140310476Y-99897619D01*
X140262857Y-99850000D01*
X140167619Y-99802380D01*
X139358095Y-100802380D02*
X139167619Y-100802380D01*
X139072380Y-100754761D01*
X139024761Y-100707142D01*
X138929523Y-100564285D01*
X138881904Y-100373809D01*
X138881904Y-99992857D01*
X138929523Y-99897619D01*
X138977142Y-99850000D01*
X139072380Y-99802380D01*
X139262857Y-99802380D01*
X139358095Y-99850000D01*
X139405714Y-99897619D01*
X139453333Y-99992857D01*
X139453333Y-100230952D01*
X139405714Y-100326190D01*
X139358095Y-100373809D01*
X139262857Y-100421428D01*
X139072380Y-100421428D01*
X138977142Y-100373809D01*
X138929523Y-100326190D01*
X138881904Y-100230952D01*
X151910476Y-135602380D02*
X151910476Y-134602380D01*
X151529523Y-134602380D01*
X151434285Y-134650000D01*
X151386666Y-134697619D01*
X151339047Y-134792857D01*
X151339047Y-134935714D01*
X151386666Y-135030952D01*
X151434285Y-135078571D01*
X151529523Y-135126190D01*
X151910476Y-135126190D01*
X150386666Y-135602380D02*
X150958095Y-135602380D01*
X150672380Y-135602380D02*
X150672380Y-134602380D01*
X150767619Y-134745238D01*
X150862857Y-134840476D01*
X150958095Y-134888095D01*
X149434285Y-135602380D02*
X150005714Y-135602380D01*
X149720000Y-135602380D02*
X149720000Y-134602380D01*
X149815238Y-134745238D01*
X149910476Y-134840476D01*
X150005714Y-134888095D01*
X148815238Y-134602380D02*
X148720000Y-134602380D01*
X148624761Y-134650000D01*
X148577142Y-134697619D01*
X148529523Y-134792857D01*
X148481904Y-134983333D01*
X148481904Y-135221428D01*
X148529523Y-135411904D01*
X148577142Y-135507142D01*
X148624761Y-135554761D01*
X148720000Y-135602380D01*
X148815238Y-135602380D01*
X148910476Y-135554761D01*
X148958095Y-135507142D01*
X149005714Y-135411904D01*
X149053333Y-135221428D01*
X149053333Y-134983333D01*
X149005714Y-134792857D01*
X148958095Y-134697619D01*
X148910476Y-134650000D01*
X148815238Y-134602380D01*
X130060476Y-104202380D02*
X130060476Y-103202380D01*
X129679523Y-103202380D01*
X129584285Y-103250000D01*
X129536666Y-103297619D01*
X129489047Y-103392857D01*
X129489047Y-103535714D01*
X129536666Y-103630952D01*
X129584285Y-103678571D01*
X129679523Y-103726190D01*
X130060476Y-103726190D01*
X129108095Y-103297619D02*
X129060476Y-103250000D01*
X128965238Y-103202380D01*
X128727142Y-103202380D01*
X128631904Y-103250000D01*
X128584285Y-103297619D01*
X128536666Y-103392857D01*
X128536666Y-103488095D01*
X128584285Y-103630952D01*
X129155714Y-104202380D01*
X128536666Y-104202380D01*
X127584285Y-104202380D02*
X128155714Y-104202380D01*
X127870000Y-104202380D02*
X127870000Y-103202380D01*
X127965238Y-103345238D01*
X128060476Y-103440476D01*
X128155714Y-103488095D01*
X126727142Y-103202380D02*
X126917619Y-103202380D01*
X127012857Y-103250000D01*
X127060476Y-103297619D01*
X127155714Y-103440476D01*
X127203333Y-103630952D01*
X127203333Y-104011904D01*
X127155714Y-104107142D01*
X127108095Y-104154761D01*
X127012857Y-104202380D01*
X126822380Y-104202380D01*
X126727142Y-104154761D01*
X126679523Y-104107142D01*
X126631904Y-104011904D01*
X126631904Y-103773809D01*
X126679523Y-103678571D01*
X126727142Y-103630952D01*
X126822380Y-103583333D01*
X127012857Y-103583333D01*
X127108095Y-103630952D01*
X127155714Y-103678571D01*
X127203333Y-103773809D01*
X134260476Y-106252380D02*
X134260476Y-105252380D01*
X133879523Y-105252380D01*
X133784285Y-105300000D01*
X133736666Y-105347619D01*
X133689047Y-105442857D01*
X133689047Y-105585714D01*
X133736666Y-105680952D01*
X133784285Y-105728571D01*
X133879523Y-105776190D01*
X134260476Y-105776190D01*
X133308095Y-105347619D02*
X133260476Y-105300000D01*
X133165238Y-105252380D01*
X132927142Y-105252380D01*
X132831904Y-105300000D01*
X132784285Y-105347619D01*
X132736666Y-105442857D01*
X132736666Y-105538095D01*
X132784285Y-105680952D01*
X133355714Y-106252380D01*
X132736666Y-106252380D01*
X131784285Y-106252380D02*
X132355714Y-106252380D01*
X132070000Y-106252380D02*
X132070000Y-105252380D01*
X132165238Y-105395238D01*
X132260476Y-105490476D01*
X132355714Y-105538095D01*
X131450952Y-105252380D02*
X130784285Y-105252380D01*
X131212857Y-106252380D01*
%LPC*%
D12*
X99060000Y-149899000D03*
D13*
X101600000Y-149899000D03*
X104140000Y-149899000D03*
X106680000Y-149899000D03*
X109220000Y-149899000D03*
X111760000Y-149899000D03*
X114300000Y-149899000D03*
X116840000Y-149899000D03*
D12*
X121920000Y-149899000D03*
D13*
X124460000Y-149899000D03*
X127000000Y-149899000D03*
X129540000Y-149899000D03*
X132080000Y-149899000D03*
X134620000Y-149899000D03*
D12*
X134620000Y-101639000D03*
D13*
X132080000Y-101639000D03*
X129540000Y-101639000D03*
X127000000Y-101639000D03*
X124460000Y-101639000D03*
X121920000Y-101639000D03*
X119380000Y-101639000D03*
X116840000Y-101639000D03*
D12*
X112776000Y-101639000D03*
D13*
X110236000Y-101639000D03*
X107696000Y-101639000D03*
X105156000Y-101639000D03*
X102616000Y-101639000D03*
X100076000Y-101639000D03*
X97536000Y-101639000D03*
X94996000Y-101639000D03*
X92456000Y-101639000D03*
X89916000Y-101639000D03*
D12*
X89916000Y-111799000D03*
D13*
X92456000Y-111799000D03*
X94996000Y-111799000D03*
X97536000Y-111799000D03*
X100076000Y-111799000D03*
X102616000Y-111799000D03*
X105156000Y-111799000D03*
X107696000Y-111799000D03*
D14*
X107520000Y-138450000D03*
X104120000Y-125900000D03*
X153620000Y-125900000D03*
D15*
X114370000Y-124400000D03*
X112870000Y-116900000D03*
X110370000Y-122900000D03*
X107870000Y-121400000D03*
X109870000Y-115900000D03*
X114120000Y-120400000D03*
X113370000Y-133900000D03*
X143370000Y-139400000D03*
X140370000Y-108900000D03*
X113120000Y-112400000D03*
X110370000Y-119400000D03*
X115870000Y-116900000D03*
X121370000Y-112900000D03*
X114870000Y-109650000D03*
X117870000Y-109900000D03*
X120120000Y-106650000D03*
X124120000Y-112400000D03*
X133120000Y-112900000D03*
X124120000Y-108650000D03*
D14*
X150220000Y-113400000D03*
X140620000Y-147700000D03*
X140620000Y-104100000D03*
X150220000Y-138450000D03*
D16*
X89870000Y-119670000D03*
D17*
X89870000Y-122210000D03*
X89870000Y-124750000D03*
X89870000Y-127290000D03*
X89870000Y-129830000D03*
X89870000Y-132370000D03*
X89870000Y-134910000D03*
X89870000Y-137450000D03*
X89870000Y-139990000D03*
X89870000Y-142530000D03*
X89870000Y-145070000D03*
X89870000Y-147610000D03*
X89870000Y-150150000D03*
D15*
X125370000Y-105100000D03*
X128870000Y-105800000D03*
M02*
