%FSLAX45Y45*%
G04 Gerber Fmt 4.5, Leading zero omitted, Abs format (unit mm)*
G04 Created by KiCad (PCBNEW (2016-05-05 BZR 6775)-product) date 2016 August 31, Wednesday 02:40:12*
%MOMM*%
%LPD*%
G01*
G04 APERTURE LIST*
%ADD10C,0.127000*%
%ADD11C,0.150000*%
%ADD12C,0.200000*%
%ADD13C,0.300000*%
G04 APERTURE END LIST*
D10*
D11*
X13962000Y-12590000D02*
G75*
G03X13962000Y-12590000I-1075000J0D01*
G01*
X15162000Y-9890000D02*
X9212000Y-9890000D01*
X9212000Y-15290000D02*
X15162000Y-15290000D01*
X8712000Y-14790000D02*
G75*
G03X9212000Y-15290000I500000J0D01*
G01*
X8712000Y-14790000D02*
X8712000Y-10390000D01*
X15662000Y-10390000D02*
X15662000Y-14790000D01*
X15162000Y-15290000D02*
G75*
G03X15662000Y-14790000I0J500000D01*
G01*
X15662000Y-10390000D02*
G75*
G03X15162000Y-9890000I-500000J0D01*
G01*
X9212000Y-9890000D02*
G75*
G03X8712000Y-10390000I0J-500000D01*
G01*
D12*
X8842000Y-10520000D02*
X8882000Y-10560000D01*
X8882000Y-10520000D02*
X8842000Y-10560000D01*
X9042000Y-11620000D02*
X9082000Y-11660000D01*
X9082000Y-11620000D02*
X9042000Y-11660000D01*
X9342000Y-14520000D02*
X9382000Y-14560000D01*
X9382000Y-14520000D02*
X9342000Y-14560000D01*
X9492000Y-11520000D02*
X9532000Y-11560000D01*
X9532000Y-11520000D02*
X9492000Y-11560000D01*
X9592000Y-10520000D02*
X9632000Y-10560000D01*
X9632000Y-10520000D02*
X9592000Y-10560000D01*
X9592000Y-11820000D02*
X9632000Y-11860000D01*
X9632000Y-11820000D02*
X9592000Y-11860000D01*
X9742000Y-11695000D02*
X9782000Y-11735000D01*
X9782000Y-11695000D02*
X9742000Y-11735000D01*
X9892000Y-11770000D02*
X9932000Y-11810000D01*
X9932000Y-11770000D02*
X9892000Y-11810000D01*
X10092000Y-11470000D02*
X10132000Y-11510000D01*
X10132000Y-11470000D02*
X10092000Y-11510000D01*
X10092000Y-14520000D02*
X10132000Y-14560000D01*
X10132000Y-14520000D02*
X10092000Y-14560000D01*
X10292000Y-11570000D02*
X10332000Y-11610000D01*
X10332000Y-11570000D02*
X10292000Y-11610000D01*
X10342000Y-10520000D02*
X10382000Y-10560000D01*
X10382000Y-10520000D02*
X10342000Y-10560000D01*
X10692000Y-11470000D02*
X10732000Y-11510000D01*
X10732000Y-11470000D02*
X10692000Y-11510000D01*
X10842000Y-12770000D02*
X10882000Y-12810000D01*
X10882000Y-12770000D02*
X10842000Y-12810000D01*
X10842000Y-13270000D02*
X10882000Y-13310000D01*
X10882000Y-13270000D02*
X10842000Y-13310000D01*
X10842000Y-14520000D02*
X10882000Y-14560000D01*
X10882000Y-14520000D02*
X10842000Y-14560000D01*
X11092000Y-10770000D02*
X11132000Y-10810000D01*
X11132000Y-10770000D02*
X11092000Y-10810000D01*
X11092000Y-13520000D02*
X11132000Y-13560000D01*
X11132000Y-13520000D02*
X11092000Y-13560000D01*
X11342000Y-14020000D02*
X11382000Y-14060000D01*
X11382000Y-14020000D02*
X11342000Y-14060000D01*
X11592000Y-13020000D02*
X11632000Y-13060000D01*
X11632000Y-13020000D02*
X11592000Y-13060000D01*
X11592000Y-13520000D02*
X11632000Y-13560000D01*
X11632000Y-13520000D02*
X11592000Y-13560000D01*
X11592000Y-14520000D02*
X11632000Y-14560000D01*
X11632000Y-14520000D02*
X11592000Y-14560000D01*
X12092000Y-13770000D02*
X12132000Y-13810000D01*
X12132000Y-13770000D02*
X12092000Y-13810000D01*
X12342000Y-14520000D02*
X12382000Y-14560000D01*
X12382000Y-14520000D02*
X12342000Y-14560000D01*
X12842000Y-10495000D02*
X12882000Y-10535000D01*
X12882000Y-10495000D02*
X12842000Y-10535000D01*
X12842000Y-13770000D02*
X12882000Y-13810000D01*
X12882000Y-13770000D02*
X12842000Y-13810000D01*
X13092000Y-14520000D02*
X13132000Y-14560000D01*
X13132000Y-14520000D02*
X13092000Y-14560000D01*
X13342000Y-13770000D02*
X13382000Y-13810000D01*
X13382000Y-13770000D02*
X13342000Y-13810000D01*
X13592000Y-10770000D02*
X13632000Y-10810000D01*
X13632000Y-10770000D02*
X13592000Y-10810000D01*
X13592000Y-11520000D02*
X13632000Y-11560000D01*
X13632000Y-11520000D02*
X13592000Y-11560000D01*
X13592000Y-14520000D02*
X13632000Y-14560000D01*
X13632000Y-14520000D02*
X13592000Y-14560000D01*
X13842000Y-13270000D02*
X13882000Y-13310000D01*
X13882000Y-13270000D02*
X13842000Y-13310000D01*
X14092000Y-12020000D02*
X14132000Y-12060000D01*
X14132000Y-12020000D02*
X14092000Y-12060000D01*
X14092000Y-12520000D02*
X14132000Y-12560000D01*
X14132000Y-12520000D02*
X14092000Y-12560000D01*
X14092000Y-13770000D02*
X14132000Y-13810000D01*
X14132000Y-13770000D02*
X14092000Y-13810000D01*
X14342000Y-10770000D02*
X14382000Y-10810000D01*
X14382000Y-10770000D02*
X14342000Y-10810000D01*
X14342000Y-11270000D02*
X14382000Y-11310000D01*
X14382000Y-11270000D02*
X14342000Y-11310000D01*
X14342000Y-15020000D02*
X14382000Y-15060000D01*
X14382000Y-15020000D02*
X14342000Y-15060000D01*
X14592000Y-11770000D02*
X14632000Y-11810000D01*
X14632000Y-11770000D02*
X14592000Y-11810000D01*
X14592000Y-12520000D02*
X14632000Y-12560000D01*
X14632000Y-12520000D02*
X14592000Y-12560000D01*
X14592000Y-13270000D02*
X14632000Y-13310000D01*
X14632000Y-13270000D02*
X14592000Y-13310000D01*
X14592000Y-14270000D02*
X14632000Y-14310000D01*
X14632000Y-14270000D02*
X14592000Y-14310000D01*
X14842000Y-10520000D02*
X14882000Y-10560000D01*
X14882000Y-10520000D02*
X14842000Y-10560000D01*
X14842000Y-12270000D02*
X14882000Y-12310000D01*
X14882000Y-12270000D02*
X14842000Y-12310000D01*
X14842000Y-14520000D02*
X14882000Y-14560000D01*
X14882000Y-14520000D02*
X14842000Y-14560000D01*
X15342000Y-10770000D02*
X15382000Y-10810000D01*
X15382000Y-10770000D02*
X15342000Y-10810000D01*
X15342000Y-11520000D02*
X15382000Y-11560000D01*
X15382000Y-11520000D02*
X15342000Y-11560000D01*
X15342000Y-12020000D02*
X15382000Y-12060000D01*
X15382000Y-12020000D02*
X15342000Y-12060000D01*
X15342000Y-13020000D02*
X15382000Y-13060000D01*
X15382000Y-13020000D02*
X15342000Y-13060000D01*
X15342000Y-13520000D02*
X15382000Y-13560000D01*
X15382000Y-13520000D02*
X15342000Y-13560000D01*
X15342000Y-14270000D02*
X15382000Y-14310000D01*
X15382000Y-14270000D02*
X15342000Y-14310000D01*
X15342000Y-15020000D02*
X15382000Y-15060000D01*
X15382000Y-15020000D02*
X15342000Y-15060000D01*
X9037800Y-11967000D02*
G75*
G03X9037800Y-11967000I-50800J0D01*
G01*
X9037800Y-12221000D02*
G75*
G03X9037800Y-12221000I-50800J0D01*
G01*
X9037800Y-12475000D02*
G75*
G03X9037800Y-12475000I-50800J0D01*
G01*
X9037800Y-12729000D02*
G75*
G03X9037800Y-12729000I-50800J0D01*
G01*
X9037800Y-12983000D02*
G75*
G03X9037800Y-12983000I-50800J0D01*
G01*
X9037800Y-13237000D02*
G75*
G03X9037800Y-13237000I-50800J0D01*
G01*
X9037800Y-13491000D02*
G75*
G03X9037800Y-13491000I-50800J0D01*
G01*
X9037800Y-13745000D02*
G75*
G03X9037800Y-13745000I-50800J0D01*
G01*
X9037800Y-13999000D02*
G75*
G03X9037800Y-13999000I-50800J0D01*
G01*
X9037800Y-14253000D02*
G75*
G03X9037800Y-14253000I-50800J0D01*
G01*
X9037800Y-14507000D02*
G75*
G03X9037800Y-14507000I-50800J0D01*
G01*
X9037800Y-14761000D02*
G75*
G03X9037800Y-14761000I-50800J0D01*
G01*
X9037800Y-15015000D02*
G75*
G03X9037800Y-15015000I-50800J0D01*
G01*
X9042400Y-10163900D02*
G75*
G03X9042400Y-10163900I-50800J0D01*
G01*
X9042400Y-11179900D02*
G75*
G03X9042400Y-11179900I-50800J0D01*
G01*
X9296400Y-10163900D02*
G75*
G03X9296400Y-10163900I-50800J0D01*
G01*
X9296400Y-11179900D02*
G75*
G03X9296400Y-11179900I-50800J0D01*
G01*
X9550400Y-10163900D02*
G75*
G03X9550400Y-10163900I-50800J0D01*
G01*
X9550400Y-11179900D02*
G75*
G03X9550400Y-11179900I-50800J0D01*
G01*
X9804400Y-10163900D02*
G75*
G03X9804400Y-10163900I-50800J0D01*
G01*
X9804400Y-11179900D02*
G75*
G03X9804400Y-11179900I-50800J0D01*
G01*
X9956800Y-14989900D02*
G75*
G03X9956800Y-14989900I-50800J0D01*
G01*
X10058400Y-10163900D02*
G75*
G03X10058400Y-10163900I-50800J0D01*
G01*
X10058400Y-11179900D02*
G75*
G03X10058400Y-11179900I-50800J0D01*
G01*
X10210800Y-14989900D02*
G75*
G03X10210800Y-14989900I-50800J0D01*
G01*
X10312400Y-10163900D02*
G75*
G03X10312400Y-10163900I-50800J0D01*
G01*
X10312400Y-11179900D02*
G75*
G03X10312400Y-11179900I-50800J0D01*
G01*
X10464800Y-14989900D02*
G75*
G03X10464800Y-14989900I-50800J0D01*
G01*
X10566400Y-10163900D02*
G75*
G03X10566400Y-10163900I-50800J0D01*
G01*
X10566400Y-11179900D02*
G75*
G03X10566400Y-11179900I-50800J0D01*
G01*
X10718800Y-14989900D02*
G75*
G03X10718800Y-14989900I-50800J0D01*
G01*
X10820400Y-10163900D02*
G75*
G03X10820400Y-10163900I-50800J0D01*
G01*
X10820400Y-11179900D02*
G75*
G03X10820400Y-11179900I-50800J0D01*
G01*
X10972800Y-14989900D02*
G75*
G03X10972800Y-14989900I-50800J0D01*
G01*
X11074400Y-10163900D02*
G75*
G03X11074400Y-10163900I-50800J0D01*
G01*
X11226800Y-14989900D02*
G75*
G03X11226800Y-14989900I-50800J0D01*
G01*
X11328400Y-10163900D02*
G75*
G03X11328400Y-10163900I-50800J0D01*
G01*
X11480800Y-14989900D02*
G75*
G03X11480800Y-14989900I-50800J0D01*
G01*
X11734800Y-10163900D02*
G75*
G03X11734800Y-10163900I-50800J0D01*
G01*
X11734800Y-14989900D02*
G75*
G03X11734800Y-14989900I-50800J0D01*
G01*
X11988800Y-10163900D02*
G75*
G03X11988800Y-10163900I-50800J0D01*
G01*
X12242800Y-10163900D02*
G75*
G03X12242800Y-10163900I-50800J0D01*
G01*
X12242800Y-14989900D02*
G75*
G03X12242800Y-14989900I-50800J0D01*
G01*
X12496800Y-10163900D02*
G75*
G03X12496800Y-10163900I-50800J0D01*
G01*
X12496800Y-14989900D02*
G75*
G03X12496800Y-14989900I-50800J0D01*
G01*
X12750800Y-10163900D02*
G75*
G03X12750800Y-10163900I-50800J0D01*
G01*
X12750800Y-14989900D02*
G75*
G03X12750800Y-14989900I-50800J0D01*
G01*
X13004800Y-10163900D02*
G75*
G03X13004800Y-10163900I-50800J0D01*
G01*
X13004800Y-14989900D02*
G75*
G03X13004800Y-14989900I-50800J0D01*
G01*
X13258800Y-10163900D02*
G75*
G03X13258800Y-10163900I-50800J0D01*
G01*
X13258800Y-14989900D02*
G75*
G03X13258800Y-14989900I-50800J0D01*
G01*
X13512800Y-10163900D02*
G75*
G03X13512800Y-10163900I-50800J0D01*
G01*
X13512800Y-14989900D02*
G75*
G03X13512800Y-14989900I-50800J0D01*
G01*
X10787000Y-12045000D02*
X10787000Y-12235000D01*
X10692000Y-12140000D02*
X10882000Y-12140000D01*
X10987000Y-11495000D02*
X10987000Y-11685000D01*
X10892000Y-11590000D02*
X11082000Y-11590000D01*
X11037000Y-11845000D02*
X11037000Y-12035000D01*
X10942000Y-11940000D02*
X11132000Y-11940000D01*
X11037000Y-12195000D02*
X11037000Y-12385000D01*
X10942000Y-12290000D02*
X11132000Y-12290000D01*
X11287000Y-11595000D02*
X11287000Y-11785000D01*
X11192000Y-11690000D02*
X11382000Y-11690000D01*
X11312000Y-11145000D02*
X11312000Y-11335000D01*
X11217000Y-11240000D02*
X11407000Y-11240000D01*
X11337000Y-13295000D02*
X11337000Y-13485000D01*
X11242000Y-13390000D02*
X11432000Y-13390000D01*
X11412000Y-11945000D02*
X11412000Y-12135000D01*
X11317000Y-12040000D02*
X11507000Y-12040000D01*
X11437000Y-12345000D02*
X11437000Y-12535000D01*
X11342000Y-12440000D02*
X11532000Y-12440000D01*
X11487000Y-10870000D02*
X11487000Y-11060000D01*
X11392000Y-10965000D02*
X11582000Y-10965000D01*
X11587000Y-11595000D02*
X11587000Y-11785000D01*
X11492000Y-11690000D02*
X11682000Y-11690000D01*
X11787000Y-10895000D02*
X11787000Y-11085000D01*
X11692000Y-10990000D02*
X11882000Y-10990000D01*
X12012000Y-10570000D02*
X12012000Y-10760000D01*
X11917000Y-10665000D02*
X12107000Y-10665000D01*
X12137000Y-11195000D02*
X12137000Y-11385000D01*
X12042000Y-11290000D02*
X12232000Y-11290000D01*
X12412000Y-10770000D02*
X12412000Y-10960000D01*
X12317000Y-10865000D02*
X12507000Y-10865000D01*
X12412000Y-11145000D02*
X12412000Y-11335000D01*
X12317000Y-11240000D02*
X12507000Y-11240000D01*
X12537000Y-10415000D02*
X12537000Y-10605000D01*
X12442000Y-10510000D02*
X12632000Y-10510000D01*
X12887000Y-10485000D02*
X12887000Y-10675000D01*
X12792000Y-10580000D02*
X12982000Y-10580000D01*
X13312000Y-11195000D02*
X13312000Y-11385000D01*
X13217000Y-11290000D02*
X13407000Y-11290000D01*
X14037000Y-10795000D02*
X14037000Y-10985000D01*
X13942000Y-10890000D02*
X14132000Y-10890000D01*
X14337000Y-13845000D02*
X14337000Y-14035000D01*
X14242000Y-13940000D02*
X14432000Y-13940000D01*
X10507460Y-12685460D02*
X10507460Y-12494540D01*
X10316540Y-12494540D01*
X10316540Y-12685460D01*
X10507460Y-12685460D01*
X10847460Y-13940460D02*
X10847460Y-13749540D01*
X10656540Y-13749540D01*
X10656540Y-13940460D01*
X10847460Y-13940460D01*
X14157460Y-10505460D02*
X14157460Y-10314540D01*
X13966540Y-10314540D01*
X13966540Y-10505460D01*
X14157460Y-10505460D01*
X14157460Y-14865460D02*
X14157460Y-14674540D01*
X13966540Y-14674540D01*
X13966540Y-14865460D01*
X14157460Y-14865460D01*
X15117460Y-11435460D02*
X15117460Y-11244540D01*
X14926540Y-11244540D01*
X14926540Y-11435460D01*
X15117460Y-11435460D01*
X15117460Y-13940460D02*
X15117460Y-13749540D01*
X14926540Y-13749540D01*
X14926540Y-13940460D01*
X15117460Y-13940460D01*
X15457460Y-12685460D02*
X15457460Y-12494540D01*
X15266540Y-12494540D01*
X15266540Y-12685460D01*
X15457460Y-12685460D01*
D13*
X8990928Y-15763214D02*
X8990928Y-15463214D01*
X9062357Y-15463214D01*
X9105214Y-15477500D01*
X9133786Y-15506071D01*
X9148071Y-15534643D01*
X9162357Y-15591786D01*
X9162357Y-15634643D01*
X9148071Y-15691786D01*
X9133786Y-15720357D01*
X9105214Y-15748929D01*
X9062357Y-15763214D01*
X8990928Y-15763214D01*
X9290928Y-15763214D02*
X9290928Y-15563214D01*
X9290928Y-15620357D02*
X9305214Y-15591786D01*
X9319500Y-15577500D01*
X9348071Y-15563214D01*
X9376643Y-15563214D01*
X9476643Y-15763214D02*
X9476643Y-15563214D01*
X9476643Y-15463214D02*
X9462357Y-15477500D01*
X9476643Y-15491786D01*
X9490928Y-15477500D01*
X9476643Y-15463214D01*
X9476643Y-15491786D01*
X9662357Y-15763214D02*
X9633786Y-15748929D01*
X9619500Y-15720357D01*
X9619500Y-15463214D01*
X9819500Y-15763214D02*
X9790928Y-15748929D01*
X9776643Y-15720357D01*
X9776643Y-15463214D01*
X10162357Y-15763214D02*
X10162357Y-15463214D01*
X10262357Y-15677500D01*
X10362357Y-15463214D01*
X10362357Y-15763214D01*
X10633786Y-15763214D02*
X10633786Y-15606071D01*
X10619500Y-15577500D01*
X10590928Y-15563214D01*
X10533786Y-15563214D01*
X10505214Y-15577500D01*
X10633786Y-15748929D02*
X10605214Y-15763214D01*
X10533786Y-15763214D01*
X10505214Y-15748929D01*
X10490928Y-15720357D01*
X10490928Y-15691786D01*
X10505214Y-15663214D01*
X10533786Y-15648929D01*
X10605214Y-15648929D01*
X10633786Y-15634643D01*
X10776643Y-15563214D02*
X10776643Y-15863214D01*
X10776643Y-15577500D02*
X10805214Y-15563214D01*
X10862357Y-15563214D01*
X10890928Y-15577500D01*
X10905214Y-15591786D01*
X10919500Y-15620357D01*
X10919500Y-15706071D01*
X10905214Y-15734643D01*
X10890928Y-15748929D01*
X10862357Y-15763214D01*
X10805214Y-15763214D01*
X10776643Y-15748929D01*
X11048071Y-15734643D02*
X11062357Y-15748929D01*
X11048071Y-15763214D01*
X11033786Y-15748929D01*
X11048071Y-15734643D01*
X11048071Y-15763214D01*
X11048071Y-15577500D02*
X11062357Y-15591786D01*
X11048071Y-15606071D01*
X11033786Y-15591786D01*
X11048071Y-15577500D01*
X11048071Y-15606071D01*
X8664500Y-16237500D02*
X8704500Y-16277500D01*
X8704500Y-16237500D02*
X8664500Y-16277500D01*
X9048071Y-16093214D02*
X9076643Y-16093214D01*
X9105214Y-16107500D01*
X9119500Y-16121786D01*
X9133786Y-16150357D01*
X9148071Y-16207500D01*
X9148071Y-16278929D01*
X9133786Y-16336071D01*
X9119500Y-16364643D01*
X9105214Y-16378929D01*
X9076643Y-16393214D01*
X9048071Y-16393214D01*
X9019500Y-16378929D01*
X9005214Y-16364643D01*
X8990928Y-16336071D01*
X8976643Y-16278929D01*
X8976643Y-16207500D01*
X8990928Y-16150357D01*
X9005214Y-16121786D01*
X9019500Y-16107500D01*
X9048071Y-16093214D01*
X9276643Y-16364643D02*
X9290928Y-16378929D01*
X9276643Y-16393214D01*
X9262357Y-16378929D01*
X9276643Y-16364643D01*
X9276643Y-16393214D01*
X9548071Y-16193214D02*
X9548071Y-16393214D01*
X9476643Y-16078929D02*
X9405214Y-16293214D01*
X9590928Y-16293214D01*
X9762357Y-16093214D02*
X9790928Y-16093214D01*
X9819500Y-16107500D01*
X9833786Y-16121786D01*
X9848071Y-16150357D01*
X9862357Y-16207500D01*
X9862357Y-16278929D01*
X9848071Y-16336071D01*
X9833786Y-16364643D01*
X9819500Y-16378929D01*
X9790928Y-16393214D01*
X9762357Y-16393214D01*
X9733786Y-16378929D01*
X9719500Y-16364643D01*
X9705214Y-16336071D01*
X9690928Y-16278929D01*
X9690928Y-16207500D01*
X9705214Y-16150357D01*
X9719500Y-16121786D01*
X9733786Y-16107500D01*
X9762357Y-16093214D01*
X9990928Y-16393214D02*
X9990928Y-16193214D01*
X9990928Y-16221786D02*
X10005214Y-16207500D01*
X10033786Y-16193214D01*
X10076643Y-16193214D01*
X10105214Y-16207500D01*
X10119500Y-16236071D01*
X10119500Y-16393214D01*
X10119500Y-16236071D02*
X10133786Y-16207500D01*
X10162357Y-16193214D01*
X10205214Y-16193214D01*
X10233786Y-16207500D01*
X10248071Y-16236071D01*
X10248071Y-16393214D01*
X10390928Y-16393214D02*
X10390928Y-16193214D01*
X10390928Y-16221786D02*
X10405214Y-16207500D01*
X10433786Y-16193214D01*
X10476643Y-16193214D01*
X10505214Y-16207500D01*
X10519500Y-16236071D01*
X10519500Y-16393214D01*
X10519500Y-16236071D02*
X10533786Y-16207500D01*
X10562357Y-16193214D01*
X10605214Y-16193214D01*
X10633786Y-16207500D01*
X10648071Y-16236071D01*
X10648071Y-16393214D01*
X11233786Y-16078929D02*
X10976643Y-16464643D01*
X11619500Y-16093214D02*
X11648071Y-16093214D01*
X11676643Y-16107500D01*
X11690928Y-16121786D01*
X11705214Y-16150357D01*
X11719500Y-16207500D01*
X11719500Y-16278929D01*
X11705214Y-16336071D01*
X11690928Y-16364643D01*
X11676643Y-16378929D01*
X11648071Y-16393214D01*
X11619500Y-16393214D01*
X11590928Y-16378929D01*
X11576643Y-16364643D01*
X11562357Y-16336071D01*
X11548071Y-16278929D01*
X11548071Y-16207500D01*
X11562357Y-16150357D01*
X11576643Y-16121786D01*
X11590928Y-16107500D01*
X11619500Y-16093214D01*
X11848071Y-16364643D02*
X11862357Y-16378929D01*
X11848071Y-16393214D01*
X11833786Y-16378929D01*
X11848071Y-16364643D01*
X11848071Y-16393214D01*
X12048071Y-16093214D02*
X12076643Y-16093214D01*
X12105214Y-16107500D01*
X12119500Y-16121786D01*
X12133786Y-16150357D01*
X12148071Y-16207500D01*
X12148071Y-16278929D01*
X12133786Y-16336071D01*
X12119500Y-16364643D01*
X12105214Y-16378929D01*
X12076643Y-16393214D01*
X12048071Y-16393214D01*
X12019500Y-16378929D01*
X12005214Y-16364643D01*
X11990928Y-16336071D01*
X11976643Y-16278929D01*
X11976643Y-16207500D01*
X11990928Y-16150357D01*
X12005214Y-16121786D01*
X12019500Y-16107500D01*
X12048071Y-16093214D01*
X12433786Y-16393214D02*
X12262357Y-16393214D01*
X12348071Y-16393214D02*
X12348071Y-16093214D01*
X12319500Y-16136071D01*
X12290928Y-16164643D01*
X12262357Y-16178929D01*
X12690928Y-16093214D02*
X12633786Y-16093214D01*
X12605214Y-16107500D01*
X12590928Y-16121786D01*
X12562357Y-16164643D01*
X12548071Y-16221786D01*
X12548071Y-16336071D01*
X12562357Y-16364643D01*
X12576643Y-16378929D01*
X12605214Y-16393214D01*
X12662357Y-16393214D01*
X12690928Y-16378929D01*
X12705214Y-16364643D01*
X12719500Y-16336071D01*
X12719500Y-16264643D01*
X12705214Y-16236071D01*
X12690928Y-16221786D01*
X12662357Y-16207500D01*
X12605214Y-16207500D01*
X12576643Y-16221786D01*
X12562357Y-16236071D01*
X12548071Y-16264643D01*
X12833786Y-16093214D02*
X12833786Y-16150357D01*
X12948071Y-16093214D02*
X12948071Y-16150357D01*
X13390928Y-16507500D02*
X13376643Y-16493214D01*
X13348071Y-16450357D01*
X13333786Y-16421786D01*
X13319500Y-16378929D01*
X13305214Y-16307500D01*
X13305214Y-16250357D01*
X13319500Y-16178929D01*
X13333786Y-16136071D01*
X13348071Y-16107500D01*
X13376643Y-16064643D01*
X13390928Y-16050357D01*
X13648071Y-16093214D02*
X13505214Y-16093214D01*
X13490928Y-16236071D01*
X13505214Y-16221786D01*
X13533786Y-16207500D01*
X13605214Y-16207500D01*
X13633786Y-16221786D01*
X13648071Y-16236071D01*
X13662357Y-16264643D01*
X13662357Y-16336071D01*
X13648071Y-16364643D01*
X13633786Y-16378929D01*
X13605214Y-16393214D01*
X13533786Y-16393214D01*
X13505214Y-16378929D01*
X13490928Y-16364643D01*
X13776643Y-16121786D02*
X13790928Y-16107500D01*
X13819500Y-16093214D01*
X13890928Y-16093214D01*
X13919500Y-16107500D01*
X13933786Y-16121786D01*
X13948071Y-16150357D01*
X13948071Y-16178929D01*
X13933786Y-16221786D01*
X13762357Y-16393214D01*
X13948071Y-16393214D01*
X14305214Y-16393214D02*
X14305214Y-16093214D01*
X14433786Y-16393214D02*
X14433786Y-16236071D01*
X14419500Y-16207500D01*
X14390928Y-16193214D01*
X14348071Y-16193214D01*
X14319500Y-16207500D01*
X14305214Y-16221786D01*
X14619500Y-16393214D02*
X14590928Y-16378929D01*
X14576643Y-16364643D01*
X14562357Y-16336071D01*
X14562357Y-16250357D01*
X14576643Y-16221786D01*
X14590928Y-16207500D01*
X14619500Y-16193214D01*
X14662357Y-16193214D01*
X14690928Y-16207500D01*
X14705214Y-16221786D01*
X14719500Y-16250357D01*
X14719500Y-16336071D01*
X14705214Y-16364643D01*
X14690928Y-16378929D01*
X14662357Y-16393214D01*
X14619500Y-16393214D01*
X14890928Y-16393214D02*
X14862357Y-16378929D01*
X14848071Y-16350357D01*
X14848071Y-16093214D01*
X15119500Y-16378929D02*
X15090928Y-16393214D01*
X15033786Y-16393214D01*
X15005214Y-16378929D01*
X14990928Y-16350357D01*
X14990928Y-16236071D01*
X15005214Y-16207500D01*
X15033786Y-16193214D01*
X15090928Y-16193214D01*
X15119500Y-16207500D01*
X15133786Y-16236071D01*
X15133786Y-16264643D01*
X14990928Y-16293214D01*
X15248071Y-16378929D02*
X15276643Y-16393214D01*
X15333786Y-16393214D01*
X15362357Y-16378929D01*
X15376643Y-16350357D01*
X15376643Y-16336071D01*
X15362357Y-16307500D01*
X15333786Y-16293214D01*
X15290928Y-16293214D01*
X15262357Y-16278929D01*
X15248071Y-16250357D01*
X15248071Y-16236071D01*
X15262357Y-16207500D01*
X15290928Y-16193214D01*
X15333786Y-16193214D01*
X15362357Y-16207500D01*
X15476643Y-16507500D02*
X15490928Y-16493214D01*
X15519500Y-16450357D01*
X15533786Y-16421786D01*
X15548071Y-16378929D01*
X15562357Y-16307500D01*
X15562357Y-16250357D01*
X15548071Y-16178929D01*
X15533786Y-16136071D01*
X15519500Y-16107500D01*
X15490928Y-16064643D01*
X15476643Y-16050357D01*
X8704500Y-16653500D02*
G75*
G03X8704500Y-16653500I-50800J0D01*
G01*
X9148071Y-16789214D02*
X8976643Y-16789214D01*
X9062357Y-16789214D02*
X9062357Y-16489214D01*
X9033786Y-16532071D01*
X9005214Y-16560643D01*
X8976643Y-16574929D01*
X9276643Y-16760643D02*
X9290928Y-16774929D01*
X9276643Y-16789214D01*
X9262357Y-16774929D01*
X9276643Y-16760643D01*
X9276643Y-16789214D01*
X9476643Y-16489214D02*
X9505214Y-16489214D01*
X9533786Y-16503500D01*
X9548071Y-16517786D01*
X9562357Y-16546357D01*
X9576643Y-16603500D01*
X9576643Y-16674929D01*
X9562357Y-16732071D01*
X9548071Y-16760643D01*
X9533786Y-16774929D01*
X9505214Y-16789214D01*
X9476643Y-16789214D01*
X9448071Y-16774929D01*
X9433786Y-16760643D01*
X9419500Y-16732071D01*
X9405214Y-16674929D01*
X9405214Y-16603500D01*
X9419500Y-16546357D01*
X9433786Y-16517786D01*
X9448071Y-16503500D01*
X9476643Y-16489214D01*
X9690928Y-16517786D02*
X9705214Y-16503500D01*
X9733786Y-16489214D01*
X9805214Y-16489214D01*
X9833786Y-16503500D01*
X9848071Y-16517786D01*
X9862357Y-16546357D01*
X9862357Y-16574929D01*
X9848071Y-16617786D01*
X9676643Y-16789214D01*
X9862357Y-16789214D01*
X9990928Y-16789214D02*
X9990928Y-16589214D01*
X9990928Y-16617786D02*
X10005214Y-16603500D01*
X10033786Y-16589214D01*
X10076643Y-16589214D01*
X10105214Y-16603500D01*
X10119500Y-16632071D01*
X10119500Y-16789214D01*
X10119500Y-16632071D02*
X10133786Y-16603500D01*
X10162357Y-16589214D01*
X10205214Y-16589214D01*
X10233786Y-16603500D01*
X10248071Y-16632071D01*
X10248071Y-16789214D01*
X10390928Y-16789214D02*
X10390928Y-16589214D01*
X10390928Y-16617786D02*
X10405214Y-16603500D01*
X10433786Y-16589214D01*
X10476643Y-16589214D01*
X10505214Y-16603500D01*
X10519500Y-16632071D01*
X10519500Y-16789214D01*
X10519500Y-16632071D02*
X10533786Y-16603500D01*
X10562357Y-16589214D01*
X10605214Y-16589214D01*
X10633786Y-16603500D01*
X10648071Y-16632071D01*
X10648071Y-16789214D01*
X11233786Y-16474929D02*
X10976643Y-16860643D01*
X11619500Y-16489214D02*
X11648071Y-16489214D01*
X11676643Y-16503500D01*
X11690928Y-16517786D01*
X11705214Y-16546357D01*
X11719500Y-16603500D01*
X11719500Y-16674929D01*
X11705214Y-16732071D01*
X11690928Y-16760643D01*
X11676643Y-16774929D01*
X11648071Y-16789214D01*
X11619500Y-16789214D01*
X11590928Y-16774929D01*
X11576643Y-16760643D01*
X11562357Y-16732071D01*
X11548071Y-16674929D01*
X11548071Y-16603500D01*
X11562357Y-16546357D01*
X11576643Y-16517786D01*
X11590928Y-16503500D01*
X11619500Y-16489214D01*
X11848071Y-16760643D02*
X11862357Y-16774929D01*
X11848071Y-16789214D01*
X11833786Y-16774929D01*
X11848071Y-16760643D01*
X11848071Y-16789214D01*
X12048071Y-16489214D02*
X12076643Y-16489214D01*
X12105214Y-16503500D01*
X12119500Y-16517786D01*
X12133786Y-16546357D01*
X12148071Y-16603500D01*
X12148071Y-16674929D01*
X12133786Y-16732071D01*
X12119500Y-16760643D01*
X12105214Y-16774929D01*
X12076643Y-16789214D01*
X12048071Y-16789214D01*
X12019500Y-16774929D01*
X12005214Y-16760643D01*
X11990928Y-16732071D01*
X11976643Y-16674929D01*
X11976643Y-16603500D01*
X11990928Y-16546357D01*
X12005214Y-16517786D01*
X12019500Y-16503500D01*
X12048071Y-16489214D01*
X12405214Y-16589214D02*
X12405214Y-16789214D01*
X12333786Y-16474929D02*
X12262357Y-16689214D01*
X12448071Y-16689214D01*
X12619500Y-16489214D02*
X12648071Y-16489214D01*
X12676643Y-16503500D01*
X12690928Y-16517786D01*
X12705214Y-16546357D01*
X12719500Y-16603500D01*
X12719500Y-16674929D01*
X12705214Y-16732071D01*
X12690928Y-16760643D01*
X12676643Y-16774929D01*
X12648071Y-16789214D01*
X12619500Y-16789214D01*
X12590928Y-16774929D01*
X12576643Y-16760643D01*
X12562357Y-16732071D01*
X12548071Y-16674929D01*
X12548071Y-16603500D01*
X12562357Y-16546357D01*
X12576643Y-16517786D01*
X12590928Y-16503500D01*
X12619500Y-16489214D01*
X12833786Y-16489214D02*
X12833786Y-16546357D01*
X12948071Y-16489214D02*
X12948071Y-16546357D01*
X13390928Y-16903500D02*
X13376643Y-16889214D01*
X13348071Y-16846357D01*
X13333786Y-16817786D01*
X13319500Y-16774929D01*
X13305214Y-16703500D01*
X13305214Y-16646357D01*
X13319500Y-16574929D01*
X13333786Y-16532071D01*
X13348071Y-16503500D01*
X13376643Y-16460643D01*
X13390928Y-16446357D01*
X13648071Y-16489214D02*
X13505214Y-16489214D01*
X13490928Y-16632071D01*
X13505214Y-16617786D01*
X13533786Y-16603500D01*
X13605214Y-16603500D01*
X13633786Y-16617786D01*
X13648071Y-16632071D01*
X13662357Y-16660643D01*
X13662357Y-16732071D01*
X13648071Y-16760643D01*
X13633786Y-16774929D01*
X13605214Y-16789214D01*
X13533786Y-16789214D01*
X13505214Y-16774929D01*
X13490928Y-16760643D01*
X13762357Y-16489214D02*
X13948071Y-16489214D01*
X13848071Y-16603500D01*
X13890928Y-16603500D01*
X13919500Y-16617786D01*
X13933786Y-16632071D01*
X13948071Y-16660643D01*
X13948071Y-16732071D01*
X13933786Y-16760643D01*
X13919500Y-16774929D01*
X13890928Y-16789214D01*
X13805214Y-16789214D01*
X13776643Y-16774929D01*
X13762357Y-16760643D01*
X14305214Y-16789214D02*
X14305214Y-16489214D01*
X14433786Y-16789214D02*
X14433786Y-16632071D01*
X14419500Y-16603500D01*
X14390928Y-16589214D01*
X14348071Y-16589214D01*
X14319500Y-16603500D01*
X14305214Y-16617786D01*
X14619500Y-16789214D02*
X14590928Y-16774929D01*
X14576643Y-16760643D01*
X14562357Y-16732071D01*
X14562357Y-16646357D01*
X14576643Y-16617786D01*
X14590928Y-16603500D01*
X14619500Y-16589214D01*
X14662357Y-16589214D01*
X14690928Y-16603500D01*
X14705214Y-16617786D01*
X14719500Y-16646357D01*
X14719500Y-16732071D01*
X14705214Y-16760643D01*
X14690928Y-16774929D01*
X14662357Y-16789214D01*
X14619500Y-16789214D01*
X14890928Y-16789214D02*
X14862357Y-16774929D01*
X14848071Y-16746357D01*
X14848071Y-16489214D01*
X15119500Y-16774929D02*
X15090928Y-16789214D01*
X15033786Y-16789214D01*
X15005214Y-16774929D01*
X14990928Y-16746357D01*
X14990928Y-16632071D01*
X15005214Y-16603500D01*
X15033786Y-16589214D01*
X15090928Y-16589214D01*
X15119500Y-16603500D01*
X15133786Y-16632071D01*
X15133786Y-16660643D01*
X14990928Y-16689214D01*
X15248071Y-16774929D02*
X15276643Y-16789214D01*
X15333786Y-16789214D01*
X15362357Y-16774929D01*
X15376643Y-16746357D01*
X15376643Y-16732071D01*
X15362357Y-16703500D01*
X15333786Y-16689214D01*
X15290928Y-16689214D01*
X15262357Y-16674929D01*
X15248071Y-16646357D01*
X15248071Y-16632071D01*
X15262357Y-16603500D01*
X15290928Y-16589214D01*
X15333786Y-16589214D01*
X15362357Y-16603500D01*
X15476643Y-16903500D02*
X15490928Y-16889214D01*
X15519500Y-16846357D01*
X15533786Y-16817786D01*
X15548071Y-16774929D01*
X15562357Y-16703500D01*
X15562357Y-16646357D01*
X15548071Y-16574929D01*
X15533786Y-16532071D01*
X15519500Y-16503500D01*
X15490928Y-16460643D01*
X15476643Y-16446357D01*
X8609500Y-16954500D02*
X8609500Y-17144500D01*
X8514500Y-17049500D02*
X8704500Y-17049500D01*
X9148071Y-17185214D02*
X8976643Y-17185214D01*
X9062357Y-17185214D02*
X9062357Y-16885214D01*
X9033786Y-16928072D01*
X9005214Y-16956643D01*
X8976643Y-16970929D01*
X9276643Y-17156643D02*
X9290928Y-17170929D01*
X9276643Y-17185214D01*
X9262357Y-17170929D01*
X9276643Y-17156643D01*
X9276643Y-17185214D01*
X9433786Y-17185214D02*
X9490928Y-17185214D01*
X9519500Y-17170929D01*
X9533786Y-17156643D01*
X9562357Y-17113786D01*
X9576643Y-17056643D01*
X9576643Y-16942357D01*
X9562357Y-16913786D01*
X9548071Y-16899500D01*
X9519500Y-16885214D01*
X9462357Y-16885214D01*
X9433786Y-16899500D01*
X9419500Y-16913786D01*
X9405214Y-16942357D01*
X9405214Y-17013786D01*
X9419500Y-17042357D01*
X9433786Y-17056643D01*
X9462357Y-17070929D01*
X9519500Y-17070929D01*
X9548071Y-17056643D01*
X9562357Y-17042357D01*
X9576643Y-17013786D01*
X9762357Y-16885214D02*
X9790928Y-16885214D01*
X9819500Y-16899500D01*
X9833786Y-16913786D01*
X9848071Y-16942357D01*
X9862357Y-16999500D01*
X9862357Y-17070929D01*
X9848071Y-17128072D01*
X9833786Y-17156643D01*
X9819500Y-17170929D01*
X9790928Y-17185214D01*
X9762357Y-17185214D01*
X9733786Y-17170929D01*
X9719500Y-17156643D01*
X9705214Y-17128072D01*
X9690928Y-17070929D01*
X9690928Y-16999500D01*
X9705214Y-16942357D01*
X9719500Y-16913786D01*
X9733786Y-16899500D01*
X9762357Y-16885214D01*
X9990928Y-17185214D02*
X9990928Y-16985214D01*
X9990928Y-17013786D02*
X10005214Y-16999500D01*
X10033786Y-16985214D01*
X10076643Y-16985214D01*
X10105214Y-16999500D01*
X10119500Y-17028072D01*
X10119500Y-17185214D01*
X10119500Y-17028072D02*
X10133786Y-16999500D01*
X10162357Y-16985214D01*
X10205214Y-16985214D01*
X10233786Y-16999500D01*
X10248071Y-17028072D01*
X10248071Y-17185214D01*
X10390928Y-17185214D02*
X10390928Y-16985214D01*
X10390928Y-17013786D02*
X10405214Y-16999500D01*
X10433786Y-16985214D01*
X10476643Y-16985214D01*
X10505214Y-16999500D01*
X10519500Y-17028072D01*
X10519500Y-17185214D01*
X10519500Y-17028072D02*
X10533786Y-16999500D01*
X10562357Y-16985214D01*
X10605214Y-16985214D01*
X10633786Y-16999500D01*
X10648071Y-17028072D01*
X10648071Y-17185214D01*
X11233786Y-16870929D02*
X10976643Y-17256643D01*
X11619500Y-16885214D02*
X11648071Y-16885214D01*
X11676643Y-16899500D01*
X11690928Y-16913786D01*
X11705214Y-16942357D01*
X11719500Y-16999500D01*
X11719500Y-17070929D01*
X11705214Y-17128072D01*
X11690928Y-17156643D01*
X11676643Y-17170929D01*
X11648071Y-17185214D01*
X11619500Y-17185214D01*
X11590928Y-17170929D01*
X11576643Y-17156643D01*
X11562357Y-17128072D01*
X11548071Y-17070929D01*
X11548071Y-16999500D01*
X11562357Y-16942357D01*
X11576643Y-16913786D01*
X11590928Y-16899500D01*
X11619500Y-16885214D01*
X11848071Y-17156643D02*
X11862357Y-17170929D01*
X11848071Y-17185214D01*
X11833786Y-17170929D01*
X11848071Y-17156643D01*
X11848071Y-17185214D01*
X12048071Y-16885214D02*
X12076643Y-16885214D01*
X12105214Y-16899500D01*
X12119500Y-16913786D01*
X12133786Y-16942357D01*
X12148071Y-16999500D01*
X12148071Y-17070929D01*
X12133786Y-17128072D01*
X12119500Y-17156643D01*
X12105214Y-17170929D01*
X12076643Y-17185214D01*
X12048071Y-17185214D01*
X12019500Y-17170929D01*
X12005214Y-17156643D01*
X11990928Y-17128072D01*
X11976643Y-17070929D01*
X11976643Y-16999500D01*
X11990928Y-16942357D01*
X12005214Y-16913786D01*
X12019500Y-16899500D01*
X12048071Y-16885214D01*
X12248071Y-16885214D02*
X12448071Y-16885214D01*
X12319500Y-17185214D01*
X12705214Y-16885214D02*
X12562357Y-16885214D01*
X12548071Y-17028072D01*
X12562357Y-17013786D01*
X12590928Y-16999500D01*
X12662357Y-16999500D01*
X12690928Y-17013786D01*
X12705214Y-17028072D01*
X12719500Y-17056643D01*
X12719500Y-17128072D01*
X12705214Y-17156643D01*
X12690928Y-17170929D01*
X12662357Y-17185214D01*
X12590928Y-17185214D01*
X12562357Y-17170929D01*
X12548071Y-17156643D01*
X12833786Y-16885214D02*
X12833786Y-16942357D01*
X12948071Y-16885214D02*
X12948071Y-16942357D01*
X13390928Y-17299500D02*
X13376643Y-17285214D01*
X13348071Y-17242357D01*
X13333786Y-17213786D01*
X13319500Y-17170929D01*
X13305214Y-17099500D01*
X13305214Y-17042357D01*
X13319500Y-16970929D01*
X13333786Y-16928072D01*
X13348071Y-16899500D01*
X13376643Y-16856643D01*
X13390928Y-16842357D01*
X13490928Y-16913786D02*
X13505214Y-16899500D01*
X13533786Y-16885214D01*
X13605214Y-16885214D01*
X13633786Y-16899500D01*
X13648071Y-16913786D01*
X13662357Y-16942357D01*
X13662357Y-16970929D01*
X13648071Y-17013786D01*
X13476643Y-17185214D01*
X13662357Y-17185214D01*
X13948071Y-17185214D02*
X13776643Y-17185214D01*
X13862357Y-17185214D02*
X13862357Y-16885214D01*
X13833786Y-16928072D01*
X13805214Y-16956643D01*
X13776643Y-16970929D01*
X14305214Y-17185214D02*
X14305214Y-16885214D01*
X14433786Y-17185214D02*
X14433786Y-17028072D01*
X14419500Y-16999500D01*
X14390928Y-16985214D01*
X14348071Y-16985214D01*
X14319500Y-16999500D01*
X14305214Y-17013786D01*
X14619500Y-17185214D02*
X14590928Y-17170929D01*
X14576643Y-17156643D01*
X14562357Y-17128072D01*
X14562357Y-17042357D01*
X14576643Y-17013786D01*
X14590928Y-16999500D01*
X14619500Y-16985214D01*
X14662357Y-16985214D01*
X14690928Y-16999500D01*
X14705214Y-17013786D01*
X14719500Y-17042357D01*
X14719500Y-17128072D01*
X14705214Y-17156643D01*
X14690928Y-17170929D01*
X14662357Y-17185214D01*
X14619500Y-17185214D01*
X14890928Y-17185214D02*
X14862357Y-17170929D01*
X14848071Y-17142357D01*
X14848071Y-16885214D01*
X15119500Y-17170929D02*
X15090928Y-17185214D01*
X15033786Y-17185214D01*
X15005214Y-17170929D01*
X14990928Y-17142357D01*
X14990928Y-17028072D01*
X15005214Y-16999500D01*
X15033786Y-16985214D01*
X15090928Y-16985214D01*
X15119500Y-16999500D01*
X15133786Y-17028072D01*
X15133786Y-17056643D01*
X14990928Y-17085214D01*
X15248071Y-17170929D02*
X15276643Y-17185214D01*
X15333786Y-17185214D01*
X15362357Y-17170929D01*
X15376643Y-17142357D01*
X15376643Y-17128072D01*
X15362357Y-17099500D01*
X15333786Y-17085214D01*
X15290928Y-17085214D01*
X15262357Y-17070929D01*
X15248071Y-17042357D01*
X15248071Y-17028072D01*
X15262357Y-16999500D01*
X15290928Y-16985214D01*
X15333786Y-16985214D01*
X15362357Y-16999500D01*
X15476643Y-17299500D02*
X15490928Y-17285214D01*
X15519500Y-17242357D01*
X15533786Y-17213786D01*
X15548071Y-17170929D01*
X15562357Y-17099500D01*
X15562357Y-17042357D01*
X15548071Y-16970929D01*
X15533786Y-16928072D01*
X15519500Y-16899500D01*
X15490928Y-16856643D01*
X15476643Y-16842357D01*
X8664960Y-17540960D02*
X8664960Y-17350040D01*
X8474040Y-17350040D01*
X8474040Y-17540960D01*
X8664960Y-17540960D01*
X8976643Y-17309786D02*
X8990928Y-17295500D01*
X9019500Y-17281214D01*
X9090928Y-17281214D01*
X9119500Y-17295500D01*
X9133786Y-17309786D01*
X9148071Y-17338357D01*
X9148071Y-17366929D01*
X9133786Y-17409786D01*
X8962357Y-17581214D01*
X9148071Y-17581214D01*
X9276643Y-17552643D02*
X9290928Y-17566929D01*
X9276643Y-17581214D01*
X9262357Y-17566929D01*
X9276643Y-17552643D01*
X9276643Y-17581214D01*
X9390928Y-17281214D02*
X9590928Y-17281214D01*
X9462357Y-17581214D01*
X9762357Y-17281214D02*
X9790928Y-17281214D01*
X9819500Y-17295500D01*
X9833786Y-17309786D01*
X9848071Y-17338357D01*
X9862357Y-17395500D01*
X9862357Y-17466929D01*
X9848071Y-17524072D01*
X9833786Y-17552643D01*
X9819500Y-17566929D01*
X9790928Y-17581214D01*
X9762357Y-17581214D01*
X9733786Y-17566929D01*
X9719500Y-17552643D01*
X9705214Y-17524072D01*
X9690928Y-17466929D01*
X9690928Y-17395500D01*
X9705214Y-17338357D01*
X9719500Y-17309786D01*
X9733786Y-17295500D01*
X9762357Y-17281214D01*
X9990928Y-17581214D02*
X9990928Y-17381214D01*
X9990928Y-17409786D02*
X10005214Y-17395500D01*
X10033786Y-17381214D01*
X10076643Y-17381214D01*
X10105214Y-17395500D01*
X10119500Y-17424072D01*
X10119500Y-17581214D01*
X10119500Y-17424072D02*
X10133786Y-17395500D01*
X10162357Y-17381214D01*
X10205214Y-17381214D01*
X10233786Y-17395500D01*
X10248071Y-17424072D01*
X10248071Y-17581214D01*
X10390928Y-17581214D02*
X10390928Y-17381214D01*
X10390928Y-17409786D02*
X10405214Y-17395500D01*
X10433786Y-17381214D01*
X10476643Y-17381214D01*
X10505214Y-17395500D01*
X10519500Y-17424072D01*
X10519500Y-17581214D01*
X10519500Y-17424072D02*
X10533786Y-17395500D01*
X10562357Y-17381214D01*
X10605214Y-17381214D01*
X10633786Y-17395500D01*
X10648071Y-17424072D01*
X10648071Y-17581214D01*
X11233786Y-17266929D02*
X10976643Y-17652643D01*
X11619500Y-17281214D02*
X11648071Y-17281214D01*
X11676643Y-17295500D01*
X11690928Y-17309786D01*
X11705214Y-17338357D01*
X11719500Y-17395500D01*
X11719500Y-17466929D01*
X11705214Y-17524072D01*
X11690928Y-17552643D01*
X11676643Y-17566929D01*
X11648071Y-17581214D01*
X11619500Y-17581214D01*
X11590928Y-17566929D01*
X11576643Y-17552643D01*
X11562357Y-17524072D01*
X11548071Y-17466929D01*
X11548071Y-17395500D01*
X11562357Y-17338357D01*
X11576643Y-17309786D01*
X11590928Y-17295500D01*
X11619500Y-17281214D01*
X11848071Y-17552643D02*
X11862357Y-17566929D01*
X11848071Y-17581214D01*
X11833786Y-17566929D01*
X11848071Y-17552643D01*
X11848071Y-17581214D01*
X12148071Y-17581214D02*
X11976643Y-17581214D01*
X12062357Y-17581214D02*
X12062357Y-17281214D01*
X12033786Y-17324072D01*
X12005214Y-17352643D01*
X11976643Y-17366929D01*
X12333786Y-17281214D02*
X12362357Y-17281214D01*
X12390928Y-17295500D01*
X12405214Y-17309786D01*
X12419500Y-17338357D01*
X12433786Y-17395500D01*
X12433786Y-17466929D01*
X12419500Y-17524072D01*
X12405214Y-17552643D01*
X12390928Y-17566929D01*
X12362357Y-17581214D01*
X12333786Y-17581214D01*
X12305214Y-17566929D01*
X12290928Y-17552643D01*
X12276643Y-17524072D01*
X12262357Y-17466929D01*
X12262357Y-17395500D01*
X12276643Y-17338357D01*
X12290928Y-17309786D01*
X12305214Y-17295500D01*
X12333786Y-17281214D01*
X12690928Y-17281214D02*
X12633786Y-17281214D01*
X12605214Y-17295500D01*
X12590928Y-17309786D01*
X12562357Y-17352643D01*
X12548071Y-17409786D01*
X12548071Y-17524072D01*
X12562357Y-17552643D01*
X12576643Y-17566929D01*
X12605214Y-17581214D01*
X12662357Y-17581214D01*
X12690928Y-17566929D01*
X12705214Y-17552643D01*
X12719500Y-17524072D01*
X12719500Y-17452643D01*
X12705214Y-17424072D01*
X12690928Y-17409786D01*
X12662357Y-17395500D01*
X12605214Y-17395500D01*
X12576643Y-17409786D01*
X12562357Y-17424072D01*
X12548071Y-17452643D01*
X12833786Y-17281214D02*
X12833786Y-17338357D01*
X12948071Y-17281214D02*
X12948071Y-17338357D01*
X13390928Y-17695500D02*
X13376643Y-17681214D01*
X13348071Y-17638357D01*
X13333786Y-17609786D01*
X13319500Y-17566929D01*
X13305214Y-17495500D01*
X13305214Y-17438357D01*
X13319500Y-17366929D01*
X13333786Y-17324072D01*
X13348071Y-17295500D01*
X13376643Y-17252643D01*
X13390928Y-17238357D01*
X13476643Y-17281214D02*
X13676643Y-17281214D01*
X13548071Y-17581214D01*
X14019500Y-17581214D02*
X14019500Y-17281214D01*
X14148071Y-17581214D02*
X14148071Y-17424072D01*
X14133786Y-17395500D01*
X14105214Y-17381214D01*
X14062357Y-17381214D01*
X14033786Y-17395500D01*
X14019500Y-17409786D01*
X14333786Y-17581214D02*
X14305214Y-17566929D01*
X14290928Y-17552643D01*
X14276643Y-17524072D01*
X14276643Y-17438357D01*
X14290928Y-17409786D01*
X14305214Y-17395500D01*
X14333786Y-17381214D01*
X14376643Y-17381214D01*
X14405214Y-17395500D01*
X14419500Y-17409786D01*
X14433786Y-17438357D01*
X14433786Y-17524072D01*
X14419500Y-17552643D01*
X14405214Y-17566929D01*
X14376643Y-17581214D01*
X14333786Y-17581214D01*
X14605214Y-17581214D02*
X14576643Y-17566929D01*
X14562357Y-17538357D01*
X14562357Y-17281214D01*
X14833786Y-17566929D02*
X14805214Y-17581214D01*
X14748071Y-17581214D01*
X14719500Y-17566929D01*
X14705214Y-17538357D01*
X14705214Y-17424072D01*
X14719500Y-17395500D01*
X14748071Y-17381214D01*
X14805214Y-17381214D01*
X14833786Y-17395500D01*
X14848071Y-17424072D01*
X14848071Y-17452643D01*
X14705214Y-17481214D01*
X14962357Y-17566929D02*
X14990928Y-17581214D01*
X15048071Y-17581214D01*
X15076643Y-17566929D01*
X15090928Y-17538357D01*
X15090928Y-17524072D01*
X15076643Y-17495500D01*
X15048071Y-17481214D01*
X15005214Y-17481214D01*
X14976643Y-17466929D01*
X14962357Y-17438357D01*
X14962357Y-17424072D01*
X14976643Y-17395500D01*
X15005214Y-17381214D01*
X15048071Y-17381214D01*
X15076643Y-17395500D01*
X15190928Y-17695500D02*
X15205214Y-17681214D01*
X15233786Y-17638357D01*
X15248071Y-17609786D01*
X15262357Y-17566929D01*
X15276643Y-17495500D01*
X15276643Y-17438357D01*
X15262357Y-17366929D01*
X15248071Y-17324072D01*
X15233786Y-17295500D01*
X15205214Y-17252643D01*
X15190928Y-17238357D01*
M02*
