%FSLAX45Y45*%
G04 Gerber Fmt 4.5, Leading zero omitted, Abs format (unit mm)*
G04 Created by KiCad (PCBNEW (2016-05-05 BZR 6775)-product) date 2016 August 31, Wednesday 02:40:12*
%MOMM*%
%LPD*%
G01*
G04 APERTURE LIST*
%ADD10C,0.127000*%
%ADD11C,0.150000*%
%ADD12C,0.200000*%
%ADD13C,0.300000*%
G04 APERTURE END LIST*
D10*
D11*
X13962000Y-12590000D02*
G75*
G03X13962000Y-12590000I-1075000J0D01*
G01*
X15162000Y-9890000D02*
X9212000Y-9890000D01*
X9212000Y-15290000D02*
X15162000Y-15290000D01*
X8712000Y-14790000D02*
G75*
G03X9212000Y-15290000I500000J0D01*
G01*
X8712000Y-14790000D02*
X8712000Y-10390000D01*
X15662000Y-10390000D02*
X15662000Y-14790000D01*
X15162000Y-15290000D02*
G75*
G03X15662000Y-14790000I0J500000D01*
G01*
X15662000Y-10390000D02*
G75*
G03X15162000Y-9890000I-500000J0D01*
G01*
X9212000Y-9890000D02*
G75*
G03X8712000Y-10390000I0J-500000D01*
G01*
D12*
D13*
X8990928Y-15763214D02*
X8990928Y-15463214D01*
X9062357Y-15463214D01*
X9105214Y-15477500D01*
X9133786Y-15506071D01*
X9148071Y-15534643D01*
X9162357Y-15591786D01*
X9162357Y-15634643D01*
X9148071Y-15691786D01*
X9133786Y-15720357D01*
X9105214Y-15748929D01*
X9062357Y-15763214D01*
X8990928Y-15763214D01*
X9290928Y-15763214D02*
X9290928Y-15563214D01*
X9290928Y-15620357D02*
X9305214Y-15591786D01*
X9319500Y-15577500D01*
X9348071Y-15563214D01*
X9376643Y-15563214D01*
X9476643Y-15763214D02*
X9476643Y-15563214D01*
X9476643Y-15463214D02*
X9462357Y-15477500D01*
X9476643Y-15491786D01*
X9490928Y-15477500D01*
X9476643Y-15463214D01*
X9476643Y-15491786D01*
X9662357Y-15763214D02*
X9633786Y-15748929D01*
X9619500Y-15720357D01*
X9619500Y-15463214D01*
X9819500Y-15763214D02*
X9790928Y-15748929D01*
X9776643Y-15720357D01*
X9776643Y-15463214D01*
X10162357Y-15763214D02*
X10162357Y-15463214D01*
X10262357Y-15677500D01*
X10362357Y-15463214D01*
X10362357Y-15763214D01*
X10633786Y-15763214D02*
X10633786Y-15606071D01*
X10619500Y-15577500D01*
X10590928Y-15563214D01*
X10533786Y-15563214D01*
X10505214Y-15577500D01*
X10633786Y-15748929D02*
X10605214Y-15763214D01*
X10533786Y-15763214D01*
X10505214Y-15748929D01*
X10490928Y-15720357D01*
X10490928Y-15691786D01*
X10505214Y-15663214D01*
X10533786Y-15648929D01*
X10605214Y-15648929D01*
X10633786Y-15634643D01*
X10776643Y-15563214D02*
X10776643Y-15863214D01*
X10776643Y-15577500D02*
X10805214Y-15563214D01*
X10862357Y-15563214D01*
X10890928Y-15577500D01*
X10905214Y-15591786D01*
X10919500Y-15620357D01*
X10919500Y-15706071D01*
X10905214Y-15734643D01*
X10890928Y-15748929D01*
X10862357Y-15763214D01*
X10805214Y-15763214D01*
X10776643Y-15748929D01*
X11048071Y-15734643D02*
X11062357Y-15748929D01*
X11048071Y-15763214D01*
X11033786Y-15748929D01*
X11048071Y-15734643D01*
X11048071Y-15763214D01*
X11048071Y-15577500D02*
X11062357Y-15591786D01*
X11048071Y-15606071D01*
X11033786Y-15591786D01*
X11048071Y-15577500D01*
X11048071Y-15606071D01*
M02*
