G04 #@! TF.FileFunction,Legend,Top*
%FSLAX46Y46*%
G04 Gerber Fmt 4.6, Leading zero omitted, Abs format (unit mm)*
G04 Created by KiCad (PCBNEW (2016-05-05 BZR 6775)-product) date 2016 August 31, Wednesday 02:40:09*
%MOMM*%
%LPD*%
G01*
G04 APERTURE LIST*
%ADD10C,0.020000*%
%ADD11C,0.150000*%
%ADD12C,0.200000*%
%ADD13C,0.010000*%
%ADD14R,1.927200X2.232000*%
%ADD15O,1.927200X2.232000*%
%ADD16C,4.700000*%
%ADD17C,2.700000*%
%ADD18R,2.232000X1.927200*%
%ADD19O,2.232000X1.927200*%
G04 APERTURE END LIST*
D10*
D11*
X92416547Y-145652380D02*
X92541547Y-144652380D01*
X92922500Y-144652380D01*
X93011785Y-144700000D01*
X93053452Y-144747619D01*
X93089166Y-144842857D01*
X93071309Y-144985714D01*
X93011785Y-145080952D01*
X92958214Y-145128571D01*
X92857023Y-145176190D01*
X92476071Y-145176190D01*
X93732023Y-144652380D02*
X93827261Y-144652380D01*
X93916547Y-144700000D01*
X93958214Y-144747619D01*
X93993928Y-144842857D01*
X94017738Y-145033333D01*
X93987976Y-145271428D01*
X93916547Y-145461904D01*
X93857023Y-145557142D01*
X93803452Y-145604761D01*
X93702261Y-145652380D01*
X93607023Y-145652380D01*
X93517738Y-145604761D01*
X93476071Y-145557142D01*
X93440357Y-145461904D01*
X93416547Y-145271428D01*
X93446309Y-145033333D01*
X93517738Y-144842857D01*
X93577261Y-144747619D01*
X93630833Y-144700000D01*
X93732023Y-144652380D01*
X94380833Y-145557142D02*
X94422500Y-145604761D01*
X94368928Y-145652380D01*
X94327261Y-145604761D01*
X94380833Y-145557142D01*
X94368928Y-145652380D01*
X94874880Y-144652380D02*
X95493928Y-144652380D01*
X95112976Y-145033333D01*
X95255833Y-145033333D01*
X95345119Y-145080952D01*
X95386785Y-145128571D01*
X95422500Y-145223809D01*
X95392738Y-145461904D01*
X95333214Y-145557142D01*
X95279642Y-145604761D01*
X95178452Y-145652380D01*
X94892738Y-145652380D01*
X94803452Y-145604761D01*
X94761785Y-145557142D01*
X96112976Y-144652380D02*
X96208214Y-144652380D01*
X96297500Y-144700000D01*
X96339166Y-144747619D01*
X96374880Y-144842857D01*
X96398690Y-145033333D01*
X96368928Y-145271428D01*
X96297500Y-145461904D01*
X96237976Y-145557142D01*
X96184404Y-145604761D01*
X96083214Y-145652380D01*
X95987976Y-145652380D01*
X95898690Y-145604761D01*
X95857023Y-145557142D01*
X95821309Y-145461904D01*
X95797500Y-145271428D01*
X95827261Y-145033333D01*
X95898690Y-144842857D01*
X95958214Y-144747619D01*
X96011785Y-144700000D01*
X96112976Y-144652380D01*
X92416547Y-143112380D02*
X92541547Y-142112380D01*
X92922500Y-142112380D01*
X93011785Y-142160000D01*
X93053452Y-142207619D01*
X93089166Y-142302857D01*
X93071309Y-142445714D01*
X93011785Y-142540952D01*
X92958214Y-142588571D01*
X92857023Y-142636190D01*
X92476071Y-142636190D01*
X93732023Y-142112380D02*
X93827261Y-142112380D01*
X93916547Y-142160000D01*
X93958214Y-142207619D01*
X93993928Y-142302857D01*
X94017738Y-142493333D01*
X93987976Y-142731428D01*
X93916547Y-142921904D01*
X93857023Y-143017142D01*
X93803452Y-143064761D01*
X93702261Y-143112380D01*
X93607023Y-143112380D01*
X93517738Y-143064761D01*
X93476071Y-143017142D01*
X93440357Y-142921904D01*
X93416547Y-142731428D01*
X93446309Y-142493333D01*
X93517738Y-142302857D01*
X93577261Y-142207619D01*
X93630833Y-142160000D01*
X93732023Y-142112380D01*
X94380833Y-143017142D02*
X94422500Y-143064761D01*
X94368928Y-143112380D01*
X94327261Y-143064761D01*
X94380833Y-143017142D01*
X94368928Y-143112380D01*
X94874880Y-142112380D02*
X95493928Y-142112380D01*
X95112976Y-142493333D01*
X95255833Y-142493333D01*
X95345119Y-142540952D01*
X95386785Y-142588571D01*
X95422500Y-142683809D01*
X95392738Y-142921904D01*
X95333214Y-143017142D01*
X95279642Y-143064761D01*
X95178452Y-143112380D01*
X94892738Y-143112380D01*
X94803452Y-143064761D01*
X94761785Y-143017142D01*
X96321309Y-143112380D02*
X95749880Y-143112380D01*
X96035595Y-143112380D02*
X96160595Y-142112380D01*
X96047500Y-142255238D01*
X95940357Y-142350476D01*
X95839166Y-142398095D01*
X109545380Y-110060452D02*
X108545380Y-109935452D01*
X108545380Y-109697357D01*
X108593000Y-109560452D01*
X108688238Y-109477119D01*
X108783476Y-109441404D01*
X108973952Y-109417595D01*
X109116809Y-109435452D01*
X109307285Y-109506880D01*
X109402523Y-109566404D01*
X109497761Y-109673547D01*
X109545380Y-109822357D01*
X109545380Y-110060452D01*
X109021571Y-108994976D02*
X109021571Y-108661642D01*
X109545380Y-108584261D02*
X109545380Y-109060452D01*
X108545380Y-108935452D01*
X108545380Y-108459261D01*
X108545380Y-108173547D02*
X108545380Y-107602119D01*
X109545380Y-108012833D02*
X108545380Y-107887833D01*
X109021571Y-107328309D02*
X109021571Y-106994976D01*
X109545380Y-106917595D02*
X109545380Y-107393785D01*
X108545380Y-107268785D01*
X108545380Y-106792595D01*
X109450142Y-105905690D02*
X109497761Y-105959261D01*
X109545380Y-106108071D01*
X109545380Y-106203309D01*
X109497761Y-106340214D01*
X109402523Y-106423547D01*
X109307285Y-106459261D01*
X109116809Y-106483071D01*
X108973952Y-106465214D01*
X108783476Y-106393785D01*
X108688238Y-106334261D01*
X108593000Y-106227119D01*
X108545380Y-106078309D01*
X108545380Y-105983071D01*
X108593000Y-105846166D01*
X108640619Y-105804500D01*
X108545380Y-105506880D02*
X108545380Y-104935452D01*
X109545380Y-105346166D02*
X108545380Y-105221166D01*
X91908380Y-110078309D02*
X92908380Y-109869976D01*
X91908380Y-109411642D01*
X92908380Y-109203309D02*
X91908380Y-109078309D01*
X91908380Y-108840214D01*
X91956000Y-108703309D01*
X92051238Y-108619976D01*
X92146476Y-108584261D01*
X92336952Y-108560452D01*
X92479809Y-108578309D01*
X92670285Y-108649738D01*
X92765523Y-108709261D01*
X92860761Y-108816404D01*
X92908380Y-108965214D01*
X92908380Y-109203309D01*
X92908380Y-108203309D02*
X91908380Y-108078309D01*
X91908380Y-107840214D01*
X91956000Y-107703309D01*
X92051238Y-107619976D01*
X92146476Y-107584261D01*
X92336952Y-107560452D01*
X92479809Y-107578309D01*
X92670285Y-107649738D01*
X92765523Y-107709261D01*
X92860761Y-107816404D01*
X92908380Y-107965214D01*
X92908380Y-108203309D01*
X94448380Y-110078309D02*
X95448380Y-109869976D01*
X94448380Y-109411642D01*
X95448380Y-109203309D02*
X94448380Y-109078309D01*
X94448380Y-108840214D01*
X94496000Y-108703309D01*
X94591238Y-108619976D01*
X94686476Y-108584261D01*
X94876952Y-108560452D01*
X95019809Y-108578309D01*
X95210285Y-108649738D01*
X95305523Y-108709261D01*
X95400761Y-108816404D01*
X95448380Y-108965214D01*
X95448380Y-109203309D01*
X95448380Y-108203309D02*
X94448380Y-108078309D01*
X94448380Y-107840214D01*
X94496000Y-107703309D01*
X94591238Y-107619976D01*
X94686476Y-107584261D01*
X94876952Y-107560452D01*
X95019809Y-107578309D01*
X95210285Y-107649738D01*
X95305523Y-107709261D01*
X95400761Y-107816404D01*
X95448380Y-107965214D01*
X95448380Y-108203309D01*
X97940761Y-110102119D02*
X97988380Y-109965214D01*
X97988380Y-109727119D01*
X97940761Y-109625928D01*
X97893142Y-109572357D01*
X97797904Y-109512833D01*
X97702666Y-109500928D01*
X97607428Y-109536642D01*
X97559809Y-109578309D01*
X97512190Y-109667595D01*
X97464571Y-109852119D01*
X97416952Y-109941404D01*
X97369333Y-109983071D01*
X97274095Y-110018785D01*
X97178857Y-110006880D01*
X97083619Y-109947357D01*
X97036000Y-109893785D01*
X96988380Y-109792595D01*
X96988380Y-109554500D01*
X97036000Y-109417595D01*
X96988380Y-109078309D02*
X97988380Y-108965214D01*
X97274095Y-108685452D01*
X97988380Y-108584261D01*
X96988380Y-108221166D01*
X97988380Y-107965214D02*
X96988380Y-107840214D01*
X96988380Y-107602119D01*
X97036000Y-107465214D01*
X97131238Y-107381880D01*
X97226476Y-107346166D01*
X97416952Y-107322357D01*
X97559809Y-107340214D01*
X97750285Y-107411642D01*
X97845523Y-107471166D01*
X97940761Y-107578309D01*
X97988380Y-107727119D01*
X97988380Y-107965214D01*
X97988380Y-106965214D02*
X96988380Y-106840214D01*
X96988380Y-106173547D02*
X96988380Y-105983071D01*
X97036000Y-105893785D01*
X97131238Y-105810452D01*
X97321714Y-105786642D01*
X97655047Y-105828309D01*
X97845523Y-105899738D01*
X97940761Y-106006880D01*
X97988380Y-106108071D01*
X97988380Y-106298547D01*
X97940761Y-106387833D01*
X97845523Y-106471166D01*
X97655047Y-106494976D01*
X97321714Y-106453309D01*
X97131238Y-106381880D01*
X97036000Y-106274738D01*
X96988380Y-106173547D01*
X100480761Y-110102119D02*
X100528380Y-109965214D01*
X100528380Y-109727119D01*
X100480761Y-109625928D01*
X100433142Y-109572357D01*
X100337904Y-109512833D01*
X100242666Y-109500928D01*
X100147428Y-109536642D01*
X100099809Y-109578309D01*
X100052190Y-109667595D01*
X100004571Y-109852119D01*
X99956952Y-109941404D01*
X99909333Y-109983071D01*
X99814095Y-110018785D01*
X99718857Y-110006880D01*
X99623619Y-109947357D01*
X99576000Y-109893785D01*
X99528380Y-109792595D01*
X99528380Y-109554500D01*
X99576000Y-109417595D01*
X99528380Y-109078309D02*
X100528380Y-108965214D01*
X99814095Y-108685452D01*
X100528380Y-108584261D01*
X99528380Y-108221166D01*
X100528380Y-107965214D02*
X99528380Y-107840214D01*
X99528380Y-107602119D01*
X99576000Y-107465214D01*
X99671238Y-107381880D01*
X99766476Y-107346166D01*
X99956952Y-107322357D01*
X100099809Y-107340214D01*
X100290285Y-107411642D01*
X100385523Y-107471166D01*
X100480761Y-107578309D01*
X100528380Y-107727119D01*
X100528380Y-107965214D01*
X100433142Y-106381880D02*
X100480761Y-106435452D01*
X100528380Y-106584261D01*
X100528380Y-106679500D01*
X100480761Y-106816404D01*
X100385523Y-106899738D01*
X100290285Y-106935452D01*
X100099809Y-106959261D01*
X99956952Y-106941404D01*
X99766476Y-106869976D01*
X99671238Y-106810452D01*
X99576000Y-106703309D01*
X99528380Y-106554500D01*
X99528380Y-106459261D01*
X99576000Y-106322357D01*
X99623619Y-106280690D01*
X100528380Y-105489023D02*
X100528380Y-105965214D01*
X99528380Y-105840214D01*
X100528380Y-105155690D02*
X99528380Y-105030690D01*
X100528380Y-104584261D02*
X99956952Y-104941404D01*
X99528380Y-104459261D02*
X100099809Y-105102119D01*
X103020761Y-110102119D02*
X103068380Y-109965214D01*
X103068380Y-109727119D01*
X103020761Y-109625928D01*
X102973142Y-109572357D01*
X102877904Y-109512833D01*
X102782666Y-109500928D01*
X102687428Y-109536642D01*
X102639809Y-109578309D01*
X102592190Y-109667595D01*
X102544571Y-109852119D01*
X102496952Y-109941404D01*
X102449333Y-109983071D01*
X102354095Y-110018785D01*
X102258857Y-110006880D01*
X102163619Y-109947357D01*
X102116000Y-109893785D01*
X102068380Y-109792595D01*
X102068380Y-109554500D01*
X102116000Y-109417595D01*
X102068380Y-109078309D02*
X103068380Y-108965214D01*
X102354095Y-108685452D01*
X103068380Y-108584261D01*
X102068380Y-108221166D01*
X102068380Y-107649738D02*
X102068380Y-107459261D01*
X102116000Y-107369976D01*
X102211238Y-107286642D01*
X102401714Y-107262833D01*
X102735047Y-107304500D01*
X102925523Y-107375928D01*
X103020761Y-107483071D01*
X103068380Y-107584261D01*
X103068380Y-107774738D01*
X103020761Y-107864023D01*
X102925523Y-107947357D01*
X102735047Y-107971166D01*
X102401714Y-107929500D01*
X102211238Y-107858071D01*
X102116000Y-107750928D01*
X102068380Y-107649738D01*
X105608380Y-109489023D02*
X105132190Y-109762833D01*
X105608380Y-110060452D02*
X104608380Y-109935452D01*
X104608380Y-109554500D01*
X104656000Y-109465214D01*
X104703619Y-109423547D01*
X104798857Y-109387833D01*
X104941714Y-109405690D01*
X105036952Y-109465214D01*
X105084571Y-109518785D01*
X105132190Y-109619976D01*
X105132190Y-110000928D01*
X105084571Y-108994976D02*
X105084571Y-108661642D01*
X105608380Y-108584261D02*
X105608380Y-109060452D01*
X104608380Y-108935452D01*
X104608380Y-108459261D01*
X105560761Y-108197357D02*
X105608380Y-108060452D01*
X105608380Y-107822357D01*
X105560761Y-107721166D01*
X105513142Y-107667595D01*
X105417904Y-107608071D01*
X105322666Y-107596166D01*
X105227428Y-107631880D01*
X105179809Y-107673547D01*
X105132190Y-107762833D01*
X105084571Y-107947357D01*
X105036952Y-108036642D01*
X104989333Y-108078309D01*
X104894095Y-108114023D01*
X104798857Y-108102119D01*
X104703619Y-108042595D01*
X104656000Y-107989023D01*
X104608380Y-107887833D01*
X104608380Y-107649738D01*
X104656000Y-107512833D01*
X105084571Y-107137833D02*
X105084571Y-106804500D01*
X105608380Y-106727119D02*
X105608380Y-107203309D01*
X104608380Y-107078309D01*
X104608380Y-106602119D01*
X104608380Y-106316404D02*
X104608380Y-105744976D01*
X105608380Y-106155690D02*
X104608380Y-106030690D01*
X107196000Y-109417595D02*
X107148380Y-109506880D01*
X107148380Y-109649738D01*
X107196000Y-109798547D01*
X107291238Y-109905690D01*
X107386476Y-109965214D01*
X107576952Y-110036642D01*
X107719809Y-110054500D01*
X107910285Y-110030690D01*
X108005523Y-109994976D01*
X108100761Y-109911642D01*
X108148380Y-109774738D01*
X108148380Y-109679500D01*
X108100761Y-109530690D01*
X108053142Y-109477119D01*
X107719809Y-109435452D01*
X107719809Y-109625928D01*
X108148380Y-109060452D02*
X107148380Y-108935452D01*
X108148380Y-108489023D01*
X107148380Y-108364023D01*
X108148380Y-108012833D02*
X107148380Y-107887833D01*
X107148380Y-107649738D01*
X107196000Y-107512833D01*
X107291238Y-107429500D01*
X107386476Y-107393785D01*
X107576952Y-107369976D01*
X107719809Y-107387833D01*
X107910285Y-107459261D01*
X108005523Y-107518785D01*
X108100761Y-107625928D01*
X108148380Y-107774738D01*
X108148380Y-108012833D01*
X92398690Y-119252380D02*
X92607023Y-120252380D01*
X93065357Y-119252380D01*
X93273690Y-120252380D02*
X93398690Y-119252380D01*
X93636785Y-119252380D01*
X93773690Y-119300000D01*
X93857023Y-119395238D01*
X93892738Y-119490476D01*
X93916547Y-119680952D01*
X93898690Y-119823809D01*
X93827261Y-120014285D01*
X93767738Y-120109523D01*
X93660595Y-120204761D01*
X93511785Y-120252380D01*
X93273690Y-120252380D01*
X94273690Y-120252380D02*
X94398690Y-119252380D01*
X94636785Y-119252380D01*
X94773690Y-119300000D01*
X94857023Y-119395238D01*
X94892738Y-119490476D01*
X94916547Y-119680952D01*
X94898690Y-119823809D01*
X94827261Y-120014285D01*
X94767738Y-120109523D01*
X94660595Y-120204761D01*
X94511785Y-120252380D01*
X94273690Y-120252380D01*
X96273690Y-120633333D02*
X96232023Y-120585714D01*
X96154642Y-120442857D01*
X96118928Y-120347619D01*
X96089166Y-120204761D01*
X96071309Y-119966666D01*
X96095119Y-119776190D01*
X96172500Y-119538095D01*
X96237976Y-119395238D01*
X96297500Y-119300000D01*
X96410595Y-119157142D01*
X96464166Y-119109523D01*
X97273690Y-120252380D02*
X96999880Y-119776190D01*
X96702261Y-120252380D02*
X96827261Y-119252380D01*
X97208214Y-119252380D01*
X97297500Y-119300000D01*
X97339166Y-119347619D01*
X97374880Y-119442857D01*
X97357023Y-119585714D01*
X97297500Y-119680952D01*
X97243928Y-119728571D01*
X97142738Y-119776190D01*
X96761785Y-119776190D01*
X97827261Y-119252380D02*
X97726071Y-120061904D01*
X97761785Y-120157142D01*
X97803452Y-120204761D01*
X97892738Y-120252380D01*
X98083214Y-120252380D01*
X98184404Y-120204761D01*
X98237976Y-120157142D01*
X98297500Y-120061904D01*
X98398690Y-119252380D01*
X98874880Y-119252380D02*
X98773690Y-120061904D01*
X98809404Y-120157142D01*
X98851071Y-120204761D01*
X98940357Y-120252380D01*
X99130833Y-120252380D01*
X99232023Y-120204761D01*
X99285595Y-120157142D01*
X99345119Y-120061904D01*
X99446309Y-119252380D01*
X99779642Y-119252380D02*
X99987976Y-120252380D01*
X100446309Y-119252380D01*
X100654642Y-120252380D02*
X100779642Y-119252380D01*
X102476071Y-120157142D02*
X102422500Y-120204761D01*
X102273690Y-120252380D01*
X102178452Y-120252380D01*
X102041547Y-120204761D01*
X101958214Y-120109523D01*
X101922500Y-120014285D01*
X101898690Y-119823809D01*
X101916547Y-119680952D01*
X101987976Y-119490476D01*
X102047500Y-119395238D01*
X102154642Y-119300000D01*
X102303452Y-119252380D01*
X102398690Y-119252380D01*
X102535595Y-119300000D01*
X102577261Y-119347619D01*
X103208214Y-119252380D02*
X103398690Y-119252380D01*
X103487976Y-119300000D01*
X103571309Y-119395238D01*
X103595119Y-119585714D01*
X103553452Y-119919047D01*
X103482023Y-120109523D01*
X103374880Y-120204761D01*
X103273690Y-120252380D01*
X103083214Y-120252380D01*
X102993928Y-120204761D01*
X102910595Y-120109523D01*
X102886785Y-119919047D01*
X102928452Y-119585714D01*
X102999880Y-119395238D01*
X103107023Y-119300000D01*
X103208214Y-119252380D01*
X104511785Y-120252380D02*
X104237976Y-119776190D01*
X103940357Y-120252380D02*
X104065357Y-119252380D01*
X104446309Y-119252380D01*
X104535595Y-119300000D01*
X104577261Y-119347619D01*
X104612976Y-119442857D01*
X104595119Y-119585714D01*
X104535595Y-119680952D01*
X104482023Y-119728571D01*
X104380833Y-119776190D01*
X103999880Y-119776190D01*
X105005833Y-119728571D02*
X105339166Y-119728571D01*
X105416547Y-120252380D02*
X104940357Y-120252380D01*
X105065357Y-119252380D01*
X105541547Y-119252380D01*
X105702261Y-120633333D02*
X105755833Y-120585714D01*
X105868928Y-120442857D01*
X105928452Y-120347619D01*
X105993928Y-120204761D01*
X106071309Y-119966666D01*
X106095119Y-119776190D01*
X106077261Y-119538095D01*
X106047500Y-119395238D01*
X106011785Y-119300000D01*
X105934404Y-119157142D01*
X105892738Y-119109523D01*
X92416547Y-122792380D02*
X92541547Y-121792380D01*
X92922500Y-121792380D01*
X93011785Y-121840000D01*
X93053452Y-121887619D01*
X93089166Y-121982857D01*
X93071309Y-122125714D01*
X93011785Y-122220952D01*
X92958214Y-122268571D01*
X92857023Y-122316190D01*
X92476071Y-122316190D01*
X93732023Y-121792380D02*
X93827261Y-121792380D01*
X93916547Y-121840000D01*
X93958214Y-121887619D01*
X93993928Y-121982857D01*
X94017738Y-122173333D01*
X93987976Y-122411428D01*
X93916547Y-122601904D01*
X93857023Y-122697142D01*
X93803452Y-122744761D01*
X93702261Y-122792380D01*
X93607023Y-122792380D01*
X93517738Y-122744761D01*
X93476071Y-122697142D01*
X93440357Y-122601904D01*
X93416547Y-122411428D01*
X93446309Y-122173333D01*
X93517738Y-121982857D01*
X93577261Y-121887619D01*
X93630833Y-121840000D01*
X93732023Y-121792380D01*
X94380833Y-122697142D02*
X94422500Y-122744761D01*
X94368928Y-122792380D01*
X94327261Y-122744761D01*
X94380833Y-122697142D01*
X94368928Y-122792380D01*
X95368928Y-122792380D02*
X94797500Y-122792380D01*
X95083214Y-122792380D02*
X95208214Y-121792380D01*
X95095119Y-121935238D01*
X94987976Y-122030476D01*
X94886785Y-122078095D01*
X95827261Y-121792380D02*
X96446309Y-121792380D01*
X96065357Y-122173333D01*
X96208214Y-122173333D01*
X96297500Y-122220952D01*
X96339166Y-122268571D01*
X96374880Y-122363809D01*
X96345119Y-122601904D01*
X96285595Y-122697142D01*
X96232023Y-122744761D01*
X96130833Y-122792380D01*
X95845119Y-122792380D01*
X95755833Y-122744761D01*
X95714166Y-122697142D01*
X98357023Y-121744761D02*
X97339166Y-123030476D01*
X99720119Y-122268571D02*
X99857023Y-122316190D01*
X99898690Y-122363809D01*
X99934404Y-122459047D01*
X99916547Y-122601904D01*
X99857023Y-122697142D01*
X99803452Y-122744761D01*
X99702261Y-122792380D01*
X99321309Y-122792380D01*
X99446309Y-121792380D01*
X99779642Y-121792380D01*
X99868928Y-121840000D01*
X99910595Y-121887619D01*
X99946309Y-121982857D01*
X99934404Y-122078095D01*
X99874880Y-122173333D01*
X99821309Y-122220952D01*
X99720119Y-122268571D01*
X99386785Y-122268571D01*
X100446309Y-121792380D02*
X100345119Y-122601904D01*
X100380833Y-122697142D01*
X100422500Y-122744761D01*
X100511785Y-122792380D01*
X100702261Y-122792380D01*
X100803452Y-122744761D01*
X100857023Y-122697142D01*
X100916547Y-122601904D01*
X101017738Y-121792380D01*
X101351071Y-121792380D02*
X101922500Y-121792380D01*
X101511785Y-122792380D02*
X101636785Y-121792380D01*
X102112976Y-121792380D02*
X102684404Y-121792380D01*
X102273690Y-122792380D02*
X102398690Y-121792380D01*
X103208214Y-121792380D02*
X103398690Y-121792380D01*
X103487976Y-121840000D01*
X103571309Y-121935238D01*
X103595119Y-122125714D01*
X103553452Y-122459047D01*
X103482023Y-122649523D01*
X103374880Y-122744761D01*
X103273690Y-122792380D01*
X103083214Y-122792380D01*
X102993928Y-122744761D01*
X102910595Y-122649523D01*
X102886785Y-122459047D01*
X102928452Y-122125714D01*
X102999880Y-121935238D01*
X103107023Y-121840000D01*
X103208214Y-121792380D01*
X103940357Y-122792380D02*
X104065357Y-121792380D01*
X104511785Y-122792380D01*
X104636785Y-121792380D01*
X92416547Y-125332380D02*
X92541547Y-124332380D01*
X92922500Y-124332380D01*
X93011785Y-124380000D01*
X93053452Y-124427619D01*
X93089166Y-124522857D01*
X93071309Y-124665714D01*
X93011785Y-124760952D01*
X92958214Y-124808571D01*
X92857023Y-124856190D01*
X92476071Y-124856190D01*
X93732023Y-124332380D02*
X93827261Y-124332380D01*
X93916547Y-124380000D01*
X93958214Y-124427619D01*
X93993928Y-124522857D01*
X94017738Y-124713333D01*
X93987976Y-124951428D01*
X93916547Y-125141904D01*
X93857023Y-125237142D01*
X93803452Y-125284761D01*
X93702261Y-125332380D01*
X93607023Y-125332380D01*
X93517738Y-125284761D01*
X93476071Y-125237142D01*
X93440357Y-125141904D01*
X93416547Y-124951428D01*
X93446309Y-124713333D01*
X93517738Y-124522857D01*
X93577261Y-124427619D01*
X93630833Y-124380000D01*
X93732023Y-124332380D01*
X94380833Y-125237142D02*
X94422500Y-125284761D01*
X94368928Y-125332380D01*
X94327261Y-125284761D01*
X94380833Y-125237142D01*
X94368928Y-125332380D01*
X95160595Y-124332380D02*
X95255833Y-124332380D01*
X95345119Y-124380000D01*
X95386785Y-124427619D01*
X95422500Y-124522857D01*
X95446309Y-124713333D01*
X95416547Y-124951428D01*
X95345119Y-125141904D01*
X95285595Y-125237142D01*
X95232023Y-125284761D01*
X95130833Y-125332380D01*
X95035595Y-125332380D01*
X94946309Y-125284761D01*
X94904642Y-125237142D01*
X94868928Y-125141904D01*
X94845119Y-124951428D01*
X94874880Y-124713333D01*
X94946309Y-124522857D01*
X95005833Y-124427619D01*
X95059404Y-124380000D01*
X95160595Y-124332380D01*
X96309404Y-124665714D02*
X96226071Y-125332380D01*
X96118928Y-124284761D02*
X95791547Y-124999047D01*
X96410595Y-124999047D01*
X92416547Y-127872380D02*
X92541547Y-126872380D01*
X92922500Y-126872380D01*
X93011785Y-126920000D01*
X93053452Y-126967619D01*
X93089166Y-127062857D01*
X93071309Y-127205714D01*
X93011785Y-127300952D01*
X92958214Y-127348571D01*
X92857023Y-127396190D01*
X92476071Y-127396190D01*
X93732023Y-126872380D02*
X93827261Y-126872380D01*
X93916547Y-126920000D01*
X93958214Y-126967619D01*
X93993928Y-127062857D01*
X94017738Y-127253333D01*
X93987976Y-127491428D01*
X93916547Y-127681904D01*
X93857023Y-127777142D01*
X93803452Y-127824761D01*
X93702261Y-127872380D01*
X93607023Y-127872380D01*
X93517738Y-127824761D01*
X93476071Y-127777142D01*
X93440357Y-127681904D01*
X93416547Y-127491428D01*
X93446309Y-127253333D01*
X93517738Y-127062857D01*
X93577261Y-126967619D01*
X93630833Y-126920000D01*
X93732023Y-126872380D01*
X94380833Y-127777142D02*
X94422500Y-127824761D01*
X94368928Y-127872380D01*
X94327261Y-127824761D01*
X94380833Y-127777142D01*
X94368928Y-127872380D01*
X95160595Y-126872380D02*
X95255833Y-126872380D01*
X95345119Y-126920000D01*
X95386785Y-126967619D01*
X95422500Y-127062857D01*
X95446309Y-127253333D01*
X95416547Y-127491428D01*
X95345119Y-127681904D01*
X95285595Y-127777142D01*
X95232023Y-127824761D01*
X95130833Y-127872380D01*
X95035595Y-127872380D01*
X94946309Y-127824761D01*
X94904642Y-127777142D01*
X94868928Y-127681904D01*
X94845119Y-127491428D01*
X94874880Y-127253333D01*
X94946309Y-127062857D01*
X95005833Y-126967619D01*
X95059404Y-126920000D01*
X95160595Y-126872380D01*
X96398690Y-126872380D02*
X95922500Y-126872380D01*
X95815357Y-127348571D01*
X95868928Y-127300952D01*
X95970119Y-127253333D01*
X96208214Y-127253333D01*
X96297500Y-127300952D01*
X96339166Y-127348571D01*
X96374880Y-127443809D01*
X96345119Y-127681904D01*
X96285595Y-127777142D01*
X96232023Y-127824761D01*
X96130833Y-127872380D01*
X95892738Y-127872380D01*
X95803452Y-127824761D01*
X95761785Y-127777142D01*
X92416547Y-130412380D02*
X92541547Y-129412380D01*
X92922500Y-129412380D01*
X93011785Y-129460000D01*
X93053452Y-129507619D01*
X93089166Y-129602857D01*
X93071309Y-129745714D01*
X93011785Y-129840952D01*
X92958214Y-129888571D01*
X92857023Y-129936190D01*
X92476071Y-129936190D01*
X93732023Y-129412380D02*
X93827261Y-129412380D01*
X93916547Y-129460000D01*
X93958214Y-129507619D01*
X93993928Y-129602857D01*
X94017738Y-129793333D01*
X93987976Y-130031428D01*
X93916547Y-130221904D01*
X93857023Y-130317142D01*
X93803452Y-130364761D01*
X93702261Y-130412380D01*
X93607023Y-130412380D01*
X93517738Y-130364761D01*
X93476071Y-130317142D01*
X93440357Y-130221904D01*
X93416547Y-130031428D01*
X93446309Y-129793333D01*
X93517738Y-129602857D01*
X93577261Y-129507619D01*
X93630833Y-129460000D01*
X93732023Y-129412380D01*
X94380833Y-130317142D02*
X94422500Y-130364761D01*
X94368928Y-130412380D01*
X94327261Y-130364761D01*
X94380833Y-130317142D01*
X94368928Y-130412380D01*
X94910595Y-129507619D02*
X94964166Y-129460000D01*
X95065357Y-129412380D01*
X95303452Y-129412380D01*
X95392738Y-129460000D01*
X95434404Y-129507619D01*
X95470119Y-129602857D01*
X95458214Y-129698095D01*
X95392738Y-129840952D01*
X94749880Y-130412380D01*
X95368928Y-130412380D01*
X95845119Y-130412380D02*
X96035595Y-130412380D01*
X96136785Y-130364761D01*
X96190357Y-130317142D01*
X96303452Y-130174285D01*
X96374880Y-129983809D01*
X96422500Y-129602857D01*
X96386785Y-129507619D01*
X96345119Y-129460000D01*
X96255833Y-129412380D01*
X96065357Y-129412380D01*
X95964166Y-129460000D01*
X95910595Y-129507619D01*
X95851071Y-129602857D01*
X95821309Y-129840952D01*
X95857023Y-129936190D01*
X95898690Y-129983809D01*
X95987976Y-130031428D01*
X96178452Y-130031428D01*
X96279642Y-129983809D01*
X96333214Y-129936190D01*
X96392738Y-129840952D01*
X98357023Y-129364761D02*
X97339166Y-130650476D01*
X99279642Y-130364761D02*
X99416547Y-130412380D01*
X99654642Y-130412380D01*
X99755833Y-130364761D01*
X99809404Y-130317142D01*
X99868928Y-130221904D01*
X99880833Y-130126666D01*
X99845119Y-130031428D01*
X99803452Y-129983809D01*
X99714166Y-129936190D01*
X99529642Y-129888571D01*
X99440357Y-129840952D01*
X99398690Y-129793333D01*
X99362976Y-129698095D01*
X99374880Y-129602857D01*
X99434404Y-129507619D01*
X99487976Y-129460000D01*
X99589166Y-129412380D01*
X99827261Y-129412380D01*
X99964166Y-129460000D01*
X100273690Y-130412380D02*
X100398690Y-129412380D01*
X100779642Y-129412380D01*
X100868928Y-129460000D01*
X100910595Y-129507619D01*
X100946309Y-129602857D01*
X100928452Y-129745714D01*
X100868928Y-129840952D01*
X100815357Y-129888571D01*
X100714166Y-129936190D01*
X100333214Y-129936190D01*
X101273690Y-130412380D02*
X101398690Y-129412380D01*
X101499880Y-130507619D02*
X102261785Y-130507619D01*
X103095119Y-130317142D02*
X103041547Y-130364761D01*
X102892738Y-130412380D01*
X102797500Y-130412380D01*
X102660595Y-130364761D01*
X102577261Y-130269523D01*
X102541547Y-130174285D01*
X102517738Y-129983809D01*
X102535595Y-129840952D01*
X102607023Y-129650476D01*
X102666547Y-129555238D01*
X102773690Y-129460000D01*
X102922500Y-129412380D01*
X103017738Y-129412380D01*
X103154642Y-129460000D01*
X103196309Y-129507619D01*
X103987976Y-130412380D02*
X103511785Y-130412380D01*
X103636785Y-129412380D01*
X104321309Y-130412380D02*
X104446309Y-129412380D01*
X104892738Y-130412380D02*
X104535595Y-129840952D01*
X105017738Y-129412380D02*
X104374880Y-129983809D01*
X92416547Y-132952380D02*
X92541547Y-131952380D01*
X92922500Y-131952380D01*
X93011785Y-132000000D01*
X93053452Y-132047619D01*
X93089166Y-132142857D01*
X93071309Y-132285714D01*
X93011785Y-132380952D01*
X92958214Y-132428571D01*
X92857023Y-132476190D01*
X92476071Y-132476190D01*
X93732023Y-131952380D02*
X93827261Y-131952380D01*
X93916547Y-132000000D01*
X93958214Y-132047619D01*
X93993928Y-132142857D01*
X94017738Y-132333333D01*
X93987976Y-132571428D01*
X93916547Y-132761904D01*
X93857023Y-132857142D01*
X93803452Y-132904761D01*
X93702261Y-132952380D01*
X93607023Y-132952380D01*
X93517738Y-132904761D01*
X93476071Y-132857142D01*
X93440357Y-132761904D01*
X93416547Y-132571428D01*
X93446309Y-132333333D01*
X93517738Y-132142857D01*
X93577261Y-132047619D01*
X93630833Y-132000000D01*
X93732023Y-131952380D01*
X94380833Y-132857142D02*
X94422500Y-132904761D01*
X94368928Y-132952380D01*
X94327261Y-132904761D01*
X94380833Y-132857142D01*
X94368928Y-132952380D01*
X94910595Y-132047619D02*
X94964166Y-132000000D01*
X95065357Y-131952380D01*
X95303452Y-131952380D01*
X95392738Y-132000000D01*
X95434404Y-132047619D01*
X95470119Y-132142857D01*
X95458214Y-132238095D01*
X95392738Y-132380952D01*
X94749880Y-132952380D01*
X95368928Y-132952380D01*
X96398690Y-131952380D02*
X95922500Y-131952380D01*
X95815357Y-132428571D01*
X95868928Y-132380952D01*
X95970119Y-132333333D01*
X96208214Y-132333333D01*
X96297500Y-132380952D01*
X96339166Y-132428571D01*
X96374880Y-132523809D01*
X96345119Y-132761904D01*
X96285595Y-132857142D01*
X96232023Y-132904761D01*
X96130833Y-132952380D01*
X95892738Y-132952380D01*
X95803452Y-132904761D01*
X95761785Y-132857142D01*
X98357023Y-131904761D02*
X97339166Y-133190476D01*
X99279642Y-132904761D02*
X99416547Y-132952380D01*
X99654642Y-132952380D01*
X99755833Y-132904761D01*
X99809404Y-132857142D01*
X99868928Y-132761904D01*
X99880833Y-132666666D01*
X99845119Y-132571428D01*
X99803452Y-132523809D01*
X99714166Y-132476190D01*
X99529642Y-132428571D01*
X99440357Y-132380952D01*
X99398690Y-132333333D01*
X99362976Y-132238095D01*
X99374880Y-132142857D01*
X99434404Y-132047619D01*
X99487976Y-132000000D01*
X99589166Y-131952380D01*
X99827261Y-131952380D01*
X99964166Y-132000000D01*
X100273690Y-132952380D02*
X100398690Y-131952380D01*
X100779642Y-131952380D01*
X100868928Y-132000000D01*
X100910595Y-132047619D01*
X100946309Y-132142857D01*
X100928452Y-132285714D01*
X100868928Y-132380952D01*
X100815357Y-132428571D01*
X100714166Y-132476190D01*
X100333214Y-132476190D01*
X101273690Y-132952380D02*
X101398690Y-131952380D01*
X101499880Y-133047619D02*
X102261785Y-133047619D01*
X102511785Y-132952380D02*
X102636785Y-131952380D01*
X102880833Y-132666666D01*
X103303452Y-131952380D01*
X103178452Y-132952380D01*
X103970119Y-131952380D02*
X104160595Y-131952380D01*
X104249880Y-132000000D01*
X104333214Y-132095238D01*
X104357023Y-132285714D01*
X104315357Y-132619047D01*
X104243928Y-132809523D01*
X104136785Y-132904761D01*
X104035595Y-132952380D01*
X103845119Y-132952380D01*
X103755833Y-132904761D01*
X103672500Y-132809523D01*
X103648690Y-132619047D01*
X103690357Y-132285714D01*
X103761785Y-132095238D01*
X103868928Y-132000000D01*
X103970119Y-131952380D01*
X104660595Y-132904761D02*
X104797500Y-132952380D01*
X105035595Y-132952380D01*
X105136785Y-132904761D01*
X105190357Y-132857142D01*
X105249880Y-132761904D01*
X105261785Y-132666666D01*
X105226071Y-132571428D01*
X105184404Y-132523809D01*
X105095119Y-132476190D01*
X104910595Y-132428571D01*
X104821309Y-132380952D01*
X104779642Y-132333333D01*
X104743928Y-132238095D01*
X104755833Y-132142857D01*
X104815357Y-132047619D01*
X104868928Y-132000000D01*
X104970119Y-131952380D01*
X105208214Y-131952380D01*
X105345119Y-132000000D01*
X105654642Y-132952380D02*
X105779642Y-131952380D01*
X92416547Y-135492380D02*
X92541547Y-134492380D01*
X92922500Y-134492380D01*
X93011785Y-134540000D01*
X93053452Y-134587619D01*
X93089166Y-134682857D01*
X93071309Y-134825714D01*
X93011785Y-134920952D01*
X92958214Y-134968571D01*
X92857023Y-135016190D01*
X92476071Y-135016190D01*
X93732023Y-134492380D02*
X93827261Y-134492380D01*
X93916547Y-134540000D01*
X93958214Y-134587619D01*
X93993928Y-134682857D01*
X94017738Y-134873333D01*
X93987976Y-135111428D01*
X93916547Y-135301904D01*
X93857023Y-135397142D01*
X93803452Y-135444761D01*
X93702261Y-135492380D01*
X93607023Y-135492380D01*
X93517738Y-135444761D01*
X93476071Y-135397142D01*
X93440357Y-135301904D01*
X93416547Y-135111428D01*
X93446309Y-134873333D01*
X93517738Y-134682857D01*
X93577261Y-134587619D01*
X93630833Y-134540000D01*
X93732023Y-134492380D01*
X94380833Y-135397142D02*
X94422500Y-135444761D01*
X94368928Y-135492380D01*
X94327261Y-135444761D01*
X94380833Y-135397142D01*
X94368928Y-135492380D01*
X94910595Y-134587619D02*
X94964166Y-134540000D01*
X95065357Y-134492380D01*
X95303452Y-134492380D01*
X95392738Y-134540000D01*
X95434404Y-134587619D01*
X95470119Y-134682857D01*
X95458214Y-134778095D01*
X95392738Y-134920952D01*
X94749880Y-135492380D01*
X95368928Y-135492380D01*
X96011785Y-134920952D02*
X95922500Y-134873333D01*
X95880833Y-134825714D01*
X95845119Y-134730476D01*
X95851071Y-134682857D01*
X95910595Y-134587619D01*
X95964166Y-134540000D01*
X96065357Y-134492380D01*
X96255833Y-134492380D01*
X96345119Y-134540000D01*
X96386785Y-134587619D01*
X96422500Y-134682857D01*
X96416547Y-134730476D01*
X96357023Y-134825714D01*
X96303452Y-134873333D01*
X96202261Y-134920952D01*
X96011785Y-134920952D01*
X95910595Y-134968571D01*
X95857023Y-135016190D01*
X95797500Y-135111428D01*
X95773690Y-135301904D01*
X95809404Y-135397142D01*
X95851071Y-135444761D01*
X95940357Y-135492380D01*
X96130833Y-135492380D01*
X96232023Y-135444761D01*
X96285595Y-135397142D01*
X96345119Y-135301904D01*
X96368928Y-135111428D01*
X96333214Y-135016190D01*
X96291547Y-134968571D01*
X96202261Y-134920952D01*
X98357023Y-134444761D02*
X97339166Y-135730476D01*
X99279642Y-135444761D02*
X99416547Y-135492380D01*
X99654642Y-135492380D01*
X99755833Y-135444761D01*
X99809404Y-135397142D01*
X99868928Y-135301904D01*
X99880833Y-135206666D01*
X99845119Y-135111428D01*
X99803452Y-135063809D01*
X99714166Y-135016190D01*
X99529642Y-134968571D01*
X99440357Y-134920952D01*
X99398690Y-134873333D01*
X99362976Y-134778095D01*
X99374880Y-134682857D01*
X99434404Y-134587619D01*
X99487976Y-134540000D01*
X99589166Y-134492380D01*
X99827261Y-134492380D01*
X99964166Y-134540000D01*
X100273690Y-135492380D02*
X100398690Y-134492380D01*
X100779642Y-134492380D01*
X100868928Y-134540000D01*
X100910595Y-134587619D01*
X100946309Y-134682857D01*
X100928452Y-134825714D01*
X100868928Y-134920952D01*
X100815357Y-134968571D01*
X100714166Y-135016190D01*
X100333214Y-135016190D01*
X101273690Y-135492380D02*
X101398690Y-134492380D01*
X101499880Y-135587619D02*
X102261785Y-135587619D01*
X102511785Y-135492380D02*
X102636785Y-134492380D01*
X102880833Y-135206666D01*
X103303452Y-134492380D01*
X103178452Y-135492380D01*
X103654642Y-135492380D02*
X103779642Y-134492380D01*
X104089166Y-135444761D02*
X104226071Y-135492380D01*
X104464166Y-135492380D01*
X104565357Y-135444761D01*
X104618928Y-135397142D01*
X104678452Y-135301904D01*
X104690357Y-135206666D01*
X104654642Y-135111428D01*
X104612976Y-135063809D01*
X104523690Y-135016190D01*
X104339166Y-134968571D01*
X104249880Y-134920952D01*
X104208214Y-134873333D01*
X104172500Y-134778095D01*
X104184404Y-134682857D01*
X104243928Y-134587619D01*
X104297500Y-134540000D01*
X104398690Y-134492380D01*
X104636785Y-134492380D01*
X104773690Y-134540000D01*
X105398690Y-134492380D02*
X105589166Y-134492380D01*
X105678452Y-134540000D01*
X105761785Y-134635238D01*
X105785595Y-134825714D01*
X105743928Y-135159047D01*
X105672500Y-135349523D01*
X105565357Y-135444761D01*
X105464166Y-135492380D01*
X105273690Y-135492380D01*
X105184404Y-135444761D01*
X105101071Y-135349523D01*
X105077261Y-135159047D01*
X105118928Y-134825714D01*
X105190357Y-134635238D01*
X105297500Y-134540000D01*
X105398690Y-134492380D01*
X92416547Y-138032380D02*
X92541547Y-137032380D01*
X92922500Y-137032380D01*
X93011785Y-137080000D01*
X93053452Y-137127619D01*
X93089166Y-137222857D01*
X93071309Y-137365714D01*
X93011785Y-137460952D01*
X92958214Y-137508571D01*
X92857023Y-137556190D01*
X92476071Y-137556190D01*
X93732023Y-137032380D02*
X93827261Y-137032380D01*
X93916547Y-137080000D01*
X93958214Y-137127619D01*
X93993928Y-137222857D01*
X94017738Y-137413333D01*
X93987976Y-137651428D01*
X93916547Y-137841904D01*
X93857023Y-137937142D01*
X93803452Y-137984761D01*
X93702261Y-138032380D01*
X93607023Y-138032380D01*
X93517738Y-137984761D01*
X93476071Y-137937142D01*
X93440357Y-137841904D01*
X93416547Y-137651428D01*
X93446309Y-137413333D01*
X93517738Y-137222857D01*
X93577261Y-137127619D01*
X93630833Y-137080000D01*
X93732023Y-137032380D01*
X94380833Y-137937142D02*
X94422500Y-137984761D01*
X94368928Y-138032380D01*
X94327261Y-137984761D01*
X94380833Y-137937142D01*
X94368928Y-138032380D01*
X95368928Y-138032380D02*
X94797500Y-138032380D01*
X95083214Y-138032380D02*
X95208214Y-137032380D01*
X95095119Y-137175238D01*
X94987976Y-137270476D01*
X94886785Y-137318095D01*
X95827261Y-137032380D02*
X96493928Y-137032380D01*
X95940357Y-138032380D01*
X98357023Y-136984761D02*
X97339166Y-138270476D01*
X99797500Y-138032380D02*
X99321309Y-138032380D01*
X99446309Y-137032380D01*
X100196309Y-137508571D02*
X100529642Y-137508571D01*
X100607023Y-138032380D02*
X100130833Y-138032380D01*
X100255833Y-137032380D01*
X100732023Y-137032380D01*
X101035595Y-138032380D02*
X101160595Y-137032380D01*
X101398690Y-137032380D01*
X101535595Y-137080000D01*
X101618928Y-137175238D01*
X101654642Y-137270476D01*
X101678452Y-137460952D01*
X101660595Y-137603809D01*
X101589166Y-137794285D01*
X101529642Y-137889523D01*
X101422500Y-137984761D01*
X101273690Y-138032380D01*
X101035595Y-138032380D01*
X102559404Y-138032380D02*
X101987976Y-138032380D01*
X102273690Y-138032380D02*
X102398690Y-137032380D01*
X102285595Y-137175238D01*
X102178452Y-137270476D01*
X102077261Y-137318095D01*
X92416547Y-140572380D02*
X92541547Y-139572380D01*
X92922500Y-139572380D01*
X93011785Y-139620000D01*
X93053452Y-139667619D01*
X93089166Y-139762857D01*
X93071309Y-139905714D01*
X93011785Y-140000952D01*
X92958214Y-140048571D01*
X92857023Y-140096190D01*
X92476071Y-140096190D01*
X93732023Y-139572380D02*
X93827261Y-139572380D01*
X93916547Y-139620000D01*
X93958214Y-139667619D01*
X93993928Y-139762857D01*
X94017738Y-139953333D01*
X93987976Y-140191428D01*
X93916547Y-140381904D01*
X93857023Y-140477142D01*
X93803452Y-140524761D01*
X93702261Y-140572380D01*
X93607023Y-140572380D01*
X93517738Y-140524761D01*
X93476071Y-140477142D01*
X93440357Y-140381904D01*
X93416547Y-140191428D01*
X93446309Y-139953333D01*
X93517738Y-139762857D01*
X93577261Y-139667619D01*
X93630833Y-139620000D01*
X93732023Y-139572380D01*
X94380833Y-140477142D02*
X94422500Y-140524761D01*
X94368928Y-140572380D01*
X94327261Y-140524761D01*
X94380833Y-140477142D01*
X94368928Y-140572380D01*
X95368928Y-140572380D02*
X94797500Y-140572380D01*
X95083214Y-140572380D02*
X95208214Y-139572380D01*
X95095119Y-139715238D01*
X94987976Y-139810476D01*
X94886785Y-139858095D01*
X95845119Y-140572380D02*
X96035595Y-140572380D01*
X96136785Y-140524761D01*
X96190357Y-140477142D01*
X96303452Y-140334285D01*
X96374880Y-140143809D01*
X96422500Y-139762857D01*
X96386785Y-139667619D01*
X96345119Y-139620000D01*
X96255833Y-139572380D01*
X96065357Y-139572380D01*
X95964166Y-139620000D01*
X95910595Y-139667619D01*
X95851071Y-139762857D01*
X95821309Y-140000952D01*
X95857023Y-140096190D01*
X95898690Y-140143809D01*
X95987976Y-140191428D01*
X96178452Y-140191428D01*
X96279642Y-140143809D01*
X96333214Y-140096190D01*
X96392738Y-140000952D01*
X98357023Y-139524761D02*
X97339166Y-140810476D01*
X99797500Y-140572380D02*
X99321309Y-140572380D01*
X99446309Y-139572380D01*
X100196309Y-140048571D02*
X100529642Y-140048571D01*
X100607023Y-140572380D02*
X100130833Y-140572380D01*
X100255833Y-139572380D01*
X100732023Y-139572380D01*
X101035595Y-140572380D02*
X101160595Y-139572380D01*
X101398690Y-139572380D01*
X101535595Y-139620000D01*
X101618928Y-139715238D01*
X101654642Y-139810476D01*
X101678452Y-140000952D01*
X101660595Y-140143809D01*
X101589166Y-140334285D01*
X101529642Y-140429523D01*
X101422500Y-140524761D01*
X101273690Y-140572380D01*
X101035595Y-140572380D01*
X102101071Y-139667619D02*
X102154642Y-139620000D01*
X102255833Y-139572380D01*
X102493928Y-139572380D01*
X102583214Y-139620000D01*
X102624880Y-139667619D01*
X102660595Y-139762857D01*
X102648690Y-139858095D01*
X102583214Y-140000952D01*
X101940357Y-140572380D01*
X102559404Y-140572380D01*
X93059404Y-147240000D02*
X92970119Y-147192380D01*
X92827261Y-147192380D01*
X92678452Y-147240000D01*
X92571309Y-147335238D01*
X92511785Y-147430476D01*
X92440357Y-147620952D01*
X92422500Y-147763809D01*
X92446309Y-147954285D01*
X92482023Y-148049523D01*
X92565357Y-148144761D01*
X92702261Y-148192380D01*
X92797500Y-148192380D01*
X92946309Y-148144761D01*
X92999880Y-148097142D01*
X93041547Y-147763809D01*
X92851071Y-147763809D01*
X93416547Y-148192380D02*
X93541547Y-147192380D01*
X93987976Y-148192380D01*
X94112976Y-147192380D01*
X94464166Y-148192380D02*
X94589166Y-147192380D01*
X94827261Y-147192380D01*
X94964166Y-147240000D01*
X95047500Y-147335238D01*
X95083214Y-147430476D01*
X95107023Y-147620952D01*
X95089166Y-147763809D01*
X95017738Y-147954285D01*
X94958214Y-148049523D01*
X94851071Y-148144761D01*
X94702261Y-148192380D01*
X94464166Y-148192380D01*
X92398690Y-149732380D02*
X92607023Y-150732380D01*
X93065357Y-149732380D01*
X93273690Y-150732380D02*
X93398690Y-149732380D01*
X93636785Y-149732380D01*
X93773690Y-149780000D01*
X93857023Y-149875238D01*
X93892738Y-149970476D01*
X93916547Y-150160952D01*
X93898690Y-150303809D01*
X93827261Y-150494285D01*
X93767738Y-150589523D01*
X93660595Y-150684761D01*
X93511785Y-150732380D01*
X93273690Y-150732380D01*
X94273690Y-150732380D02*
X94398690Y-149732380D01*
X94636785Y-149732380D01*
X94773690Y-149780000D01*
X94857023Y-149875238D01*
X94892738Y-149970476D01*
X94916547Y-150160952D01*
X94898690Y-150303809D01*
X94827261Y-150494285D01*
X94767738Y-150589523D01*
X94660595Y-150684761D01*
X94511785Y-150732380D01*
X94273690Y-150732380D01*
D12*
X151370000Y-125900000D02*
G75*
G03X151370000Y-125900000I-22500000J0D01*
G01*
D13*
G36*
X132799689Y-139969732D02*
X132885819Y-139993871D01*
X132969457Y-140033538D01*
X133052637Y-140089332D01*
X133065685Y-140099514D01*
X133135085Y-140164602D01*
X133189851Y-140238114D01*
X133230309Y-140320580D01*
X133255559Y-140406611D01*
X133259568Y-140426759D01*
X133262615Y-140446361D01*
X133264486Y-140466583D01*
X133264965Y-140488588D01*
X133263836Y-140513540D01*
X133260883Y-140542604D01*
X133255892Y-140576943D01*
X133248647Y-140617723D01*
X133238932Y-140666108D01*
X133226531Y-140723261D01*
X133211229Y-140790346D01*
X133192810Y-140868529D01*
X133171060Y-140958973D01*
X133145761Y-141062843D01*
X133116700Y-141181302D01*
X133098212Y-141256431D01*
X132947045Y-141855183D01*
X132789252Y-142450813D01*
X132625824Y-143039739D01*
X132457750Y-143618375D01*
X132323468Y-144062196D01*
X132289368Y-144172429D01*
X132259455Y-144267815D01*
X132233136Y-144349744D01*
X132209818Y-144419608D01*
X132188907Y-144478797D01*
X132169811Y-144528704D01*
X132151936Y-144570718D01*
X132134689Y-144606231D01*
X132117476Y-144636634D01*
X132099706Y-144663318D01*
X132080784Y-144687674D01*
X132060117Y-144711094D01*
X132037112Y-144734968D01*
X132036192Y-144735895D01*
X131998295Y-144772234D01*
X131965043Y-144799303D01*
X131930785Y-144821274D01*
X131896141Y-144839305D01*
X131804895Y-144874576D01*
X131709531Y-144894594D01*
X131612888Y-144899006D01*
X131517803Y-144887455D01*
X131515268Y-144886915D01*
X131415435Y-144857363D01*
X131324945Y-144813819D01*
X131244107Y-144756457D01*
X131189321Y-144703732D01*
X131172110Y-144683513D01*
X131153766Y-144658905D01*
X131133671Y-144628780D01*
X131111208Y-144592010D01*
X131085761Y-144547466D01*
X131056713Y-144494022D01*
X131023447Y-144430548D01*
X130985346Y-144355916D01*
X130941793Y-144268999D01*
X130892171Y-144168668D01*
X130852387Y-144087588D01*
X130697475Y-143768193D01*
X130550772Y-143459699D01*
X130410893Y-143159060D01*
X130276453Y-142863231D01*
X130146068Y-142569165D01*
X130018354Y-142273817D01*
X129893765Y-141978552D01*
X129846403Y-141864363D01*
X129799405Y-141749890D01*
X129753279Y-141636428D01*
X129708527Y-141525277D01*
X129665656Y-141417735D01*
X129625171Y-141315098D01*
X129587577Y-141218666D01*
X129553379Y-141129735D01*
X129523083Y-141049604D01*
X129497193Y-140979571D01*
X129476214Y-140920933D01*
X129460653Y-140874989D01*
X129451014Y-140843036D01*
X129449609Y-140837471D01*
X129437770Y-140752213D01*
X129441561Y-140666711D01*
X129459802Y-140582695D01*
X129491309Y-140501894D01*
X129534902Y-140426037D01*
X129589398Y-140356854D01*
X129653617Y-140296075D01*
X129726375Y-140245427D01*
X129806492Y-140206642D01*
X129892785Y-140181448D01*
X129898674Y-140180305D01*
X129989294Y-140170670D01*
X130079922Y-140175077D01*
X130166806Y-140193050D01*
X130246191Y-140224111D01*
X130247082Y-140224561D01*
X130297257Y-140257011D01*
X130348349Y-140302766D01*
X130397660Y-140358596D01*
X130442490Y-140421267D01*
X130480143Y-140487549D01*
X130496238Y-140522968D01*
X130534987Y-140616037D01*
X130574784Y-140709981D01*
X130616370Y-140806462D01*
X130660489Y-140907144D01*
X130707883Y-141013689D01*
X130759296Y-141127761D01*
X130815470Y-141251024D01*
X130877149Y-141385139D01*
X130945075Y-141531770D01*
X130990253Y-141628841D01*
X131025943Y-141704998D01*
X131064175Y-141785841D01*
X131104288Y-141870026D01*
X131145622Y-141956209D01*
X131187515Y-142043046D01*
X131229307Y-142129194D01*
X131270335Y-142213307D01*
X131309940Y-142294042D01*
X131347461Y-142370056D01*
X131382236Y-142440004D01*
X131413604Y-142502542D01*
X131440904Y-142556325D01*
X131463476Y-142600012D01*
X131480658Y-142632256D01*
X131491790Y-142651714D01*
X131496016Y-142657198D01*
X131501934Y-142649727D01*
X131510569Y-142630068D01*
X131520126Y-142602347D01*
X131520828Y-142600067D01*
X131572896Y-142429033D01*
X131621053Y-142270077D01*
X131665954Y-142120927D01*
X131708257Y-141979314D01*
X131748617Y-141842964D01*
X131787692Y-141709607D01*
X131826137Y-141576972D01*
X131864609Y-141442786D01*
X131903766Y-141304779D01*
X131944262Y-141160680D01*
X131986755Y-141008216D01*
X132031901Y-140845116D01*
X132080356Y-140669110D01*
X132107318Y-140570860D01*
X132132158Y-140481352D01*
X132153774Y-140406416D01*
X132172938Y-140344174D01*
X132190419Y-140292748D01*
X132206990Y-140250262D01*
X132223422Y-140214836D01*
X132240485Y-140184593D01*
X132258951Y-140157656D01*
X132279590Y-140132147D01*
X132294174Y-140115835D01*
X132348387Y-140064412D01*
X132406586Y-140024893D01*
X132471900Y-139995801D01*
X132547455Y-139975656D01*
X132611812Y-139965638D01*
X132709031Y-139960521D01*
X132799689Y-139969732D01*
X132799689Y-139969732D01*
G37*
X132799689Y-139969732D02*
X132885819Y-139993871D01*
X132969457Y-140033538D01*
X133052637Y-140089332D01*
X133065685Y-140099514D01*
X133135085Y-140164602D01*
X133189851Y-140238114D01*
X133230309Y-140320580D01*
X133255559Y-140406611D01*
X133259568Y-140426759D01*
X133262615Y-140446361D01*
X133264486Y-140466583D01*
X133264965Y-140488588D01*
X133263836Y-140513540D01*
X133260883Y-140542604D01*
X133255892Y-140576943D01*
X133248647Y-140617723D01*
X133238932Y-140666108D01*
X133226531Y-140723261D01*
X133211229Y-140790346D01*
X133192810Y-140868529D01*
X133171060Y-140958973D01*
X133145761Y-141062843D01*
X133116700Y-141181302D01*
X133098212Y-141256431D01*
X132947045Y-141855183D01*
X132789252Y-142450813D01*
X132625824Y-143039739D01*
X132457750Y-143618375D01*
X132323468Y-144062196D01*
X132289368Y-144172429D01*
X132259455Y-144267815D01*
X132233136Y-144349744D01*
X132209818Y-144419608D01*
X132188907Y-144478797D01*
X132169811Y-144528704D01*
X132151936Y-144570718D01*
X132134689Y-144606231D01*
X132117476Y-144636634D01*
X132099706Y-144663318D01*
X132080784Y-144687674D01*
X132060117Y-144711094D01*
X132037112Y-144734968D01*
X132036192Y-144735895D01*
X131998295Y-144772234D01*
X131965043Y-144799303D01*
X131930785Y-144821274D01*
X131896141Y-144839305D01*
X131804895Y-144874576D01*
X131709531Y-144894594D01*
X131612888Y-144899006D01*
X131517803Y-144887455D01*
X131515268Y-144886915D01*
X131415435Y-144857363D01*
X131324945Y-144813819D01*
X131244107Y-144756457D01*
X131189321Y-144703732D01*
X131172110Y-144683513D01*
X131153766Y-144658905D01*
X131133671Y-144628780D01*
X131111208Y-144592010D01*
X131085761Y-144547466D01*
X131056713Y-144494022D01*
X131023447Y-144430548D01*
X130985346Y-144355916D01*
X130941793Y-144268999D01*
X130892171Y-144168668D01*
X130852387Y-144087588D01*
X130697475Y-143768193D01*
X130550772Y-143459699D01*
X130410893Y-143159060D01*
X130276453Y-142863231D01*
X130146068Y-142569165D01*
X130018354Y-142273817D01*
X129893765Y-141978552D01*
X129846403Y-141864363D01*
X129799405Y-141749890D01*
X129753279Y-141636428D01*
X129708527Y-141525277D01*
X129665656Y-141417735D01*
X129625171Y-141315098D01*
X129587577Y-141218666D01*
X129553379Y-141129735D01*
X129523083Y-141049604D01*
X129497193Y-140979571D01*
X129476214Y-140920933D01*
X129460653Y-140874989D01*
X129451014Y-140843036D01*
X129449609Y-140837471D01*
X129437770Y-140752213D01*
X129441561Y-140666711D01*
X129459802Y-140582695D01*
X129491309Y-140501894D01*
X129534902Y-140426037D01*
X129589398Y-140356854D01*
X129653617Y-140296075D01*
X129726375Y-140245427D01*
X129806492Y-140206642D01*
X129892785Y-140181448D01*
X129898674Y-140180305D01*
X129989294Y-140170670D01*
X130079922Y-140175077D01*
X130166806Y-140193050D01*
X130246191Y-140224111D01*
X130247082Y-140224561D01*
X130297257Y-140257011D01*
X130348349Y-140302766D01*
X130397660Y-140358596D01*
X130442490Y-140421267D01*
X130480143Y-140487549D01*
X130496238Y-140522968D01*
X130534987Y-140616037D01*
X130574784Y-140709981D01*
X130616370Y-140806462D01*
X130660489Y-140907144D01*
X130707883Y-141013689D01*
X130759296Y-141127761D01*
X130815470Y-141251024D01*
X130877149Y-141385139D01*
X130945075Y-141531770D01*
X130990253Y-141628841D01*
X131025943Y-141704998D01*
X131064175Y-141785841D01*
X131104288Y-141870026D01*
X131145622Y-141956209D01*
X131187515Y-142043046D01*
X131229307Y-142129194D01*
X131270335Y-142213307D01*
X131309940Y-142294042D01*
X131347461Y-142370056D01*
X131382236Y-142440004D01*
X131413604Y-142502542D01*
X131440904Y-142556325D01*
X131463476Y-142600012D01*
X131480658Y-142632256D01*
X131491790Y-142651714D01*
X131496016Y-142657198D01*
X131501934Y-142649727D01*
X131510569Y-142630068D01*
X131520126Y-142602347D01*
X131520828Y-142600067D01*
X131572896Y-142429033D01*
X131621053Y-142270077D01*
X131665954Y-142120927D01*
X131708257Y-141979314D01*
X131748617Y-141842964D01*
X131787692Y-141709607D01*
X131826137Y-141576972D01*
X131864609Y-141442786D01*
X131903766Y-141304779D01*
X131944262Y-141160680D01*
X131986755Y-141008216D01*
X132031901Y-140845116D01*
X132080356Y-140669110D01*
X132107318Y-140570860D01*
X132132158Y-140481352D01*
X132153774Y-140406416D01*
X132172938Y-140344174D01*
X132190419Y-140292748D01*
X132206990Y-140250262D01*
X132223422Y-140214836D01*
X132240485Y-140184593D01*
X132258951Y-140157656D01*
X132279590Y-140132147D01*
X132294174Y-140115835D01*
X132348387Y-140064412D01*
X132406586Y-140024893D01*
X132471900Y-139995801D01*
X132547455Y-139975656D01*
X132611812Y-139965638D01*
X132709031Y-139960521D01*
X132799689Y-139969732D01*
G36*
X125649755Y-139934440D02*
X125758916Y-139948164D01*
X125856292Y-139973949D01*
X125942115Y-140011935D01*
X126016619Y-140062264D01*
X126080036Y-140125075D01*
X126132600Y-140200508D01*
X126152044Y-140237109D01*
X126180894Y-140302458D01*
X126199599Y-140361965D01*
X126209219Y-140421435D01*
X126210819Y-140486670D01*
X126207592Y-140540567D01*
X126205080Y-140568894D01*
X126201830Y-140603378D01*
X126197765Y-140644746D01*
X126192804Y-140693726D01*
X126186871Y-140751044D01*
X126179887Y-140817426D01*
X126171773Y-140893601D01*
X126162451Y-140980294D01*
X126151842Y-141078233D01*
X126139869Y-141188145D01*
X126126453Y-141310756D01*
X126111516Y-141446794D01*
X126094978Y-141596984D01*
X126076763Y-141762055D01*
X126056790Y-141942733D01*
X126042353Y-142073192D01*
X126026677Y-142214893D01*
X126012786Y-142340803D01*
X126000586Y-142451953D01*
X125989979Y-142549375D01*
X125980871Y-142634101D01*
X125973168Y-142707162D01*
X125966772Y-142769591D01*
X125961589Y-142822418D01*
X125957523Y-142866677D01*
X125954479Y-142903397D01*
X125952362Y-142933612D01*
X125951076Y-142958352D01*
X125950526Y-142978650D01*
X125950616Y-142995536D01*
X125951252Y-143010044D01*
X125952336Y-143023204D01*
X125953518Y-143033913D01*
X125974416Y-143139694D01*
X126010615Y-143240319D01*
X126060986Y-143334705D01*
X126124401Y-143421770D01*
X126199730Y-143500434D01*
X126285846Y-143569613D01*
X126381618Y-143628226D01*
X126485919Y-143675192D01*
X126597619Y-143709427D01*
X126673949Y-143724387D01*
X126714241Y-143728446D01*
X126767371Y-143730552D01*
X126829352Y-143730596D01*
X126868617Y-143729606D01*
X126970436Y-143722869D01*
X127060031Y-143709462D01*
X127141171Y-143688271D01*
X127217624Y-143658180D01*
X127293156Y-143618076D01*
X127335574Y-143591411D01*
X127434226Y-143516643D01*
X127520560Y-143431003D01*
X127593781Y-143335585D01*
X127653098Y-143231480D01*
X127697719Y-143119779D01*
X127711063Y-143074024D01*
X127713999Y-143060979D01*
X127717013Y-143043547D01*
X127720162Y-143020954D01*
X127723504Y-142992426D01*
X127727096Y-142957188D01*
X127730994Y-142914466D01*
X127735256Y-142863485D01*
X127739939Y-142803470D01*
X127745100Y-142733648D01*
X127750795Y-142653243D01*
X127757082Y-142561481D01*
X127764018Y-142457587D01*
X127771660Y-142340788D01*
X127780065Y-142210308D01*
X127789290Y-142065372D01*
X127799391Y-141905208D01*
X127810427Y-141729039D01*
X127812218Y-141700368D01*
X127822268Y-141539304D01*
X127831336Y-141394217D01*
X127839513Y-141264194D01*
X127846893Y-141148318D01*
X127853569Y-141045674D01*
X127859633Y-140955348D01*
X127865177Y-140876423D01*
X127870295Y-140807984D01*
X127875080Y-140749117D01*
X127879622Y-140698905D01*
X127884017Y-140656434D01*
X127888356Y-140620788D01*
X127892731Y-140591052D01*
X127897236Y-140566311D01*
X127901963Y-140545648D01*
X127907006Y-140528150D01*
X127912455Y-140512900D01*
X127918406Y-140498984D01*
X127924949Y-140485486D01*
X127932178Y-140471491D01*
X127937736Y-140460830D01*
X127985924Y-140385423D01*
X128047144Y-140317949D01*
X128118590Y-140260728D01*
X128197451Y-140216080D01*
X128264572Y-140190802D01*
X128299851Y-140183880D01*
X128347022Y-140179413D01*
X128401225Y-140177413D01*
X128457603Y-140177891D01*
X128511297Y-140180859D01*
X128557447Y-140186330D01*
X128576285Y-140190034D01*
X128659270Y-140218144D01*
X128736016Y-140261331D01*
X128805151Y-140318457D01*
X128865304Y-140388386D01*
X128915102Y-140469981D01*
X128915781Y-140471323D01*
X128923586Y-140486658D01*
X128930527Y-140500633D01*
X128936636Y-140514276D01*
X128941948Y-140528614D01*
X128946498Y-140544676D01*
X128950319Y-140563490D01*
X128953447Y-140586083D01*
X128955914Y-140613484D01*
X128957757Y-140646721D01*
X128959008Y-140686821D01*
X128959703Y-140734813D01*
X128959876Y-140791725D01*
X128959560Y-140858584D01*
X128958791Y-140936418D01*
X128957602Y-141026257D01*
X128956028Y-141129127D01*
X128954104Y-141246056D01*
X128951862Y-141378074D01*
X128949896Y-141493419D01*
X128946078Y-141714885D01*
X128942434Y-141919791D01*
X128938956Y-142108503D01*
X128935634Y-142281388D01*
X128932459Y-142438812D01*
X128929424Y-142581143D01*
X128926518Y-142708745D01*
X128923734Y-142821987D01*
X128921062Y-142921234D01*
X128918494Y-143006854D01*
X128916020Y-143079212D01*
X128913633Y-143138674D01*
X128911322Y-143185609D01*
X128909080Y-143220381D01*
X128908037Y-143232739D01*
X128892627Y-143338914D01*
X128866283Y-143452942D01*
X128830379Y-143571059D01*
X128786292Y-143689500D01*
X128735396Y-143804498D01*
X128679067Y-143912288D01*
X128631377Y-143990253D01*
X128525163Y-144135976D01*
X128406074Y-144271008D01*
X128274884Y-144394675D01*
X128132366Y-144506298D01*
X127979293Y-144605203D01*
X127847184Y-144675976D01*
X127701255Y-144741105D01*
X127555088Y-144793232D01*
X127405471Y-144833172D01*
X127249196Y-144861741D01*
X127083052Y-144879756D01*
X127032612Y-144883121D01*
X126984053Y-144885819D01*
X126940496Y-144888014D01*
X126905143Y-144889561D01*
X126881196Y-144890317D01*
X126872849Y-144890292D01*
X126858324Y-144889378D01*
X126830655Y-144887676D01*
X126793598Y-144885416D01*
X126750907Y-144882828D01*
X126743491Y-144882380D01*
X126544879Y-144863182D01*
X126354070Y-144830146D01*
X126171822Y-144783460D01*
X125998888Y-144723312D01*
X125862277Y-144662962D01*
X125726520Y-144591126D01*
X125603104Y-144513587D01*
X125487638Y-144427222D01*
X125375734Y-144328902D01*
X125327826Y-144282379D01*
X125203723Y-144147204D01*
X125093954Y-144003808D01*
X124998880Y-143852858D01*
X124918860Y-143695018D01*
X124854254Y-143530955D01*
X124805424Y-143361332D01*
X124789542Y-143287754D01*
X124782385Y-143249943D01*
X124776870Y-143217060D01*
X124772778Y-143185974D01*
X124769895Y-143153558D01*
X124768004Y-143116681D01*
X124766887Y-143072216D01*
X124766329Y-143017033D01*
X124766115Y-142949200D01*
X124765999Y-142915835D01*
X124765839Y-142886179D01*
X124765751Y-142859239D01*
X124765852Y-142834022D01*
X124766256Y-142809534D01*
X124767080Y-142784783D01*
X124768440Y-142758775D01*
X124770452Y-142730518D01*
X124773232Y-142699018D01*
X124776895Y-142663282D01*
X124781558Y-142622317D01*
X124787337Y-142575129D01*
X124794347Y-142520727D01*
X124802705Y-142458115D01*
X124812526Y-142386303D01*
X124823927Y-142304295D01*
X124837023Y-142211099D01*
X124851931Y-142105723D01*
X124868765Y-141987172D01*
X124887643Y-141854454D01*
X124908680Y-141706576D01*
X124922739Y-141607681D01*
X124947316Y-141434705D01*
X124969644Y-141277653D01*
X124989871Y-141135689D01*
X125008144Y-141007979D01*
X125024610Y-140893689D01*
X125039417Y-140791984D01*
X125052714Y-140702031D01*
X125064646Y-140622994D01*
X125075363Y-140554040D01*
X125085011Y-140494335D01*
X125093739Y-140443043D01*
X125101693Y-140399331D01*
X125109021Y-140362363D01*
X125115871Y-140331307D01*
X125122391Y-140305328D01*
X125128727Y-140283590D01*
X125135028Y-140265261D01*
X125141441Y-140249505D01*
X125148114Y-140235488D01*
X125155195Y-140222377D01*
X125162830Y-140209336D01*
X125171168Y-140195531D01*
X125173086Y-140192349D01*
X125227345Y-140117405D01*
X125292232Y-140053773D01*
X125365805Y-140002504D01*
X125446123Y-139964647D01*
X125531244Y-139941255D01*
X125619227Y-139933377D01*
X125649755Y-139934440D01*
X125649755Y-139934440D01*
G37*
X125649755Y-139934440D02*
X125758916Y-139948164D01*
X125856292Y-139973949D01*
X125942115Y-140011935D01*
X126016619Y-140062264D01*
X126080036Y-140125075D01*
X126132600Y-140200508D01*
X126152044Y-140237109D01*
X126180894Y-140302458D01*
X126199599Y-140361965D01*
X126209219Y-140421435D01*
X126210819Y-140486670D01*
X126207592Y-140540567D01*
X126205080Y-140568894D01*
X126201830Y-140603378D01*
X126197765Y-140644746D01*
X126192804Y-140693726D01*
X126186871Y-140751044D01*
X126179887Y-140817426D01*
X126171773Y-140893601D01*
X126162451Y-140980294D01*
X126151842Y-141078233D01*
X126139869Y-141188145D01*
X126126453Y-141310756D01*
X126111516Y-141446794D01*
X126094978Y-141596984D01*
X126076763Y-141762055D01*
X126056790Y-141942733D01*
X126042353Y-142073192D01*
X126026677Y-142214893D01*
X126012786Y-142340803D01*
X126000586Y-142451953D01*
X125989979Y-142549375D01*
X125980871Y-142634101D01*
X125973168Y-142707162D01*
X125966772Y-142769591D01*
X125961589Y-142822418D01*
X125957523Y-142866677D01*
X125954479Y-142903397D01*
X125952362Y-142933612D01*
X125951076Y-142958352D01*
X125950526Y-142978650D01*
X125950616Y-142995536D01*
X125951252Y-143010044D01*
X125952336Y-143023204D01*
X125953518Y-143033913D01*
X125974416Y-143139694D01*
X126010615Y-143240319D01*
X126060986Y-143334705D01*
X126124401Y-143421770D01*
X126199730Y-143500434D01*
X126285846Y-143569613D01*
X126381618Y-143628226D01*
X126485919Y-143675192D01*
X126597619Y-143709427D01*
X126673949Y-143724387D01*
X126714241Y-143728446D01*
X126767371Y-143730552D01*
X126829352Y-143730596D01*
X126868617Y-143729606D01*
X126970436Y-143722869D01*
X127060031Y-143709462D01*
X127141171Y-143688271D01*
X127217624Y-143658180D01*
X127293156Y-143618076D01*
X127335574Y-143591411D01*
X127434226Y-143516643D01*
X127520560Y-143431003D01*
X127593781Y-143335585D01*
X127653098Y-143231480D01*
X127697719Y-143119779D01*
X127711063Y-143074024D01*
X127713999Y-143060979D01*
X127717013Y-143043547D01*
X127720162Y-143020954D01*
X127723504Y-142992426D01*
X127727096Y-142957188D01*
X127730994Y-142914466D01*
X127735256Y-142863485D01*
X127739939Y-142803470D01*
X127745100Y-142733648D01*
X127750795Y-142653243D01*
X127757082Y-142561481D01*
X127764018Y-142457587D01*
X127771660Y-142340788D01*
X127780065Y-142210308D01*
X127789290Y-142065372D01*
X127799391Y-141905208D01*
X127810427Y-141729039D01*
X127812218Y-141700368D01*
X127822268Y-141539304D01*
X127831336Y-141394217D01*
X127839513Y-141264194D01*
X127846893Y-141148318D01*
X127853569Y-141045674D01*
X127859633Y-140955348D01*
X127865177Y-140876423D01*
X127870295Y-140807984D01*
X127875080Y-140749117D01*
X127879622Y-140698905D01*
X127884017Y-140656434D01*
X127888356Y-140620788D01*
X127892731Y-140591052D01*
X127897236Y-140566311D01*
X127901963Y-140545648D01*
X127907006Y-140528150D01*
X127912455Y-140512900D01*
X127918406Y-140498984D01*
X127924949Y-140485486D01*
X127932178Y-140471491D01*
X127937736Y-140460830D01*
X127985924Y-140385423D01*
X128047144Y-140317949D01*
X128118590Y-140260728D01*
X128197451Y-140216080D01*
X128264572Y-140190802D01*
X128299851Y-140183880D01*
X128347022Y-140179413D01*
X128401225Y-140177413D01*
X128457603Y-140177891D01*
X128511297Y-140180859D01*
X128557447Y-140186330D01*
X128576285Y-140190034D01*
X128659270Y-140218144D01*
X128736016Y-140261331D01*
X128805151Y-140318457D01*
X128865304Y-140388386D01*
X128915102Y-140469981D01*
X128915781Y-140471323D01*
X128923586Y-140486658D01*
X128930527Y-140500633D01*
X128936636Y-140514276D01*
X128941948Y-140528614D01*
X128946498Y-140544676D01*
X128950319Y-140563490D01*
X128953447Y-140586083D01*
X128955914Y-140613484D01*
X128957757Y-140646721D01*
X128959008Y-140686821D01*
X128959703Y-140734813D01*
X128959876Y-140791725D01*
X128959560Y-140858584D01*
X128958791Y-140936418D01*
X128957602Y-141026257D01*
X128956028Y-141129127D01*
X128954104Y-141246056D01*
X128951862Y-141378074D01*
X128949896Y-141493419D01*
X128946078Y-141714885D01*
X128942434Y-141919791D01*
X128938956Y-142108503D01*
X128935634Y-142281388D01*
X128932459Y-142438812D01*
X128929424Y-142581143D01*
X128926518Y-142708745D01*
X128923734Y-142821987D01*
X128921062Y-142921234D01*
X128918494Y-143006854D01*
X128916020Y-143079212D01*
X128913633Y-143138674D01*
X128911322Y-143185609D01*
X128909080Y-143220381D01*
X128908037Y-143232739D01*
X128892627Y-143338914D01*
X128866283Y-143452942D01*
X128830379Y-143571059D01*
X128786292Y-143689500D01*
X128735396Y-143804498D01*
X128679067Y-143912288D01*
X128631377Y-143990253D01*
X128525163Y-144135976D01*
X128406074Y-144271008D01*
X128274884Y-144394675D01*
X128132366Y-144506298D01*
X127979293Y-144605203D01*
X127847184Y-144675976D01*
X127701255Y-144741105D01*
X127555088Y-144793232D01*
X127405471Y-144833172D01*
X127249196Y-144861741D01*
X127083052Y-144879756D01*
X127032612Y-144883121D01*
X126984053Y-144885819D01*
X126940496Y-144888014D01*
X126905143Y-144889561D01*
X126881196Y-144890317D01*
X126872849Y-144890292D01*
X126858324Y-144889378D01*
X126830655Y-144887676D01*
X126793598Y-144885416D01*
X126750907Y-144882828D01*
X126743491Y-144882380D01*
X126544879Y-144863182D01*
X126354070Y-144830146D01*
X126171822Y-144783460D01*
X125998888Y-144723312D01*
X125862277Y-144662962D01*
X125726520Y-144591126D01*
X125603104Y-144513587D01*
X125487638Y-144427222D01*
X125375734Y-144328902D01*
X125327826Y-144282379D01*
X125203723Y-144147204D01*
X125093954Y-144003808D01*
X124998880Y-143852858D01*
X124918860Y-143695018D01*
X124854254Y-143530955D01*
X124805424Y-143361332D01*
X124789542Y-143287754D01*
X124782385Y-143249943D01*
X124776870Y-143217060D01*
X124772778Y-143185974D01*
X124769895Y-143153558D01*
X124768004Y-143116681D01*
X124766887Y-143072216D01*
X124766329Y-143017033D01*
X124766115Y-142949200D01*
X124765999Y-142915835D01*
X124765839Y-142886179D01*
X124765751Y-142859239D01*
X124765852Y-142834022D01*
X124766256Y-142809534D01*
X124767080Y-142784783D01*
X124768440Y-142758775D01*
X124770452Y-142730518D01*
X124773232Y-142699018D01*
X124776895Y-142663282D01*
X124781558Y-142622317D01*
X124787337Y-142575129D01*
X124794347Y-142520727D01*
X124802705Y-142458115D01*
X124812526Y-142386303D01*
X124823927Y-142304295D01*
X124837023Y-142211099D01*
X124851931Y-142105723D01*
X124868765Y-141987172D01*
X124887643Y-141854454D01*
X124908680Y-141706576D01*
X124922739Y-141607681D01*
X124947316Y-141434705D01*
X124969644Y-141277653D01*
X124989871Y-141135689D01*
X125008144Y-141007979D01*
X125024610Y-140893689D01*
X125039417Y-140791984D01*
X125052714Y-140702031D01*
X125064646Y-140622994D01*
X125075363Y-140554040D01*
X125085011Y-140494335D01*
X125093739Y-140443043D01*
X125101693Y-140399331D01*
X125109021Y-140362363D01*
X125115871Y-140331307D01*
X125122391Y-140305328D01*
X125128727Y-140283590D01*
X125135028Y-140265261D01*
X125141441Y-140249505D01*
X125148114Y-140235488D01*
X125155195Y-140222377D01*
X125162830Y-140209336D01*
X125171168Y-140195531D01*
X125173086Y-140192349D01*
X125227345Y-140117405D01*
X125292232Y-140053773D01*
X125365805Y-140002504D01*
X125446123Y-139964647D01*
X125531244Y-139941255D01*
X125619227Y-139933377D01*
X125649755Y-139934440D01*
G36*
X134768574Y-141630196D02*
X134819953Y-141633991D01*
X134858487Y-141640386D01*
X134939644Y-141668338D01*
X135010747Y-141709567D01*
X135072035Y-141764311D01*
X135123751Y-141832810D01*
X135166134Y-141915302D01*
X135184825Y-141964574D01*
X135192115Y-141988571D01*
X135200525Y-142021180D01*
X135210165Y-142063014D01*
X135221148Y-142114682D01*
X135233583Y-142176798D01*
X135247582Y-142249972D01*
X135263256Y-142334815D01*
X135280715Y-142431940D01*
X135300071Y-142541958D01*
X135321434Y-142665479D01*
X135344916Y-142803117D01*
X135370627Y-142955481D01*
X135398679Y-143123184D01*
X135429181Y-143306837D01*
X135437928Y-143359697D01*
X135457406Y-143477687D01*
X135474209Y-143580322D01*
X135488440Y-143668946D01*
X135500205Y-143744900D01*
X135509610Y-143809527D01*
X135516761Y-143864171D01*
X135521761Y-143910174D01*
X135524718Y-143948879D01*
X135525735Y-143981628D01*
X135524919Y-144009764D01*
X135522375Y-144034631D01*
X135518208Y-144057570D01*
X135512524Y-144079925D01*
X135505427Y-144103038D01*
X135498003Y-144125352D01*
X135460809Y-144210174D01*
X135410118Y-144285424D01*
X135346730Y-144350600D01*
X135271441Y-144405198D01*
X135185050Y-144448715D01*
X135088354Y-144480648D01*
X134982151Y-144500494D01*
X134892343Y-144507287D01*
X134819846Y-144507586D01*
X134763380Y-144503573D01*
X134735762Y-144498794D01*
X134678815Y-144483081D01*
X134622418Y-144462934D01*
X134572039Y-144440526D01*
X134534016Y-144418632D01*
X134486534Y-144379559D01*
X134440002Y-144329961D01*
X134399442Y-144275746D01*
X134372758Y-144229068D01*
X134366514Y-144216080D01*
X134360892Y-144204286D01*
X134355731Y-144192757D01*
X134350873Y-144180564D01*
X134346158Y-144166775D01*
X134341427Y-144150461D01*
X134336521Y-144130692D01*
X134331280Y-144106538D01*
X134325544Y-144077070D01*
X134319156Y-144041357D01*
X134311954Y-143998469D01*
X134303780Y-143947478D01*
X134294475Y-143887451D01*
X134283880Y-143817461D01*
X134271834Y-143736576D01*
X134258178Y-143643868D01*
X134242754Y-143538405D01*
X134225402Y-143419259D01*
X134205963Y-143285499D01*
X134184277Y-143136195D01*
X134177399Y-143088854D01*
X134157769Y-142953683D01*
X134140442Y-142834134D01*
X134125274Y-142729081D01*
X134112122Y-142637395D01*
X134100840Y-142557949D01*
X134091284Y-142489616D01*
X134083312Y-142431269D01*
X134076778Y-142381780D01*
X134071539Y-142340021D01*
X134067451Y-142304865D01*
X134064369Y-142275186D01*
X134062150Y-142249854D01*
X134060649Y-142227744D01*
X134059723Y-142207727D01*
X134059227Y-142188676D01*
X134059017Y-142169464D01*
X134058983Y-142162063D01*
X134062623Y-142084601D01*
X134075002Y-142017557D01*
X134097420Y-141956147D01*
X134131174Y-141895585D01*
X134131351Y-141895311D01*
X134189471Y-141820811D01*
X134260174Y-141757322D01*
X134342831Y-141705277D01*
X134436809Y-141665111D01*
X134490310Y-141648965D01*
X134533456Y-141640536D01*
X134587462Y-141634337D01*
X134647721Y-141630476D01*
X134709627Y-141629060D01*
X134768574Y-141630196D01*
X134768574Y-141630196D01*
G37*
X134768574Y-141630196D02*
X134819953Y-141633991D01*
X134858487Y-141640386D01*
X134939644Y-141668338D01*
X135010747Y-141709567D01*
X135072035Y-141764311D01*
X135123751Y-141832810D01*
X135166134Y-141915302D01*
X135184825Y-141964574D01*
X135192115Y-141988571D01*
X135200525Y-142021180D01*
X135210165Y-142063014D01*
X135221148Y-142114682D01*
X135233583Y-142176798D01*
X135247582Y-142249972D01*
X135263256Y-142334815D01*
X135280715Y-142431940D01*
X135300071Y-142541958D01*
X135321434Y-142665479D01*
X135344916Y-142803117D01*
X135370627Y-142955481D01*
X135398679Y-143123184D01*
X135429181Y-143306837D01*
X135437928Y-143359697D01*
X135457406Y-143477687D01*
X135474209Y-143580322D01*
X135488440Y-143668946D01*
X135500205Y-143744900D01*
X135509610Y-143809527D01*
X135516761Y-143864171D01*
X135521761Y-143910174D01*
X135524718Y-143948879D01*
X135525735Y-143981628D01*
X135524919Y-144009764D01*
X135522375Y-144034631D01*
X135518208Y-144057570D01*
X135512524Y-144079925D01*
X135505427Y-144103038D01*
X135498003Y-144125352D01*
X135460809Y-144210174D01*
X135410118Y-144285424D01*
X135346730Y-144350600D01*
X135271441Y-144405198D01*
X135185050Y-144448715D01*
X135088354Y-144480648D01*
X134982151Y-144500494D01*
X134892343Y-144507287D01*
X134819846Y-144507586D01*
X134763380Y-144503573D01*
X134735762Y-144498794D01*
X134678815Y-144483081D01*
X134622418Y-144462934D01*
X134572039Y-144440526D01*
X134534016Y-144418632D01*
X134486534Y-144379559D01*
X134440002Y-144329961D01*
X134399442Y-144275746D01*
X134372758Y-144229068D01*
X134366514Y-144216080D01*
X134360892Y-144204286D01*
X134355731Y-144192757D01*
X134350873Y-144180564D01*
X134346158Y-144166775D01*
X134341427Y-144150461D01*
X134336521Y-144130692D01*
X134331280Y-144106538D01*
X134325544Y-144077070D01*
X134319156Y-144041357D01*
X134311954Y-143998469D01*
X134303780Y-143947478D01*
X134294475Y-143887451D01*
X134283880Y-143817461D01*
X134271834Y-143736576D01*
X134258178Y-143643868D01*
X134242754Y-143538405D01*
X134225402Y-143419259D01*
X134205963Y-143285499D01*
X134184277Y-143136195D01*
X134177399Y-143088854D01*
X134157769Y-142953683D01*
X134140442Y-142834134D01*
X134125274Y-142729081D01*
X134112122Y-142637395D01*
X134100840Y-142557949D01*
X134091284Y-142489616D01*
X134083312Y-142431269D01*
X134076778Y-142381780D01*
X134071539Y-142340021D01*
X134067451Y-142304865D01*
X134064369Y-142275186D01*
X134062150Y-142249854D01*
X134060649Y-142227744D01*
X134059723Y-142207727D01*
X134059227Y-142188676D01*
X134059017Y-142169464D01*
X134058983Y-142162063D01*
X134062623Y-142084601D01*
X134075002Y-142017557D01*
X134097420Y-141956147D01*
X134131174Y-141895585D01*
X134131351Y-141895311D01*
X134189471Y-141820811D01*
X134260174Y-141757322D01*
X134342831Y-141705277D01*
X134436809Y-141665111D01*
X134490310Y-141648965D01*
X134533456Y-141640536D01*
X134587462Y-141634337D01*
X134647721Y-141630476D01*
X134709627Y-141629060D01*
X134768574Y-141630196D01*
G36*
X121256924Y-139156311D02*
X121265281Y-139157850D01*
X121358741Y-139180224D01*
X121439335Y-139210102D01*
X121510038Y-139249030D01*
X121573830Y-139298555D01*
X121615324Y-139339661D01*
X121669122Y-139408046D01*
X121709743Y-139483683D01*
X121738942Y-139569863D01*
X121739674Y-139572702D01*
X121743781Y-139588213D01*
X121747559Y-139602217D01*
X121750876Y-139615498D01*
X121753599Y-139628840D01*
X121755595Y-139643027D01*
X121756730Y-139658843D01*
X121756873Y-139677073D01*
X121755890Y-139698501D01*
X121753648Y-139723910D01*
X121750015Y-139754085D01*
X121744857Y-139789810D01*
X121738042Y-139831870D01*
X121729436Y-139881047D01*
X121718908Y-139938127D01*
X121706323Y-140003894D01*
X121691549Y-140079131D01*
X121674454Y-140164624D01*
X121654904Y-140261155D01*
X121632766Y-140369509D01*
X121607908Y-140490471D01*
X121580197Y-140624824D01*
X121549499Y-140773352D01*
X121515682Y-140936841D01*
X121478613Y-141116073D01*
X121475842Y-141129474D01*
X121445752Y-141275403D01*
X121417300Y-141414154D01*
X121390653Y-141544884D01*
X121365978Y-141666751D01*
X121343442Y-141778914D01*
X121323210Y-141880530D01*
X121305450Y-141970758D01*
X121290328Y-142048756D01*
X121278011Y-142113682D01*
X121268665Y-142164695D01*
X121262457Y-142200952D01*
X121259553Y-142221612D01*
X121259414Y-142223283D01*
X121260981Y-142323358D01*
X121278499Y-142423616D01*
X121311108Y-142522261D01*
X121357948Y-142617497D01*
X121418158Y-142707527D01*
X121490880Y-142790555D01*
X121561349Y-142853850D01*
X121661701Y-142923792D01*
X121769875Y-142978833D01*
X121885386Y-143018823D01*
X122007745Y-143043608D01*
X122136466Y-143053038D01*
X122196575Y-143052221D01*
X122321482Y-143039525D01*
X122439651Y-143011942D01*
X122550201Y-142970022D01*
X122652254Y-142914314D01*
X122744929Y-142845367D01*
X122827348Y-142763732D01*
X122898631Y-142669959D01*
X122949601Y-142581533D01*
X122957616Y-142565522D01*
X122965021Y-142550254D01*
X122971993Y-142534883D01*
X122978705Y-142518567D01*
X122985333Y-142500460D01*
X122992052Y-142479718D01*
X122999037Y-142455497D01*
X123006464Y-142426952D01*
X123014507Y-142393239D01*
X123023342Y-142353514D01*
X123033144Y-142306932D01*
X123044087Y-142252649D01*
X123056348Y-142189820D01*
X123070101Y-142117602D01*
X123085522Y-142035150D01*
X123102785Y-141941619D01*
X123122066Y-141836165D01*
X123143540Y-141717944D01*
X123167382Y-141586112D01*
X123193767Y-141439824D01*
X123222871Y-141278235D01*
X123242033Y-141171793D01*
X123271138Y-141010159D01*
X123297438Y-140864306D01*
X123321121Y-140733351D01*
X123342378Y-140616416D01*
X123361399Y-140512619D01*
X123378373Y-140421079D01*
X123393490Y-140340917D01*
X123406940Y-140271251D01*
X123418913Y-140211202D01*
X123429598Y-140159887D01*
X123439185Y-140116428D01*
X123447864Y-140079942D01*
X123455824Y-140049551D01*
X123463256Y-140024372D01*
X123470349Y-140003526D01*
X123477292Y-139986132D01*
X123484277Y-139971309D01*
X123491491Y-139958177D01*
X123499126Y-139945856D01*
X123507370Y-139933464D01*
X123509571Y-139930219D01*
X123571352Y-139853599D01*
X123643582Y-139790297D01*
X123726244Y-139740326D01*
X123789175Y-139713690D01*
X123818220Y-139703979D01*
X123844173Y-139697553D01*
X123871933Y-139693763D01*
X123906396Y-139691963D01*
X123952463Y-139691506D01*
X123957054Y-139691508D01*
X124060115Y-139696828D01*
X124151573Y-139713049D01*
X124233349Y-139740886D01*
X124307359Y-139781053D01*
X124375524Y-139834266D01*
X124398195Y-139855944D01*
X124436836Y-139897371D01*
X124466168Y-139935992D01*
X124490990Y-139978356D01*
X124497806Y-139991820D01*
X124523150Y-140051063D01*
X124541802Y-140110927D01*
X124552744Y-140167115D01*
X124554960Y-140215328D01*
X124553703Y-140228074D01*
X124551150Y-140245149D01*
X124546192Y-140277664D01*
X124539031Y-140324334D01*
X124529865Y-140383875D01*
X124518893Y-140455000D01*
X124506316Y-140536424D01*
X124492332Y-140626862D01*
X124477141Y-140725027D01*
X124460942Y-140829636D01*
X124443935Y-140939401D01*
X124426320Y-141053038D01*
X124408295Y-141169261D01*
X124390060Y-141286785D01*
X124371815Y-141404324D01*
X124353760Y-141520593D01*
X124336092Y-141634306D01*
X124319013Y-141744178D01*
X124302721Y-141848924D01*
X124287416Y-141947257D01*
X124273298Y-142037893D01*
X124260565Y-142119546D01*
X124249418Y-142190930D01*
X124240055Y-142250761D01*
X124232676Y-142297751D01*
X124227481Y-142330618D01*
X124227366Y-142331340D01*
X124209395Y-142442959D01*
X124193291Y-142539639D01*
X124178616Y-142623211D01*
X124164932Y-142695506D01*
X124151800Y-142758354D01*
X124138781Y-142813588D01*
X124125437Y-142863036D01*
X124111329Y-142908531D01*
X124096018Y-142951903D01*
X124079067Y-142994984D01*
X124060035Y-143039603D01*
X124054920Y-143051171D01*
X123973020Y-143215748D01*
X123878898Y-143368637D01*
X123772486Y-143509907D01*
X123653717Y-143639630D01*
X123522523Y-143757874D01*
X123378836Y-143864708D01*
X123222590Y-143960204D01*
X123123366Y-144011803D01*
X123039340Y-144051508D01*
X122964297Y-144083714D01*
X122893154Y-144110343D01*
X122820827Y-144133315D01*
X122752163Y-144152030D01*
X122679709Y-144169643D01*
X122614078Y-144183298D01*
X122551022Y-144193518D01*
X122486294Y-144200822D01*
X122415646Y-144205735D01*
X122334832Y-144208777D01*
X122281213Y-144209896D01*
X122223391Y-144210679D01*
X122169967Y-144211093D01*
X122123692Y-144211140D01*
X122087319Y-144210824D01*
X122063598Y-144210149D01*
X122056921Y-144209623D01*
X122037307Y-144207102D01*
X122006215Y-144203332D01*
X121968991Y-144198958D01*
X121951123Y-144196902D01*
X121909004Y-144191337D01*
X121857529Y-144183418D01*
X121803901Y-144174302D01*
X121764918Y-144167045D01*
X121572505Y-144121653D01*
X121389573Y-144062631D01*
X121216449Y-143990221D01*
X121053461Y-143904666D01*
X120900936Y-143806210D01*
X120759201Y-143695094D01*
X120628585Y-143571562D01*
X120509414Y-143435856D01*
X120402015Y-143288219D01*
X120306717Y-143128893D01*
X120270715Y-143059230D01*
X120198410Y-142894634D01*
X120142619Y-142727044D01*
X120103415Y-142556939D01*
X120080874Y-142384801D01*
X120075071Y-142211107D01*
X120086080Y-142036338D01*
X120097747Y-141949740D01*
X120103012Y-141917542D01*
X120108955Y-141883355D01*
X120115791Y-141846211D01*
X120123731Y-141805142D01*
X120132988Y-141759178D01*
X120143776Y-141707351D01*
X120156307Y-141648694D01*
X120170794Y-141582237D01*
X120187449Y-141507012D01*
X120206486Y-141422051D01*
X120228118Y-141326385D01*
X120252556Y-141219045D01*
X120280015Y-141099064D01*
X120310706Y-140965473D01*
X120344843Y-140817303D01*
X120381219Y-140659730D01*
X120419158Y-140495489D01*
X120453499Y-140346886D01*
X120484471Y-140213073D01*
X120512307Y-140093201D01*
X120537238Y-139986419D01*
X120559495Y-139891878D01*
X120579309Y-139808729D01*
X120596912Y-139736122D01*
X120612535Y-139673208D01*
X120626410Y-139619137D01*
X120638767Y-139573060D01*
X120649839Y-139534128D01*
X120659856Y-139501490D01*
X120669050Y-139474297D01*
X120677652Y-139451701D01*
X120685893Y-139432850D01*
X120694005Y-139416897D01*
X120702220Y-139402991D01*
X120710767Y-139390283D01*
X120719880Y-139377923D01*
X120729788Y-139365063D01*
X120735950Y-139357093D01*
X120789528Y-139295858D01*
X120847630Y-139247199D01*
X120915510Y-139206781D01*
X120922311Y-139203383D01*
X121004527Y-139169540D01*
X121085150Y-139150752D01*
X121168006Y-139146511D01*
X121256924Y-139156311D01*
X121256924Y-139156311D01*
G37*
X121256924Y-139156311D02*
X121265281Y-139157850D01*
X121358741Y-139180224D01*
X121439335Y-139210102D01*
X121510038Y-139249030D01*
X121573830Y-139298555D01*
X121615324Y-139339661D01*
X121669122Y-139408046D01*
X121709743Y-139483683D01*
X121738942Y-139569863D01*
X121739674Y-139572702D01*
X121743781Y-139588213D01*
X121747559Y-139602217D01*
X121750876Y-139615498D01*
X121753599Y-139628840D01*
X121755595Y-139643027D01*
X121756730Y-139658843D01*
X121756873Y-139677073D01*
X121755890Y-139698501D01*
X121753648Y-139723910D01*
X121750015Y-139754085D01*
X121744857Y-139789810D01*
X121738042Y-139831870D01*
X121729436Y-139881047D01*
X121718908Y-139938127D01*
X121706323Y-140003894D01*
X121691549Y-140079131D01*
X121674454Y-140164624D01*
X121654904Y-140261155D01*
X121632766Y-140369509D01*
X121607908Y-140490471D01*
X121580197Y-140624824D01*
X121549499Y-140773352D01*
X121515682Y-140936841D01*
X121478613Y-141116073D01*
X121475842Y-141129474D01*
X121445752Y-141275403D01*
X121417300Y-141414154D01*
X121390653Y-141544884D01*
X121365978Y-141666751D01*
X121343442Y-141778914D01*
X121323210Y-141880530D01*
X121305450Y-141970758D01*
X121290328Y-142048756D01*
X121278011Y-142113682D01*
X121268665Y-142164695D01*
X121262457Y-142200952D01*
X121259553Y-142221612D01*
X121259414Y-142223283D01*
X121260981Y-142323358D01*
X121278499Y-142423616D01*
X121311108Y-142522261D01*
X121357948Y-142617497D01*
X121418158Y-142707527D01*
X121490880Y-142790555D01*
X121561349Y-142853850D01*
X121661701Y-142923792D01*
X121769875Y-142978833D01*
X121885386Y-143018823D01*
X122007745Y-143043608D01*
X122136466Y-143053038D01*
X122196575Y-143052221D01*
X122321482Y-143039525D01*
X122439651Y-143011942D01*
X122550201Y-142970022D01*
X122652254Y-142914314D01*
X122744929Y-142845367D01*
X122827348Y-142763732D01*
X122898631Y-142669959D01*
X122949601Y-142581533D01*
X122957616Y-142565522D01*
X122965021Y-142550254D01*
X122971993Y-142534883D01*
X122978705Y-142518567D01*
X122985333Y-142500460D01*
X122992052Y-142479718D01*
X122999037Y-142455497D01*
X123006464Y-142426952D01*
X123014507Y-142393239D01*
X123023342Y-142353514D01*
X123033144Y-142306932D01*
X123044087Y-142252649D01*
X123056348Y-142189820D01*
X123070101Y-142117602D01*
X123085522Y-142035150D01*
X123102785Y-141941619D01*
X123122066Y-141836165D01*
X123143540Y-141717944D01*
X123167382Y-141586112D01*
X123193767Y-141439824D01*
X123222871Y-141278235D01*
X123242033Y-141171793D01*
X123271138Y-141010159D01*
X123297438Y-140864306D01*
X123321121Y-140733351D01*
X123342378Y-140616416D01*
X123361399Y-140512619D01*
X123378373Y-140421079D01*
X123393490Y-140340917D01*
X123406940Y-140271251D01*
X123418913Y-140211202D01*
X123429598Y-140159887D01*
X123439185Y-140116428D01*
X123447864Y-140079942D01*
X123455824Y-140049551D01*
X123463256Y-140024372D01*
X123470349Y-140003526D01*
X123477292Y-139986132D01*
X123484277Y-139971309D01*
X123491491Y-139958177D01*
X123499126Y-139945856D01*
X123507370Y-139933464D01*
X123509571Y-139930219D01*
X123571352Y-139853599D01*
X123643582Y-139790297D01*
X123726244Y-139740326D01*
X123789175Y-139713690D01*
X123818220Y-139703979D01*
X123844173Y-139697553D01*
X123871933Y-139693763D01*
X123906396Y-139691963D01*
X123952463Y-139691506D01*
X123957054Y-139691508D01*
X124060115Y-139696828D01*
X124151573Y-139713049D01*
X124233349Y-139740886D01*
X124307359Y-139781053D01*
X124375524Y-139834266D01*
X124398195Y-139855944D01*
X124436836Y-139897371D01*
X124466168Y-139935992D01*
X124490990Y-139978356D01*
X124497806Y-139991820D01*
X124523150Y-140051063D01*
X124541802Y-140110927D01*
X124552744Y-140167115D01*
X124554960Y-140215328D01*
X124553703Y-140228074D01*
X124551150Y-140245149D01*
X124546192Y-140277664D01*
X124539031Y-140324334D01*
X124529865Y-140383875D01*
X124518893Y-140455000D01*
X124506316Y-140536424D01*
X124492332Y-140626862D01*
X124477141Y-140725027D01*
X124460942Y-140829636D01*
X124443935Y-140939401D01*
X124426320Y-141053038D01*
X124408295Y-141169261D01*
X124390060Y-141286785D01*
X124371815Y-141404324D01*
X124353760Y-141520593D01*
X124336092Y-141634306D01*
X124319013Y-141744178D01*
X124302721Y-141848924D01*
X124287416Y-141947257D01*
X124273298Y-142037893D01*
X124260565Y-142119546D01*
X124249418Y-142190930D01*
X124240055Y-142250761D01*
X124232676Y-142297751D01*
X124227481Y-142330618D01*
X124227366Y-142331340D01*
X124209395Y-142442959D01*
X124193291Y-142539639D01*
X124178616Y-142623211D01*
X124164932Y-142695506D01*
X124151800Y-142758354D01*
X124138781Y-142813588D01*
X124125437Y-142863036D01*
X124111329Y-142908531D01*
X124096018Y-142951903D01*
X124079067Y-142994984D01*
X124060035Y-143039603D01*
X124054920Y-143051171D01*
X123973020Y-143215748D01*
X123878898Y-143368637D01*
X123772486Y-143509907D01*
X123653717Y-143639630D01*
X123522523Y-143757874D01*
X123378836Y-143864708D01*
X123222590Y-143960204D01*
X123123366Y-144011803D01*
X123039340Y-144051508D01*
X122964297Y-144083714D01*
X122893154Y-144110343D01*
X122820827Y-144133315D01*
X122752163Y-144152030D01*
X122679709Y-144169643D01*
X122614078Y-144183298D01*
X122551022Y-144193518D01*
X122486294Y-144200822D01*
X122415646Y-144205735D01*
X122334832Y-144208777D01*
X122281213Y-144209896D01*
X122223391Y-144210679D01*
X122169967Y-144211093D01*
X122123692Y-144211140D01*
X122087319Y-144210824D01*
X122063598Y-144210149D01*
X122056921Y-144209623D01*
X122037307Y-144207102D01*
X122006215Y-144203332D01*
X121968991Y-144198958D01*
X121951123Y-144196902D01*
X121909004Y-144191337D01*
X121857529Y-144183418D01*
X121803901Y-144174302D01*
X121764918Y-144167045D01*
X121572505Y-144121653D01*
X121389573Y-144062631D01*
X121216449Y-143990221D01*
X121053461Y-143904666D01*
X120900936Y-143806210D01*
X120759201Y-143695094D01*
X120628585Y-143571562D01*
X120509414Y-143435856D01*
X120402015Y-143288219D01*
X120306717Y-143128893D01*
X120270715Y-143059230D01*
X120198410Y-142894634D01*
X120142619Y-142727044D01*
X120103415Y-142556939D01*
X120080874Y-142384801D01*
X120075071Y-142211107D01*
X120086080Y-142036338D01*
X120097747Y-141949740D01*
X120103012Y-141917542D01*
X120108955Y-141883355D01*
X120115791Y-141846211D01*
X120123731Y-141805142D01*
X120132988Y-141759178D01*
X120143776Y-141707351D01*
X120156307Y-141648694D01*
X120170794Y-141582237D01*
X120187449Y-141507012D01*
X120206486Y-141422051D01*
X120228118Y-141326385D01*
X120252556Y-141219045D01*
X120280015Y-141099064D01*
X120310706Y-140965473D01*
X120344843Y-140817303D01*
X120381219Y-140659730D01*
X120419158Y-140495489D01*
X120453499Y-140346886D01*
X120484471Y-140213073D01*
X120512307Y-140093201D01*
X120537238Y-139986419D01*
X120559495Y-139891878D01*
X120579309Y-139808729D01*
X120596912Y-139736122D01*
X120612535Y-139673208D01*
X120626410Y-139619137D01*
X120638767Y-139573060D01*
X120649839Y-139534128D01*
X120659856Y-139501490D01*
X120669050Y-139474297D01*
X120677652Y-139451701D01*
X120685893Y-139432850D01*
X120694005Y-139416897D01*
X120702220Y-139402991D01*
X120710767Y-139390283D01*
X120719880Y-139377923D01*
X120729788Y-139365063D01*
X120735950Y-139357093D01*
X120789528Y-139295858D01*
X120847630Y-139247199D01*
X120915510Y-139206781D01*
X120922311Y-139203383D01*
X121004527Y-139169540D01*
X121085150Y-139150752D01*
X121168006Y-139146511D01*
X121256924Y-139156311D01*
G36*
X138845760Y-138404691D02*
X138932478Y-138406517D01*
X139012920Y-138409953D01*
X139083278Y-138414997D01*
X139128497Y-138420018D01*
X139357156Y-138459156D01*
X139577891Y-138513253D01*
X139790709Y-138582312D01*
X139995614Y-138666334D01*
X140192612Y-138765323D01*
X140381708Y-138879280D01*
X140562907Y-139008210D01*
X140736214Y-139152113D01*
X140834399Y-139243683D01*
X140989764Y-139406284D01*
X141131598Y-139578499D01*
X141259522Y-139759589D01*
X141373162Y-139948813D01*
X141472142Y-140145433D01*
X141556085Y-140348706D01*
X141624615Y-140557894D01*
X141677357Y-140772257D01*
X141710969Y-140968661D01*
X141717607Y-141031696D01*
X141722442Y-141107514D01*
X141725471Y-141192065D01*
X141726692Y-141281301D01*
X141726101Y-141371173D01*
X141723696Y-141457631D01*
X141719474Y-141536627D01*
X141713433Y-141604112D01*
X141711417Y-141620377D01*
X141673991Y-141838219D01*
X141620795Y-142050024D01*
X141552004Y-142255445D01*
X141467789Y-142454136D01*
X141368325Y-142645750D01*
X141253783Y-142829941D01*
X141124338Y-143006362D01*
X140980162Y-143174668D01*
X140886022Y-143272241D01*
X140722986Y-143422119D01*
X140549286Y-143559136D01*
X140365743Y-143682866D01*
X140173177Y-143792884D01*
X139972411Y-143888764D01*
X139764263Y-143970081D01*
X139549556Y-144036409D01*
X139329110Y-144087324D01*
X139304587Y-144091957D01*
X139214987Y-144106476D01*
X139115674Y-144119037D01*
X139011194Y-144129298D01*
X138906092Y-144136914D01*
X138804913Y-144141542D01*
X138712203Y-144142839D01*
X138650290Y-144141389D01*
X138421299Y-144123555D01*
X138199892Y-144090712D01*
X137985658Y-144042770D01*
X137778183Y-143979640D01*
X137613469Y-143916754D01*
X137414136Y-143824633D01*
X137224930Y-143719407D01*
X137046319Y-143601661D01*
X136878772Y-143471983D01*
X136722760Y-143330958D01*
X136578749Y-143179173D01*
X136447211Y-143017214D01*
X136328613Y-142845668D01*
X136223424Y-142665120D01*
X136132115Y-142476157D01*
X136055153Y-142279365D01*
X135993008Y-142075332D01*
X135946148Y-141864642D01*
X135938945Y-141823509D01*
X135920820Y-141701401D01*
X135908669Y-141584579D01*
X135902082Y-141466935D01*
X135900650Y-141342359D01*
X135901730Y-141278385D01*
X136442195Y-141278385D01*
X136447358Y-141467966D01*
X136449684Y-141497651D01*
X136474730Y-141696636D01*
X136515156Y-141889545D01*
X136570597Y-142075757D01*
X136640686Y-142254651D01*
X136725059Y-142425606D01*
X136823350Y-142588001D01*
X136935194Y-142741215D01*
X137060227Y-142884627D01*
X137198082Y-143017617D01*
X137348395Y-143139563D01*
X137462048Y-143218818D01*
X137631495Y-143319606D01*
X137807958Y-143405163D01*
X137990749Y-143475330D01*
X138179180Y-143529948D01*
X138372564Y-143568860D01*
X138570211Y-143591906D01*
X138771433Y-143598928D01*
X138975543Y-143589768D01*
X139043330Y-143583176D01*
X139236001Y-143553702D01*
X139427994Y-143508182D01*
X139617026Y-143447422D01*
X139800815Y-143372229D01*
X139977078Y-143283408D01*
X140100512Y-143209900D01*
X140199745Y-143141678D01*
X140302342Y-143062149D01*
X140404392Y-142974807D01*
X140501981Y-142883145D01*
X140591201Y-142790658D01*
X140662417Y-142707981D01*
X140780718Y-142548017D01*
X140884022Y-142380241D01*
X140972241Y-142204852D01*
X141045291Y-142022050D01*
X141103085Y-141832035D01*
X141145537Y-141635004D01*
X141157229Y-141561130D01*
X141161863Y-141516305D01*
X141165176Y-141458284D01*
X141167194Y-141390744D01*
X141167945Y-141317363D01*
X141167456Y-141241816D01*
X141165753Y-141167783D01*
X141162864Y-141098941D01*
X141158816Y-141038966D01*
X141153636Y-140991537D01*
X141152997Y-140987237D01*
X141115442Y-140790659D01*
X141064404Y-140603242D01*
X140999308Y-140423198D01*
X140919579Y-140248738D01*
X140909549Y-140229150D01*
X140811129Y-140057233D01*
X140699237Y-139894978D01*
X140574743Y-139743050D01*
X140438515Y-139602115D01*
X140291420Y-139472839D01*
X140134328Y-139355888D01*
X139968106Y-139251928D01*
X139793624Y-139161624D01*
X139611749Y-139085642D01*
X139423350Y-139024648D01*
X139297774Y-138993348D01*
X139132785Y-138964139D01*
X138960091Y-138946988D01*
X138783949Y-138941975D01*
X138608615Y-138949181D01*
X138438346Y-138968686D01*
X138392580Y-138976287D01*
X138212895Y-139016177D01*
X138034438Y-139071207D01*
X137859566Y-139140282D01*
X137690639Y-139222307D01*
X137530013Y-139316189D01*
X137380048Y-139420832D01*
X137304539Y-139481252D01*
X137255448Y-139524524D01*
X137200302Y-139576506D01*
X137142396Y-139633813D01*
X137085023Y-139693059D01*
X137031479Y-139750859D01*
X136985055Y-139803826D01*
X136955908Y-139839608D01*
X136841360Y-140000006D01*
X136740416Y-140168507D01*
X136653464Y-140343837D01*
X136580894Y-140524723D01*
X136523093Y-140709894D01*
X136480451Y-140898076D01*
X136453355Y-141087997D01*
X136442195Y-141278385D01*
X135901730Y-141278385D01*
X135901860Y-141270689D01*
X135914338Y-141056987D01*
X135941070Y-140850278D01*
X135982535Y-140648634D01*
X136039211Y-140450126D01*
X136111580Y-140252826D01*
X136200119Y-140054807D01*
X136208526Y-140037638D01*
X136305248Y-139855255D01*
X136409510Y-139686064D01*
X136523304Y-139527263D01*
X136648619Y-139376051D01*
X136771288Y-139245752D01*
X136905752Y-139117959D01*
X137041958Y-139003677D01*
X137183526Y-138900289D01*
X137334077Y-138805173D01*
X137497234Y-138715712D01*
X137520367Y-138703954D01*
X137706180Y-138618036D01*
X137893972Y-138546919D01*
X138086459Y-138489775D01*
X138286356Y-138445773D01*
X138451390Y-138419748D01*
X138512335Y-138413506D01*
X138586054Y-138408881D01*
X138668738Y-138405871D01*
X138756577Y-138404475D01*
X138845760Y-138404691D01*
X138845760Y-138404691D01*
G37*
X138845760Y-138404691D02*
X138932478Y-138406517D01*
X139012920Y-138409953D01*
X139083278Y-138414997D01*
X139128497Y-138420018D01*
X139357156Y-138459156D01*
X139577891Y-138513253D01*
X139790709Y-138582312D01*
X139995614Y-138666334D01*
X140192612Y-138765323D01*
X140381708Y-138879280D01*
X140562907Y-139008210D01*
X140736214Y-139152113D01*
X140834399Y-139243683D01*
X140989764Y-139406284D01*
X141131598Y-139578499D01*
X141259522Y-139759589D01*
X141373162Y-139948813D01*
X141472142Y-140145433D01*
X141556085Y-140348706D01*
X141624615Y-140557894D01*
X141677357Y-140772257D01*
X141710969Y-140968661D01*
X141717607Y-141031696D01*
X141722442Y-141107514D01*
X141725471Y-141192065D01*
X141726692Y-141281301D01*
X141726101Y-141371173D01*
X141723696Y-141457631D01*
X141719474Y-141536627D01*
X141713433Y-141604112D01*
X141711417Y-141620377D01*
X141673991Y-141838219D01*
X141620795Y-142050024D01*
X141552004Y-142255445D01*
X141467789Y-142454136D01*
X141368325Y-142645750D01*
X141253783Y-142829941D01*
X141124338Y-143006362D01*
X140980162Y-143174668D01*
X140886022Y-143272241D01*
X140722986Y-143422119D01*
X140549286Y-143559136D01*
X140365743Y-143682866D01*
X140173177Y-143792884D01*
X139972411Y-143888764D01*
X139764263Y-143970081D01*
X139549556Y-144036409D01*
X139329110Y-144087324D01*
X139304587Y-144091957D01*
X139214987Y-144106476D01*
X139115674Y-144119037D01*
X139011194Y-144129298D01*
X138906092Y-144136914D01*
X138804913Y-144141542D01*
X138712203Y-144142839D01*
X138650290Y-144141389D01*
X138421299Y-144123555D01*
X138199892Y-144090712D01*
X137985658Y-144042770D01*
X137778183Y-143979640D01*
X137613469Y-143916754D01*
X137414136Y-143824633D01*
X137224930Y-143719407D01*
X137046319Y-143601661D01*
X136878772Y-143471983D01*
X136722760Y-143330958D01*
X136578749Y-143179173D01*
X136447211Y-143017214D01*
X136328613Y-142845668D01*
X136223424Y-142665120D01*
X136132115Y-142476157D01*
X136055153Y-142279365D01*
X135993008Y-142075332D01*
X135946148Y-141864642D01*
X135938945Y-141823509D01*
X135920820Y-141701401D01*
X135908669Y-141584579D01*
X135902082Y-141466935D01*
X135900650Y-141342359D01*
X135901730Y-141278385D01*
X136442195Y-141278385D01*
X136447358Y-141467966D01*
X136449684Y-141497651D01*
X136474730Y-141696636D01*
X136515156Y-141889545D01*
X136570597Y-142075757D01*
X136640686Y-142254651D01*
X136725059Y-142425606D01*
X136823350Y-142588001D01*
X136935194Y-142741215D01*
X137060227Y-142884627D01*
X137198082Y-143017617D01*
X137348395Y-143139563D01*
X137462048Y-143218818D01*
X137631495Y-143319606D01*
X137807958Y-143405163D01*
X137990749Y-143475330D01*
X138179180Y-143529948D01*
X138372564Y-143568860D01*
X138570211Y-143591906D01*
X138771433Y-143598928D01*
X138975543Y-143589768D01*
X139043330Y-143583176D01*
X139236001Y-143553702D01*
X139427994Y-143508182D01*
X139617026Y-143447422D01*
X139800815Y-143372229D01*
X139977078Y-143283408D01*
X140100512Y-143209900D01*
X140199745Y-143141678D01*
X140302342Y-143062149D01*
X140404392Y-142974807D01*
X140501981Y-142883145D01*
X140591201Y-142790658D01*
X140662417Y-142707981D01*
X140780718Y-142548017D01*
X140884022Y-142380241D01*
X140972241Y-142204852D01*
X141045291Y-142022050D01*
X141103085Y-141832035D01*
X141145537Y-141635004D01*
X141157229Y-141561130D01*
X141161863Y-141516305D01*
X141165176Y-141458284D01*
X141167194Y-141390744D01*
X141167945Y-141317363D01*
X141167456Y-141241816D01*
X141165753Y-141167783D01*
X141162864Y-141098941D01*
X141158816Y-141038966D01*
X141153636Y-140991537D01*
X141152997Y-140987237D01*
X141115442Y-140790659D01*
X141064404Y-140603242D01*
X140999308Y-140423198D01*
X140919579Y-140248738D01*
X140909549Y-140229150D01*
X140811129Y-140057233D01*
X140699237Y-139894978D01*
X140574743Y-139743050D01*
X140438515Y-139602115D01*
X140291420Y-139472839D01*
X140134328Y-139355888D01*
X139968106Y-139251928D01*
X139793624Y-139161624D01*
X139611749Y-139085642D01*
X139423350Y-139024648D01*
X139297774Y-138993348D01*
X139132785Y-138964139D01*
X138960091Y-138946988D01*
X138783949Y-138941975D01*
X138608615Y-138949181D01*
X138438346Y-138968686D01*
X138392580Y-138976287D01*
X138212895Y-139016177D01*
X138034438Y-139071207D01*
X137859566Y-139140282D01*
X137690639Y-139222307D01*
X137530013Y-139316189D01*
X137380048Y-139420832D01*
X137304539Y-139481252D01*
X137255448Y-139524524D01*
X137200302Y-139576506D01*
X137142396Y-139633813D01*
X137085023Y-139693059D01*
X137031479Y-139750859D01*
X136985055Y-139803826D01*
X136955908Y-139839608D01*
X136841360Y-140000006D01*
X136740416Y-140168507D01*
X136653464Y-140343837D01*
X136580894Y-140524723D01*
X136523093Y-140709894D01*
X136480451Y-140898076D01*
X136453355Y-141087997D01*
X136442195Y-141278385D01*
X135901730Y-141278385D01*
X135901860Y-141270689D01*
X135914338Y-141056987D01*
X135941070Y-140850278D01*
X135982535Y-140648634D01*
X136039211Y-140450126D01*
X136111580Y-140252826D01*
X136200119Y-140054807D01*
X136208526Y-140037638D01*
X136305248Y-139855255D01*
X136409510Y-139686064D01*
X136523304Y-139527263D01*
X136648619Y-139376051D01*
X136771288Y-139245752D01*
X136905752Y-139117959D01*
X137041958Y-139003677D01*
X137183526Y-138900289D01*
X137334077Y-138805173D01*
X137497234Y-138715712D01*
X137520367Y-138703954D01*
X137706180Y-138618036D01*
X137893972Y-138546919D01*
X138086459Y-138489775D01*
X138286356Y-138445773D01*
X138451390Y-138419748D01*
X138512335Y-138413506D01*
X138586054Y-138408881D01*
X138668738Y-138405871D01*
X138756577Y-138404475D01*
X138845760Y-138404691D01*
G36*
X119163199Y-138688904D02*
X119268275Y-138693706D01*
X119368613Y-138702489D01*
X119458953Y-138715108D01*
X119462753Y-138715773D01*
X119557257Y-138734014D01*
X119637239Y-138753023D01*
X119705105Y-138773651D01*
X119763261Y-138796745D01*
X119814112Y-138823157D01*
X119860064Y-138853734D01*
X119865784Y-138858044D01*
X119923992Y-138912139D01*
X119975120Y-138978564D01*
X120017311Y-139053557D01*
X120048705Y-139133359D01*
X120067447Y-139214211D01*
X120072085Y-139275554D01*
X120065615Y-139372381D01*
X120047100Y-139465810D01*
X120017573Y-139553846D01*
X119978064Y-139634494D01*
X119929606Y-139705760D01*
X119873229Y-139765650D01*
X119809965Y-139812167D01*
X119788611Y-139823815D01*
X119738312Y-139845956D01*
X119685618Y-139862499D01*
X119628246Y-139873643D01*
X119563915Y-139879587D01*
X119490340Y-139880531D01*
X119405241Y-139876672D01*
X119306335Y-139868211D01*
X119294022Y-139866957D01*
X119235875Y-139861350D01*
X119189911Y-139858053D01*
X119151557Y-139856971D01*
X119116240Y-139858009D01*
X119079387Y-139861073D01*
X119068076Y-139862292D01*
X118939289Y-139883904D01*
X118820082Y-139918723D01*
X118710939Y-139966448D01*
X118612349Y-140026778D01*
X118524797Y-140099412D01*
X118448770Y-140184049D01*
X118384754Y-140280388D01*
X118380869Y-140287321D01*
X118367779Y-140314822D01*
X118352376Y-140353116D01*
X118336786Y-140396661D01*
X118325711Y-140431206D01*
X118316669Y-140462202D01*
X118303709Y-140508132D01*
X118287215Y-140567557D01*
X118267574Y-140639040D01*
X118245171Y-140721145D01*
X118220394Y-140812432D01*
X118193628Y-140911465D01*
X118165258Y-141016806D01*
X118135671Y-141127017D01*
X118105254Y-141240661D01*
X118074391Y-141356300D01*
X118043469Y-141472496D01*
X118012875Y-141587813D01*
X117982993Y-141700812D01*
X117954210Y-141810056D01*
X117926913Y-141914107D01*
X117905605Y-141995712D01*
X117873238Y-142119708D01*
X117844679Y-142228477D01*
X117819585Y-142323204D01*
X117797613Y-142405071D01*
X117778420Y-142475263D01*
X117761662Y-142534963D01*
X117746997Y-142585356D01*
X117734081Y-142627625D01*
X117722572Y-142662955D01*
X117712127Y-142692529D01*
X117702402Y-142717531D01*
X117693055Y-142739145D01*
X117685748Y-142754532D01*
X117635433Y-142838904D01*
X117574386Y-142910498D01*
X117503337Y-142968778D01*
X117423013Y-143013213D01*
X117334143Y-143043267D01*
X117276352Y-143054270D01*
X117243034Y-143058475D01*
X117215058Y-143061246D01*
X117197629Y-143062084D01*
X117195945Y-143061984D01*
X117178980Y-143060426D01*
X117153449Y-143058293D01*
X117143659Y-143057513D01*
X117053980Y-143044997D01*
X116962332Y-143022279D01*
X116874696Y-142991172D01*
X116797051Y-142953485D01*
X116793571Y-142951479D01*
X116751584Y-142923495D01*
X116706209Y-142887347D01*
X116661680Y-142846940D01*
X116622228Y-142806177D01*
X116592087Y-142768961D01*
X116586248Y-142760271D01*
X116557863Y-142704316D01*
X116534717Y-142634977D01*
X116517777Y-142555251D01*
X116515624Y-142541154D01*
X116510749Y-142501625D01*
X116509660Y-142470127D01*
X116512610Y-142438633D01*
X116519853Y-142399115D01*
X116520151Y-142397661D01*
X116524683Y-142379411D01*
X116533789Y-142346125D01*
X116547120Y-142298965D01*
X116564330Y-142239090D01*
X116585071Y-142167662D01*
X116608996Y-142085842D01*
X116635757Y-141994789D01*
X116665006Y-141895666D01*
X116696397Y-141789634D01*
X116729582Y-141677851D01*
X116764213Y-141561481D01*
X116799943Y-141441683D01*
X116836424Y-141319619D01*
X116873310Y-141196449D01*
X116910252Y-141073334D01*
X116946903Y-140951434D01*
X116982916Y-140831912D01*
X117017943Y-140715927D01*
X117051637Y-140604640D01*
X117083650Y-140499213D01*
X117113635Y-140400806D01*
X117141244Y-140310579D01*
X117166130Y-140229695D01*
X117187946Y-140159312D01*
X117206344Y-140100594D01*
X117220976Y-140054699D01*
X117226537Y-140037638D01*
X117286311Y-139882098D01*
X117361759Y-139729805D01*
X117451675Y-139582693D01*
X117554858Y-139442694D01*
X117670102Y-139311741D01*
X117693562Y-139287740D01*
X117755084Y-139227290D01*
X117810373Y-139176447D01*
X117863768Y-139131599D01*
X117919609Y-139089133D01*
X117982235Y-139045437D01*
X117994275Y-139037354D01*
X118151134Y-138940654D01*
X118308291Y-138860239D01*
X118467295Y-138795514D01*
X118629695Y-138745884D01*
X118797040Y-138710751D01*
X118872155Y-138699794D01*
X118959879Y-138691805D01*
X119058647Y-138688222D01*
X119163199Y-138688904D01*
X119163199Y-138688904D01*
G37*
X119163199Y-138688904D02*
X119268275Y-138693706D01*
X119368613Y-138702489D01*
X119458953Y-138715108D01*
X119462753Y-138715773D01*
X119557257Y-138734014D01*
X119637239Y-138753023D01*
X119705105Y-138773651D01*
X119763261Y-138796745D01*
X119814112Y-138823157D01*
X119860064Y-138853734D01*
X119865784Y-138858044D01*
X119923992Y-138912139D01*
X119975120Y-138978564D01*
X120017311Y-139053557D01*
X120048705Y-139133359D01*
X120067447Y-139214211D01*
X120072085Y-139275554D01*
X120065615Y-139372381D01*
X120047100Y-139465810D01*
X120017573Y-139553846D01*
X119978064Y-139634494D01*
X119929606Y-139705760D01*
X119873229Y-139765650D01*
X119809965Y-139812167D01*
X119788611Y-139823815D01*
X119738312Y-139845956D01*
X119685618Y-139862499D01*
X119628246Y-139873643D01*
X119563915Y-139879587D01*
X119490340Y-139880531D01*
X119405241Y-139876672D01*
X119306335Y-139868211D01*
X119294022Y-139866957D01*
X119235875Y-139861350D01*
X119189911Y-139858053D01*
X119151557Y-139856971D01*
X119116240Y-139858009D01*
X119079387Y-139861073D01*
X119068076Y-139862292D01*
X118939289Y-139883904D01*
X118820082Y-139918723D01*
X118710939Y-139966448D01*
X118612349Y-140026778D01*
X118524797Y-140099412D01*
X118448770Y-140184049D01*
X118384754Y-140280388D01*
X118380869Y-140287321D01*
X118367779Y-140314822D01*
X118352376Y-140353116D01*
X118336786Y-140396661D01*
X118325711Y-140431206D01*
X118316669Y-140462202D01*
X118303709Y-140508132D01*
X118287215Y-140567557D01*
X118267574Y-140639040D01*
X118245171Y-140721145D01*
X118220394Y-140812432D01*
X118193628Y-140911465D01*
X118165258Y-141016806D01*
X118135671Y-141127017D01*
X118105254Y-141240661D01*
X118074391Y-141356300D01*
X118043469Y-141472496D01*
X118012875Y-141587813D01*
X117982993Y-141700812D01*
X117954210Y-141810056D01*
X117926913Y-141914107D01*
X117905605Y-141995712D01*
X117873238Y-142119708D01*
X117844679Y-142228477D01*
X117819585Y-142323204D01*
X117797613Y-142405071D01*
X117778420Y-142475263D01*
X117761662Y-142534963D01*
X117746997Y-142585356D01*
X117734081Y-142627625D01*
X117722572Y-142662955D01*
X117712127Y-142692529D01*
X117702402Y-142717531D01*
X117693055Y-142739145D01*
X117685748Y-142754532D01*
X117635433Y-142838904D01*
X117574386Y-142910498D01*
X117503337Y-142968778D01*
X117423013Y-143013213D01*
X117334143Y-143043267D01*
X117276352Y-143054270D01*
X117243034Y-143058475D01*
X117215058Y-143061246D01*
X117197629Y-143062084D01*
X117195945Y-143061984D01*
X117178980Y-143060426D01*
X117153449Y-143058293D01*
X117143659Y-143057513D01*
X117053980Y-143044997D01*
X116962332Y-143022279D01*
X116874696Y-142991172D01*
X116797051Y-142953485D01*
X116793571Y-142951479D01*
X116751584Y-142923495D01*
X116706209Y-142887347D01*
X116661680Y-142846940D01*
X116622228Y-142806177D01*
X116592087Y-142768961D01*
X116586248Y-142760271D01*
X116557863Y-142704316D01*
X116534717Y-142634977D01*
X116517777Y-142555251D01*
X116515624Y-142541154D01*
X116510749Y-142501625D01*
X116509660Y-142470127D01*
X116512610Y-142438633D01*
X116519853Y-142399115D01*
X116520151Y-142397661D01*
X116524683Y-142379411D01*
X116533789Y-142346125D01*
X116547120Y-142298965D01*
X116564330Y-142239090D01*
X116585071Y-142167662D01*
X116608996Y-142085842D01*
X116635757Y-141994789D01*
X116665006Y-141895666D01*
X116696397Y-141789634D01*
X116729582Y-141677851D01*
X116764213Y-141561481D01*
X116799943Y-141441683D01*
X116836424Y-141319619D01*
X116873310Y-141196449D01*
X116910252Y-141073334D01*
X116946903Y-140951434D01*
X116982916Y-140831912D01*
X117017943Y-140715927D01*
X117051637Y-140604640D01*
X117083650Y-140499213D01*
X117113635Y-140400806D01*
X117141244Y-140310579D01*
X117166130Y-140229695D01*
X117187946Y-140159312D01*
X117206344Y-140100594D01*
X117220976Y-140054699D01*
X117226537Y-140037638D01*
X117286311Y-139882098D01*
X117361759Y-139729805D01*
X117451675Y-139582693D01*
X117554858Y-139442694D01*
X117670102Y-139311741D01*
X117693562Y-139287740D01*
X117755084Y-139227290D01*
X117810373Y-139176447D01*
X117863768Y-139131599D01*
X117919609Y-139089133D01*
X117982235Y-139045437D01*
X117994275Y-139037354D01*
X118151134Y-138940654D01*
X118308291Y-138860239D01*
X118467295Y-138795514D01*
X118629695Y-138745884D01*
X118797040Y-138710751D01*
X118872155Y-138699794D01*
X118959879Y-138691805D01*
X119058647Y-138688222D01*
X119163199Y-138688904D01*
G36*
X134409265Y-139715877D02*
X134514095Y-139733481D01*
X134614647Y-139766972D01*
X134709615Y-139815870D01*
X134797693Y-139879694D01*
X134830343Y-139908953D01*
X134904773Y-139990625D01*
X134964972Y-140079698D01*
X135010880Y-140174588D01*
X135042439Y-140273710D01*
X135059590Y-140375480D01*
X135062276Y-140478314D01*
X135050437Y-140580626D01*
X135024015Y-140680832D01*
X134982950Y-140777347D01*
X134927186Y-140868587D01*
X134868482Y-140940487D01*
X134794150Y-141008757D01*
X134709056Y-141065895D01*
X134615866Y-141110947D01*
X134517246Y-141142956D01*
X134415862Y-141160968D01*
X134314379Y-141164025D01*
X134259187Y-141158945D01*
X134153170Y-141136041D01*
X134053778Y-141098274D01*
X133962188Y-141046808D01*
X133879579Y-140982806D01*
X133807127Y-140907432D01*
X133746009Y-140821851D01*
X133697403Y-140727226D01*
X133662487Y-140624721D01*
X133647696Y-140554459D01*
X133641930Y-140496574D01*
X133641009Y-140429982D01*
X133644599Y-140360923D01*
X133652365Y-140295641D01*
X133663975Y-140240377D01*
X133664632Y-140238053D01*
X133702460Y-140135583D01*
X133754433Y-140040535D01*
X133819191Y-139954509D01*
X133895374Y-139879110D01*
X133981625Y-139815939D01*
X134057176Y-139775185D01*
X134125711Y-139747292D01*
X134192388Y-139728734D01*
X134264559Y-139717688D01*
X134301462Y-139714638D01*
X134409265Y-139715877D01*
X134409265Y-139715877D01*
G37*
X134409265Y-139715877D02*
X134514095Y-139733481D01*
X134614647Y-139766972D01*
X134709615Y-139815870D01*
X134797693Y-139879694D01*
X134830343Y-139908953D01*
X134904773Y-139990625D01*
X134964972Y-140079698D01*
X135010880Y-140174588D01*
X135042439Y-140273710D01*
X135059590Y-140375480D01*
X135062276Y-140478314D01*
X135050437Y-140580626D01*
X135024015Y-140680832D01*
X134982950Y-140777347D01*
X134927186Y-140868587D01*
X134868482Y-140940487D01*
X134794150Y-141008757D01*
X134709056Y-141065895D01*
X134615866Y-141110947D01*
X134517246Y-141142956D01*
X134415862Y-141160968D01*
X134314379Y-141164025D01*
X134259187Y-141158945D01*
X134153170Y-141136041D01*
X134053778Y-141098274D01*
X133962188Y-141046808D01*
X133879579Y-140982806D01*
X133807127Y-140907432D01*
X133746009Y-140821851D01*
X133697403Y-140727226D01*
X133662487Y-140624721D01*
X133647696Y-140554459D01*
X133641930Y-140496574D01*
X133641009Y-140429982D01*
X133644599Y-140360923D01*
X133652365Y-140295641D01*
X133663975Y-140240377D01*
X133664632Y-140238053D01*
X133702460Y-140135583D01*
X133754433Y-140040535D01*
X133819191Y-139954509D01*
X133895374Y-139879110D01*
X133981625Y-139815939D01*
X134057176Y-139775185D01*
X134125711Y-139747292D01*
X134192388Y-139728734D01*
X134264559Y-139717688D01*
X134301462Y-139714638D01*
X134409265Y-139715877D01*
G36*
X139351404Y-139684513D02*
X139511944Y-139703094D01*
X139564385Y-139712699D01*
X139717292Y-139751726D01*
X139864288Y-139806515D01*
X140004848Y-139876779D01*
X140138446Y-139962233D01*
X140264558Y-140062590D01*
X140344466Y-140137885D01*
X140450682Y-140256445D01*
X140542576Y-140384004D01*
X140620163Y-140520595D01*
X140683460Y-140666248D01*
X140732484Y-140820993D01*
X140750565Y-140896718D01*
X140757157Y-140929481D01*
X140762084Y-140960286D01*
X140765585Y-140992511D01*
X140767900Y-141029532D01*
X140769269Y-141074728D01*
X140769931Y-141131475D01*
X140770088Y-141171793D01*
X140770009Y-141236966D01*
X140769304Y-141288698D01*
X140767741Y-141330472D01*
X140765085Y-141365769D01*
X140761102Y-141398071D01*
X140755559Y-141430862D01*
X140751175Y-141453261D01*
X140711700Y-141606272D01*
X140656976Y-141752797D01*
X140587731Y-141891954D01*
X140504689Y-142022858D01*
X140408577Y-142144628D01*
X140300120Y-142256380D01*
X140180045Y-142357230D01*
X140049077Y-142446296D01*
X139907941Y-142522694D01*
X139850966Y-142548578D01*
X139721195Y-142596637D01*
X139582286Y-142633625D01*
X139438278Y-142658950D01*
X139293214Y-142672016D01*
X139151136Y-142672230D01*
X139059419Y-142664864D01*
X138904187Y-142638658D01*
X138754592Y-142597320D01*
X138611588Y-142541617D01*
X138476128Y-142472317D01*
X138349166Y-142390188D01*
X138231657Y-142295997D01*
X138124553Y-142190513D01*
X138028808Y-142074502D01*
X137945376Y-141948733D01*
X137875210Y-141813974D01*
X137819265Y-141670991D01*
X137817305Y-141665015D01*
X137803462Y-141621675D01*
X137791244Y-141581904D01*
X137781806Y-141549571D01*
X137776302Y-141528545D01*
X137775716Y-141525727D01*
X137770701Y-141498788D01*
X137819042Y-141493809D01*
X137955471Y-141472248D01*
X138083103Y-141436751D01*
X138201438Y-141387639D01*
X138309979Y-141325233D01*
X138408225Y-141249853D01*
X138495679Y-141161820D01*
X138571841Y-141061454D01*
X138621278Y-140978231D01*
X138666568Y-140882750D01*
X138699078Y-140788917D01*
X138720163Y-140691645D01*
X138731182Y-140585848D01*
X138732348Y-140561973D01*
X138733979Y-140504109D01*
X138733426Y-140458035D01*
X138730440Y-140418722D01*
X138724771Y-140381145D01*
X138722926Y-140371536D01*
X138700163Y-140272728D01*
X138672810Y-140185723D01*
X138638826Y-140105593D01*
X138596169Y-140027407D01*
X138552632Y-139960337D01*
X138499306Y-139883036D01*
X138579393Y-139843543D01*
X138730034Y-139778102D01*
X138882456Y-139729492D01*
X139036759Y-139697699D01*
X139193042Y-139682710D01*
X139351404Y-139684513D01*
X139351404Y-139684513D01*
G37*
X139351404Y-139684513D02*
X139511944Y-139703094D01*
X139564385Y-139712699D01*
X139717292Y-139751726D01*
X139864288Y-139806515D01*
X140004848Y-139876779D01*
X140138446Y-139962233D01*
X140264558Y-140062590D01*
X140344466Y-140137885D01*
X140450682Y-140256445D01*
X140542576Y-140384004D01*
X140620163Y-140520595D01*
X140683460Y-140666248D01*
X140732484Y-140820993D01*
X140750565Y-140896718D01*
X140757157Y-140929481D01*
X140762084Y-140960286D01*
X140765585Y-140992511D01*
X140767900Y-141029532D01*
X140769269Y-141074728D01*
X140769931Y-141131475D01*
X140770088Y-141171793D01*
X140770009Y-141236966D01*
X140769304Y-141288698D01*
X140767741Y-141330472D01*
X140765085Y-141365769D01*
X140761102Y-141398071D01*
X140755559Y-141430862D01*
X140751175Y-141453261D01*
X140711700Y-141606272D01*
X140656976Y-141752797D01*
X140587731Y-141891954D01*
X140504689Y-142022858D01*
X140408577Y-142144628D01*
X140300120Y-142256380D01*
X140180045Y-142357230D01*
X140049077Y-142446296D01*
X139907941Y-142522694D01*
X139850966Y-142548578D01*
X139721195Y-142596637D01*
X139582286Y-142633625D01*
X139438278Y-142658950D01*
X139293214Y-142672016D01*
X139151136Y-142672230D01*
X139059419Y-142664864D01*
X138904187Y-142638658D01*
X138754592Y-142597320D01*
X138611588Y-142541617D01*
X138476128Y-142472317D01*
X138349166Y-142390188D01*
X138231657Y-142295997D01*
X138124553Y-142190513D01*
X138028808Y-142074502D01*
X137945376Y-141948733D01*
X137875210Y-141813974D01*
X137819265Y-141670991D01*
X137817305Y-141665015D01*
X137803462Y-141621675D01*
X137791244Y-141581904D01*
X137781806Y-141549571D01*
X137776302Y-141528545D01*
X137775716Y-141525727D01*
X137770701Y-141498788D01*
X137819042Y-141493809D01*
X137955471Y-141472248D01*
X138083103Y-141436751D01*
X138201438Y-141387639D01*
X138309979Y-141325233D01*
X138408225Y-141249853D01*
X138495679Y-141161820D01*
X138571841Y-141061454D01*
X138621278Y-140978231D01*
X138666568Y-140882750D01*
X138699078Y-140788917D01*
X138720163Y-140691645D01*
X138731182Y-140585848D01*
X138732348Y-140561973D01*
X138733979Y-140504109D01*
X138733426Y-140458035D01*
X138730440Y-140418722D01*
X138724771Y-140381145D01*
X138722926Y-140371536D01*
X138700163Y-140272728D01*
X138672810Y-140185723D01*
X138638826Y-140105593D01*
X138596169Y-140027407D01*
X138552632Y-139960337D01*
X138499306Y-139883036D01*
X138579393Y-139843543D01*
X138730034Y-139778102D01*
X138882456Y-139729492D01*
X139036759Y-139697699D01*
X139193042Y-139682710D01*
X139351404Y-139684513D01*
D11*
X88600000Y-120940000D02*
X88600000Y-151420000D01*
X88600000Y-151420000D02*
X91140000Y-151420000D01*
X91140000Y-151420000D02*
X91140000Y-120940000D01*
X91420000Y-118120000D02*
X91420000Y-119670000D01*
X91140000Y-120940000D02*
X88600000Y-120940000D01*
X88320000Y-119670000D02*
X88320000Y-118120000D01*
X88320000Y-118120000D02*
X91420000Y-118120000D01*
%LPC*%
X148843928Y-101952380D02*
X148570119Y-101476190D01*
X148272500Y-101952380D02*
X148397500Y-100952380D01*
X148778452Y-100952380D01*
X148867738Y-101000000D01*
X148909404Y-101047619D01*
X148945119Y-101142857D01*
X148927261Y-101285714D01*
X148867738Y-101380952D01*
X148814166Y-101428571D01*
X148712976Y-101476190D01*
X148332023Y-101476190D01*
X149784404Y-101285714D02*
X149701071Y-101952380D01*
X149355833Y-101285714D02*
X149290357Y-101809523D01*
X149326071Y-101904761D01*
X149415357Y-101952380D01*
X149558214Y-101952380D01*
X149659404Y-101904761D01*
X149712976Y-101857142D01*
X150689166Y-101285714D02*
X150605833Y-101952380D01*
X150260595Y-101285714D02*
X150195119Y-101809523D01*
X150230833Y-101904761D01*
X150320119Y-101952380D01*
X150462976Y-101952380D01*
X150564166Y-101904761D01*
X150617738Y-101857142D01*
X151070119Y-101285714D02*
X151224880Y-101952380D01*
X151546309Y-101285714D01*
X151843928Y-101952380D02*
X151927261Y-101285714D01*
X151968928Y-100952380D02*
X151915357Y-101000000D01*
X151957023Y-101047619D01*
X152010595Y-101000000D01*
X151968928Y-100952380D01*
X151957023Y-101047619D01*
X152302261Y-100952380D02*
X152873690Y-100952380D01*
X152462976Y-101952380D02*
X152587976Y-100952380D01*
X153510595Y-101952380D02*
X153576071Y-101428571D01*
X153540357Y-101333333D01*
X153451071Y-101285714D01*
X153260595Y-101285714D01*
X153159404Y-101333333D01*
X153516547Y-101904761D02*
X153415357Y-101952380D01*
X153177261Y-101952380D01*
X153087976Y-101904761D01*
X153052261Y-101809523D01*
X153064166Y-101714285D01*
X153123690Y-101619047D01*
X153224880Y-101571428D01*
X153462976Y-101571428D01*
X153564166Y-101523809D01*
X154498690Y-101285714D02*
X154397500Y-102095238D01*
X154337976Y-102190476D01*
X154284404Y-102238095D01*
X154183214Y-102285714D01*
X154040357Y-102285714D01*
X153951071Y-102238095D01*
X154421309Y-101904761D02*
X154320119Y-101952380D01*
X154129642Y-101952380D01*
X154040357Y-101904761D01*
X153998690Y-101857142D01*
X153962976Y-101761904D01*
X153998690Y-101476190D01*
X154058214Y-101380952D01*
X154111785Y-101333333D01*
X154212976Y-101285714D01*
X154403452Y-101285714D01*
X154492738Y-101333333D01*
X145415357Y-103602380D02*
X145540357Y-102602380D01*
X145778452Y-102602380D01*
X145915357Y-102650000D01*
X145998690Y-102745238D01*
X146034404Y-102840476D01*
X146058214Y-103030952D01*
X146040357Y-103173809D01*
X145968928Y-103364285D01*
X145909404Y-103459523D01*
X145802261Y-103554761D01*
X145653452Y-103602380D01*
X145415357Y-103602380D01*
X146802261Y-103554761D02*
X146701071Y-103602380D01*
X146510595Y-103602380D01*
X146421309Y-103554761D01*
X146385595Y-103459523D01*
X146433214Y-103078571D01*
X146492738Y-102983333D01*
X146593928Y-102935714D01*
X146784404Y-102935714D01*
X146873690Y-102983333D01*
X146909404Y-103078571D01*
X146897500Y-103173809D01*
X146409404Y-103269047D01*
X147260595Y-102935714D02*
X147415357Y-103602380D01*
X147736785Y-102935714D01*
X148421309Y-103554761D02*
X148320119Y-103602380D01*
X148129642Y-103602380D01*
X148040357Y-103554761D01*
X148004642Y-103459523D01*
X148052261Y-103078571D01*
X148111785Y-102983333D01*
X148212976Y-102935714D01*
X148403452Y-102935714D01*
X148492738Y-102983333D01*
X148528452Y-103078571D01*
X148516547Y-103173809D01*
X148028452Y-103269047D01*
X149034404Y-103602380D02*
X148945119Y-103554761D01*
X148909404Y-103459523D01*
X149016547Y-102602380D01*
X149558214Y-103602380D02*
X149468928Y-103554761D01*
X149427261Y-103507142D01*
X149391547Y-103411904D01*
X149427261Y-103126190D01*
X149486785Y-103030952D01*
X149540357Y-102983333D01*
X149641547Y-102935714D01*
X149784404Y-102935714D01*
X149873690Y-102983333D01*
X149915357Y-103030952D01*
X149951071Y-103126190D01*
X149915357Y-103411904D01*
X149855833Y-103507142D01*
X149802261Y-103554761D01*
X149701071Y-103602380D01*
X149558214Y-103602380D01*
X150403452Y-102935714D02*
X150278452Y-103935714D01*
X150397500Y-102983333D02*
X150498690Y-102935714D01*
X150689166Y-102935714D01*
X150778452Y-102983333D01*
X150820119Y-103030952D01*
X150855833Y-103126190D01*
X150820119Y-103411904D01*
X150760595Y-103507142D01*
X150707023Y-103554761D01*
X150605833Y-103602380D01*
X150415357Y-103602380D01*
X150326071Y-103554761D01*
X151224880Y-103602380D02*
X151308214Y-102935714D01*
X151296309Y-103030952D02*
X151349880Y-102983333D01*
X151451071Y-102935714D01*
X151593928Y-102935714D01*
X151683214Y-102983333D01*
X151718928Y-103078571D01*
X151653452Y-103602380D01*
X151718928Y-103078571D02*
X151778452Y-102983333D01*
X151879642Y-102935714D01*
X152022500Y-102935714D01*
X152111785Y-102983333D01*
X152147500Y-103078571D01*
X152082023Y-103602380D01*
X152945119Y-103554761D02*
X152843928Y-103602380D01*
X152653452Y-103602380D01*
X152564166Y-103554761D01*
X152528452Y-103459523D01*
X152576071Y-103078571D01*
X152635595Y-102983333D01*
X152736785Y-102935714D01*
X152927261Y-102935714D01*
X153016547Y-102983333D01*
X153052261Y-103078571D01*
X153040357Y-103173809D01*
X152552261Y-103269047D01*
X153498690Y-102935714D02*
X153415357Y-103602380D01*
X153486785Y-103030952D02*
X153540357Y-102983333D01*
X153641547Y-102935714D01*
X153784404Y-102935714D01*
X153873690Y-102983333D01*
X153909404Y-103078571D01*
X153843928Y-103602380D01*
X154260595Y-102935714D02*
X154641547Y-102935714D01*
X154445119Y-102602380D02*
X154337976Y-103459523D01*
X154373690Y-103554761D01*
X154462976Y-103602380D01*
X154558214Y-103602380D01*
X150230833Y-105204761D02*
X150367738Y-105252380D01*
X150605833Y-105252380D01*
X150707023Y-105204761D01*
X150760595Y-105157142D01*
X150820119Y-105061904D01*
X150832023Y-104966666D01*
X150796309Y-104871428D01*
X150754642Y-104823809D01*
X150665357Y-104776190D01*
X150480833Y-104728571D01*
X150391547Y-104680952D01*
X150349880Y-104633333D01*
X150314166Y-104538095D01*
X150326071Y-104442857D01*
X150385595Y-104347619D01*
X150439166Y-104300000D01*
X150540357Y-104252380D01*
X150778452Y-104252380D01*
X150915357Y-104300000D01*
X151224880Y-105252380D02*
X151349880Y-104252380D01*
X151653452Y-105252380D02*
X151718928Y-104728571D01*
X151683214Y-104633333D01*
X151593928Y-104585714D01*
X151451071Y-104585714D01*
X151349880Y-104633333D01*
X151296309Y-104680952D01*
X152129642Y-105252380D02*
X152212976Y-104585714D01*
X152254642Y-104252380D02*
X152201071Y-104300000D01*
X152242738Y-104347619D01*
X152296309Y-104300000D01*
X152254642Y-104252380D01*
X152242738Y-104347619D01*
X152992738Y-105204761D02*
X152891547Y-105252380D01*
X152701071Y-105252380D01*
X152611785Y-105204761D01*
X152576071Y-105109523D01*
X152623690Y-104728571D01*
X152683214Y-104633333D01*
X152784404Y-104585714D01*
X152974880Y-104585714D01*
X153064166Y-104633333D01*
X153099880Y-104728571D01*
X153087976Y-104823809D01*
X152599880Y-104919047D01*
X153605833Y-105252380D02*
X153516547Y-105204761D01*
X153480833Y-105109523D01*
X153587976Y-104252380D01*
X154415357Y-105252380D02*
X154540357Y-104252380D01*
X154421309Y-105204761D02*
X154320119Y-105252380D01*
X154129642Y-105252380D01*
X154040357Y-105204761D01*
X153998690Y-105157142D01*
X153962976Y-105061904D01*
X153998690Y-104776190D01*
X154058214Y-104680952D01*
X154111785Y-104633333D01*
X154212976Y-104585714D01*
X154403452Y-104585714D01*
X154492738Y-104633333D01*
D13*
G36*
X149936973Y-146688510D02*
X149998129Y-146688693D01*
X150051431Y-146688997D01*
X150096745Y-146689420D01*
X150133933Y-146689958D01*
X150162862Y-146690612D01*
X150183394Y-146691378D01*
X150195394Y-146692256D01*
X150198588Y-146692902D01*
X150205130Y-146699889D01*
X150210529Y-146711364D01*
X150211216Y-146713704D01*
X150212716Y-146720646D01*
X150215669Y-146735472D01*
X150219939Y-146757451D01*
X150225385Y-146785853D01*
X150231871Y-146819948D01*
X150239256Y-146859007D01*
X150247403Y-146902299D01*
X150256174Y-146949096D01*
X150265429Y-146998667D01*
X150272894Y-147038782D01*
X150283914Y-147098010D01*
X150293483Y-147149231D01*
X150301733Y-147193052D01*
X150308792Y-147230079D01*
X150314792Y-147260921D01*
X150319863Y-147286184D01*
X150324134Y-147306476D01*
X150327735Y-147322403D01*
X150330798Y-147334574D01*
X150333453Y-147343595D01*
X150335828Y-147350074D01*
X150338055Y-147354618D01*
X150340264Y-147357834D01*
X150341616Y-147359359D01*
X150350871Y-147366247D01*
X150366548Y-147374948D01*
X150386772Y-147384482D01*
X150401613Y-147390719D01*
X150416388Y-147396681D01*
X150438096Y-147405489D01*
X150465564Y-147416665D01*
X150497619Y-147429731D01*
X150533092Y-147444210D01*
X150570808Y-147459625D01*
X150609598Y-147475496D01*
X150623242Y-147481083D01*
X150665811Y-147498478D01*
X150701061Y-147512768D01*
X150729756Y-147524227D01*
X150752658Y-147533129D01*
X150770529Y-147539746D01*
X150784133Y-147544352D01*
X150794231Y-147547221D01*
X150801587Y-147548625D01*
X150806963Y-147548839D01*
X150810626Y-147548269D01*
X150816520Y-147545236D01*
X150829017Y-147537623D01*
X150847515Y-147525827D01*
X150871412Y-147510250D01*
X150900106Y-147491291D01*
X150932996Y-147469348D01*
X150969480Y-147444823D01*
X151008955Y-147418114D01*
X151050820Y-147389621D01*
X151091524Y-147361767D01*
X151145801Y-147324594D01*
X151193265Y-147292231D01*
X151234265Y-147264451D01*
X151269151Y-147241023D01*
X151298272Y-147221718D01*
X151321979Y-147206308D01*
X151340621Y-147194563D01*
X151354548Y-147186253D01*
X151364110Y-147181150D01*
X151369656Y-147179024D01*
X151370490Y-147178931D01*
X151373597Y-147179649D01*
X151378088Y-147182068D01*
X151384377Y-147186581D01*
X151392881Y-147193582D01*
X151404016Y-147203468D01*
X151418198Y-147216631D01*
X151435842Y-147233467D01*
X151457364Y-147254369D01*
X151483182Y-147279734D01*
X151513709Y-147309954D01*
X151549364Y-147345425D01*
X151590560Y-147386541D01*
X151612392Y-147408364D01*
X151655737Y-147451731D01*
X151693278Y-147489358D01*
X151725425Y-147521678D01*
X151752584Y-147549125D01*
X151775164Y-147572133D01*
X151793574Y-147591138D01*
X151808220Y-147606572D01*
X151819512Y-147618870D01*
X151827858Y-147628466D01*
X151833665Y-147635795D01*
X151837341Y-147641290D01*
X151839296Y-147645386D01*
X151839936Y-147648517D01*
X151839828Y-147650321D01*
X151837025Y-147656113D01*
X151829612Y-147668492D01*
X151817988Y-147686857D01*
X151802549Y-147710608D01*
X151783692Y-147739145D01*
X151761815Y-147771867D01*
X151737314Y-147808174D01*
X151710588Y-147847465D01*
X151682032Y-147889141D01*
X151676610Y-147897022D01*
X151640394Y-147949620D01*
X151608818Y-147995486D01*
X151581564Y-148035106D01*
X151558316Y-148068971D01*
X151538755Y-148097568D01*
X151522566Y-148121386D01*
X151509430Y-148140912D01*
X151499032Y-148156636D01*
X151491053Y-148169046D01*
X151485177Y-148178630D01*
X151481086Y-148185877D01*
X151478463Y-148191274D01*
X151476992Y-148195311D01*
X151476355Y-148198475D01*
X151476235Y-148201255D01*
X151476315Y-148204139D01*
X151476331Y-148205456D01*
X151478061Y-148212860D01*
X151482991Y-148227343D01*
X151490732Y-148247993D01*
X151500893Y-148273899D01*
X151513085Y-148304150D01*
X151526919Y-148337836D01*
X151542005Y-148374044D01*
X151557953Y-148411865D01*
X151574375Y-148450387D01*
X151590879Y-148488699D01*
X151607076Y-148525891D01*
X151622578Y-148561050D01*
X151636994Y-148593267D01*
X151649935Y-148621630D01*
X151661010Y-148645228D01*
X151669831Y-148663150D01*
X151676008Y-148674485D01*
X151678347Y-148677813D01*
X151682190Y-148681334D01*
X151687130Y-148684538D01*
X151694011Y-148687629D01*
X151703672Y-148690808D01*
X151716956Y-148694278D01*
X151734704Y-148698242D01*
X151757758Y-148702902D01*
X151786959Y-148708460D01*
X151823150Y-148715118D01*
X151864776Y-148722649D01*
X151879870Y-148725389D01*
X151901650Y-148729374D01*
X151928191Y-148734248D01*
X151957568Y-148739660D01*
X151987855Y-148745254D01*
X151993966Y-148746385D01*
X152027366Y-148752562D01*
X152066436Y-148759778D01*
X152108231Y-148767492D01*
X152149807Y-148775158D01*
X152188218Y-148782235D01*
X152197028Y-148783857D01*
X152233592Y-148790676D01*
X152262478Y-148796313D01*
X152284650Y-148801023D01*
X152301070Y-148805061D01*
X152312700Y-148808682D01*
X152320503Y-148812143D01*
X152325441Y-148815697D01*
X152327821Y-148818543D01*
X152328358Y-148823620D01*
X152328849Y-148836616D01*
X152329293Y-148856692D01*
X152329690Y-148883006D01*
X152330038Y-148914721D01*
X152330337Y-148950996D01*
X152330586Y-148990991D01*
X152330784Y-149033867D01*
X152330930Y-149078785D01*
X152331024Y-149124904D01*
X152331065Y-149171385D01*
X152331051Y-149217388D01*
X152330982Y-149262074D01*
X152330857Y-149304603D01*
X152330676Y-149344135D01*
X152330437Y-149379830D01*
X152330140Y-149410850D01*
X152329783Y-149436354D01*
X152329367Y-149455503D01*
X152328890Y-149467457D01*
X152328468Y-149471263D01*
X152322438Y-149479294D01*
X152318145Y-149482389D01*
X152312650Y-149483858D01*
X152299260Y-149486771D01*
X152278693Y-149490987D01*
X152251670Y-149496368D01*
X152218910Y-149502773D01*
X152181130Y-149510063D01*
X152139051Y-149518096D01*
X152093392Y-149526734D01*
X152044872Y-149535836D01*
X152014110Y-149541568D01*
X151964130Y-149550886D01*
X151916521Y-149559815D01*
X151872008Y-149568214D01*
X151831316Y-149575945D01*
X151795172Y-149582869D01*
X151764301Y-149588845D01*
X151739427Y-149593735D01*
X151721278Y-149597399D01*
X151710578Y-149599698D01*
X151708028Y-149600367D01*
X151697216Y-149606725D01*
X151691093Y-149612230D01*
X151688189Y-149617686D01*
X151682365Y-149630546D01*
X151673927Y-149650073D01*
X151663183Y-149675529D01*
X151650439Y-149706176D01*
X151636003Y-149741277D01*
X151620182Y-149780093D01*
X151603281Y-149821887D01*
X151586703Y-149863184D01*
X151565171Y-149917165D01*
X151546810Y-149963541D01*
X151531442Y-150002798D01*
X151518885Y-150035424D01*
X151508959Y-150061904D01*
X151501483Y-150082726D01*
X151496276Y-150098375D01*
X151493158Y-150109338D01*
X151491948Y-150116101D01*
X151492021Y-150118164D01*
X151495071Y-150124518D01*
X151502905Y-150137631D01*
X151515257Y-150157104D01*
X151531860Y-150182542D01*
X151552449Y-150213546D01*
X151576756Y-150249720D01*
X151604515Y-150290666D01*
X151635460Y-150335988D01*
X151669324Y-150385287D01*
X151705841Y-150438167D01*
X151732457Y-150476552D01*
X151758868Y-150514643D01*
X151780657Y-150546255D01*
X151798245Y-150572071D01*
X151812050Y-150592773D01*
X151822495Y-150609044D01*
X151829999Y-150621565D01*
X151834984Y-150631020D01*
X151837868Y-150638091D01*
X151839074Y-150643461D01*
X151839020Y-150647811D01*
X151838795Y-150649154D01*
X151836836Y-150653233D01*
X151831873Y-150660008D01*
X151823568Y-150669829D01*
X151811585Y-150683046D01*
X151795586Y-150700008D01*
X151775235Y-150721065D01*
X151750194Y-150746567D01*
X151720126Y-150776863D01*
X151684695Y-150812303D01*
X151643562Y-150853238D01*
X151609597Y-150886934D01*
X151572482Y-150923649D01*
X151537057Y-150958564D01*
X151503830Y-150991185D01*
X151473310Y-151021020D01*
X151446003Y-151047576D01*
X151422418Y-151070361D01*
X151403063Y-151088883D01*
X151388446Y-151102648D01*
X151379073Y-151111164D01*
X151375554Y-151113930D01*
X151366076Y-151113921D01*
X151358037Y-151111161D01*
X151352707Y-151107800D01*
X151340809Y-151099930D01*
X151322999Y-151087995D01*
X151299933Y-151072440D01*
X151272266Y-151053708D01*
X151240655Y-151032243D01*
X151205756Y-151008490D01*
X151168224Y-150982893D01*
X151128714Y-150955895D01*
X151126862Y-150954629D01*
X151086858Y-150927265D01*
X151048484Y-150901019D01*
X151012441Y-150876369D01*
X150979431Y-150853795D01*
X150950153Y-150833776D01*
X150925308Y-150816790D01*
X150905597Y-150803316D01*
X150891720Y-150793835D01*
X150884414Y-150788848D01*
X150874635Y-150782454D01*
X150865804Y-150777867D01*
X150856934Y-150775354D01*
X150847038Y-150775185D01*
X150835127Y-150777626D01*
X150820215Y-150782947D01*
X150801314Y-150791414D01*
X150777437Y-150803297D01*
X150747595Y-150818863D01*
X150720032Y-150833475D01*
X150691061Y-150848696D01*
X150664220Y-150862465D01*
X150640584Y-150874256D01*
X150621228Y-150883545D01*
X150607225Y-150889807D01*
X150599650Y-150892516D01*
X150599043Y-150892586D01*
X150592008Y-150891656D01*
X150586367Y-150887811D01*
X150580855Y-150879469D01*
X150574210Y-150865047D01*
X150571087Y-150857552D01*
X150566956Y-150847534D01*
X150559648Y-150829854D01*
X150549341Y-150804943D01*
X150536211Y-150773229D01*
X150520438Y-150735140D01*
X150502198Y-150691107D01*
X150481670Y-150641559D01*
X150459031Y-150586924D01*
X150434459Y-150527631D01*
X150408132Y-150464111D01*
X150380228Y-150396792D01*
X150350925Y-150326102D01*
X150320400Y-150252472D01*
X150318888Y-150248827D01*
X150290442Y-150180199D01*
X150265176Y-150119199D01*
X150242906Y-150065370D01*
X150223448Y-150018254D01*
X150206619Y-149977393D01*
X150192234Y-149942329D01*
X150180109Y-149912604D01*
X150170060Y-149887759D01*
X150161904Y-149867338D01*
X150155455Y-149850882D01*
X150150531Y-149837933D01*
X150146948Y-149828034D01*
X150144521Y-149820725D01*
X150143066Y-149815550D01*
X150142399Y-149812050D01*
X150142336Y-149809767D01*
X150142373Y-149809467D01*
X150144121Y-149804518D01*
X150148627Y-149798773D01*
X150156879Y-149791411D01*
X150169866Y-149781613D01*
X150188579Y-149768560D01*
X150205905Y-149756852D01*
X150266700Y-149713788D01*
X150319748Y-149671113D01*
X150365960Y-149627900D01*
X150406247Y-149583221D01*
X150441521Y-149536149D01*
X150472692Y-149485755D01*
X150473319Y-149484638D01*
X150506880Y-149415872D01*
X150532323Y-149344440D01*
X150549624Y-149271022D01*
X150558758Y-149196297D01*
X150559702Y-149120946D01*
X150552432Y-149045649D01*
X150536923Y-148971085D01*
X150513151Y-148897934D01*
X150495512Y-148856300D01*
X150480799Y-148827710D01*
X150461720Y-148795439D01*
X150440007Y-148762090D01*
X150417392Y-148730269D01*
X150395608Y-148702579D01*
X150385752Y-148691298D01*
X150328499Y-148634871D01*
X150266860Y-148585987D01*
X150200972Y-148544729D01*
X150130975Y-148511176D01*
X150057007Y-148485411D01*
X150014260Y-148474494D01*
X149998025Y-148471058D01*
X149983082Y-148468479D01*
X149967747Y-148466637D01*
X149950336Y-148465414D01*
X149929167Y-148464689D01*
X149902554Y-148464344D01*
X149870000Y-148464258D01*
X149836485Y-148464351D01*
X149810046Y-148464709D01*
X149789002Y-148465450D01*
X149771673Y-148466693D01*
X149756377Y-148468558D01*
X149741433Y-148471163D01*
X149726006Y-148474437D01*
X149650392Y-148495700D01*
X149578841Y-148524494D01*
X149511765Y-148560389D01*
X149449576Y-148602953D01*
X149392688Y-148651757D01*
X149341511Y-148706369D01*
X149296460Y-148766360D01*
X149257946Y-148831298D01*
X149226381Y-148900754D01*
X149202178Y-148974295D01*
X149188398Y-149035758D01*
X149184521Y-149064863D01*
X149182001Y-149099715D01*
X149180838Y-149137796D01*
X149181032Y-149176588D01*
X149182582Y-149213576D01*
X149185488Y-149246240D01*
X149188421Y-149265672D01*
X149200654Y-149318785D01*
X149217045Y-149372456D01*
X149236657Y-149424122D01*
X149258556Y-149471223D01*
X149272944Y-149497128D01*
X149306309Y-149547819D01*
X149343948Y-149595264D01*
X149386804Y-149640403D01*
X149435822Y-149684174D01*
X149491946Y-149727517D01*
X149534096Y-149756852D01*
X149557480Y-149772717D01*
X149574435Y-149784745D01*
X149585952Y-149793754D01*
X149593018Y-149800564D01*
X149596625Y-149805995D01*
X149597628Y-149809467D01*
X149597650Y-149811588D01*
X149597099Y-149814849D01*
X149595791Y-149819707D01*
X149593542Y-149826621D01*
X149590168Y-149836048D01*
X149585485Y-149848446D01*
X149579309Y-149864274D01*
X149571456Y-149883989D01*
X149561742Y-149908049D01*
X149549982Y-149936912D01*
X149535994Y-149971036D01*
X149519593Y-150010880D01*
X149500595Y-150056900D01*
X149478817Y-150109556D01*
X149454073Y-150169304D01*
X149426180Y-150236604D01*
X149421112Y-150248827D01*
X149390532Y-150322589D01*
X149361165Y-150393431D01*
X149333189Y-150460924D01*
X149306782Y-150524639D01*
X149282121Y-150584147D01*
X149259384Y-150639018D01*
X149238749Y-150688824D01*
X149220394Y-150733135D01*
X149204496Y-150771522D01*
X149191234Y-150803556D01*
X149180785Y-150828808D01*
X149173327Y-150846848D01*
X149169038Y-150857248D01*
X149168914Y-150857552D01*
X149161497Y-150874732D01*
X149155699Y-150885224D01*
X149150257Y-150890610D01*
X149143907Y-150892473D01*
X149140958Y-150892586D01*
X149134682Y-150890587D01*
X149121780Y-150884939D01*
X149103327Y-150876167D01*
X149080398Y-150864796D01*
X149054065Y-150851351D01*
X149025405Y-150836358D01*
X149019969Y-150833475D01*
X148984604Y-150814838D01*
X148956097Y-150800195D01*
X148933695Y-150789195D01*
X148916650Y-150781490D01*
X148904211Y-150776732D01*
X148895628Y-150774572D01*
X148892829Y-150774354D01*
X148881056Y-150776163D01*
X148867121Y-150782190D01*
X148849050Y-150793311D01*
X148846846Y-150794801D01*
X148837548Y-150801144D01*
X148821808Y-150811901D01*
X148800408Y-150826536D01*
X148774132Y-150844515D01*
X148743763Y-150865300D01*
X148710083Y-150888356D01*
X148673877Y-150913147D01*
X148635926Y-150939138D01*
X148615328Y-150953247D01*
X148567407Y-150986060D01*
X148526198Y-151014245D01*
X148491199Y-151038139D01*
X148461905Y-151058079D01*
X148437814Y-151074400D01*
X148418421Y-151087441D01*
X148403225Y-151097537D01*
X148391720Y-151105024D01*
X148383404Y-151110241D01*
X148377774Y-151113522D01*
X148374326Y-151115206D01*
X148372557Y-151115628D01*
X148372514Y-151115623D01*
X148366827Y-151113915D01*
X148362649Y-151112339D01*
X148357988Y-151108660D01*
X148347764Y-151099370D01*
X148332585Y-151085072D01*
X148313061Y-151066367D01*
X148289799Y-151043860D01*
X148263408Y-151018154D01*
X148234496Y-150989852D01*
X148203673Y-150959557D01*
X148171545Y-150927872D01*
X148138722Y-150895401D01*
X148105813Y-150862746D01*
X148073425Y-150830511D01*
X148042167Y-150799299D01*
X148012648Y-150769714D01*
X147985476Y-150742357D01*
X147961259Y-150717833D01*
X147940606Y-150696745D01*
X147924125Y-150679696D01*
X147912426Y-150667289D01*
X147906115Y-150660127D01*
X147905262Y-150658916D01*
X147901221Y-150647167D01*
X147900959Y-150636993D01*
X147904053Y-150630809D01*
X147911441Y-150618599D01*
X147922384Y-150601506D01*
X147936144Y-150580672D01*
X147951981Y-150557240D01*
X147961531Y-150543337D01*
X147982562Y-150512871D01*
X148006078Y-150478760D01*
X148030215Y-150443709D01*
X148053111Y-150410422D01*
X148072905Y-150381603D01*
X148073093Y-150381329D01*
X148092668Y-150352804D01*
X148115385Y-150319711D01*
X148139423Y-150284701D01*
X148162964Y-150250424D01*
X148184187Y-150219530D01*
X148185343Y-150217848D01*
X148202178Y-150192971D01*
X148217390Y-150169783D01*
X148230231Y-150149476D01*
X148239958Y-150133246D01*
X148245825Y-150122285D01*
X148247171Y-150118792D01*
X148247313Y-150114716D01*
X148246240Y-150108258D01*
X148243736Y-150098825D01*
X148239584Y-150085829D01*
X148233567Y-150068679D01*
X148225468Y-150046784D01*
X148215070Y-150019555D01*
X148202156Y-149986401D01*
X148186509Y-149946731D01*
X148167913Y-149899957D01*
X148153126Y-149862926D01*
X148135573Y-149819127D01*
X148118886Y-149777681D01*
X148103362Y-149739315D01*
X148089300Y-149704757D01*
X148076998Y-149674737D01*
X148066755Y-149649981D01*
X148058869Y-149631219D01*
X148053638Y-149619179D01*
X148051404Y-149614634D01*
X148045082Y-149608832D01*
X148035621Y-149603658D01*
X148021859Y-149598752D01*
X148002637Y-149593754D01*
X147976794Y-149588301D01*
X147951165Y-149583479D01*
X147897824Y-149573736D01*
X147844038Y-149563839D01*
X147790517Y-149553922D01*
X147737967Y-149544121D01*
X147687097Y-149534571D01*
X147638615Y-149525407D01*
X147593228Y-149516765D01*
X147551646Y-149508780D01*
X147514576Y-149501587D01*
X147482726Y-149495321D01*
X147456804Y-149490117D01*
X147437517Y-149486111D01*
X147425575Y-149483439D01*
X147421791Y-149482354D01*
X147413965Y-149475414D01*
X147411533Y-149471263D01*
X147411007Y-149465602D01*
X147410542Y-149452080D01*
X147410138Y-149431539D01*
X147409794Y-149404817D01*
X147409509Y-149372754D01*
X147409282Y-149336190D01*
X147409113Y-149295964D01*
X147409000Y-149252917D01*
X147408943Y-149207888D01*
X147408940Y-149161716D01*
X147408992Y-149115241D01*
X147409097Y-149069303D01*
X147409254Y-149024741D01*
X147409463Y-148982396D01*
X147409722Y-148943106D01*
X147410031Y-148907712D01*
X147410390Y-148877053D01*
X147410796Y-148851968D01*
X147411250Y-148833298D01*
X147411751Y-148821882D01*
X147412180Y-148818543D01*
X147415615Y-148814755D01*
X147421202Y-148811249D01*
X147429902Y-148807772D01*
X147442679Y-148804067D01*
X147460494Y-148799880D01*
X147484310Y-148794955D01*
X147515089Y-148789036D01*
X147542973Y-148783857D01*
X147580126Y-148777014D01*
X147621183Y-148769445D01*
X147663200Y-148761692D01*
X147703232Y-148754299D01*
X147738334Y-148747810D01*
X147746035Y-148746385D01*
X147776272Y-148740797D01*
X147805991Y-148735319D01*
X147833266Y-148730306D01*
X147856172Y-148726112D01*
X147872785Y-148723089D01*
X147875225Y-148722649D01*
X147918835Y-148714757D01*
X147954658Y-148708158D01*
X147983533Y-148702649D01*
X148006303Y-148698029D01*
X148023810Y-148694094D01*
X148036895Y-148690642D01*
X148046400Y-148687472D01*
X148053166Y-148684380D01*
X148058035Y-148681163D01*
X148061667Y-148677813D01*
X148066028Y-148671020D01*
X148073266Y-148657095D01*
X148082993Y-148636943D01*
X148094822Y-148611471D01*
X148108365Y-148581587D01*
X148123233Y-148548196D01*
X148139039Y-148512206D01*
X148155395Y-148474523D01*
X148171912Y-148436054D01*
X148188203Y-148397706D01*
X148203880Y-148360385D01*
X148218556Y-148324999D01*
X148231841Y-148292453D01*
X148243349Y-148263655D01*
X148252690Y-148239511D01*
X148259478Y-148220928D01*
X148263325Y-148208813D01*
X148264063Y-148204743D01*
X148264020Y-148201752D01*
X148263867Y-148198974D01*
X148263283Y-148195921D01*
X148261951Y-148192103D01*
X148259553Y-148187033D01*
X148255772Y-148180223D01*
X148250287Y-148171183D01*
X148242783Y-148159425D01*
X148232940Y-148144462D01*
X148220440Y-148125803D01*
X148204966Y-148102962D01*
X148186198Y-148075450D01*
X148163820Y-148042777D01*
X148137513Y-148004457D01*
X148106958Y-147959999D01*
X148071838Y-147908917D01*
X148063341Y-147896557D01*
X148035487Y-147855901D01*
X148009091Y-147817107D01*
X147984580Y-147780817D01*
X147962380Y-147747676D01*
X147942918Y-147718327D01*
X147926618Y-147693413D01*
X147913908Y-147673579D01*
X147905212Y-147659467D01*
X147900958Y-147651722D01*
X147900615Y-147650755D01*
X147900390Y-147648079D01*
X147901021Y-147644934D01*
X147902919Y-147640883D01*
X147906493Y-147635489D01*
X147912151Y-147628316D01*
X147920304Y-147618925D01*
X147931361Y-147606880D01*
X147945731Y-147591743D01*
X147963823Y-147573078D01*
X147986047Y-147550447D01*
X148012812Y-147523414D01*
X148044527Y-147491541D01*
X148081602Y-147454391D01*
X148124447Y-147411526D01*
X148127546Y-147408427D01*
X148171249Y-147364756D01*
X148209214Y-147326903D01*
X148241869Y-147294464D01*
X148269639Y-147267037D01*
X148292952Y-147244216D01*
X148312235Y-147225599D01*
X148327914Y-147210782D01*
X148340416Y-147199361D01*
X148350169Y-147190934D01*
X148357599Y-147185095D01*
X148363133Y-147181442D01*
X148367198Y-147179572D01*
X148370133Y-147179078D01*
X148374503Y-147180308D01*
X148382273Y-147184108D01*
X148393835Y-147190731D01*
X148409575Y-147200433D01*
X148429885Y-147213469D01*
X148455153Y-147230094D01*
X148485768Y-147250565D01*
X148522119Y-147275135D01*
X148564595Y-147304060D01*
X148613587Y-147337595D01*
X148650362Y-147362848D01*
X148693917Y-147392701D01*
X148735618Y-147421117D01*
X148774868Y-147447700D01*
X148811070Y-147472054D01*
X148843627Y-147493781D01*
X148871942Y-147512485D01*
X148895418Y-147527770D01*
X148913459Y-147539238D01*
X148925466Y-147546494D01*
X148930749Y-147549125D01*
X148935566Y-147549197D01*
X148943152Y-147547779D01*
X148954193Y-147544619D01*
X148969376Y-147539465D01*
X148989388Y-147532067D01*
X149014917Y-147522173D01*
X149046650Y-147509530D01*
X149085273Y-147493888D01*
X149116870Y-147480981D01*
X149155747Y-147465069D01*
X149193964Y-147449448D01*
X149230348Y-147434595D01*
X149263725Y-147420987D01*
X149292925Y-147409103D01*
X149316775Y-147399420D01*
X149334101Y-147392417D01*
X149338388Y-147390695D01*
X149360624Y-147381139D01*
X149379506Y-147371781D01*
X149393167Y-147363598D01*
X149398363Y-147359370D01*
X149400976Y-147356222D01*
X149403466Y-147351998D01*
X149405995Y-147345978D01*
X149408724Y-147337443D01*
X149411814Y-147325672D01*
X149415428Y-147309946D01*
X149419726Y-147289544D01*
X149424871Y-147263746D01*
X149431022Y-147231833D01*
X149438343Y-147193083D01*
X149446995Y-147146778D01*
X149451604Y-147122000D01*
X149459793Y-147077962D01*
X149467619Y-147035928D01*
X149474913Y-146996802D01*
X149481506Y-146961486D01*
X149487230Y-146930882D01*
X149491916Y-146905895D01*
X149495395Y-146887426D01*
X149497498Y-146876380D01*
X149497851Y-146874569D01*
X149500921Y-146858801D01*
X149504739Y-146838847D01*
X149508327Y-146819827D01*
X149512101Y-146799676D01*
X149516658Y-146775386D01*
X149521158Y-146751428D01*
X149522239Y-146745677D01*
X149527261Y-146722973D01*
X149532552Y-146706199D01*
X149537677Y-146696717D01*
X149537969Y-146696410D01*
X149539824Y-146694905D01*
X149542569Y-146693602D01*
X149546804Y-146692486D01*
X149553134Y-146691544D01*
X149562161Y-146690760D01*
X149574487Y-146690121D01*
X149590715Y-146689611D01*
X149611447Y-146689216D01*
X149637286Y-146688921D01*
X149668834Y-146688713D01*
X149706695Y-146688576D01*
X149751470Y-146688496D01*
X149803762Y-146688458D01*
X149864173Y-146688448D01*
X149868099Y-146688448D01*
X149936973Y-146688510D01*
X149936973Y-146688510D01*
G37*
X149936973Y-146688510D02*
X149998129Y-146688693D01*
X150051431Y-146688997D01*
X150096745Y-146689420D01*
X150133933Y-146689958D01*
X150162862Y-146690612D01*
X150183394Y-146691378D01*
X150195394Y-146692256D01*
X150198588Y-146692902D01*
X150205130Y-146699889D01*
X150210529Y-146711364D01*
X150211216Y-146713704D01*
X150212716Y-146720646D01*
X150215669Y-146735472D01*
X150219939Y-146757451D01*
X150225385Y-146785853D01*
X150231871Y-146819948D01*
X150239256Y-146859007D01*
X150247403Y-146902299D01*
X150256174Y-146949096D01*
X150265429Y-146998667D01*
X150272894Y-147038782D01*
X150283914Y-147098010D01*
X150293483Y-147149231D01*
X150301733Y-147193052D01*
X150308792Y-147230079D01*
X150314792Y-147260921D01*
X150319863Y-147286184D01*
X150324134Y-147306476D01*
X150327735Y-147322403D01*
X150330798Y-147334574D01*
X150333453Y-147343595D01*
X150335828Y-147350074D01*
X150338055Y-147354618D01*
X150340264Y-147357834D01*
X150341616Y-147359359D01*
X150350871Y-147366247D01*
X150366548Y-147374948D01*
X150386772Y-147384482D01*
X150401613Y-147390719D01*
X150416388Y-147396681D01*
X150438096Y-147405489D01*
X150465564Y-147416665D01*
X150497619Y-147429731D01*
X150533092Y-147444210D01*
X150570808Y-147459625D01*
X150609598Y-147475496D01*
X150623242Y-147481083D01*
X150665811Y-147498478D01*
X150701061Y-147512768D01*
X150729756Y-147524227D01*
X150752658Y-147533129D01*
X150770529Y-147539746D01*
X150784133Y-147544352D01*
X150794231Y-147547221D01*
X150801587Y-147548625D01*
X150806963Y-147548839D01*
X150810626Y-147548269D01*
X150816520Y-147545236D01*
X150829017Y-147537623D01*
X150847515Y-147525827D01*
X150871412Y-147510250D01*
X150900106Y-147491291D01*
X150932996Y-147469348D01*
X150969480Y-147444823D01*
X151008955Y-147418114D01*
X151050820Y-147389621D01*
X151091524Y-147361767D01*
X151145801Y-147324594D01*
X151193265Y-147292231D01*
X151234265Y-147264451D01*
X151269151Y-147241023D01*
X151298272Y-147221718D01*
X151321979Y-147206308D01*
X151340621Y-147194563D01*
X151354548Y-147186253D01*
X151364110Y-147181150D01*
X151369656Y-147179024D01*
X151370490Y-147178931D01*
X151373597Y-147179649D01*
X151378088Y-147182068D01*
X151384377Y-147186581D01*
X151392881Y-147193582D01*
X151404016Y-147203468D01*
X151418198Y-147216631D01*
X151435842Y-147233467D01*
X151457364Y-147254369D01*
X151483182Y-147279734D01*
X151513709Y-147309954D01*
X151549364Y-147345425D01*
X151590560Y-147386541D01*
X151612392Y-147408364D01*
X151655737Y-147451731D01*
X151693278Y-147489358D01*
X151725425Y-147521678D01*
X151752584Y-147549125D01*
X151775164Y-147572133D01*
X151793574Y-147591138D01*
X151808220Y-147606572D01*
X151819512Y-147618870D01*
X151827858Y-147628466D01*
X151833665Y-147635795D01*
X151837341Y-147641290D01*
X151839296Y-147645386D01*
X151839936Y-147648517D01*
X151839828Y-147650321D01*
X151837025Y-147656113D01*
X151829612Y-147668492D01*
X151817988Y-147686857D01*
X151802549Y-147710608D01*
X151783692Y-147739145D01*
X151761815Y-147771867D01*
X151737314Y-147808174D01*
X151710588Y-147847465D01*
X151682032Y-147889141D01*
X151676610Y-147897022D01*
X151640394Y-147949620D01*
X151608818Y-147995486D01*
X151581564Y-148035106D01*
X151558316Y-148068971D01*
X151538755Y-148097568D01*
X151522566Y-148121386D01*
X151509430Y-148140912D01*
X151499032Y-148156636D01*
X151491053Y-148169046D01*
X151485177Y-148178630D01*
X151481086Y-148185877D01*
X151478463Y-148191274D01*
X151476992Y-148195311D01*
X151476355Y-148198475D01*
X151476235Y-148201255D01*
X151476315Y-148204139D01*
X151476331Y-148205456D01*
X151478061Y-148212860D01*
X151482991Y-148227343D01*
X151490732Y-148247993D01*
X151500893Y-148273899D01*
X151513085Y-148304150D01*
X151526919Y-148337836D01*
X151542005Y-148374044D01*
X151557953Y-148411865D01*
X151574375Y-148450387D01*
X151590879Y-148488699D01*
X151607076Y-148525891D01*
X151622578Y-148561050D01*
X151636994Y-148593267D01*
X151649935Y-148621630D01*
X151661010Y-148645228D01*
X151669831Y-148663150D01*
X151676008Y-148674485D01*
X151678347Y-148677813D01*
X151682190Y-148681334D01*
X151687130Y-148684538D01*
X151694011Y-148687629D01*
X151703672Y-148690808D01*
X151716956Y-148694278D01*
X151734704Y-148698242D01*
X151757758Y-148702902D01*
X151786959Y-148708460D01*
X151823150Y-148715118D01*
X151864776Y-148722649D01*
X151879870Y-148725389D01*
X151901650Y-148729374D01*
X151928191Y-148734248D01*
X151957568Y-148739660D01*
X151987855Y-148745254D01*
X151993966Y-148746385D01*
X152027366Y-148752562D01*
X152066436Y-148759778D01*
X152108231Y-148767492D01*
X152149807Y-148775158D01*
X152188218Y-148782235D01*
X152197028Y-148783857D01*
X152233592Y-148790676D01*
X152262478Y-148796313D01*
X152284650Y-148801023D01*
X152301070Y-148805061D01*
X152312700Y-148808682D01*
X152320503Y-148812143D01*
X152325441Y-148815697D01*
X152327821Y-148818543D01*
X152328358Y-148823620D01*
X152328849Y-148836616D01*
X152329293Y-148856692D01*
X152329690Y-148883006D01*
X152330038Y-148914721D01*
X152330337Y-148950996D01*
X152330586Y-148990991D01*
X152330784Y-149033867D01*
X152330930Y-149078785D01*
X152331024Y-149124904D01*
X152331065Y-149171385D01*
X152331051Y-149217388D01*
X152330982Y-149262074D01*
X152330857Y-149304603D01*
X152330676Y-149344135D01*
X152330437Y-149379830D01*
X152330140Y-149410850D01*
X152329783Y-149436354D01*
X152329367Y-149455503D01*
X152328890Y-149467457D01*
X152328468Y-149471263D01*
X152322438Y-149479294D01*
X152318145Y-149482389D01*
X152312650Y-149483858D01*
X152299260Y-149486771D01*
X152278693Y-149490987D01*
X152251670Y-149496368D01*
X152218910Y-149502773D01*
X152181130Y-149510063D01*
X152139051Y-149518096D01*
X152093392Y-149526734D01*
X152044872Y-149535836D01*
X152014110Y-149541568D01*
X151964130Y-149550886D01*
X151916521Y-149559815D01*
X151872008Y-149568214D01*
X151831316Y-149575945D01*
X151795172Y-149582869D01*
X151764301Y-149588845D01*
X151739427Y-149593735D01*
X151721278Y-149597399D01*
X151710578Y-149599698D01*
X151708028Y-149600367D01*
X151697216Y-149606725D01*
X151691093Y-149612230D01*
X151688189Y-149617686D01*
X151682365Y-149630546D01*
X151673927Y-149650073D01*
X151663183Y-149675529D01*
X151650439Y-149706176D01*
X151636003Y-149741277D01*
X151620182Y-149780093D01*
X151603281Y-149821887D01*
X151586703Y-149863184D01*
X151565171Y-149917165D01*
X151546810Y-149963541D01*
X151531442Y-150002798D01*
X151518885Y-150035424D01*
X151508959Y-150061904D01*
X151501483Y-150082726D01*
X151496276Y-150098375D01*
X151493158Y-150109338D01*
X151491948Y-150116101D01*
X151492021Y-150118164D01*
X151495071Y-150124518D01*
X151502905Y-150137631D01*
X151515257Y-150157104D01*
X151531860Y-150182542D01*
X151552449Y-150213546D01*
X151576756Y-150249720D01*
X151604515Y-150290666D01*
X151635460Y-150335988D01*
X151669324Y-150385287D01*
X151705841Y-150438167D01*
X151732457Y-150476552D01*
X151758868Y-150514643D01*
X151780657Y-150546255D01*
X151798245Y-150572071D01*
X151812050Y-150592773D01*
X151822495Y-150609044D01*
X151829999Y-150621565D01*
X151834984Y-150631020D01*
X151837868Y-150638091D01*
X151839074Y-150643461D01*
X151839020Y-150647811D01*
X151838795Y-150649154D01*
X151836836Y-150653233D01*
X151831873Y-150660008D01*
X151823568Y-150669829D01*
X151811585Y-150683046D01*
X151795586Y-150700008D01*
X151775235Y-150721065D01*
X151750194Y-150746567D01*
X151720126Y-150776863D01*
X151684695Y-150812303D01*
X151643562Y-150853238D01*
X151609597Y-150886934D01*
X151572482Y-150923649D01*
X151537057Y-150958564D01*
X151503830Y-150991185D01*
X151473310Y-151021020D01*
X151446003Y-151047576D01*
X151422418Y-151070361D01*
X151403063Y-151088883D01*
X151388446Y-151102648D01*
X151379073Y-151111164D01*
X151375554Y-151113930D01*
X151366076Y-151113921D01*
X151358037Y-151111161D01*
X151352707Y-151107800D01*
X151340809Y-151099930D01*
X151322999Y-151087995D01*
X151299933Y-151072440D01*
X151272266Y-151053708D01*
X151240655Y-151032243D01*
X151205756Y-151008490D01*
X151168224Y-150982893D01*
X151128714Y-150955895D01*
X151126862Y-150954629D01*
X151086858Y-150927265D01*
X151048484Y-150901019D01*
X151012441Y-150876369D01*
X150979431Y-150853795D01*
X150950153Y-150833776D01*
X150925308Y-150816790D01*
X150905597Y-150803316D01*
X150891720Y-150793835D01*
X150884414Y-150788848D01*
X150874635Y-150782454D01*
X150865804Y-150777867D01*
X150856934Y-150775354D01*
X150847038Y-150775185D01*
X150835127Y-150777626D01*
X150820215Y-150782947D01*
X150801314Y-150791414D01*
X150777437Y-150803297D01*
X150747595Y-150818863D01*
X150720032Y-150833475D01*
X150691061Y-150848696D01*
X150664220Y-150862465D01*
X150640584Y-150874256D01*
X150621228Y-150883545D01*
X150607225Y-150889807D01*
X150599650Y-150892516D01*
X150599043Y-150892586D01*
X150592008Y-150891656D01*
X150586367Y-150887811D01*
X150580855Y-150879469D01*
X150574210Y-150865047D01*
X150571087Y-150857552D01*
X150566956Y-150847534D01*
X150559648Y-150829854D01*
X150549341Y-150804943D01*
X150536211Y-150773229D01*
X150520438Y-150735140D01*
X150502198Y-150691107D01*
X150481670Y-150641559D01*
X150459031Y-150586924D01*
X150434459Y-150527631D01*
X150408132Y-150464111D01*
X150380228Y-150396792D01*
X150350925Y-150326102D01*
X150320400Y-150252472D01*
X150318888Y-150248827D01*
X150290442Y-150180199D01*
X150265176Y-150119199D01*
X150242906Y-150065370D01*
X150223448Y-150018254D01*
X150206619Y-149977393D01*
X150192234Y-149942329D01*
X150180109Y-149912604D01*
X150170060Y-149887759D01*
X150161904Y-149867338D01*
X150155455Y-149850882D01*
X150150531Y-149837933D01*
X150146948Y-149828034D01*
X150144521Y-149820725D01*
X150143066Y-149815550D01*
X150142399Y-149812050D01*
X150142336Y-149809767D01*
X150142373Y-149809467D01*
X150144121Y-149804518D01*
X150148627Y-149798773D01*
X150156879Y-149791411D01*
X150169866Y-149781613D01*
X150188579Y-149768560D01*
X150205905Y-149756852D01*
X150266700Y-149713788D01*
X150319748Y-149671113D01*
X150365960Y-149627900D01*
X150406247Y-149583221D01*
X150441521Y-149536149D01*
X150472692Y-149485755D01*
X150473319Y-149484638D01*
X150506880Y-149415872D01*
X150532323Y-149344440D01*
X150549624Y-149271022D01*
X150558758Y-149196297D01*
X150559702Y-149120946D01*
X150552432Y-149045649D01*
X150536923Y-148971085D01*
X150513151Y-148897934D01*
X150495512Y-148856300D01*
X150480799Y-148827710D01*
X150461720Y-148795439D01*
X150440007Y-148762090D01*
X150417392Y-148730269D01*
X150395608Y-148702579D01*
X150385752Y-148691298D01*
X150328499Y-148634871D01*
X150266860Y-148585987D01*
X150200972Y-148544729D01*
X150130975Y-148511176D01*
X150057007Y-148485411D01*
X150014260Y-148474494D01*
X149998025Y-148471058D01*
X149983082Y-148468479D01*
X149967747Y-148466637D01*
X149950336Y-148465414D01*
X149929167Y-148464689D01*
X149902554Y-148464344D01*
X149870000Y-148464258D01*
X149836485Y-148464351D01*
X149810046Y-148464709D01*
X149789002Y-148465450D01*
X149771673Y-148466693D01*
X149756377Y-148468558D01*
X149741433Y-148471163D01*
X149726006Y-148474437D01*
X149650392Y-148495700D01*
X149578841Y-148524494D01*
X149511765Y-148560389D01*
X149449576Y-148602953D01*
X149392688Y-148651757D01*
X149341511Y-148706369D01*
X149296460Y-148766360D01*
X149257946Y-148831298D01*
X149226381Y-148900754D01*
X149202178Y-148974295D01*
X149188398Y-149035758D01*
X149184521Y-149064863D01*
X149182001Y-149099715D01*
X149180838Y-149137796D01*
X149181032Y-149176588D01*
X149182582Y-149213576D01*
X149185488Y-149246240D01*
X149188421Y-149265672D01*
X149200654Y-149318785D01*
X149217045Y-149372456D01*
X149236657Y-149424122D01*
X149258556Y-149471223D01*
X149272944Y-149497128D01*
X149306309Y-149547819D01*
X149343948Y-149595264D01*
X149386804Y-149640403D01*
X149435822Y-149684174D01*
X149491946Y-149727517D01*
X149534096Y-149756852D01*
X149557480Y-149772717D01*
X149574435Y-149784745D01*
X149585952Y-149793754D01*
X149593018Y-149800564D01*
X149596625Y-149805995D01*
X149597628Y-149809467D01*
X149597650Y-149811588D01*
X149597099Y-149814849D01*
X149595791Y-149819707D01*
X149593542Y-149826621D01*
X149590168Y-149836048D01*
X149585485Y-149848446D01*
X149579309Y-149864274D01*
X149571456Y-149883989D01*
X149561742Y-149908049D01*
X149549982Y-149936912D01*
X149535994Y-149971036D01*
X149519593Y-150010880D01*
X149500595Y-150056900D01*
X149478817Y-150109556D01*
X149454073Y-150169304D01*
X149426180Y-150236604D01*
X149421112Y-150248827D01*
X149390532Y-150322589D01*
X149361165Y-150393431D01*
X149333189Y-150460924D01*
X149306782Y-150524639D01*
X149282121Y-150584147D01*
X149259384Y-150639018D01*
X149238749Y-150688824D01*
X149220394Y-150733135D01*
X149204496Y-150771522D01*
X149191234Y-150803556D01*
X149180785Y-150828808D01*
X149173327Y-150846848D01*
X149169038Y-150857248D01*
X149168914Y-150857552D01*
X149161497Y-150874732D01*
X149155699Y-150885224D01*
X149150257Y-150890610D01*
X149143907Y-150892473D01*
X149140958Y-150892586D01*
X149134682Y-150890587D01*
X149121780Y-150884939D01*
X149103327Y-150876167D01*
X149080398Y-150864796D01*
X149054065Y-150851351D01*
X149025405Y-150836358D01*
X149019969Y-150833475D01*
X148984604Y-150814838D01*
X148956097Y-150800195D01*
X148933695Y-150789195D01*
X148916650Y-150781490D01*
X148904211Y-150776732D01*
X148895628Y-150774572D01*
X148892829Y-150774354D01*
X148881056Y-150776163D01*
X148867121Y-150782190D01*
X148849050Y-150793311D01*
X148846846Y-150794801D01*
X148837548Y-150801144D01*
X148821808Y-150811901D01*
X148800408Y-150826536D01*
X148774132Y-150844515D01*
X148743763Y-150865300D01*
X148710083Y-150888356D01*
X148673877Y-150913147D01*
X148635926Y-150939138D01*
X148615328Y-150953247D01*
X148567407Y-150986060D01*
X148526198Y-151014245D01*
X148491199Y-151038139D01*
X148461905Y-151058079D01*
X148437814Y-151074400D01*
X148418421Y-151087441D01*
X148403225Y-151097537D01*
X148391720Y-151105024D01*
X148383404Y-151110241D01*
X148377774Y-151113522D01*
X148374326Y-151115206D01*
X148372557Y-151115628D01*
X148372514Y-151115623D01*
X148366827Y-151113915D01*
X148362649Y-151112339D01*
X148357988Y-151108660D01*
X148347764Y-151099370D01*
X148332585Y-151085072D01*
X148313061Y-151066367D01*
X148289799Y-151043860D01*
X148263408Y-151018154D01*
X148234496Y-150989852D01*
X148203673Y-150959557D01*
X148171545Y-150927872D01*
X148138722Y-150895401D01*
X148105813Y-150862746D01*
X148073425Y-150830511D01*
X148042167Y-150799299D01*
X148012648Y-150769714D01*
X147985476Y-150742357D01*
X147961259Y-150717833D01*
X147940606Y-150696745D01*
X147924125Y-150679696D01*
X147912426Y-150667289D01*
X147906115Y-150660127D01*
X147905262Y-150658916D01*
X147901221Y-150647167D01*
X147900959Y-150636993D01*
X147904053Y-150630809D01*
X147911441Y-150618599D01*
X147922384Y-150601506D01*
X147936144Y-150580672D01*
X147951981Y-150557240D01*
X147961531Y-150543337D01*
X147982562Y-150512871D01*
X148006078Y-150478760D01*
X148030215Y-150443709D01*
X148053111Y-150410422D01*
X148072905Y-150381603D01*
X148073093Y-150381329D01*
X148092668Y-150352804D01*
X148115385Y-150319711D01*
X148139423Y-150284701D01*
X148162964Y-150250424D01*
X148184187Y-150219530D01*
X148185343Y-150217848D01*
X148202178Y-150192971D01*
X148217390Y-150169783D01*
X148230231Y-150149476D01*
X148239958Y-150133246D01*
X148245825Y-150122285D01*
X148247171Y-150118792D01*
X148247313Y-150114716D01*
X148246240Y-150108258D01*
X148243736Y-150098825D01*
X148239584Y-150085829D01*
X148233567Y-150068679D01*
X148225468Y-150046784D01*
X148215070Y-150019555D01*
X148202156Y-149986401D01*
X148186509Y-149946731D01*
X148167913Y-149899957D01*
X148153126Y-149862926D01*
X148135573Y-149819127D01*
X148118886Y-149777681D01*
X148103362Y-149739315D01*
X148089300Y-149704757D01*
X148076998Y-149674737D01*
X148066755Y-149649981D01*
X148058869Y-149631219D01*
X148053638Y-149619179D01*
X148051404Y-149614634D01*
X148045082Y-149608832D01*
X148035621Y-149603658D01*
X148021859Y-149598752D01*
X148002637Y-149593754D01*
X147976794Y-149588301D01*
X147951165Y-149583479D01*
X147897824Y-149573736D01*
X147844038Y-149563839D01*
X147790517Y-149553922D01*
X147737967Y-149544121D01*
X147687097Y-149534571D01*
X147638615Y-149525407D01*
X147593228Y-149516765D01*
X147551646Y-149508780D01*
X147514576Y-149501587D01*
X147482726Y-149495321D01*
X147456804Y-149490117D01*
X147437517Y-149486111D01*
X147425575Y-149483439D01*
X147421791Y-149482354D01*
X147413965Y-149475414D01*
X147411533Y-149471263D01*
X147411007Y-149465602D01*
X147410542Y-149452080D01*
X147410138Y-149431539D01*
X147409794Y-149404817D01*
X147409509Y-149372754D01*
X147409282Y-149336190D01*
X147409113Y-149295964D01*
X147409000Y-149252917D01*
X147408943Y-149207888D01*
X147408940Y-149161716D01*
X147408992Y-149115241D01*
X147409097Y-149069303D01*
X147409254Y-149024741D01*
X147409463Y-148982396D01*
X147409722Y-148943106D01*
X147410031Y-148907712D01*
X147410390Y-148877053D01*
X147410796Y-148851968D01*
X147411250Y-148833298D01*
X147411751Y-148821882D01*
X147412180Y-148818543D01*
X147415615Y-148814755D01*
X147421202Y-148811249D01*
X147429902Y-148807772D01*
X147442679Y-148804067D01*
X147460494Y-148799880D01*
X147484310Y-148794955D01*
X147515089Y-148789036D01*
X147542973Y-148783857D01*
X147580126Y-148777014D01*
X147621183Y-148769445D01*
X147663200Y-148761692D01*
X147703232Y-148754299D01*
X147738334Y-148747810D01*
X147746035Y-148746385D01*
X147776272Y-148740797D01*
X147805991Y-148735319D01*
X147833266Y-148730306D01*
X147856172Y-148726112D01*
X147872785Y-148723089D01*
X147875225Y-148722649D01*
X147918835Y-148714757D01*
X147954658Y-148708158D01*
X147983533Y-148702649D01*
X148006303Y-148698029D01*
X148023810Y-148694094D01*
X148036895Y-148690642D01*
X148046400Y-148687472D01*
X148053166Y-148684380D01*
X148058035Y-148681163D01*
X148061667Y-148677813D01*
X148066028Y-148671020D01*
X148073266Y-148657095D01*
X148082993Y-148636943D01*
X148094822Y-148611471D01*
X148108365Y-148581587D01*
X148123233Y-148548196D01*
X148139039Y-148512206D01*
X148155395Y-148474523D01*
X148171912Y-148436054D01*
X148188203Y-148397706D01*
X148203880Y-148360385D01*
X148218556Y-148324999D01*
X148231841Y-148292453D01*
X148243349Y-148263655D01*
X148252690Y-148239511D01*
X148259478Y-148220928D01*
X148263325Y-148208813D01*
X148264063Y-148204743D01*
X148264020Y-148201752D01*
X148263867Y-148198974D01*
X148263283Y-148195921D01*
X148261951Y-148192103D01*
X148259553Y-148187033D01*
X148255772Y-148180223D01*
X148250287Y-148171183D01*
X148242783Y-148159425D01*
X148232940Y-148144462D01*
X148220440Y-148125803D01*
X148204966Y-148102962D01*
X148186198Y-148075450D01*
X148163820Y-148042777D01*
X148137513Y-148004457D01*
X148106958Y-147959999D01*
X148071838Y-147908917D01*
X148063341Y-147896557D01*
X148035487Y-147855901D01*
X148009091Y-147817107D01*
X147984580Y-147780817D01*
X147962380Y-147747676D01*
X147942918Y-147718327D01*
X147926618Y-147693413D01*
X147913908Y-147673579D01*
X147905212Y-147659467D01*
X147900958Y-147651722D01*
X147900615Y-147650755D01*
X147900390Y-147648079D01*
X147901021Y-147644934D01*
X147902919Y-147640883D01*
X147906493Y-147635489D01*
X147912151Y-147628316D01*
X147920304Y-147618925D01*
X147931361Y-147606880D01*
X147945731Y-147591743D01*
X147963823Y-147573078D01*
X147986047Y-147550447D01*
X148012812Y-147523414D01*
X148044527Y-147491541D01*
X148081602Y-147454391D01*
X148124447Y-147411526D01*
X148127546Y-147408427D01*
X148171249Y-147364756D01*
X148209214Y-147326903D01*
X148241869Y-147294464D01*
X148269639Y-147267037D01*
X148292952Y-147244216D01*
X148312235Y-147225599D01*
X148327914Y-147210782D01*
X148340416Y-147199361D01*
X148350169Y-147190934D01*
X148357599Y-147185095D01*
X148363133Y-147181442D01*
X148367198Y-147179572D01*
X148370133Y-147179078D01*
X148374503Y-147180308D01*
X148382273Y-147184108D01*
X148393835Y-147190731D01*
X148409575Y-147200433D01*
X148429885Y-147213469D01*
X148455153Y-147230094D01*
X148485768Y-147250565D01*
X148522119Y-147275135D01*
X148564595Y-147304060D01*
X148613587Y-147337595D01*
X148650362Y-147362848D01*
X148693917Y-147392701D01*
X148735618Y-147421117D01*
X148774868Y-147447700D01*
X148811070Y-147472054D01*
X148843627Y-147493781D01*
X148871942Y-147512485D01*
X148895418Y-147527770D01*
X148913459Y-147539238D01*
X148925466Y-147546494D01*
X148930749Y-147549125D01*
X148935566Y-147549197D01*
X148943152Y-147547779D01*
X148954193Y-147544619D01*
X148969376Y-147539465D01*
X148989388Y-147532067D01*
X149014917Y-147522173D01*
X149046650Y-147509530D01*
X149085273Y-147493888D01*
X149116870Y-147480981D01*
X149155747Y-147465069D01*
X149193964Y-147449448D01*
X149230348Y-147434595D01*
X149263725Y-147420987D01*
X149292925Y-147409103D01*
X149316775Y-147399420D01*
X149334101Y-147392417D01*
X149338388Y-147390695D01*
X149360624Y-147381139D01*
X149379506Y-147371781D01*
X149393167Y-147363598D01*
X149398363Y-147359370D01*
X149400976Y-147356222D01*
X149403466Y-147351998D01*
X149405995Y-147345978D01*
X149408724Y-147337443D01*
X149411814Y-147325672D01*
X149415428Y-147309946D01*
X149419726Y-147289544D01*
X149424871Y-147263746D01*
X149431022Y-147231833D01*
X149438343Y-147193083D01*
X149446995Y-147146778D01*
X149451604Y-147122000D01*
X149459793Y-147077962D01*
X149467619Y-147035928D01*
X149474913Y-146996802D01*
X149481506Y-146961486D01*
X149487230Y-146930882D01*
X149491916Y-146905895D01*
X149495395Y-146887426D01*
X149497498Y-146876380D01*
X149497851Y-146874569D01*
X149500921Y-146858801D01*
X149504739Y-146838847D01*
X149508327Y-146819827D01*
X149512101Y-146799676D01*
X149516658Y-146775386D01*
X149521158Y-146751428D01*
X149522239Y-146745677D01*
X149527261Y-146722973D01*
X149532552Y-146706199D01*
X149537677Y-146696717D01*
X149537969Y-146696410D01*
X149539824Y-146694905D01*
X149542569Y-146693602D01*
X149546804Y-146692486D01*
X149553134Y-146691544D01*
X149562161Y-146690760D01*
X149574487Y-146690121D01*
X149590715Y-146689611D01*
X149611447Y-146689216D01*
X149637286Y-146688921D01*
X149668834Y-146688713D01*
X149706695Y-146688576D01*
X149751470Y-146688496D01*
X149803762Y-146688458D01*
X149864173Y-146688448D01*
X149868099Y-146688448D01*
X149936973Y-146688510D01*
D14*
X99060000Y-149899000D03*
D15*
X101600000Y-149899000D03*
X104140000Y-149899000D03*
X106680000Y-149899000D03*
X109220000Y-149899000D03*
X111760000Y-149899000D03*
X114300000Y-149899000D03*
X116840000Y-149899000D03*
D14*
X121920000Y-149899000D03*
D15*
X124460000Y-149899000D03*
X127000000Y-149899000D03*
X129540000Y-149899000D03*
X132080000Y-149899000D03*
X134620000Y-149899000D03*
D14*
X134620000Y-101639000D03*
D15*
X132080000Y-101639000D03*
X129540000Y-101639000D03*
X127000000Y-101639000D03*
X124460000Y-101639000D03*
X121920000Y-101639000D03*
X119380000Y-101639000D03*
X116840000Y-101639000D03*
D14*
X112776000Y-101639000D03*
D15*
X110236000Y-101639000D03*
X107696000Y-101639000D03*
X105156000Y-101639000D03*
X102616000Y-101639000D03*
X100076000Y-101639000D03*
X97536000Y-101639000D03*
X94996000Y-101639000D03*
X92456000Y-101639000D03*
X89916000Y-101639000D03*
D14*
X89916000Y-111799000D03*
D15*
X92456000Y-111799000D03*
X94996000Y-111799000D03*
X97536000Y-111799000D03*
X100076000Y-111799000D03*
X102616000Y-111799000D03*
X105156000Y-111799000D03*
X107696000Y-111799000D03*
D16*
X107520000Y-138450000D03*
X104120000Y-125900000D03*
X153620000Y-125900000D03*
D17*
X114370000Y-124400000D03*
X112870000Y-116900000D03*
X110370000Y-122900000D03*
X107870000Y-121400000D03*
X109870000Y-115900000D03*
X114120000Y-120400000D03*
X113370000Y-133900000D03*
X143370000Y-139400000D03*
X140370000Y-108900000D03*
X113120000Y-112400000D03*
X110370000Y-119400000D03*
X115870000Y-116900000D03*
X121370000Y-112900000D03*
X114870000Y-109650000D03*
X117870000Y-109900000D03*
X120120000Y-106650000D03*
X124120000Y-112400000D03*
X133120000Y-112900000D03*
X124120000Y-108650000D03*
D16*
X150220000Y-113400000D03*
X140620000Y-147700000D03*
X140620000Y-104100000D03*
X150220000Y-138450000D03*
D18*
X89870000Y-119670000D03*
D19*
X89870000Y-122210000D03*
X89870000Y-124750000D03*
X89870000Y-127290000D03*
X89870000Y-129830000D03*
X89870000Y-132370000D03*
X89870000Y-134910000D03*
X89870000Y-137450000D03*
X89870000Y-139990000D03*
X89870000Y-142530000D03*
X89870000Y-145070000D03*
X89870000Y-147610000D03*
X89870000Y-150150000D03*
D17*
X125370000Y-105100000D03*
X128870000Y-105800000D03*
M02*
